<?xml version="1.0" encoding="utf-8"?>
<!-- Generator: Adobe Illustrator 16.0.0, SVG Export Plug-In . SVG Version: 6.00 Build 0)  -->
<!DOCTYPE svg PUBLIC "-//W3C//DTD SVG 1.1//EN" "http://www.w3.org/Graphics/SVG/1.1/DTD/svg11.dtd">
<svg version="1.1" id="WORT-_x2F_BILDMARKE_sRGB" xmlns="http://www.w3.org/2000/svg" xmlns:xlink="http://www.w3.org/1999/xlink"
	 x="0px" y="0px" width="415.179px" height="197.572px" viewBox="0 0 415.179 197.572" enable-background="new 0 0 415.179 197.572"
	 xml:space="preserve">
<polygon id="Bildmarke_183_x2F_0_x2F_50" fill="#B70032" points="292.288,115.25 292.288,131.715 349.322,98.786 292.288,65.857 
	292.288,82.321 320.805,98.786 "/>
<polygon points="90.554,84.529 98.787,84.529 82.322,113.047 65.857,84.529 74.089,84.529 82.322,98.788 "/>
<path d="M217.754,83.819c-8.269,0-14.972,6.703-14.972,14.972c0,8.269,6.703,14.971,14.972,14.971
	c8.269,0,14.972-6.703,14.972-14.971C232.726,90.522,226.023,83.819,217.754,83.819z M217.755,106.668
	c-4.351,0-7.878-3.527-7.878-7.878c0-4.351,3.527-7.877,7.878-7.877c4.351,0,7.878,3.527,7.878,7.877
	C225.633,103.142,222.105,106.668,217.755,106.668z"/>
<path d="M155.121,106.668c-4.351,0-7.878-3.527-7.878-7.878c0-4.351,3.527-7.877,7.878-7.877c2.174,0,4.143,0.881,5.568,2.305
	l5.016-5.016c-2.709-2.708-6.451-4.383-10.584-4.383c-8.269,0-14.972,6.703-14.972,14.972c0,8.269,6.703,14.971,14.972,14.971
	c4.136,0,7.879-1.676,10.589-4.387l-5.016-5.016C159.268,105.786,157.297,106.668,155.121,106.668z"/>
<polygon points="171.446,90.946 181.071,90.946 181.071,113.047 188.201,113.047 188.201,90.946 197.825,90.946 197.825,84.529 
	171.446,84.529 "/>
<polygon points="108.069,113.047 130.17,113.047 130.17,106.63 115.198,106.63 115.198,101.64 126.891,101.64 126.891,95.366 
	115.198,95.366 115.198,90.946 130.17,90.946 130.17,84.529 108.069,84.529 "/>
<path d="M270.187,94.047c0-5.25-4.255-9.518-9.505-9.518h-17.587v28.518h7.129v-9.482h6.244l5.487,9.482h8.231l-5.899-10.231
	C267.748,101.395,270.187,98.02,270.187,94.047z M260.023,97.22h-9.798v-6.346h9.796c1.689,0.074,3.037,1.466,3.037,3.173
	C263.058,95.753,261.711,97.145,260.023,97.22z"/>
</svg>
