<svg xmlns="http://www.w3.org/2000/svg" viewBox="0 0 2986.68 3911.52"><defs><style>.cls-1{fill:none;stroke:#72b62b;stroke-miterlimit:10;stroke-width:1.5px;}</style></defs><title>brainbow-green</title><g id="Layer_2" data-name="Layer 2"><g id="Layer_5" data-name="Layer 5"><g id="grün"><path class="cls-1" d="M1902.76,3846.57c-163.84-99.93-316.21-263.42-304.13-455,4.8-75.63,35-146.89,64.14-216.85,109.3-262.19,210.25-534.43,220.34-818.29,9-252.85-54.8-505.71-28.94-757.36,13.69-133.18,52.39-264.68,44.18-398.24-5.47-88.87-31.43-175-58.69-259.89q-58.57-182.09-125.73-361.43c-62.9-167.87-130.52-359.91-47.57-518.75"/><path class="cls-1" d="M1896.43,73.65c35.71,94.61,33,203-7.32,295.74-35.86,82.59-98.7,150-146.8,226.09s-82,170.84-51.44,255.48c21.92,60.68,73,105.21,115.42,154,105,120.54,162.68,276.74,186.12,434.91s14.7,319.23-.25,478.31C1979,2059,1961,2200,1923.41,2336.54c-54.45,197.79-148.66,381.9-242.19,564.4-58.79,114.62-118,229.93-196.53,331.85-87,112.87-200,213.67-237.83,351.07"/><path class="cls-1" d="M868.57,3849.78c82-22.34,149-84.2,194-156.24s70.88-154.28,94.34-236c61.16-212.93,109.77-437.59,65.91-654.76-17-84.21-47.58-164.95-74.52-246.51-31.41-94.83-58-191.09-87.63-286.44A4937,4937,0,0,0,613.4,1251.41"/><path class="cls-1" d="M558.25,2141.62c21.3-19.31,56.93-12.6,78.24,6.68s31.75,47.43,41.5,74.48c44,122.17,87.91,244.73,119,370.77,15.53,62.72,27.78,126.55,49.7,187.34,60.19,167.58,191.83,305,349.67,387.44,53.65,28,110.67,50.41,160.06,85.55,53.81,38.31,96.38,90.29,135.67,143.38,121.07,163.46,227.08,351.69,407,446.44"/><path class="cls-1" d="M2076.25,3842.84c-17-146.11-86.2-280.34-154.29-410.78q-134.43-257.74-268.75-515.47-73.65-141.21-147.21-282.42c-45.06-86.46-90.33-173.22-144.26-254.43-44.46-67.06-94.6-130.1-140.25-196.35-201.77-293.13-316.08-651.22-577.07-893.23"/><path class="cls-1" d="M1637,104.13c-25.8,130.64,14.73,268,87.43,379.64s175.27,200.37,282.2,279.7c75.4,55.9,156.19,110.57,203.73,191.62,34.41,58.62,48.48,126.64,74.51,189.41,33,79.93,84.9,150.65,122.12,228.75a686.84,686.84,0,0,1,61,379c-9.69,77-32.39,151.67-44.68,228.24-23.13,144.63-7.31,297.74,60.18,427.88s189.25,234.29,332.32,265.73c58.77,12.89,123.58,15.24,170.39,53"/><path class="cls-1" d="M2714.16,2981.93c-55.73-42.1-134.87-31-199.8-56.53-58.82-23.09-101.4-74.26-139.37-124.86-83.09-110.86-158.55-234.46-172.39-372.29-10.88-108.34,17.34-217.1,13.46-326-5.89-166.27-85.82-321.75-102.9-487.26-14.34-139.23,16.4-281-5.14-419.38-21-134.79-91-260.52-96-396.89-6.43-173.67,92.43-331.7,187.56-477.21,31.54-48.27,64.28-97.74,111.2-131.2"/><path class="cls-1" d="M1488.31,126.73q314.17,433.18,660.5,841.89c24.45,28.87,49.21,57.84,67.69,90.84,17.37,30.91,28.85,64.65,45,96.16,25,48.87,60.39,91.48,90.33,137.42,85.2,130.95,124.46,291.14,109.38,446.62-3.51,36.32-9.91,72.85-5.92,109.23s20.39,73.49,52,91.92c20.66,12.09,45.38,14.86,69.2,17.73a2087.93,2087.93,0,0,1,376,81.19"/><path class="cls-1" d="M2872.19,2723.88c-197.24-25.65-368.91-188.23-405.35-383.74-14.31-76.72-9.43-155.55-4.55-233.38L2483,1776.34c6.73-107.54,13.14-218.27-21.21-320.49-44.3-132-150-232.1-244.49-334.4s-185.1-223.62-186.44-362.91c-.9-93.2,38.83-181.41,77.68-266,51.8-112.88,107-230.07,204.47-307"/><path class="cls-1" d="M2124.76,96.53c41.68,201.78-6.36,420.44-129,586-20.16,27.21-42.61,53.73-54.34,85.59-33.71,91.68,29.8,186.94,62.49,279C2050.43,1178.14,2034,1322,2017,1460q-48.88,397-97.66,794.13c-15.33,124.78-31.75,253-91.86,363.5s-175,200.54-300.57,193.41c-82.63-4.76-157.47-49.66-223.24-99.91-50.91-38.83-99.44-82.57-132.93-137.09-95-155.2-47.7-356-86-533.95-30.25-140.94-113.61-263.8-195.14-382.56L573.1,1196.32"/><path class="cls-1" d="M327.88,2372.45C157.23,2439.26,48.48,2635.84,82.44,2816c7.41,39.16,23.63,80.88,58.93,99.39,63.28,33.26,134.36-26.72,177.66-83.65,144.89-190.58,250.12-409.84,404.24-593.07C780,2171.13,843,2109.2,903.54,2045.07c308.26-326.35,562.33-727.51,609.45-1174,7.43-69.84,9.65-140.55,25.69-208.94,14.67-62.48,40.35-121.62,60.73-182.43a1099,1099,0,0,0,54.16-419.59"/><path class="cls-1" d="M2089.66,3901.27c27.27-249-121.55-478.56-249.71-694-150.85-253.4-280.77-518.71-404.3-786.45-41.18-89.18-81.86-179.37-105.57-274.74-39.14-157.59-30.33-323.94,1.82-483,13.54-66.77,31.59-134,68.38-191.37,58-90.51,162.4-149.47,269.89-152.24,28.5-.75,58,2.49,82.89,16.26C1783,1352.27,1803,1382,1819.37,1412a607.92,607.92,0,0,1,51.88,127.73c6.73,24,12.16,48.94,25.77,69.76,13.61,20.63,34.09,35.52,54.47,49.61,285.46,197.28,620.63,322.19,965.53,359.85"/><path class="cls-1" d="M2880.88,2703.83c-219.48-32.43-407.17-218.93-441.14-438.15-8.91-57.35-8.12-115.66-7.73-173.66.79-113.71.49-227.51-4.72-341.18-4.18-90.18-11.57-180.94-37.23-267.41-30.35-102.54-85.35-195.85-139.84-288Q2187.41,1089.31,2124.59,983c-46.22-78.15-92.74-156.71-150.71-226.6-41.47-50-89.31-96.22-117-155-41.67-88.38-31.44-194.34,5.28-284.83s97.4-169,157.39-246.24"/><path class="cls-1" d="M1856.94,74.26c45.44,82.66,60.47,181.38,43.26,274.07-15.36,82.38-54.66,158.09-93.46,232.4-65.63,125.65-131.26,251.3-201.91,374.18-151.69,264.11-329.64,519-567.53,709-32.66,26.07-69.62,52-111.43,51.5-71.61-.82-116.6-74.18-153.33-135.58a1267.78,1267.78,0,0,0-173.32-227.38"/><path class="cls-1" d="M353.35,2367.41a714,714,0,0,0-201.18,173.68c-54.73,69-95.9,169.81-44.61,241.44,50.88,71,164.84,63.62,234.76,11.25S451.41,2659,496.51,2584.25c163.06-270.17,427.42-466.79,596.8-733,59-92.72,105.77-192.87,165.38-285.19,129.43-200.59,319.78-361.31,539.18-455.38,29.63-12.76,62.57-24.43,93.52-15.3,35.86,10.51,59.05,47,65.45,83.85s-.8,74.41-6.91,111.34a2142.58,2142.58,0,0,0-19.44,555.31c17.9,186.91,59.53,381.09-3.62,557.93-39,109.11-114.83,200.72-169.69,302.81s-87.68,229-35.33,332.39c26.28,52,71,91.62,111.21,133.71,171.26,179.79,270.38,426.66,270.91,675.06"/><path class="cls-1" d="M1894.23,3839.51c-150.3-93.2-204.17-292.81-188.6-469s88.18-341.38,141-510.26c140.5-449.36,140.82-934.26,56.64-1397.52S1653,555.05,1465.49,123.25"/><path class="cls-1" d="M1082.76,550.09c100.33,79.87,248.5,37.27,372.28,70.41,46.57,12.45,89.39,35.72,131.72,58.9q179,97.75,358.15,195.39c59.77,32.58,120.45,65.86,168.61,114,43,43.07,74.31,96.2,105.1,148.74l153.8,262.28c27.85,47.55,56,95.8,70.2,149,20.92,78.59,9.76,161.55,5.39,242.67a1437.79,1437.79,0,0,0,87.07,575c29.73,80.34,67.75,159.44,127,221.23s142.76,104.74,228.13,99.28"/><path class="cls-1" d="M2744.61,2971.76c-87.3,37.07-192,14.42-269.32-40.56s-130.54-137.91-169.3-224.5c-36.33-81.21-69.94-176.33-151.93-210.69-111.25-46.71-228.34,48.52-347.55,67.36-133.59,21.11-267.33-60.37-344.42-171.46S1354,2144.77,1331,2011.49c-12.59-72.93-23.38-147-16.88-220.71,14.33-163.38,112.55-309.1,232.56-420.85,43-40.13,89.29-77,127.35-121.88,44.12-52,75.9-113.31,107.27-173.87q132-255.11,263.88-510.22c23-44.32,46.12-89.25,57.27-137.91,13.78-60.17,8.74-123.65,24.92-183.24s64.77-118.55,126.39-115.08"/><path class="cls-1" d="M342.45,2348.67c10.16,47.95-115.12,90.92-145.88,116.88-65.11,55-109.5,150.59-134.67,230.12-6.59,20.94-12.17,42.87-9.75,64.75,2.41,21.09,12.22,40.84,25.31,57.47,50.95,64.63,148.22,78.71,225.27,49.8s136.11-92.53,181.54-161.07,80.13-143.83,126.27-212a752.85,752.85,0,0,1,170-178.91c61-45.93,129.06-82.79,184.18-135.58,130.73-125.2,167.52-316.1,238.73-482.48,68.65-160.37,172.79-302.93,254.06-457.26S1598.09,910,1566,738.42c-2.26-12-5.23-24.57-13.78-33.33-7.94-8.16-19.36-11.7-30.28-14.64-155.63-42.67-332-48.23-452.34-155.69"/><path class="cls-1" d="M515.73,3637.46a3223.91,3223.91,0,0,0,413.4-75.71c58.42-14.71,117.53-31.53,167.55-65.1,47.83-32.16,84.79-77.85,128-116,100.73-89,233.48-135.15,334.91-223.39,103.92-90.36,166.94-217.59,227.08-341.52,90.6-186.89,182.74-386.78,159.74-593.16-13.24-119.23-64.64-231.76-76.87-351.09-18.14-176.61,49.94-348.87,92.72-521.2s55.12-371.9-55.92-510.41c-41.28-51.48-98.09-92.18-124.62-152.64-43.83-100.07,9.56-213.55,60.35-310.13S1942.52,163.9,1892.5,66.77"/><path class="cls-1" d="M903.32,3841.9c77.76-63.12,146.66-138.38,195-226.14,42.19-76.63,67.84-161.16,89.29-246,68.16-270,95.66-552.22,58.58-828.22s-140.51-545.66-315.27-762.43c-71.68-88.92-154.7-168.48-222-260.82s-119.18-201.57-115.79-315.79"/><path class="cls-1" d="M1898.15,3805.79c-137.53-61.57-233.8-206.16-237.51-356.74-1.54-63.19,11.73-125.66,25-187.54,35-163.29,70.45-328.08,140.34-479.76,52.49-114.08,124.33-220.57,155.38-342.33,53.28-209.29-21.69-428.39-19-644.31,2.35-195.92,68.82-390,46.28-584.66C1984.28,999.89,1859.8,817,1761.4,629.28S1587.9,217.5,1667.45,21.07"/><path class="cls-1" d="M2096.46,3882.33c20.18-173.21-15.48-352.52-100.5-504.87-53.82-96.41-126.07-181.23-183.87-275.22-118.83-193.07-173.13-418.38-270.63-623.07-70.79-148.72-164.73-287-218.66-442.64s-62-339.87,32.77-474.58c114.14-162.31,335-202.89,533.07-213.55,64-3.44,134.46-7.82,180.52-52.36,21.69-21,35.54-49.19,43.78-78.23,39.46-138.11-38-279.3-64.84-420.46-35.91-188.91,20.06-381.81,75.58-565.91,18.08-60.1,53.29-132.89,115.91-129.52"/><path class="cls-1" d="M1255.79,3853.92q16.3-37.89,32.7-75.78c16.79-39,33.88-79,36.35-121.4,6.15-102.53-76.83-193.49-172.63-230.58s-202-32.52-304.55-27.38l-179.55,9.06"/><path class="cls-1" d="M1176.71,3762.64c-64.46-123.66-78.85-272.48-39.17-406.2,21.71-73.22,58.65-141.21,79.46-214.63,36.81-129.2,22-266.52,14.66-400.68a3448.17,3448.17,0,0,1,104.51-1047.67c13.33-51.47,28.35-103.85,59.42-147,90.63-126,281-132.6,393-240,77.8-74.62,106.11-186.67,119.34-293.64s15.64-217.39,55.61-317.5c45.69-114.25,138.09-208.54,165.25-328.49,11.82-52.06,10.53-106.46,23.56-158.23S2197.9,104.64,2249.53,91"/><path class="cls-1" d="M1608.72,3894.84c89.45-159.58,37.49-357.71,53.32-539.89,23.46-270.63,197.32-502.56,282.95-760.42a1199.76,1199.76,0,0,0,59.78-323c9.66-214.05-38-425.9-63.81-638.67-16.74-138.31-24.28-277.77-25.13-417.17-1.14-194.5,11.21-391.37,69.62-576.88s166.68-360.19,327.1-470.15"/><path class="cls-1" d="M2338,3642.94c-51.28-52.53-68.29-128.34-96.25-196.29-103.75-252.15-362.74-399.77-537.56-609a1059.62,1059.62,0,0,1-144.41-225.83c-52.09-110-85.12-228.85-144.49-335.13-43.92-78.57-101.39-148.56-158.47-218.06Q1095.57,1862.35,934.42,1666c-133.67-162.79-269.16-328.37-351.59-522.23"/><path class="cls-1" d="M447,1971.81a241,241,0,0,0,143.22-14.46c17.06-7.29,33.41-16.68,51.59-20.38,59-12,114.52,41.59,129.63,99.91s1.94,119.59-5.64,179.33c-36.56,288.6,67.86,591.85,274.35,796.75,189.1,187.59,454.68,294.58,610.93,510.35,58.83,81.29,101.14,176.86,178.39,241"/><path class="cls-1" d="M2080.42,3819.52c-3.05-253.69-155.27-481-325.27-669.17-59.45-65.78-122-129.25-173.88-201.08C1442.34,2756.91,1388.67,2517.79,1338,2286c-29.83-136.64-59.77-275.38-51-414.93s61.59-282.53,170.73-369.92c107.44-86.07,252.13-106.85,389.38-116.58,47.38-3.35,100.06-8.13,131.77-43.4,34.6-38.39,30.38-97.06,22.21-148.12-23.08-145.38-60.56-292.08-39.94-437.89C1989,558,2117.94,392.27,2242.31,236.8"/><path class="cls-1" d="M2653.1,2970.35c-150.93-62-310.1-130.55-403.42-264.35-67.72-97.14-92.17-218.31-98.4-336.58s4.34-236.93-.9-355.2c-7.39-167-46.07-331.16-55.16-498-10.54-194.35,18.9-393.51-31.8-581.44-34.89-129.22-107.2-262.63-63.18-389.07,52-149.18,246.93-219.52,280.21-374"/><path class="cls-1" d="M1244.57,3812.48c34.14-49,69.46-101.17,73.44-160.69,6.76-100.34-74.87-181.6-121.25-270.86-105.89-203.74-26.39-448.77-11.82-677.95,15.22-239.08-43.54-476.87-46-716.36-1.24-119.89,12.51-242.57,64.43-350.65,127.39-264.78,453.24-387.82,584.84-650.53,55.31-110.4,71.54-237.29,127.75-347.29,78.48-153.62,236.29-284.16,222.77-456.1"/><path class="cls-1" d="M669.76,3717.94c199.41.54,391.36-139.49,451.75-329.51,25.57-80.34,29.21-166.06,49.58-247.87,25.07-100.24,74.77-192.6,104.95-291.36,30.37-99.46,40.41-204,43.16-307.93,2-75,.09-151.1-20.19-223.4-18.76-66.7-52.48-128-86-188.64L1038.2,1812.75C999.63,1743,961,1673,915.6,1607.4c-87.88-126.93-199.76-235.84-320.77-331.79"/><path class="cls-1" d="M317.74,2365.3a1243.69,1243.69,0,0,0-216.32,221.06c-30.59,40.26-59.16,83.32-73,131.89s-11.35,104,17,145.91c38.51,57.1,118,76.57,184.31,58.22s120.14-68,159.54-124.45S456,2677.77,487.58,2616.7c60.58-117.22,138.79-227,240.95-310.69s229.66-139.53,361.65-142.33c19-.4,38.6.39,55.65,8.7,17.35,8.41,30.33,23.54,42.41,38.57,75.3,93.6,137.26,198.17,219.63,285.73,94.84,100.8,213.64,175.76,314.35,270.63,102.42,96.45,186.94,213.91,305.25,290.18,141.79,91.44,330.76,123.74,425.71,263.33"/><path class="cls-1" d="M197.31,3242.16c20.06-158,44.66-326.54,150.42-445.61,38.57-43.41,86.09-77.86,129.08-116.89,163.61-148.48,256-357.17,367.88-547.77a2745,2745,0,0,1,421.09-545.75c62.27-62.53,129.14-124.29,164.41-205.18,23.32-53.23,31.4-111.77,37.1-169.6a2437.62,2437.62,0,0,0-18.74-626.91c-1.45-8.79-4-19-12.22-22.24-6.91-2.76-14.6.78-21.28,4.11-126,61.77-286.06,46.53-398-38.08"/><path class="cls-1" d="M329.68,2391A1368.81,1368.81,0,0,0,28,2703.65C14.74,2722.82,1.45,2743.6.78,2766.9c-.84,29.7,19,55.8,39.12,77.69C94.31,2903.9,168.39,2957,248.24,2947c81.35-10.13,139-80.54,198.37-137.06a751.51,751.51,0,0,1,189.1-131.41c45.68-22.24,99.59-39.83,146.2-19.68,61.94,26.77,80,103.37,103.29,166.75,44.14,119.77,134.88,221.68,248.89,279.28,90.14,45.52,196.36,66.25,267.44,138,26.44,26.66,46.22,59.05,66.88,90.44a1820.49,1820.49,0,0,0,382.45,421.17c9.44,7.65,9.66,30.25-.37,23.5"/><path class="cls-1" d="M1265.91,3818.86c30.42-15.86,36.7-55.8,39.32-89.91l5.9-75.93c3.56-45.42,4.18-98.32-30.78-127.64-28.83-24.25-71.92-22.12-107.66-10-20.26,6.81-39.71,16.41-56.44,29.7-16.23,12.89-29.55,28.86-42.86,44.83q-68.71,82.57-137.52,165.24"/><path class="cls-1" d="M886.71,3821.39a2393.49,2393.49,0,0,0,362.6-357.44c62.2-75.93,120.26-157,154.57-249,55.7-149.5,44-314.44,31.57-473.48-11.59-148.64-23.39-298.18-59.66-442.79-22.48-89.38-54.14-176.41-72.42-266.72a928,928,0,0,1-15.76-255.42c6.74-87,26.76-175.35,75.68-247.61,69-101.87,188.45-160.71,309.43-182.75s245.34-11.71,368-1.26c16.61,1.41,34.32,3.22,47.27,13.65,18.28,14.7,21.12,41.09,22,64.48,3.47,88.48.57,181.5,42,259.78,42.53,80.47,124.8,131.24,205.82,172.8a2119.22,2119.22,0,0,0,615.8,204.22"/><path class="cls-1" d="M2891.07,2702.68c-94.16-10.3-179.82-60.34-252.55-121.05-60.17-50.28-114.39-109.39-149.36-179.61-66.92-134.34-57.36-292.4-47.06-442.06,10.39-151.76,19.87-304.91-2.53-455.39s-79.3-299.88-185.38-408.82c-52.59-53.92-115.72-96.68-168.8-150s-97.45-122.18-97.25-197.48c.14-48,18.3-94.1,38.47-137.71A1377.15,1377.15,0,0,1,2317.32,201.1"/><path class="cls-1" d="M2106.72,183.33c41.51,113.48,34.52,246.82-30.84,348.37-62.58,97.34-168.47,156-263.62,221.81-216.5,149.86-394.21,355.31-511.35,591.14-27.41,55-52,112.58-91.65,159.49-65.69,77.75-171.87,119.32-272.83,106.86s-193.92-78.47-238.71-169.83c-25-50.87-36.59-109.61-73.71-152.51-4.23-4.88-10.85-9.74-16.33-6.41"/><path class="cls-1" d="M1051.9,557.46c241-5.19,444.68,163.33,656.2,278.8,68.2,37.24,141.38,71.25,191.1,130.88,33.21,39.82,53.67,88.51,72.93,136.61q60.51,151,111.63,305.71c68.2,206.34,124.18,426.34,80.21,639.08-27.3,132-92,270.49-40.49,395.12,37,89.7,125.28,146,184.09,223.22,48.64,63.84,77.66,142.69,136.06,197.68,72.46,68.21,176.87,87.86,275.54,100.83"/><path class="cls-1" d="M1162.06,605.07c153.34,26.18,290.49,109.65,416.68,200.48s247,191.48,386.49,260.14c68.38,33.64,140.82,59.45,206.53,98,171.94,101.08,287.07,292.67,295.43,492,3.21,76.28-5.44,161.53,43.77,220,21.34,25.29,50.92,41.83,80.11,57.47Q2762,2025,2940.37,2101.81"/><path class="cls-1" d="M2061.21,3779.42a692.22,692.22,0,0,0-69.27-294.23c-31.75-65.33-73.57-125.11-115.29-184.69Q1637.37,2958.57,1398,2616.74c-88.48-126.33-177.56-253.86-238-395.84-35.85-84.21-61.22-172.58-97.67-256.48-57.1-131.6-140.24-250-223.36-366.91q-119.85-168.56-241.1-335.92"/><path class="cls-1" d="M1985.2,3608.62c1.08-79.21-32.52-154.33-67-225.55-169-348.8-377.22-676.9-589.45-1001.17-109.59-167.42-220.89-335.13-300.47-518.8-24-55.47-45.2-112.46-77.17-163.79C917.91,1646.09,874,1600.42,830,1555.56q-92.3-94.31-186.6-186.61"/><path class="cls-1" d="M304.29,2319.47C223.56,2389.1,143.56,2463.53,94.06,2558S30.4,2771.74,82.9,2864.56c16,28.32,38.39,53.9,67.56,68.24,59.66,29.38,134.23,4.38,183.29-40.48s79-106.22,111.52-164.3a1633.42,1633.42,0,0,1,337.56-419.91C841,2256.31,903,2208.48,956.61,2152c129.27-136.39,201.92-315,293.95-478.88a2183.46,2183.46,0,0,1,186.81-279.5c57-72.41,119.64-142,197.18-191.65,76.64-49,164.89-76.68,253.48-97.65,65.12-15.45,132-27.6,198.58-22.16,175.88,14.26,330.69,165.84,348.63,341.34,13.71,133.93-42,278.43,17.73,399,64.9,131.06,231.5,167.57,376.11,188.9"/><path class="cls-1" d="M834.63,3843a603.46,603.46,0,0,0,256.73-219.17c23.31-35.72,42.91-74,70-107.08,52.66-64.18,133.24-104.61,216.23-108.36,38.69-1.81,80.13,5.17,109.27,30.72,41,36,46.51,96.35,55.3,150.21a718.22,718.22,0,0,0,71.45,214.52"/><path class="cls-1" d="M1649.15,3825.22c41.3-36.82,31.75-102.67,18.77-156.5q-18.41-76.55-36.92-153.21c-13.29-55.13-26.89-111.06-55.55-160s-74.79-90.7-130.74-100.1c-38.74-6.49-79.89,2.63-116.76-10.58-63.72-22.86-89.54-101.42-147.43-136.52-43.94-26.57-100.43-23.86-148.84-6.71s-90.75,47.38-134.2,74.82A1365,1365,0,0,1,482,3350.54"/><path class="cls-1" d="M699.49,3404.18a468.35,468.35,0,0,0,276.86-26.68c34.62-14.68,67.92-33.66,104.78-41.16,94.2-19.3,187.11,39.4,283.23,42.09,104.92,2.94,199-60.06,284.76-120.52,47-33.15,94.94-67,129.5-113.09,29.19-38.86,47.55-84.65,65.61-129.85q109.09-273.44,218.09-546.77c36.51-91.5,73.42-184.79,80.19-283,13.64-198.38-96.88-389-87.54-587.64,5.83-124.73,58.9-244.52,58-369.41-1-155.8-85.7-300.55-95.83-456.1-14.91-227.22,129.49-433.1,286.21-598.34"/><path class="cls-1" d="M1001.47,3495c43.77-81.33,149-106.6,241.35-104.49s186.82,22.4,275.69-2.87c121.92-34.65,205.91-148.9,250.08-267.74s57.48-246.81,92.84-368.5c51.85-178.28,150.08-341.11,193.42-521.64,87.36-364-58.45-739.5-80.54-1113.19-6-102-4.93-211.58-63-295.57C1875,768.57,1820,732.86,1773.52,689.11,1612.91,537.77,1568.71,276.8,1670.57,81"/><path class="cls-1" d="M622.34,1203.06A4078.05,4078.05,0,0,0,841.62,1573.3c27.12,40.66,56.94,82.7,101.25,103.56,49.63,23.44,109.48,15.42,158.76-8.55s90-62.38,128.76-101a3419.68,3419.68,0,0,0,405.71-487c26.49-38.64,52.48-78.28,67.85-122.56,39.79-114.71,4-246.12,48-359.36,30.19-77.66,95.16-138.61,121.14-217.75,19.29-58.6,16.33-125,48.25-177.86,26.37-43.54,76-78.71,74.81-129.6"/><path class="cls-1" d="M1874.56,59.26c35.4,150.51,2.38,315.79-88.15,441.28-36.43,50.4-81.4,94.54-113.51,147.71-30.23,50.06-48,106.46-66,162.05-108.61,335.58-245.87,680.92-517.17,906.37-33.25,27.58-69.11,53.67-110.65,65.79s-89.66,8.48-123.1-18.94c-29.33-24.14-43.13-62.07-53.53-98.52-13.45-47-23.91-95.57-46.24-139.16s-58.94-82.79-106.51-94.63"/><path class="cls-1" d="M398.13,1857c116.63-13.72,256.91-17.77,326,77.16,48.76,67,41,157.68,53.18,239.62,22.1,149.68,114.09,278.4,203.24,400.62,82.91,113.66,180.46,236.54,319.58,257.7,138.41,21.06,273.65-67.16,413.4-57.61,12.1.84,24.61,2.37,36.19-1.19,33.15-10,41.32-52,45.64-86.34,10.27-81.16,31.14-162.17,72-233.09,29.72-51.66,69.58-97.27,94.79-151.21,68.62-146.77,16.5-318.29,15.14-480.29-1.12-135.2,34.17-267.59,53.36-401.39s20.52-277-43.11-396.28c-44.45-83.36-116.79-147.88-171.5-224.89-14-19.73-27.32-42.05-26.25-66.16,2.69-57.72,75.49-77.6,127.66-102.38,171.67-81.32,189.18-323.41,323.66-457.53"/><path class="cls-1" d="M2366.93,3538.59c-83.46-11.65-170.23-24.49-239.89-71.92-43.76-29.77-78-71.48-109.71-113.82a1935.35,1935.35,0,0,1-160.85-253c-37.27-70.1-73.18-145.81-139.12-190.06-38.14-25.6-83.51-38.36-128.85-45.91a650,650,0,0,0-209.71-.48c-55.45,9-113.47,24.91-166.47,6.29-37.87-13.3-67.83-42.94-92.7-74.51C1013.12,2659.2,983,2480.25,956.25,2309.59Q905.16,1982.86,854.06,1656c-22.78-146-47.89-297.65-133.13-418.3"/><path class="cls-1" d="M2614.28,2986.26c-151.53-99.19-254.86-254.84-374.49-390.81-46.58-53-105.27-107.24-175.76-104.06-50.59,2.27-94.42,34-141.93,51.76-112.48,41.9-242.9.5-335.21-76.31s-153.48-183.88-208.55-290.59c-33.75-65.32-66.21-132.15-83.39-203.66-38.56-160.3,6.5-337.44,113.43-463s272-198,437-196.43c82,.76,177.38,14.05,233.86-45.45,41.17-43.42,44.11-110.24,37.5-169.7-14.39-128.63-61.44-251.08-93.51-376.51-5-19.77-9.71-40.15-7.12-60.36,3.27-25.12,17.45-47.19,31.34-68.37q140.47-212.4,301.11-410.51"/><path class="cls-1" d="M2926.11,2052.28c-230.09-53.17-447.41-150.72-657.79-258.09-187.41-95.7-370.57-199.63-546.89-314.49-66.83-43.54-143.29-90.74-220.79-72.12-72.71,17.49-118.74,86.13-170.45,140.21-54.2,56.69-120.16,100.64-187.25,141.3C1069,1734,985,1777,899.83,1761.59c-63.16-11.46-117.09-54.48-155.17-106.17s-62.4-112-86.42-171.44q-29.95-74.24-59.79-148.58"/><path class="cls-1" d="M188.27,3215.31c-37.47-50.8-29.76-123.64-.86-179.8s75.46-100.8,116.31-148.92C424.16,2744.74,497.13,2569.45,600,2414.4c128.47-193.69,301.82-353.12,444.44-536.58,92.47-118.89,171.68-247.42,250.8-375.54,46.4-75.25,92.8-150.5,133.68-228.82,145.62-278.68,219.25-591.08,371.38-866.29,58.63-106.11,131.31-223.1,97.79-339.53"/><path class="cls-1" d="M412.44,2309.2A1285.58,1285.58,0,0,0,200.56,2464c-55.14,49.79-107,105.87-135.77,174.43S33.6,2790,73.73,2852.51s128.51,94.72,193.72,59.17c46.76-25.45,72.29-76.69,97.24-123.82,160.68-303.26,409.18-548.79,619.84-819.72C1382.4,1456.51,1644.8,855,1900.53,259.43c25.19-58.74,47.18-135.65.44-179.2"/><path class="cls-1" d="M1905.62,3782.45c-99.05-84.87-201.94-175.13-247.79-297.28-52.44-139.42-21.37-294.69,10.25-440.26,28.79-132.26,57.59-264.91,102.31-392.75,36-102.79,82.12-202.14,111.76-306.9,31.41-111,43.89-226.34,56.28-341,42.5-394.43,81.67-811.15-82.46-1172.38C1802.25,713.56,1728.17,605.45,1672,488.25s-94.43-249.3-69.61-376.83"/><path class="cls-1" d="M2193.34,3578.11q-161.43-229.39-323-458.78c-34.06-48.42-68.72-98.13-83.93-155.25-22.66-85.38.77-175.21,21.31-261.12,160.42-672.07,139.6-1386.56-59.83-2048.21-26.67-88.46-56.54-176.2-72.63-267.22-16.91-95.41-18.44-194.5,5.76-288.33"/><path class="cls-1" d="M2170.75,3675q-166-348-332-696.14c-60-125.78-120-251.66-186.3-374.31-270.68-501-641.53-941-1037.42-1350.28"/><path class="cls-1" d="M2895.45,2717.05c-175.31-1.36-349.45-65.24-484.05-177.52C2358,2495,2310,2442.67,2249,2409.2s-141.24-44.15-197.62-3.45c-78.9,56.92-175.7,94.14-272.65,85.26-161.38-14.84-282.89-148-386.56-272.44q-360.06-432.64-705.29-877.35c-48.84-62.94-53.86,83.49-16.69,39,19.87-23.71-54.47-105.91-66.87-125.45"/><path class="cls-1" d="M340.05,2330.38a1612.75,1612.75,0,0,0-203.47,193.69c-48.11,54.56-94.09,115.5-106.8,187.17S47.71,2867,115.45,2893.59c74,29.11,156.3-19.13,210.39-77.42,95.55-102.91,146.63-238,213.27-361.54S700.21,2209.26,835.61,2172c164.76-45.28,334.26,47.92,470.91,150.59s273.5,223.54,443.11,244.74c48.53,6,101.71,2.16,140.05-28.25,42.62-33.83,56.71-91.7,64.82-145.55a1330.52,1330.52,0,0,0,12-283.47c-6.32-98.27-19-210.7,49-281.87,65.54-68.55,178.66-63.85,265.76-26.42s160.84,100.94,247.05,140.48c113.88,52.09,242.42,59.41,367.46,65.84"/><path class="cls-1" d="M1652.3,3835.9c-8.25-328.46,104.35-646.57,215.6-955.76,43.06-119.63,86.42-240.16,104.75-366,40.52-278-43.6-562.78-4-840.89,25.06-176,99.16-345.63,95.71-523.42-2.18-108.79-33.45-214.52-50.82-321.93s-19.79-223,31.7-318.77c30.4-56.66,77.46-102.31,116.68-153.32a656.38,656.38,0,0,0,119.54-254.64"/><path class="cls-1" d="M2711.61,3010.54c-121.89-36-232.09-110.46-310.93-210.14-45.21-57.16-80.35-122.27-129.34-176.31a446.73,446.73,0,0,0-104.75-84.94c-22.57-13.18-46.73-24.55-72.56-29-95.69-16.39-187.06,64.5-283.32,52.31-43.93-5.57-82.86-30-119.79-54.46C1387.14,2306.1,1111,2050.87,934.86,1731.4c-89.27-161.93-157.95-346-306.24-456.47"/><path class="cls-1" d="M391.4,2358.31c-168.74,86.3-298.59,245.5-349.12,428.17-5.59,20.33-10.28,42-4.37,62.22,11.71,40.14,58,57.29,98.27,68.48,56.59,15.8,121.16,30.05,170.59-1.61,27.61-17.65,45.35-46.94,62.1-75.13L541.33,2550c68.78-115.77,139.25-233.75,241.19-321.69s242.64-142.3,372.83-108.09c90.53,23.82,165.36,86.52,233.41,150.76s134.61,133.08,218.53,174.64,191.57,50.08,266.87-5.62c84.07-62.15,101.15-177.84,138.93-275.35a583.72,583.72,0,0,1,164-231.48c41.51-35.52,88.85-65.58,141.68-79.46,99.16-26,204.14,7.61,296.78,51.52s181.93,99.23,282.34,120"/><path class="cls-1" d="M2906.42,2055.89Q2755.25,2004.79,2604,1953.8c-82.55-27.86-171.3-56-255.28-32.54-86.77,24.26-149.87,99.1-195.76,176.55s-81,162.53-140.17,230.45c-39,44.81-87,80.57-135.39,114.92-38.45,27.31-80.21,55.13-127.3,56.48-37.69,1.1-73.48-14.81-107.57-30.93-60.15-28.48-120.12-59-172.44-100.08-199.44-156.84-254.13-436.35-417.07-630.78-46.8-55.85-102.06-104-157.11-151.86q-146.18-127.17-292.26-254.24"/><path class="cls-1" d="M2909.51,2708.38c-92.2-.11-183.89-35.12-252.72-96.35-86-76.64-133-188.69-156.91-301.37s-27.32-228.56-41.43-342.88c-46.71-377.36-208.8-729.6-373.73-1072.22-35.29-73.41-71.49-147.62-124.72-209.24-48.4-55.94-109.23-99.82-159.92-153.65-65.37-69.55-112.43-154.6-176.7-225.26A613.89,613.89,0,0,0,1437.83,168.6"/><path class="cls-1" d="M1307.91,389.79q172.38,118.33,344.77,236.56c61.43,42.17,123.25,84.64,174.84,138.37,128,133.22,180.84,326,173.73,510.68-3.69,95.92-22.08,190.62-28.37,286.46-20.89,320,92.2,656.42-27.21,954.16-37.3,93.1-95.66,176.21-138.88,266.64s-71.36,194.68-43.15,290.93c23.42,79.58,82,143.06,133.41,208.19a1460.92,1460.92,0,0,1,216.43,379.45"/><path class="cls-1" d="M1865.1,3834.37c-95.58-53-148.07-163.21-159.65-271.75s11.74-217.57,35-324.39q64-294.95,128.05-590c24.79-114.23,49.68-228.77,60.56-345.13,12.78-135.57,6.45-272.14.22-408.11l-22.05-478.69c-4.86-105-9.83-210.85-37.47-312.2-33.86-124.32-100.46-236.77-166.26-347.52q-155.6-262-311.3-523.85"/><path class="cls-1" d="M335.39,2374.81C268.82,2419,201,2464.33,151.8,2527.29S74.29,2675.11,98,2751.38s110.61,133.51,186.07,107.11c59.29-20.82,93.27-81.4,123.87-136.26a2893.91,2893.91,0,0,1,433.17-588.42c36.3-38.09,75.59-76.4,125.4-93.37,82.65-28.14,173.45,9.17,245.42,58.59,172.33,118.28,292.14,307.35,478.55,402,30.68,15.64,64.15,28.56,98.64,26.67,85.48-4.76,138.09-95,163.46-176.77,41.29-133,59.88-285.92,166.1-376,61.22-51.93,143-73.56,223.18-79.29,202.33-14.38,398.74,62.67,586.95,138.47"/><path class="cls-1" d="M2898.73,2713.34a2793.46,2793.46,0,0,1-487.66-254.4c-99.35-65-214.15-139.86-327.46-104.65-103.23,32.05-168.21,148.1-274.82,166-72.84,12.29-144.34-25.43-205.56-66.8a1369,1369,0,0,1-222.1-186.92C1110,1984.27,968.24,1595.92,690.27,1320.4c-3.22-3.18-7.44-6.56-11.63-5.14s-2.55,10.11,1.44,8"/><path class="cls-1" d="M1637.8,3854.18c-6.85-141.07-13.61-283.83,13.25-422.48,28.51-147.55,94-284.81,146.83-425.49a2608.32,2608.32,0,0,0,164.3-1012.09c-5.83-156-25.76-311.37-24.89-467.37,1.17-211.51,40.35-421.72,36.12-633.1C1971.24,786.36,1958.74,674,2002.52,576c66.61-149.16,247.19-226.62,302.17-380.52"/><path class="cls-1" d="M2450.16,3356.74a1659.23,1659.23,0,0,0-387.6-373.24c-59.22-40.78-121.32-78-175.47-125.27-63.2-55.26-114.06-123-164.32-190.23q-125.4-167.63-250.79-335.17c-71.51-95.62-144.23-193.43-182-306.73-75.41-226.3-.52-472,72-699.19s142.76-475.67,59-699c-11.67-31-26.83-61.86-52-83.32s-62.57-31.37-92.29-16.81"/><path class="cls-1" d="M1167.21,3763.89c-36.68-52-44.73-118.46-48.87-181.94-31.24-476.74,95.14-949.52,113.29-1427,5.87-155.23.44-311.51,23.42-465.23,35-233.39,134.09-451.62,230.85-666.84,41.61-92.42,83.4-186.75,94.87-287.41,22.54-198.32-74.67-388.31-169-564.21"/><path class="cls-1" d="M1883.39,3852c-37.21-302.41-74.35-608.41-38.46-911,26.41-223,92.44-442.1,90.84-666.69-1.21-170.1-41.31-338.58-36-508.62,5.46-177,60.13-350.93,53.78-528-8.1-224.66-113.11-433.1-220.27-630.63q-138.46-255-286.8-504.58"/><path class="cls-1" d="M2392.19,3324.75c-49.1-112.34-171.8-168.89-267.61-245.28-67.19-53.54-123.24-119.34-178.79-184.85q-660.1-776.79-1320.21-1553.68"/><path class="cls-1" d="M2200.41,3649.08a5294.81,5294.81,0,0,1-863.47-1436c-84.22-209.65-155.37-443.58-84.21-658.06,29-87.46,80.12-165.63,122.18-247.66,79.67-155.43,127.55-329.19,122.21-503.76S1431,454,1314.56,323.85"/><path class="cls-1" d="M2813.31,2709.89q-187.57-125-375-250c-65-43.35-136.07-88.38-214.05-84.66-140.77,6.85-232.72,166-371.7,189.19-125.79,21-238.9-75.23-323.81-170.27C1460.2,2317.51,1395.46,2236,1313,2174.59s-187.44-101.4-288.24-80.86c-132,26.9-221.72,146.08-298.74,256.5q-121,173.6-242.15,347.2c-41.88,60.12-86.15,122.36-150.76,157s-155.53,32-200.34-25.93c-15.51-20.12-24.14-44.77-28.37-69.85-12.19-73.74,13.6-150.17,57.38-210.71s104-107.26,166.71-148"/><path class="cls-1" d="M2466.91,3029c-52.3,19.78-106.19,39.87-162.1,37.87-106.42-3.83-192.36-85.08-264.08-163.89-180.86-198.74-342.52-414.78-531.84-605.47-165.89-167-351.57-312.93-523.34-473.91-66.23-62-130.48-126.51-186.56-197.81-58.6-74.59-108.14-156.63-142.41-245"/><path class="cls-1" d="M1894.52,3782.71c-181.27-107.13-313.19-315.83-282.4-524.2,24.61-166.33,143-303.17,194.63-463.24,39-120.51,38.57-249.61,45.69-376,22.93-407.33,126.48-809.69,114.21-1217.43-5.71-188.87-35.35-384.12,27.1-562.35,61.27-174.83,202.46-307.68,338.79-433.31"/><path class="cls-1" d="M2496.71,3047.39c-67.35,66-148.57,137-242.13,125.69-77.85-9.48-136.3-73.67-184.13-135.82-46.12-60.05-89.25-122.33-133.78-183.59-378.78-521-851-966.37-1260.33-1463.7"/><path class="cls-1" d="M1279.92,3822.29c23.7-75.63,43.48-154.23,37.46-233.2-5.05-66.17-28-129.65-53.92-190.72a1938,1938,0,0,0-241.73-416.82c-50.05-65.83-104.59-128.74-147.07-199.62-40-66.59-68.84-139.13-96.93-211.59-55.77-143.8-110.39-298.42-77.6-449.19,4.1-19,9.6-37.65,15.1-56.28"/><path class="cls-1" d="M1690,3872.1q-8.93-43.75-17.87-87.61c-8.42-41.26-16.84-82.51-30.55-122.34-39.1-113-118.61-207-200.77-293.83-149.75-158.3-313.62-302.73-462.87-461.54S692.65,2572.3,611.37,2370.14c-27.57-68.55-48.75-140.74-50.55-214.53s17.3-149.89,63.19-207.74"/><path class="cls-1" d="M2117.6,3646.82c-58.7-262.49-231.77-481.67-388.94-699.93-309-429.06-572.35-888.76-852.35-1337.17-83.72-134.06-170.54-269.09-289.69-372.86"/><path class="cls-1" d="M2437.5,3064.6c-33.36,45.28-102.39,39.85-156,22.93-163.18-51.63-309.05-177.85-352.14-343.53-20.73-79.89-17.27-163.71-14.91-246.22q8-279.8-3.29-559.79c-4.6-112.38-11.4-225-3.6-337.19,10.13-144.06,44.38-285.44,59.11-429.12s8.43-294.85-57.76-423.2c-21.62-42-49.43-81.24-63.58-126.36C1787.88,438,1975.73,260.33,1969.6,67.56"/><path class="cls-1" d="M2641.58,2722.41c-46.47-88.45-155.22-153.57-236.22-209.84-91.74-63.81-207.78-127-323-83.58-101,38.14-170.42,128.41-286.06,139.53-113.54,10.91-223.25-83.11-303.11-151.89-130-112-249.25-271.27-333.45-420.53-43.71-77.47-63.38-164.66-102-243.76-85.84-175.94-269.56-348-427.87-461.42,4.91,1.87,8.63,4.65,12.84,7.63"/><path class="cls-1" d="M2242.92,3557.15c-115.09,2.51-208.1-92.89-269.12-190.47-110-175.92-166.63-379.52-258.72-565.53-130.91-264.51-334.45-495.92-411.67-780.81-50.7-187.23-42.28-390.08,24-572.34,27.2-74.95,63.82-146.14,92-220.69,105.81-279.47,86.28-603.67-52.23-868.43"/><path class="cls-1" d="M2880.82,2580.43c-101.21-2.16-185.12-78.51-246.05-159.29-114.51-151.59-184.8-336.32-200-525.64-14.56-180.32,17.82-371.9-60.36-535-36.1-75.21-93.24-138-148.87-200.21-136.72-152.57-271.57-312.06-350.68-501-32.31-77.23-54.78-165.11-26.4-244,15.77-43.78,45.87-80.75,65.95-122.75,31.55-66,36.83-144.1,14.46-213.68"/><path class="cls-1" d="M1329.87,3774.22c-47.28-221.75-114.94-439-156.53-661.87s-56.33-455.41,2-674.52c22.45-84.12,55.8-169.3,43.64-255.54-8.52-60.26-38.61-115-69.1-167.73a5340.36,5340.36,0,0,0-493.11-712.08c-3.42-4.18-7.65-8.66-12.95-8.63s-9.35,8.45-4.44,10.82"/><path class="cls-1" d="M279,2386.31c-56.21-1.5-94.61,54.51-120.75,104.25-32.17,61.27-63.23,124.84-72.57,193.49s6.07,144,55.63,192.31c11.66,11.44,25.51,21.36,41.53,24.58,12.41,2.53,25.4.76,37.69-2.4,80.69-20.73,132.28-96.91,178.72-166.06a4008.52,4008.52,0,0,1,320-415.31c49.2-56,101.8-111.84,169.34-143.41,95.66-44.81,210.82-33.93,306.66,10.36s174.64,118.77,242.47,199.81c41.36,49.48,79.95,102.37,131.06,141.6,107.84,82.63,267.58,89.87,382.5,17.36,38.57-24.41,72.1-56.59,112.49-77.7,129.44-67.69,287.78-5.44,411.89,71.5s250,172.37,396,172"/><path class="cls-1" d="M2298.88,3587.15a1103.42,1103.42,0,0,0-157.47-332c-98-140.08-227.06-255.09-341.54-382.08a2331,2331,0,0,1-200.27-255.94c-47.17-69.95-90.56-142.32-135.24-213.88A6917,6917,0,0,0,642.24,1334.36"/><path class="cls-1" d="M1653.95,3844.19c-72.38-221.12,10.45-459.46,86.38-679.37,95.82-277.32,182.8-562.78,186.13-856.21,1.71-147.81-17.88-295.71-7.16-443.17,15.38-210.48,92.29-415.2,86-626.17-5.36-179.67-71.12-358.93-38.76-535.8,18.85-103.1,69.95-197.18,120.66-288.95q81-146.53,163.14-292.37"/><path class="cls-1" d="M2641.51,3009.31a1283.57,1283.57,0,0,1-263.93-285.6c-44.65-66.06-86.14-139.34-155.75-178.27-80.24-44.77-179.38-33.54-269-13.27s-181,48.37-271.63,32.95c-106.7-18.13-195.91-95.46-253.6-186.85s-88.65-196.93-118.91-300.77c-27.91-95.85-56-193.8-51.17-293.53,4.33-87.42,33.89-171.48,66.05-253,100.25-253.44,232-510.34,208.83-781.93-13.44-158-79-306.38-143.71-451.24"/><path class="cls-1" d="M915.44,3844.83c80.27-61.63,132-152.31,196.78-230.05s155.62-147.33,256.56-139.47c101.74,8,179.79,90.74,244.11,170.1s134,166.19,233.61,188.36"/><path class="cls-1" d="M2204.72,3631.85a2414.22,2414.22,0,0,1-268.41-357.57c-31.07-50.54-60.65-103.18-75.06-160.7-27.08-108.26,1.82-221.41,23.33-330.93a2475.13,2475.13,0,0,0,43.58-360c11.05-234.06-11-470.35,25.26-701.84,23.69-151.23,72.2-299.89,70.28-453-2.22-172.89-69-344.34-42-515.08,33.47-212,205.66-383,236-595.47"/><path class="cls-1" d="M2859.94,2733.14A1976.47,1976.47,0,0,1,2504,2540.44c-59.72-40.78-117.76-85.17-183.62-115s-142.14-44.24-210.92-21.77c-89.15,29.08-153.39,114.82-245.09,134.51-61.53,13.23-126.54-6.43-179.42-40.44s-95.64-81.49-136.69-129.17c-281.85-327.6-520.54-699.73-863-963.41"/><path class="cls-1" d="M308.83,2308.45a1469.68,1469.68,0,0,0-199.62,239.87c-29.76,44.76-57.8,93.21-62.22,146.73-6,72.43,36.28,146.11,101.16,179.06s148,24.51,206.1-19.2c92.93-70.1,107.43-201.28,158.37-305.95,55.79-114.5,157.64-199,260.64-273.89,70.23-51.08,146.66-101,233.23-107.95,98.46-7.93,193,41.57,270.05,103.26s143.13,136.84,223.34,194.41c112.63,81,269.56,122.86,390.09,54,71.48-40.88,121.39-115.35,197.52-146.66,83.42-34.25,180.66-8.16,257.61,38.73s140.11,113.05,211.5,168.07,156.94,100.46,246.91,94.88"/><path class="cls-1" d="M2662.36,2982c-146.23-23.82-270.69-127.86-346.77-255s-108.87-275.52-125.46-422.64S2172.06,2008.6,2153,1861.7c-21.48-165.69-65.35-328.66-71.65-495.62-5.48-146.67,18-295.2-8.25-439.66-16-88-50.43-174-46.61-263.36,7.38-172,151.36-307.41,196.18-473.75"/><path class="cls-1" d="M2884.11,2033.71a3949.2,3949.2,0,0,1-952.36-382.82c-56.07-31.6-111.45-64.51-164.44-100.92-71.06-48.82-149.67-107-234.49-91.05-69.13,13-118.62,71.63-170,119.71a713.86,713.86,0,0,1-150,107.6c-65.21,34.95-138.78,60.14-212.23,51.73-85.55-9.74-160.85-64.24-214.41-131.66s-88.39-147.43-122.51-226.45"/><path class="cls-1" d="M2420.78,3323.8c-73.55-46.61-96-141.69-112.11-227.21Q2199.39,2519.37,2090,1942.14c-32.72-172.93-65.55-346.26-78.28-521.79-7.67-106-8-213-28.09-317.25-65.1-337.56-323.4-599.58-569.59-839.57"/><path class="cls-1" d="M2112.81,3629.84c-133.67-144.79-244.52-321.3-263.66-517.4-13.85-141.13,20.5-281.91,43.95-421.84,37.41-222.7,47.5-450.46,22.9-674.93-9.15-83.85-23.19-167.38-22.84-251.68.48-134.9,37.57-268.3,31.95-403.08-8-194.76-104.3-374.85-215.26-535.06s-239.56-309.63-327.29-483.66"/><path class="cls-1" d="M1830.75,3788.35c-74.73-24.8-123.44-100.54-137.75-178s-.24-157,15.45-234.09c100.66-495.64,267.66-982.64,281.36-1488.22,4.27-155.92-6.26-311.77-16.69-467.42-7.28-108.36-14.76-217.72-45-322.06-23.74-81.87-61.15-159.18-101.45-234.36A3176.54,3176.54,0,0,0,1399.58,252.7"/><path class="cls-1" d="M390.14,2139.91c-19,102.9-113.69,171-178.55,253.06-71.52,90.38-109.6,206.69-105.48,321.87,2.23,62.79,22.51,132.88,78.46,161.28,33.89,17.22,77,14.69,108.67-6.38,22.22-14.82,38.1-37.2,53.39-59.09A8759.56,8759.56,0,0,0,814,2060.55c30.71-55.26,61.3-112.23,72.27-174.49,15.43-87.58-9.35-177.55-43.49-259.67a1145.69,1145.69,0,0,0-204.23-324"/><path class="cls-1" d="M700,3411.18c268.61,19.17,559.08,32.92,784.3-114.49a623.77,623.77,0,0,0,199.47-212.27c48.45-85.16,76-180.41,103.14-274.65,47.23-164,94.64-329.21,108-499.28,18.44-235.4-29-474.65,12-707.27,28.73-162.46,100.29-321.34,83.41-485.45-16.77-162.61-117.72-302.58-215.22-433.86Q1594.64,440.66,1414,197.42"/><path class="cls-1" d="M2688.25,2979c-124.16-30-236.37-107.14-309-212.35-28.52-41.25-51.36-86.93-86.75-122.44-73.29-73.41-185.48-89.61-289.19-90.46s-210.75,9-308.15-26.46c-61.22-22.27-114.83-61.39-164.06-104.13-67.31-58.34-127.86-123.92-188.21-189.3-246-266.59-493.06-534.48-695-835.9"/><path class="cls-1" d="M2116.63,3689c-48.86-161.24-138.14-306.67-224.41-451.41q-287.28-482.22-541.35-983.13c-99.45-196.07-197.61-414.05-148.05-628.22,33.33-144.08,129.29-264.19,196.29-396,148.15-291.39,148.42-653.3.86-944.92"/><path class="cls-1" d="M1857.93,3821.71a8244.16,8244.16,0,0,0-824.1-840.32c-50.54-44.63-102-89.06-143.36-142.24-71.29-91.42-109.39-203.92-141.28-315.25q-34.39-119.82-61.09-241.58c-22.65-103.28-39-219.6,19.56-307.51,52.88-79.38,159.45-122.45,183.76-214.68,17.74-67.5-16.13-137.12-52.65-196.52a1655.22,1655.22,0,0,0-199.3-261.84"/><path class="cls-1" d="M717.23,3412.49c321.18,108.29,705-8,912.24-276.17,76.37-98.81,129.06-213.39,181.06-327,46.36-101.25,93-203.2,119.44-311.34,60.68-248.13,11.18-509.17,33.63-763.59,9.9-112.25,33.81-223.88,28.61-336.36-6.89-148.87-64.45-290.46-127.67-425.42-121-258.16-268.31-507.78-469.69-709.6"/><path class="cls-1" d="M2766.4,2707c-76.86-68-154.43-136.38-243.8-186.9s-192.44-82.27-294.28-70.63c-97.54,11.12-188,60.9-285.84,68.83-135.94,10.93-266.93-61.38-364.14-157.06S1410.19,2147.17,1329.9,2037c-180.12-247-408.63-453.93-635.42-658.92"/><path class="cls-1" d="M242.68,2410.5a913.3,913.3,0,0,0-175,412.44c-2.32,14.91-3.93,31.22,3.64,44.28,10.5,18,34.22,22.82,55.12,22.61,79.3-.82,151.15-47.61,207.85-103,105-102.46,172.54-236.32,259.81-354.19S801.9,2206.42,948,2194.74c98.16-7.82,195,29.56,279.53,80.21s160.31,114.55,243.3,167.7c48,30.74,98.31,57.78,145.48,89.63,149.34,100.7,262.21,245.2,384.42,377.45s263.48,258.4,437.92,303.07"/><path class="cls-1" d="M2095.85,3618c-128.52-435.32-400.43-811.08-619.66-1208.41-104-188.55-198.58-389.85-209.93-604.89-13.81-263.63,98-515,178.11-766.56S1570.09,497.49,1436,270"/><path class="cls-1" d="M2816.69,2667.57c-109.64-45.52-222.94-82.61-328.63-136.75s-205-127.71-266.53-229.18c-45.4-74.86-68-161-89.11-245.93-43.84-176-84.5-356.75-66.67-537.25,10.43-106.06,41-211.72,27.71-317.35-16.29-129.81-97-245.19-110.9-375.31-9.48-89.25,14.43-181.68,66.14-255.06,29.18-41.46,66.69-76.86,92.86-120.2,49.26-81.76,53.13-182,55.72-277.4"/><path class="cls-1" d="M1886.51,3798.65c-77.65-196.29-39.52-416.5-11.84-625.75a5693.16,5693.16,0,0,0,48.84-705.17c1.06-157.21-4.28-314.38-9.72-471.45q-9.24-270.1-18.58-540.31c-4.38-128-9-256.86-36.84-381.91-70-313.83-281.81-581.6-353.48-895"/><path class="cls-1" d="M892.35,3060c-41.37,81,8.57,181,76.29,241.8a458.6,458.6,0,0,0,231.09,110.77c52.85,8.62,109,7.42,157.32-15.54,49.08-23.36,85.25-66.56,119.82-108.44,127.38-154.38,256.64-312,331.25-497.77,36.12-90.09,58.61-185,81-279.44,42.83-181.23,85.86-363.16,102.77-548.56,33.64-367.58-36.34-738.92-157.11-1087.78-71.1-205.42-159.76-404.45-260.29-597.22"/><path class="cls-1" d="M1266.09,3816.46c62.76-101.84,65.57-230.55,41.35-347.63s-73-227.41-108.22-341.73c-107.16-347.73-86.35-720.65-53.78-1083.13,10-111.86,21.5-225.32,63-329.54,33.65-84.58,85.85-160.16,130.83-239.3,124.34-218.67,194-468.14,201.16-719.58,5-177.63-24.34-364.38-131.7-506"/><path class="cls-1" d="M297.56,2388.21a897.69,897.69,0,0,0-170.75,178c-47.95,66.16-87.48,154.27-50.59,227.17,32,63.33,114.78,89.29,183.59,71.72s124.13-69.76,164.12-128.48,67.43-124.86,101.6-187.14C599,2415.6,702.9,2300.75,813.64,2195.55c37.71-35.8,79.12-72.12,130.27-81.7,67.13-12.56,133.23,24.09,187.65,65.2,116,87.48,210.68,201.08,329.32,284.85s276.22,135.13,409.52,77.22c76.52-33.21,136.28-98.73,214.42-127.95,132.84-49.51,279.4,17.41,398.81,93.87s241.2,167.82,383,171.06"/><path class="cls-1" d="M2542.83,2957.54c-143-165.44-265.11-357.19-304.56-572.28-21.63-118-17.78-239.11-29.31-358.45-23.81-245.78-112.16-479.91-173.34-719.19S1941.46,810,2027,578.36c53.13-143.89,150.54-273.61,169-425.91"/><path class="cls-1" d="M2842.54,2677.94c-171.48-90-280-270.21-333.34-456.33s-59.64-382-77.77-574.79S2381.05,1257,2282.76,1090.1C2121.6,816.46,1798.2,649.38,1695.2,348.92c-27.83-81.15-37.31-170.1-15.85-253.22"/><path class="cls-1" d="M1744.38,176.46C1536,470.88,1739,923.3,1532.34,1218.91c-46.84,67-111.76,120.1-156.3,188.64-60.7,93.23-79.19,208-80.8,319.24-4.84,349.13,146.49,690.43,379.77,950.09,40.74,45.38,84.17,88.65,133.86,124.09,60.93,43.38,130,74,192.42,115.28,71.45,47.22,133.38,107.79,205.82,153.5s160.91,76.34,243.59,54"/><path class="cls-1" d="M2310.35,3524.89Q2109.43,3315.06,1929,3086.82c-31.31-39.53-62.63-80.57-78.29-128.48-23.18-71.28-8.89-148.55,3-222.52,45.6-281.85,54.67-568.1,63.75-853.35q7.83-246.8,15.67-493.49c4.28-135.52,8.14-274.55-35.55-402.92-33.22-97.72-92.28-184.21-147.95-271.11a4991.67,4991.67,0,0,1-272.37-481.55"/><path class="cls-1" d="M1827.51,3798.77c-96.67-31.08-124.82-153.14-128.66-254.62-6.86-180.77,13.85-366,90-530,38.26-82.41,89.76-158.08,127.92-240.49,37.67-81.2,61.9-168,78.84-255.92,63.84-330.25,25.7-674.45-70-996.94S1678.31,895.22,1513.65,602c-48.86-86.94-99-173.47-159.65-252.65"/><path class="cls-1" d="M1628.7,3872c40.45-103-10.17-218.55-70.86-311-133.29-203.09-317.76-366.41-478.43-548.66s-302.92-397.29-322.12-639.49c-4.93-62.47-1.37-126.19,16.41-186.39,23.68-79.73,71.5-150.08,123.55-215,154.47-192.63,352.14-349.78,487.84-556a1159.1,1159.1,0,0,0,148.16-326.2c18.64-67.2,31.27-137.07,24.6-206.53C1551.39,815.4,1527,751,1499,689.38a1607.21,1607.21,0,0,0-189.79-315.79c-5.74-7.47-13.18-15.63-22.58-14.68"/><path class="cls-1" d="M636,1275.89q89.12,116.23,178.34,232.45c41.29,53.78,85.79,110,149.32,133.81,70.74,26.52,151.74,6.29,216.53-32.56s117.1-94.83,172.12-146.62c76.52-72,163.06-138.77,264.93-164.42s222.3-1.19,286,82.37c36.66,48.11,51.08,109.43,82,161.46,37.54,63.3,97.49,109.78,157.61,152.16a2776.2,2776.2,0,0,0,715.85,362.69"/><path class="cls-1" d="M2911.73,2731.37c-123.5-18.64-235.84-99.94-292.13-211.44-31.43-62.23-45.7-131.56-59.67-199.88q-71.47-350.77-143-701.55c-33.68-165.12-69-334.24-158.65-476.86-51.84-82.42-120.82-154-164.09-241.13C2034.31,780.22,2029,634,2080.06,509.77c24.19-59,60-112.42,90.7-168.39A1074.52,1074.52,0,0,0,2261,123.2"/><path class="cls-1" d="M2413.24,3258.84a1487.67,1487.67,0,0,1-430-343.61c-42.67-49.67-83.06-104.36-96.9-168.29-13.23-60.93-1-124.1,7.21-185.94,41.33-312.53-22-635,45.47-943,14.25-64.88,34.21-128.88,39.16-195.11,12.32-165-68.71-320.84-147.39-466.42Q1638.8,601.43,1446.85,246.45"/><path class="cls-1" d="M2152.33,3671.53c-30.91-189.44-116-369.79-242.65-514-75.76-86.3-167.87-163-211.94-269-30.09-72.44-34.91-152.62-51.92-229.23-37.61-169.8-134-319.49-219.22-471s-162.69-316.84-156.32-490.57S1392.5,1342.85,1564.67,1318c80.14-11.53,160.76,10.94,241.21,20s171.21.59,226.79-58.31c38.88-41.21,53.27-100.39,54.66-157,2.64-105.82-34-208-56.66-311.3s-29.77-218.44,26-308.34c25.58-41.24,62.61-74.14,92-112.79,55.91-73.6,82.4-168.84,72.51-260.69"/><path class="cls-1" d="M872.16,3061.35c-37.43,70.2,3.94,158.28,61.34,213.38,80.41,77.17,191.74,119,303.16,122.78s222.55-28.59,319.36-83.81c59.32-33.82,116.18-79.22,142-142.46,13.82-33.77,17.92-70.7,21.73-107,10-95.05,18.46-194.1-14.71-283.83-27.5-74.45-81.22-135.57-133.15-195.69A8857,8857,0,0,1,653.8,1307.39"/><path class="cls-1" d="M2757.06,1969.18"/><path class="cls-1" d="M2448.45,3186.55A1580.44,1580.44,0,0,1,2206,3107.84c-87.2-36.34-172-81.18-243.17-143.3-68.92-60.13-123.22-134.84-176.92-208.86q-62-85.47-124-170.84-112.28-154.65-224.55-309.41c-45.33-62.46-91-125.52-123.55-195.54-81.33-175-71.38-389.52,25.73-556.35,46.18-79.25,115.4-150.52,204.18-173.59,25.46-6.64,52.45-9.08,78-3.12,46.46,10.75,82.05,46.86,115.73,80.58"/><path class="cls-1" d="M2731,2715.13q-142.68-89.69-285.26-179.48c-68.63-43.13-140.77-87.55-221.6-94-83-6.66-165.45,28.88-229.16,82.52S1884.07,2648.25,1843,2720.77c-33.68,59.38-66.64,123.76-125.05,159.17-41.57,25.22-91.23,32.59-139.5,37.84a2343.53,2343.53,0,0,1-322.23,13.42c-27.7-.75-56.61-2.3-80.88-15.67-38.61-21.29-56-66.5-70.48-108.13-90.28-259.22-181.8-525-177.57-799.46,2.68-172.22,40.49-357.42-44-507.47-57.95-102.89-163.7-168.83-269.19-222"/><path class="cls-1" d="M322.88,2391c-84.15,47.65-172.07,98.92-221.63,182S57.85,2780.79,140,2831.86c81.87,50.76,193.22,3.77,255.73-69.57s94-167.7,146-248.78C582.39,2449.89,635.2,2395,687,2340c170.84-181.31,335.63-369.9,470.42-579.42s239.15-441.58,280.34-687.31c20.94-124.61,25.25-253.94-7.11-376.07s-104.17-236.85-211.12-304"/><path class="cls-1" d="M2873.17,2027.56c-119.93-23.86-248.68-52.47-330.37-143.44-123-136.85-89-352.23-162.48-520.94-53.25-122.22-159.23-211.55-252.44-306.86S1947,844.19,1947.93,710.88c1.48-210.81,219.84-368,237.12-578.07"/><path class="cls-1" d="M2858.1,2707c-119.16-10.16-215.36-105-272.62-209.95-109-199.52-111.74-437.51-118.75-664.68s-25.5-467.87-157.78-652.77c-49-68.54-111.57-126-172-184.59q-83.83-81.15-163.29-166.63c-67.79-72.84-135.92-152.88-154.24-250.68-33.86-180.72,111.55-365.1,59.91-541.53"/><path class="cls-1" d="M2448.23,3144.65c-211-25-408.79-146.52-526.23-323.6-32.46-48.93-59-101.69-92.4-150-108.54-157.12-282.38-258.4-398.49-410-86.2-112.64-137.54-250.87-150.39-392.2-11.47-125.64,6.76-251.94,26.39-376.65,13.54-86.07,28-172.55,56-255,25-73.73,60.73-143.63,83.64-218,70.67-229.88,11.62-484.27-107.7-693.14"/><path class="cls-1" d="M2880.61,2053q-94.37-32.2-188.65-64.49c-60.31-20.58-120.82-41.36-177.68-70.25-64.68-33-123.61-76-186-113.11-100.52-59.56-210.25-103.28-307.1-168.66-100-67.47-185-157.12-292.14-212.64-32.09-16.63-66.56-30.25-102.67-32.25-70.82-4-136.71,36.43-189.35,84s-97.65,104-156.33,143.94c-135.11,91.92-334.92,72-449.34-44.6-65.86-67.15-104.46-160-180.05-215.94"/><path class="cls-1" d="M313.44,2403.13c-118.51,73.33-213.42,184-267.94,312.23-11.46,27-21.3,56.11-16.55,84.89,8.79,54.05,68.67,88.63,123.36,85.14s103.31-36,143.71-73c81.8-75.14,140.29-171.55,207.11-260.21a1606.76,1606.76,0,0,1,144.91-166.68c57.79-57.81,122.3-112.55,200-138.17,109.51-36.18,231.75-9.14,333.15,45.82s186,135.51,270.84,213.56q266.81,245.63,551.92,470.16c95.1,74.89,210,152.28,327.67,124"/><path class="cls-1" d="M2470.64,3372.13c-69.34,31-143,62.66-218.42,53.67-84.65-10-154.37-69.18-216.58-127.45-84.83-79.45-169.7-168.2-197.5-281.05-24.53-99.57-.89-204,24.68-303.24,53.59-207.59,116.78-416,117.54-630.44.35-103.9-14.11-207.53-13-311.44,1.42-127.81,26.34-255,21-382.82-11-257-142.42-491.35-270.52-714.47-90.34-157.32-182.29-316.83-311.18-444.55"/><path class="cls-1" d="M2907.48,2704.39c-130.11-19.51-248.37-105.38-307.19-223-55.8-111.5-58.09-241-65.25-365.56-22.6-392.89-112.56-797.91-359.5-1104.3-69.46-86.13-154.73-173.18-160.42-283.75-3.9-75.08,30.62-146.07,59.05-215.62A1476,1476,0,0,0,2175,114.36"/><path class="cls-1" d="M2367.12,3482c-154.32-41.68-287.86-141.67-394.7-260.6s-189.67-257.09-271.81-394.26Q1541.85,2562,1383.09,2297c-61.55-102.77-124.21-208.54-145.44-326.43-14.12-78.33-9.15-158.85,1.93-237.71a1537.33,1537.33,0,0,1,88.78-341.08C1382.71,1251.4,1458.09,1117,1482,968.37c33-205-35.59-411.12-103.24-607.36"/><path class="cls-1" d="M331.13,2326.23c-129.5,95-225.35,235.11-266.82,390.23-5.2,19.23-9.49,39.15-7.09,58.94,7.21,57.36,69.4,92.73,127,97.32,80,6.37,162.23-31.57,209.39-96.62,26.7-36.84,42.17-80.43,63.46-120.74,63.07-119.14,174.31-204,282.18-284.91,97-72.72,210.11-149.52,329.13-126.46,48.45,9.44,92.19,34.91,132.14,63.9,135.63,98.48,235,238.55,322.14,381.69,145.88,239.43,265.35,495.69,432.25,721,41.9,56.58,87,111.24,140.44,157.05a605.53,605.53,0,0,0,189.19,109.59"/><path class="cls-1" d="M1545.4,3910.77c38.7-.71,72.54-30.29,87.85-65.77s14.9-75.78,9.69-114.15c-24-177.17-143.25-326.94-275.09-447.54s-281.59-223-397.62-359.08c-124.78-146.34-206.36-329.1-231.88-519.67-5.73-42.87-8.57-87.16,3-128.72,21.88-78.12,89.69-133,139.45-197.15,135.77-175,126.82-446.58-20.07-612.3-66.8-75.24-155.08-127.47-232.53-191.76"/><path class="cls-1" d="M2335.15,319.61q-50.66,35.07-101.43,70.14c-38.06,26.3-77.61,54.41-98.29,95.83-31.56,63.57-10.26,139.66-17,210.29-5.68,59.93-31.88,115.87-44.67,174.74-27.43,126.25,8,256.36,32.75,383.23a2363.53,2363.53,0,0,1,38.91,302.1c2.51,39.09,4.12,79.18,19.71,115.2,29.67,68.84,102.37,107.36,170.64,138.29a3604.46,3604.46,0,0,0,543.25,195.5"/><path class="cls-1" d="M2857.11,2690.36c-100.89-17.06-209.91-38.28-278.51-114.22-48.39-53.54-68.77-126.33-83.05-197.16-68.09-335.74-36.9-692.51-160-1012.16-76.06-197.6-210.29-372.38-381.46-497-112.34-81.7-238.86-141.43-357.74-213.49s-233.16-159.76-302.7-280"/><path class="cls-1" d="M2666.1,3008.68q-197-155.25-394.06-310.4c-54.93-43.31-111.67-87.51-178.87-107-88.24-25.63-182.63-5.63-274.46-9.94-192.55-9.17-374.54-137-448.49-315-29.07-69.95-42.28-145.38-55.17-220-16.41-94.91-32.62-190.93-26.93-287.06,8.44-141.55,64-275.35,99.8-412.54,89.08-342.08,54-703.5-.22-1052.71-1.34-8.39-1.1-19.49,7-22.34"/><path class="cls-1" d="M2424.27,3210.08c-125.09-73-263.85-120.49-388.74-193.73-318.2-186.7-516-518.85-733.27-817-219-300.44-468.89-577-721.74-849.56"/><path class="cls-1" d="M2079,3683.82c-61.8-261.87-200.46-498.54-344.68-725.67S1437,2506.23,1341.06,2254.84s-130.47-537.61-32.71-788.34c35.91-92.19,88.66-177.38,119.55-271.34,26.08-79.24,35.93-162.89,40.29-246.12a1935.07,1935.07,0,0,0-98-715.19"/><path class="cls-1" d="M1863.78,3792.77q-67-124.74-143-244.14c-96.81-152-209.51-301.59-367-389.15-45.84-25.46-94.64-45.2-140.87-69.85-237.48-126.43-390.71-375.22-461.09-634.95-13.67-50.33-24.64-102-23.62-154.08,3.27-156.12,112.45-290.3,142.84-443.47,30.09-151.56-24.89-317.27-139.75-420.76"/><path class="cls-1" d="M2407.17,3490.47c-47.54-44.75-115.21-58.69-176.83-80.26-171.12-59.79-311.21-187.54-421.08-331.66s-193.93-305.87-287.46-461.17c-133.79-222.29-287.41-432-440.73-641.26q-184.95-252.52-370-505c4.85,9.47,9.6,18.85,14.45,28.32"/><path class="cls-1" d="M2337.81,3479.84q-243.46-114.2-486.83-228.51c-55.34-26-111.18-52.31-159.18-90.15-42.38-33.47-77.6-75.39-108.64-119.52-166.16-236-216.54-532.25-330.56-797.45-136-316.48-360.93-585.18-582.74-848.8"/><path class="cls-1" d="M1299.1,3761.09a7811.57,7811.57,0,0,0-53.34-831.63c-15.29-129.92-33.88-259.42-46.08-389.66-13.68-146.23-19.36-293.1-25.15-440-5.92-153.77-11.46-311.34,35.56-457.9,45.84-142.95,138.49-265.54,203.76-400.79,133-275.71,146-607,34.74-892.2"/><path class="cls-1" d="M1854.36,3789.42a1015.5,1015.5,0,0,1-298-365.92c-48.44-100.84-79.71-208.78-110.89-316.21-116.34-401.69-233.73-811.06-223.76-1229.22,2.7-111.92,14.8-224.88,53.24-330,49.18-134.66,139.07-250.35,202.88-378.69,147.82-297.19,145.66-664.59-5.72-960"/><path class="cls-1" d="M2428.6,3458.66c9-256.75-93.88-502.11-163.9-749.24-168.48-594.71-153.12-1240.6-405.63-1804.76-117-261.38-292.95-513.94-288.17-800.17"/><path class="cls-1" d="M2751.24,2695.72c-34.41-58.82-96.22-96.79-159.75-121.45s-130.91-38.5-194.64-62.76c-224.56-85.5-385.1-298-450.63-529.3-53.1-187.12-51-384.93-76.38-577.7a2021.68,2021.68,0,0,0-73.38-334.21c-27.07-87.16-60.32-173-108.54-250.52-49.63-79.74-114.1-149.19-169.3-225.2-41.41-57.08-77.73-118.19-124.12-171.44a588.93,588.93,0,0,0-133.61-113.69"/><path class="cls-1" d="M335.08,2353.61C207.9,2434.29,113,2564.5,75,2710.2c-13.82,52.87-18.08,115.4,18.33,156,40.84,45.68,114.93,42.09,170.69,16.79,92.38-42,156.41-128.84,203.24-218.79s81.1-186.74,136.25-271.83c49.29-76.06,114.05-140.71,178.31-204.65Q839.39,2130.42,897,2073c37.1-37,78.4-76.12,130.46-82.2,57.66-6.81,111.46,28.91,154.07,68.38,144.21,133.43,231.86,329.37,403.47,425,106.62,59.43,238.39,71.63,354.08,32.81,83.15-27.84,158-80.54,244.29-95.7,234.88-41.15,445.8,204.12,682.34,173.56"/><path class="cls-1" d="M1067.62,3653.32c14.9-18.08,26.09-38.84,38.89-58.41,26.38-40.44,59.7-75.82,92.81-110.9,27.58-4.45,55.75,9.6,74.16,30.6s28.36,48,35.4,75.11a437.28,437.28,0,0,1-.83,220"/><path class="cls-1" d="M1310.09,3834.43c34.36-27.08,45.31-73.64,54-116.49,10.52-51.86,21.14-105.31,10.86-157.26s-46.55-102.45-98.5-112.58c-9.51-1.85-19.61-2.3-28.69,1.15-7.48,2.84-13.76,8.07-19.73,13.51-57.82,52.61-94.84,123.51-136.79,189.53"/><path class="cls-1" d="M2082.67,3790.61c3.85-196.62-55.1-394-166.17-556.22-52.41-76.62-115.68-145-172.47-218.38-169.77-219.5-278.26-478.82-412.36-721.61-176.41-319.46-398.07-611.78-632.17-891.74"/><path class="cls-1" d="M2578.5,2970c-134.22-115.19-185.84-306-323-417.58-27-22-57.72-40.69-92-47.21-76.48-14.39-148.92,33.9-224.12,54-121.73,32.65-255-11.54-352.19-91.82S1424.27,2275,1373.56,2159.67c-87.66-199.24-136.37-424.38-83.69-635.46,26-104.44,75.63-201.31,112.39-302.5,112.25-309.2,98.37-662.13-37.63-961.71"/><path class="cls-1" d="M2903.5,2051.9A1672,1672,0,0,1,2482,1890.15c-102.9-56.55-200.16-124-308.41-169.56-27.46-11.55-61-21-85.12-3.65-23.51,16.83-25.93,50.34-25.28,79.24a1467.22,1467.22,0,0,0,54.35,364.72c9.17,32.65,19.75,65.5,38.6,93.8,24.2,36.57,60.44,63.08,96,88.79,198.07,143.85,406.06,291.94,647.77,330.65"/><path class="cls-1" d="M2375.95,3279.83c-137.26-142.47-349.92-208.94-451.83-378.59C1855,2786,1850.74,2643,1867.73,2509.73s53.29-264.29,58.17-398.62c5.4-149.83-28.49-298.75-25-448.57,4.15-178.92,61.42-353.13,70.26-531.88,7-139.24-15.49-279.92,7-417.44C2010.49,515.54,2131.58,344.6,2196,154.85"/><path class="cls-1" d="M2852.66,2718.18c-166.46-30.21-289.46-179.76-345.22-339.56s-58.27-332.29-75-500.71a2910.29,2910.29,0,0,0-82.13-455.37c-22.66-85.88-49.52-171.54-93.33-248.91-41.59-73.38-97.44-137.58-152.88-201.19q-85.73-98.24-171.35-196.59c-51.52-59.13-105.66-124.34-110.38-202.61-2.64-44.39,11.13-88,23.3-130.83a1799.36,1799.36,0,0,0,64.86-382.85"/><path class="cls-1" d="M2384.72,3217.79c-271.65-159-486.33-397.21-696.38-631.69q-109.71-122.57-219.51-245c-46.07-51.36-92.25-103-129.76-160.91-113.94-176-137.28-407.57-60.72-602.78,27-68.95,65.39-132.85,98.64-199,175.74-349.94,202.49-771.59,72.61-1140.9"/><path class="cls-1" d="M2081.32,3781.21c-.38-183.2-88.49-353.33-175-514.87-234.54-437.45-476.39-878.67-594-1361-40.49-166-64.94-345.06-3.29-504.49,38.86-100.61,109.21-185.59,160.2-280.66C1610.71,856.68,1587.27,513,1411.38,271"/><path class="cls-1" d="M2876.69,2705.85c-95.67,6.21-180.44-63.74-235-142.65-95.34-137.79-130.15-308.41-146.74-475.12s-17.49-335.91-54.76-499.32A1144.26,1144.26,0,0,0,2324.71,1287c-159.23-286.35-436.56-496.58-577.54-792.43A1002.79,1002.79,0,0,1,1652.24,0"/><path class="cls-1" d="M1336.33,3804.49c62.75-196.44-5.87-407.27-57.94-606.8a3740.36,3740.36,0,0,1-107.65-628.33c-8.65-102.26-13.09-204.93-27.14-306.46-46.49-335.16-200.89-654.44-434.8-898.89-4,4.92.07,13.8,6.48,14.07"/><path class="cls-1" d="M2417.84,3129.31c-211.42-58.87-399-185.47-558.3-336.33s-292.95-326.44-425.78-501q-91.69-120.56-183.49-241.22c-177.75-233.66-357.21-469.2-578.74-661.92,5.36,10.47,10.61,20.84,16,31.32"/><path class="cls-1" d="M2351.48,3454.37c-164.76-48-304.26-160-418.94-287.57s-208.66-272.29-313.78-407.93c-166.45-214.72-369.36-423-413.69-691.1-35.65-215.11,38.49-432.41,123.82-633.17s184.36-401.49,202.2-618.79c14.65-178.48-28.53-361.25-121.35-514.36"/><path class="cls-1" d="M1806.78,3775.88c-105.87-87.74-139.08-239-124.61-375.74s68.48-265.57,109.38-396.79c73.25-235.39,104.53-482,122.12-727.86a6804.26,6804.26,0,0,0,3.72-914.33c-8.51-133.86-21-268.39-57.32-397.5-77.47-275.89-257.12-509.84-432.93-736.2"/><path class="cls-1" d="M2863.67,2683.42c-153.19-54.18-263.74-193.8-321.95-345.49s-71.59-316.22-84.25-478.16q-8.21-105.11-16.52-210.31c-8.9-113.35-18-227.81-52.39-336.23s-96.63-211.69-191.86-273.88-226.31-75.79-322.49-15.18c-57.91,36.51-97.9,94.82-138,150.34a3380.83,3380.83,0,0,1-344,404.74c-54.31,54.59-111.43,108-179.43,144.26s-148.71,54.09-223,33.79c-91.63-25-158.55-101.86-216.25-177.25Q689,1469.66,614.24,1352.41"/><path class="cls-1" d="M2591,2984.78l-381.39-391.37c-31.27-32.13-69.66-66.83-114.13-61.09-21.69,2.82-40.62,15.12-60.07,25-101.23,51.74-226.28,41.31-329.54-6.14S1518,2423,1444.4,2336.39c-94.39-111.1-176.38-240.26-194-385-16-132.12,23.09-263.93,59.51-392,61.74-217.53,117.26-438.63,131.26-664.31S1425.77,437,1325.08,234.5"/><path class="cls-1" d="M2421,3185.09c-119.87-12.66-235.25-64.35-324.38-145.47-47.63-43.35-87.91-95-116.12-152.88-88.88-182.73-48.22-397.85-33.3-600.53,21.62-295.32-16.16-591.42-54-885.12-24-186.27-48.19-373.75-104.15-553.05-73.25-234.71-199.1-449.24-330.31-657.25"/><path class="cls-1" d="M2334.68,3491.66c-148.09-128.11-294.16-272.23-356.65-457.8-58.33-173.29-36.83-361.81-22.9-544.19a6135.46,6135.46,0,0,0-12.67-1080.85c-16.37-162.52-39.33-325.09-85-482-86-295.65-249.4-561.68-411-823.72"/><path class="cls-1" d="M2123.75,3636.39c-86.08-109.24-173.78-221.48-217.69-353.44-27.95-84.15-37-173.3-42.1-261.88-18.18-314.31,10.74-629.17,26.27-943.65s17.22-633.2-54.11-939.82-221.62-603.33-466.28-801.52c-5.22-4.27-11.85-8.74-18.23-6.4s-5.22,14.93,1.27,13.19"/><path class="cls-1" d="M1829.58,3793.76q-285-338.53-598.58-651.52c-195.14-194.66-407.42-396.83-473.25-664.48-19.32-78.4-24.86-161.27-5.58-239.67,26.62-107.84,97.54-198.52,168.69-283.8,145.37-174.18,302.26-345.22,389.75-554.59,44.93-107.44,70-222.08,92.51-336.3,25.12-128,47.22-258.16,40-388.42s-46.2-262.36-131-361.61"/><path class="cls-1" d="M2831.11,2015.79Q2713.18,1954,2590.3,1902.07c-47.11-19.85-96.71-39-147.69-35.71-71.18,4.58-133.32,52.91-174.91,110.83s-66.93,125.66-97,190.32c-38.36,82.71-85.93,162.56-151.2,226.21s-149.81,110.5-240.67,118.39c-138.44,12-270.56-66.56-367.39-166.24s-168.08-221.21-256.75-328.23c-11.58-14-24.15-28.27-41-35.28C1080,1968.23,1042,1987.13,1012,2008,731,2202.9,634.29,2579.92,379.5,2808.18c-33.54,30-71.09,58-114.94,67.91s-95.31-2.29-120.91-39.36c-13.4-19.53-18.43-43.5-20.86-67.09C108,2626.52,187,2478.2,314.08,2410.62"/><path class="cls-1" d="M2767.8,2838.34C2554.9,2783.47,2414.15,2587,2292,2404.27c-44.35-66.36-89.32-133.93-112.92-210.2-20-64.79-23.81-133.37-27.87-201.15-17.56-291.51-44.73-587-148.39-860C1907,880.6,1746.32,653.16,1540.49,478.55c-67.1-56.94-139.58-109.06-193.46-178.67"/><path class="cls-1" d="M1789.22,3801.47c-83.16-236.26-113.72-490.7-89.65-739.93,23.4-243.33,146.36-458.29,190.68-698.13,41.89-226.83,20.25-460-6.68-689.07-17.6-149.31-37.9-300.1-93.65-439.71-41.45-103.88-101.66-199.06-156-297a2911.12,2911.12,0,0,1-228.12-527.79"/><path class="cls-1" d="M1989.87,3791.1Q1929.13,3569,1868.4,3346.94c-42.73-156.17-86.18-314.24-165.53-455.42"/><path class="cls-1" d="M2325.7,3533.61A2796.58,2796.58,0,0,1,1783,2856.79"/><path class="cls-1" d="M2415.72,3349.92a1514.6,1514.6,0,0,1-542.62-433.81"/><path class="cls-1" d="M2500.14,3183.77c-215.36-28.65-419.53-135.56-565.69-296.29"/><path class="cls-1" d="M2316.23,2921.25q-70.32-107.18-140.55-214.35c-42.45-64.77-85.5-130.25-141.78-183.55-30.45-28.74-66.69-54.54-108.32-59.22"/><path class="cls-1" d="M2302.23,3015.12c-60.8-.68-123.81-1.74-178.75-27.85-31.88-15.13-59.3-37.88-86.13-60.84-80.57-69-161.08-146.54-192.72-247.78"/><path class="cls-1" d="M2818.82,2692.46c-32.74-25.23-68.61-38.93-101.93-61.26-42.65-28.47-75.21-76.6-106.12-116.84-67.07-87.14-125.08-184-146.67-293-15.83-79.82-11.46-161.94-12.1-243.24-2.59-353.89-102.27-706.66-285.29-1009.59-39.25-65-82.38-128-132.29-185.3-43.27-49.67-91.31-94.91-139.75-139.56q-189.49-174.79-387.42-339.94"/><path class="cls-1" d="M2855.81,2034.06c-176.88-32.86-353.73-79.31-510.2-168s-292.2-224-352.6-393.42c-39.29-110.29-45.42-229.36-72.73-343.12-45.71-190-149.12-360.31-254.6-524.75-74.92-116.8-152.45-233.59-252-330.26"/><path class="cls-1" d="M2093.4,3646.95c-238-273-370.54-662.33-256-1005.85,25.89-77.74,63.49-151.14,88.58-229.18,44.85-139.84,47.86-289.26,46.47-436.05-2-204.59-11.68-409-21.37-613.49-7.43-156-15.18-313.92-61-463.28C1805,621.74,1589.62,371.59,1617.38,82.74"/><path class="cls-1" d="M1749.47,155.73c-9.92,52.85-41.27,98.62-65.42,146.55-59.27,117.92-75.76,251.91-99.46,381.84A3200.16,3200.16,0,0,1,1248,1637.73c-15.05,27.58-31.4,56.07-57.81,73.11-42.06,27.22-97.8,18.22-145,1.27-159.31-57-279.9-186.41-393.87-311.3"/><path class="cls-1" d="M1871.17,3791.93c-104.24-100.25-184.75-233.52-190.52-378.09-3.46-86.48,19.59-171.51,41.84-255,108.83-407.79,205.61-823,211.26-1245,3.3-243.92-24-487.58-20-731.5s41.66-494,164.24-705c61.73-106.23,145.41-204.48,168.67-325.1"/><path class="cls-1" d="M2820.34,2677.35c-124.34-44.24-264.69-127.69-354.61-224.91-60.65-65.58-107.06-142.83-151.08-220.6-135.88-240.18-253.32-490.66-355.39-747-35.68-89.51-69.56-180.13-91-274.12-15.36-67.62-24.13-136.67-39.19-204.39-45.49-204.66-149.81-396-297.11-545.22"/><path class="cls-1" d="M2733.09,2744.32c-170.38-163.69-277.39-391.63-294.55-627.24-8.2-112.66,3.29-226-2.41-338.89-13.06-254.23-114.56-498.4-258.78-708.13-159-231.45-369.68-425.83-513.17-667.27"/><path class="cls-1" d="M2453.59,2762.41c1.72,3.09,3.43,6.28,5.15,9.37-83.46-141.36-46.81-320.15-27.38-483.16A2287.51,2287.51,0,0,0,2387.65,1499c-13.41-57.43-29-114.35-49.51-169.54-66.36-178.85-181.09-335-294.41-488.54-35-47.31-70.31-95.13-115.71-132.68"/><path class="cls-1" d="M2386.52,2881.27c27.89-77,.54-161.51-8.8-243-18.15-158.51,33.92-315.39,55.78-473.4,29.66-213.66,3.89-432.43-52.32-640.73s-142.27-407.25-234.62-602.26c-51.89-109.52-113.81-226.2-224.37-275.81"/><path class="cls-1" d="M2367.75,3092.48a1023.8,1023.8,0,0,1-57.85-215.09c-12.12-78.44-15-158.52-5.87-237.37,12.82-109.47,48.85-214.76,76.19-321.61,82.58-323.55,84.24-667.56,4.71-991.84"/><path class="cls-1" d="M2281.7,3458.24c-108.88-127.92-156-297.87-174.58-464.88-50.21-452.44,84.86-926-59.64-1357.6"/><path class="cls-1" d="M1525.15,3883a10416.24,10416.24,0,0,0,393.46-1415.22"/><path class="cls-1" d="M1394.45,3844.68a5019.81,5019.81,0,0,0,545-1235.93"/><path class="cls-1" d="M1389.46,3903c96.91-35.92,162-130.07,194-228.34s36.72-203,50.47-305.37a1739.46,1739.46,0,0,1,191.35-590.53"/></g></g></g></svg>