<svg xmlns="http://www.w3.org/2000/svg" viewBox="0 0 2823.28 4146.84"><defs><style>.cls-1{fill:none;stroke:#e65498;stroke-miterlimit:10;stroke-width:1.75px;}</style></defs><title>Asset 5</title><g id="Layer_2" data-name="Layer 2"><g id="Layer_4" data-name="Layer 4"><g id="Layer_2-2" data-name="Layer 2"><g id="Layer_1-2" data-name="Layer 1-2"><g id="pink"><path class="cls-1" d="M192.73,1329.3c239.63,80.23,494.39,105,747,110.75,103.08,2.31,207.39,1.43,307.64-23,249.36-60.62,442.95-258.76,583.63-473.33,12.21-18.73,27.74-39.83,50.14-40.5,26.7-.84,43.93,27.06,55.29,51.23q52.25,110.62,104.39,221.32c27.46,58.17,60.77,121.85,121.65,142.83,64.76,22.28,134.87-13.21,189.13-55.08,136.33-105.29,233.75-259.81,270.05-428.2,8.94-41.24,14.4-83.72,31.23-122.31s47.74-74,88.89-83.27"/><path class="cls-1" d="M2675.52,558.85c-113.1,126-88.51,322.18-154.94,478-44.82,105-133.54,190.51-240.18,231.27-67,25.71-148.09,32.32-206.74-9.23-87.23-61.92-82.66-190.69-126.38-288.26-9.62-21.67-22.7-42.84-43-55.06C1878.13,899.9,1845,902,1815.67,910c-79.36,21.83-141.71,81.37-202.94,136.4-151.11,135.91-336.77,262.4-539.26,244.79-173.92-15.13-326.4-135.25-500.64-145.58-81.17-5-163.29,14.58-243.72,2.11-54.61-8.53-107.4-31.53-162.62-29.77s-116.06,42.74-110.89,97.74"/><path class="cls-1" d="M448.17,3161.56c161.67-168.44,335.08-329.9,539.55-442.69,156.12-86.07,327.36-142.14,483.57-228.21,425-234.17,704.46-674.11,856.51-1135a3087,3087,0,0,0,152.46-833.41"/><path class="cls-1" d="M2567.65,811.35c-56.92,356.56-245.93,676.25-431.17,986.25l-549.38,919c-95.35,159.54-192.53,323.76-224.12,507-16.27,94.41-15.16,193.62-53.88,281.18-76.44,173-278.12,246-459.1,301.2-30.86,9.41-63.12,18.92-94.78,13.23-47.86-8.58-82.27-49-120.41-79.27s-96.12-50.73-133-18.94"/><path class="cls-1" d="M2504.87,788.29c16,139.89-10.38,284.44-74.82,409.66-94.11,182.84-260.38,315.45-415,451-215.94,189.41-424.59,399.48-690.44,508.3-100,40.9-206,66.47-305.15,109.38-126.23,54.64-255.13,139.28-389.56,110-90.78-19.84-161.88-88.46-244.73-130.55C268.81,2187,126,2182.75,6.52,2234.94"/><path class="cls-1" d="M1677.18,4146.4c48.19-82.92,65.66-179.42,82.53-273.82s34.75-191,83.43-273.51,135.39-149.5,231.18-147.33c63.84,1.47,122.56,32.33,182,55.58,52.18,20.42,109,36.85,146.53,78.38,43.61,48.26,50.49,118.5,78.45,177.17,40,84.16,127,157.68,110.77,249.48"/><path class="cls-1" d="M2494,4063.44c-1.26-91-40.44-178.37-94.51-251.47S2276.59,3678,2208,3618.06c-46.07-40.17-94.63-81.36-153.83-96.61-101.15-26-205.19,30.28-284.89,97.8-131.37,111.42-229.34,256.44-325.49,399.37"/><path class="cls-1" d="M2594.48,4098.25c8.28-47.12-17.74-94-50.34-129.1s-72.63-63.24-102.5-100.62c-58.2-72.73-71.38-170.81-111.28-255-12-25.19-26.71-49.66-47.6-68.18-25.77-22.86-59.5-35.15-93.36-41.26-109.78-19.76-223.43,22.47-312.83,89.14s-158.63,156.16-226.66,244.56q-86.36,112.14-172.83,224.27"/><path class="cls-1" d="M1579.74,4053.42c12.74-158.53,124.81-304.75,274.54-358.47,77.77-27.93,161.79-32,244.31-35.85,96.53-4.49,193.36-8.94,289.61-.58,74.06,6.55,147.38,20.58,221.67,22s151.37-10.9,212.92-52.53"/><path class="cls-1" d="M1549.06,4091.05c32.24-148.21,96.09-293.23,204.83-398.89s266.7-166.92,415.32-136.53c76.44,15.54,146.38,53.66,221.46,74.9,131.78,37.29,278.39,19.56,397.49-48.23"/><path class="cls-1" d="M2593,692.6c30.24,219.68-40.68,442.47-146,637.64s-244.76,369.46-366.76,554.63c-180,273.24-322.09,570.1-503.92,842.12-51.66,77.29-106.61,152.69-150.4,234.7C1356.14,3092.49,1316.19,3237,1287,3382.28s-57.1,308-176.06,396.36c-95.93,71.33-226.34,73.16-344.75,57"/><path class="cls-1" d="M80.21,1818.46c86.39-99.09,212.57-162.64,343.64-173.06,106.55-8.51,213.91,16.67,320.17,5.4C845.89,1640,941.25,1596.48,1031.44,1548a2530.75,2530.75,0,0,0,746.44-609.47c31.42-37.68,74.19-80.73,121.3-67.05,34.83,10.1,53.71,47.82,63.11,82.87,28.87,107.48,17.16,241.11,106.47,307.44,35.14,26.1,80.59,35.58,124.2,32.44,145.47-10.54,250-148.12,297.51-285.94s59.42-288,124-418.67"/><path class="cls-1" d="M2477.26,674.22l-36.82,188.19c-12.89,66.17-26.09,132.84-53.66,194.18a443.79,443.79,0,0,1-164.84,190.72c-59.52,38-143,59.15-197.18,13.93-20-16.62-33-40.1-43.82-63.66a593.86,593.86,0,0,1-51.29-185.91c-2.66-25.12-4.78-52.84-22.68-70.54-22.92-22.74-62.9-18-88.91,1.17S1776.27,991,1760,1019a1047.76,1047.76,0,0,1-295.86,324.45c-52.65,37.58-112,71.13-176.64,72.55-47,1-93.11-15.45-133.57-39.29-113-66.58-182.8-185.29-252.54-296.41q-82-130.58-172.11-255.63c-56.39-78.35-118.89-158-207.09-197.54s-208.46-23.94-258.15,58.86"/><path class="cls-1" d="M177.5,2791.06C399.63,2602.58,668.72,2469.77,953.4,2408c166.64-36.21,339-48.69,500-104.63,212.44-73.8,393-219.66,547.68-382.95,278.85-294.24,487.9-654.1,605.41-1042"/><path class="cls-1" d="M2592.92,645.29c32.18,188.8-64.13,373.83-164.2,537.13-46.54,76-94.79,151.34-150.9,220.71-48.36,59.82-102.39,114.89-153.14,172.7-243.76,277.66-422.64,627.38-740.77,815.43-134.28,79.39-285.65,124.48-436.49,164.19C885.54,2571.78,823,2587.31,764,2612.05c-179,75-312.69,226.65-439.63,373.39"/><path class="cls-1" d="M256.5,2191c85.2-166.3,235.88-297.88,412.05-360,97.71-34.44,201.39-47.93,301.06-76.13,228.29-64.54,428.92-204.45,602.29-366.32,40.09-37.37,79.67-77,104.06-126,21.76-43.57,30.46-92.42,46.13-138.53a473.25,473.25,0,0,1,98.19-166c25.77-28.24,60.63-55.14,98.39-48.81,31,5.19,54.19,31.82,69,59.61,26.7,49.76,35.37,107.05,54.15,160.23s52.57,106.72,106.26,124.13c52.9,17,112.34-6.43,151.67-45.7s62.25-91.71,81.76-143.72a1801.67,1801.67,0,0,0,112.16-531"/><path class="cls-1" d="M2503.49,685.15A1550.12,1550.12,0,0,1,2324.4,1237.9c-12.53,22.73-26.17,45.84-47.06,61.32-40.28,29.78-97.54,23.53-143.22,3.06-66.53-29.9-120-87.62-144.68-156.27-24.69-68.35-32.75-159.5-101.51-183-54.69-18.73-110.73,21.17-154.35,59.19a6075.36,6075.36,0,0,0-685.9,702.42c-31.12,37.41-61.85,75.53-86,117.79-22.23,38.87-38.48,80.94-60.62,119.95-67.71,119.31-184.47,201.72-300.44,275.13-104.39,66.08-211.26,128.24-318,190.41"/><path class="cls-1" d="M2597.06,562.91q-137.47,286.79-274.92,573.68c-25.85,53.91-55.69,111.87-109.94,136.95-67.89,31.3-152.05-3.21-198.44-61.78s-62.73-135.07-72.09-209.23c-4-32.12-20.15-74.92-51.89-68.51-11.19,2.23-19.95,10.78-28,18.93q-218.58,220.6-437.09,441.32c-71.23,72-142.76,144.16-204.83,224.19C1118,1749.85,1043.15,1900.1,945,2034.32,868.92,2138.43,779.36,2232,689.31,2324.5c-112.19,115.23-245.13,237.75-405.9,233"/><path class="cls-1" d="M455.45,1262.1q268.19,44.9,536.28,89.7c72.73,12.13,146.56,24.27,219.91,16.4,120.08-12.88,228.68-78.92,319.35-158.6s167.53-173.82,254-258.11c28.1-27.43,60.67-55.39,100-57.4,70.83-3.68,114.77,73.08,145.29,137.07a2008.73,2008.73,0,0,0,126,225.76c11.49,17.77,23.79,35.84,41.92,46.55,29,17.1,67.3,11,95.95-6.93s49.5-45.6,69-73.19a1970.41,1970.41,0,0,0,286.49-602.2"/><path class="cls-1" d="M2554.73,579.47q-101.52,261.89-203.12,523.8c-23.26,60-47.64,121.62-92,168.26s-114.45,74.93-174.51,52-92.77-88.55-105.5-151.63-11-128.88-30.17-190.29c-5.4-17.36-13-34.9-27.33-46-33.05-25.37-80.58-4-114.62,20-202.66,143.2-343.81,370.67-568.93,475-271.56,125.87-595.16,41.76-885,116.13a824.53,824.53,0,0,0-188.24,74"/><path class="cls-1" d="M2602.79,678.54q-110.55,225.9-221.09,451.9c-26.83,54.74-56.77,112.86-110.35,141.95-61.5,33.34-141.94,17.54-195.84-27s-83.79-112.89-95.08-182c-4.92-29.93-7.23-62-25.39-86.25-37.1-49.51-115.48-37.68-169.75-7.81-110.36,60.75-184.71,168.71-271.95,259.49s-206.62,170.87-330.49,148.33c-107.18-19.53-185.85-110.21-247-200.47C860,1064.57,794.44,941.6,689.45,856S423.65,733.19,314.69,813.65"/><path class="cls-1" d="M1564.5,4108.54c14.54-158.62,32-325.61,124.41-455.36,100.75-141.5,288-215.69,458.29-181.58C2384,3519,2556,3747.14,2794.55,3785"/><path class="cls-1" d="M2649.66,656.44c15,150.48,22.36,305.63-22.58,450.07-27.87,89.31-74.72,171.33-124.17,250.74a3848,3848,0,0,1-491.57,632.21c-82.2,85.71-168.7,167.89-241.66,261.66C1584,2489.79,1497.16,2788.21,1404,3075.87s-203.17,582.8-420.53,793"/><path class="cls-1" d="M2570,656.41c-57.29,250.65-132.28,466.92-289.33,676.39-138.6,185-309.84,343.26-488.92,489.5-60.59,49.55-122.28,97.67-183.87,145.91q-184.22,144.23-368.53,288.31c-45,35.24-90.19,70.67-140,98.87A585.44,585.44,0,0,1,887,2426.48c-93.67,12.24-189.31,1.67-282.89,14.41s-191.44,56.26-232,141.52"/><path class="cls-1" d="M2615.6,692.4c-4,156.07-69.51,303.89-146.32,439.83-156.15,276.48-362.11,521-566.76,763.75-106.16,125.87-212.89,252.33-338.85,358.29-133.7,112.34-286.32,199.44-428.53,300.6s-277.51,220.85-356.45,376.48c-33.09,65.2-55.91,136-96.47,196.73S576.85,3240.35,503.76,3239c-109.59-2.05-190.5-117.64-299.86-124.29"/><path class="cls-1" d="M1557.42,4088.19c-28.55-142.28,33.15-293.81,139-393s250.5-150.11,395-163.45c88.75-8.17,179.62-2.93,264,25.58,65.77,22.29,126.06,58.06,190.41,83.84A668.52,668.52,0,0,0,2785.92,3689"/><path class="cls-1" d="M2687.35,3819.71c-154.36-152.91-382-203.68-598.39-223-67.46-6-136.21-9.55-202.53,4.7s-130.72,48.28-169,104.29c-31.48,46-42.81,102.45-53.43,157.18-14.13,72.62-29.45,142.13-30.59,215.92"/><path class="cls-1" d="M2616.41,701.66c-28.63,341-177,670.68-413.27,918.18-59.12,62-123.31,118.67-184.07,179-303.3,300.9-517,691-607.41,1108.7-24.78,114.51-40.58,231.22-72.45,344A1245.87,1245.87,0,0,1,1136,3661.28c-59.78,79.36-134.22,154.6-230.08,180.43"/><path class="cls-1" d="M2533.49,752.45a1241.2,1241.2,0,0,1-205.79,489.88c-18.16,25.69-38,51.38-65.5,66.71-45.07,25.13-102,17.19-149-4-71.15-32.12-128.35-93.76-155.21-167-15.18-41.29-24.28-90.55-62-113.17-38.86-23.32-88.76-6.22-129.08,14.44a826.75,826.75,0,0,0-250.18,197.82c-61.73,72.14-112.93,156.83-193.53,207-116,72.21-266,56.22-397.52,18.73s-260.35-94.16-397-96.17c-117.79-1.8-231.92,37.42-343.26,76.06"/><path class="cls-1" d="M2566.72,677.25a2074.56,2074.56,0,0,1-230.87,549.84c-39.8,66.27-98.43,138-175.49,132-43.78-3.49-81.4-32.47-111.52-64.46a478.09,478.09,0,0,1-124.36-258.85c-3.55-25.52-5.29-51.82-16.35-75s-34.75-42.67-60.27-39.66c-13.71,1.62-25.86,9.34-37.2,17.18-147.89,101.22-264.82,240.52-379.84,377.94q-211.76,253-423.42,506.18c-62.45,74.73-125.2,149.65-196,216.53a1254.64,1254.64,0,0,1-506,290.59"/><path class="cls-1" d="M2587.22,624.67a1712.28,1712.28,0,0,1-207.57,448c-28.87,44.32-60.63,88.14-103.12,119.68s-97.6,49.92-149.12,37.71c-59.93-14.16-104.22-66.12-130.68-121.68s-39.6-116.54-63.37-173.38c-3.94-9.42-9.18-19.76-18.86-23.21-8.68-3.15-18.31.29-26.83,4.14-113.7,51.42-178.23,171.34-272.61,252.88-124.54,107.56-307.16,143.39-463.05,90.85S872.44,1068.15,838.3,907.16C819,816.25,826.74,722.08,829.25,629.3s-.94-188.9-40.12-273.14S666.74,202,573.92,204.57"/><path class="cls-1" d="M2602.85,794.67c13,49.19-1.7,101-18.29,149C2473.1,1266.5,2269.71,1557,2004.32,1771.93c-54.47,44.07-111.61,85.13-173.51,117.87-53.17,28.08-109.5,49.75-166.22,69.71C1322,2080.26,957.48,2143.3,633.4,2307.27"/><path class="cls-1" d="M2600.39,620.36c21.8,184.62,26,381.65-62.64,545-89.18,164.47-257.3,267.87-388.9,401-272.05,275.19-385.33,675.42-650,957.75-116.35,124-258,221.06-385.5,333.61C905.85,3041,737.52,3264.1,539.46,3457.53"/><path class="cls-1" d="M2541,3635c-46,51.33-125.49,60-192,41.66-101.76-28.11-180.38-106.17-267.82-165.29s-205.4-99.52-296.13-45.56c-41.54,24.66-70.69,65.78-93.24,108.45-70.59,133.35-87.34,294.29-45.81,439.34"/><path class="cls-1" d="M2603.11,565.87c31.52,265.09-49.17,533.82-178.57,767.25s-305.51,437-480.31,638.75q-414.47,478.19-829,956.44c-74.16,85.66-149.19,172-238.9,241.38C737.91,3276.62,570.27,3338.47,403,3389.77"/><path class="cls-1" d="M2491.69,619.58q-31.95,167.81-64,335.63c-15.48,81.21-32,164.91-78.49,233.33s-131.4,117.82-211.48,97.24C2032.19,1258.66,1989.13,1135,1964.26,1029c-5.46-23.34-12.31-48.87-32-62.5-35.55-24.51-82.44,5.52-114.71,34.22q-158.34,140.63-316.68,281.14c-45.64,40.63-91.48,81.26-133.55,125.61-129.14,136.13-219.84,303.2-312.51,466.35s-191,327.07-331.29,451.73-330.43,206.23-515.34,174.43"/><path class="cls-1" d="M2606.6,630.23a1280.52,1280.52,0,0,1-166.9,554.31c-39.11,68.07-90.42,136.86-165.85,158.71-85.45,24.69-178-20-238.7-85s-97.42-148.08-140.46-225.94c-14-25.28-32.29-52.7-60.76-57.06-29.92-4.68-56.35,18.26-78,39.43l-223.11,219c-61.65,60.54-124.83,122.06-202.55,159.7s-174.08,47.87-248.83,4.62c-47.84-27.68-82.07-73.78-109.78-121.65-89-153.53-122.92-332.9-136.17-510s-7.18-355.2-23-532C807.6,180,798.35,121,758.47,83.66c-33.34-31.2-84.57-43.5-107-83.23"/><path class="cls-1" d="M2600.11,733q-183.71,495.06-367.4,990c-45.84,123.63-91.88,247.86-118.65,377-43.87,212.16-34.57,431.82-67.05,646-20.61,136.48-58.2,269.77-95.6,402.64-32.18,114.2-64.46,228.82-111.61,337.64-82.74,191.12-209,359.47-334.13,525.92"/><path class="cls-1" d="M2551.24,962.75c-174.78,214.77-255.32,489.09-329.9,755.75-109.64,392.15-215.9,788.82-239.42,1195.29-11.15,193.73,3.29,406.43,132.83,550.8,65,72.4,152.49,119.8,231.56,176.58s154.43,130.22,174.76,225.44"/><path class="cls-1" d="M2590.44,881.57c-182.08,330.63-284,698.22-384.23,1062-123.16,446.77-247.15,897.75-272.7,1360.5-5.38,96.75-8,199.23-60,281-90.22,142.1-309.65,191.13-343.93,355.8"/><path class="cls-1" d="M2574.65,842.83C2441,1415.6,2072.34,1918.92,1981.78,2500.09c-53,340.3-9.16,699.46-133.08,1020.76C1775.5,3710.79,1648,3874.23,1521.64,4034"/><path class="cls-1" d="M2682.49,755.83C2608,1029.69,2448,1271.14,2290.62,1507.31c-400.08,600-802.36,1202.95-1292.13,1732.24-36.43,39.39-76.08,80-127.76,94.25-60.8,16.84-127.46-7.56-174.61-49.54s-77.81-99.17-103.07-157"/><path class="cls-1" d="M2519.61,698.07Q2456.79,826,2394.08,954c-54.67,111.57-111.55,226.14-204.25,309-33.58,30-79.64,56.55-121.74,40.57-19.16-7.31-34.27-22.51-47.28-38.38a346.94,346.94,0,0,1-77.24-196.77c-2.93-46.62-9.15-110-55.62-115.24-27.38-3.07-50.41,19.1-68.83,39.59a4537.26,4537.26,0,0,0-594.64,837.38c-227.08,411.76-394.63,865.57-711.17,1213.29"/><path class="cls-1" d="M2672,641.21a2347.62,2347.62,0,0,1-353.92,606.15c-42.61,52.74-100.34,108.7-167.18,97.4-65.33-11.09-101.52-79.91-128-140.56q-36.75-84.56-73.59-169.24c-13.71-31.48-30.41-66-62.53-78.27-44.61-17.06-91,17.76-125.81,50.65-329.16,311.45-619.62,672.93-1007.22,907.53C639,1984.39,514.42,2042.55,381.41,2060.56S105.35,2052.75.55,1968.79"/><path class="cls-1" d="M2591.28,667.88a4856.37,4856.37,0,0,0-441.79,1123.29c-32.76,128.3-60.34,258.49-70.12,390.49-12,162.24,2.77,325.33-1.9,487.9-13.37,465.33-202.88,938.41-566.92,1228.65"/><path class="cls-1" d="M2615.54,712.45C2550.7,1241.7,2234.23,1704.4,1894.08,2115c-137.39,165.88-281.77,328.62-454.63,457.2-167.75,124.8-359.19,215-527.23,339.37a1587.89,1587.89,0,0,0-402.3,436"/><path class="cls-1" d="M2704.5,663.07a1920.17,1920.17,0,0,1-390.18,533.09c-38,36.58-78.93,72.36-128.34,91.14s-109.59,17.41-150.61-15.93c-47-38.18-56.88-105-60.71-165.46-1.74-26.31-4.85-56.43-26.57-71.36-25.5-17.65-60.18-3.45-86.77,12.29-177.93,105.61-310.73,273.31-418.09,450.18S1250,1863.16,1140.71,2038.82c-178.61,287-419.39,535.18-700.91,722.3"/><path class="cls-1" d="M2581.37,774c-42.5,368.36-290.82,675.59-433.67,1017.74a1842.85,1842.85,0,0,0-136.89,569.9c-9.66,127.42-6.13,255.45-14,383-27.33,442.74-196.73,874.4-471.58,1222.51"/><path class="cls-1" d="M2510.63,769.89q-82.79,203-171.71,403.28c-25.64,57.78-52.89,117-99.15,160-16.19,15-35.37,28.19-57.29,30.85-55.55,6.78-94.19-52.56-115.68-104.19a1623.69,1623.69,0,0,1-65.27-189.49c-11.65-42.27-26.36-90.76-66.76-107.8-28.74-12.18-62-3.87-90.66,8.56-92,39.76-161.43,117.66-223.3,196.5s-120.67,162.48-201.72,221.51-191.24,89.67-282.8,48.92c-39.2-17.43-72-46.43-102.34-76.71C863.66,1190.81,753.82,961.16,728,721.5c-7.29-68.25-9.4-141.16-48.43-197.49C641,468.08,572.32,439.76,505,430.36"/><path class="cls-1" d="M2592.55,635a1974.69,1974.69,0,0,1-280.77,533.54c-57.26,77.25-144.64,158.34-236.57,129.79-49.72-15.4-85-60.7-104.86-108.82S1943,1089.23,1929.15,1039c-9.8-35.16-26.66-73.56-61.2-85.36-39.07-13.33-79.42,13.92-111,40.34a2279.64,2279.64,0,0,0-516,617.74c-153,268.5-252.52,570-447.65,809.55-142.3,174.79-332.45,309.92-544.21,387"/><path class="cls-1" d="M2614.45,912.69a8810,8810,0,0,1-758,1213c-64.11,86.12-129.83,171.14-189,260.68-137.65,208.52-238,439.32-367.3,653.16S1005,3455.8,779.83,3564.26c-48.73,23.43-102.06,42.45-155.72,36.48"/><path class="cls-1" d="M2634.78,821.65c-43.94,176.17-155.51,328.48-284.67,456s-277,234.26-414.71,352.44c-247,212-461.19,461.06-716.69,662.71-212.41,167.63-459.25,309.36-595.25,543.26-69.11,118.74-104.41,253.83-133.71,388.06"/><path class="cls-1" d="M2626.55,574.69c-51.5,116.69-43.72,254.94-80.77,379.83-42,141.65-101.26,277.4-163.55,411.13-123.48,264.9-264.64,527.57-321.07,817.14-54.26,278.76-25.67,567.74,31.77,846,29.74,144.08,67.78,288.1,137.32,417.62s173.55,244.74,307.69,305"/><path class="cls-1" d="M2658.58,752.09q-194.42,701.55-455.12,1380.12c-91,236.86-189.68,482.08-169.78,735,7.62,96.95,32.76,191.8,63.21,284.18,34.69,105.1,77,208.66,139.13,300.13,108.32,159.54,277.16,276.85,464.39,323"/><path class="cls-1" d="M2627.09,703.55c-72.16,422.67-355.63,776.48-502.83,1179.22-154.72,423.49-151.87,902.51,7.92,1324.07,26,68.66,56.19,136.14,96.83,197.38,126.86,191.17,342.09,304.14,494.58,475.56"/><path class="cls-1" d="M2551.88,748c3.08,205.52-68.51,404-141,596.27-177.82,472.06-367.89,943.53-458.68,1439.8-31.79,174.21-50.09,359.4,16.23,523.6,55.39,137.09,164.75,245.49,282.41,335,115,87.38,251.26,176.17,278.21,318.16"/></g></g></g></g></g></svg>