<svg xmlns="http://www.w3.org/2000/svg" viewBox="0 0 3213.59 4142.27"><defs><style>.cls-1{fill:none;stroke:#0fade2;stroke-miterlimit:10;stroke-width:1.75px;}</style></defs><title>brainbow-lightblue</title><g id="Layer_2" data-name="Layer 2"><g id="Layer_3" data-name="Layer 3"><path class="cls-1" d="M1.9,1693.84c50.26-32.22,105-59,163.74-69.47,119.23-21.28,239.46,26.06,347.58,80.67s215.5,118.51,335.58,133.79c110.26,14.05,221.14-14.23,332.27-17.93,206.06-6.79,406.36,71.77,585,174.89s341.48,231.3,518.22,337.55c53.16,31.9,111.93,62.86,173.65,56.49"/><path class="cls-1" d="M40.77,1408.52c160.37-67.19,341.41-116.55,506.71-62.32,119.39,39.16,215.58,127.52,327,185.66,71.34,37.19,148.46,61.71,224.3,88.36A3970.09,3970.09,0,0,1,2229,2239.45"/><path class="cls-1" d="M3208.76,1998.5c10.46-.12-1.95,15.53-12.44,14.52-212.51-21.14-407.83-131.9-567.92-273.13s-290.1-312.8-422.64-480.2c-33-41.7-67-84-111.33-113.56-129.84-86.52-303.9-41.25-449,16.18-86.18,34.08-176.29,75.9-224.69,154.92-46.95,76.65-45,172.65-72.37,258.27-40,125.6-143.16,224.29-261.79,281.48s-252.14,77-383.69,82.73c-85.31,3.72-171.34,1.83-255.38,16.89s-167.86,49.12-224.65,112.77"/><path class="cls-1" d="M1074.2,99.93A668.94,668.94,0,0,0,1186,412.82c43,63.47,102.42,122.37,177.89,135.52,26.46,4.63,55.54,2.9,77.58-12.54,14.79-10.33,25.1-25.66,34.85-40.78q37.9-58.49,73-118.81c24.6-42.19,48.77-87.93,46.47-136.63-1.95-41.86-23.24-80.05-44-116.45"/><path class="cls-1" d="M130.77,1023.5a1174.08,1174.08,0,0,1,524.85,13.44c144.5,37.19,281.3,101.91,427.62,131s312.51,16.29,423.08-83.82c45.12-40.82,77.76-93.24,117.44-139.43s86.35-86,132.81-125.62q170.27-145,340.49-290.19"/><path class="cls-1" d="M2111.75,496.62a494.82,494.82,0,0,0-154,158.35c-37.33,61.47-64,134.4-124.21,173.82-59.38,38.93-137,34.91-206.5,19.83s-138-40-208.95-38.31c-102.25,2.52-195.81,60.45-268.73,132.1-41.9,41.14-80.38,88.52-133.79,112.89-89.67,41.14-193.62,7.22-288.3-20.54s-207.65-45.31-282.72,18.77c-25.15,21.5-43.28,50.48-68.9,71.55-68.25,56.14-185.4,34.21-228.61-42.94"/><path class="cls-1" d="M3133.1,2036.84a998.66,998.66,0,0,1-470.88-219.57c-193.37-163.19-316.37-392.37-471.4-592.33-45-58-95.1-115.61-162.16-145.57-73.77-33-159.94-28.12-236.89-3.71s-146.67,67.09-215.53,109.25c-32.79,20.12-66.12,40.75-90.78,70.26-81.43,97.84-47.95,267.16-149.38,344-47.48,36-113.33,39.44-171,24.42s-109.56-46.23-161.54-75.48a2677.53,2677.53,0,0,0-396.15-181.57c-167.14-60.74-356.86-103.7-519.09-30.74"/><path class="cls-1" d="M1331.22,3942.11A329.93,329.93,0,0,0,1528.5,3977c23.94-3.31,48.17-9.49,67.77-23.62,43.61-31.3,53.33-91.92,51.46-145.5A550.33,550.33,0,0,0,1582.46,3567c-24.08-44.74-55.26-88.47-58.67-139.13-5.4-80.35,62.1-148.77,135.23-182.49s155.22-44.35,229-76.69c122.52-53.7,214-165.3,262.26-290s57-261.87,46.18-395.28c-6.23-77.42-19.88-157.12-63-221.74-62.71-94.09-175.13-139.48-280.83-179.72-126.83-48.28-261.56-97.34-395.18-73.52-95.19,16.9-184.92,70.29-281.4,63.65-100-6.83-182.52-76-266.07-131.29-181.5-119.91-399.08-184.31-616.54-182.57"/><path class="cls-1" d="M3121.51,2031c-71.56,4.47-140.83-24.09-205.2-55.59a1913.86,1913.86,0,0,1-590.62-450.94C2196.51,1378.14,2082.53,1206,1905.43,1124c-54-25-115.1-40.69-173.07-27.24-80.42,18.68-137.87,88.11-184.5,156.22-33.89,49.58-65.85,101.17-86.92,157.53-15.67,41.94-25.12,85.79-36.95,129-59.38,216.39-195.73,428.12-407.3,502.83-53.65,19-110.21,28.49-165.53,42-205.63,50.27-396.71,158.25-545.92,308.42"/><path class="cls-1" d="M145.69,1714.54c161-25.11,324.89,15.95,479.12,68.71s305.48,118,466.4,143.94c146,23.47,296.39,13.87,441.33,43.48,95.4,19.56,186.6,55.72,275.08,96.38,251.08,115.36,485,268,744,364.45"/><path class="cls-1" d="M219.13,1117.66c117.47,82.45,277.38,100.49,410.13,46.22,32.47-13.27,63.32-30.44,96.75-41,83-26.18,173.79-8.58,255.5,21.3s159.08,71.92,242.57,96.55c40.56,12,85,19.55,124.61,4.62,27.33-10.32,49.68-30.33,71.3-50,47.8-43.26,96.34-87.47,128.89-143.23,26.46-45.28,41.88-97.48,75.88-137.53,67.76-79.77,188.76-89.54,270-155.44,30.32-24.58,54.06-56.2,77.46-87.42L2086.2,519.69"/><path class="cls-1" d="M2216.19,113.41c13.63,122.74,49.07,241.77,69.76,363.52s25.76,250.34-19.58,365.2-150.74,212.35-274,218.21c-59.52,2.83-119-15.09-178.17-8.91-50.38,5.34-97.07,27.63-142.63,49.72-53.72,25.91-109.24,53.34-146.14,100.07-35.71,45.34-49.77,103.4-68.59,157.88-32.55,94.6-91.18,191-186.87,220.2-68.92,21-143.94,2.47-209.4-27.44s-125.46-71.08-191.85-98.9c-103.07-43.17-216.89-52.44-328.44-58.9-143.79-8.35-295-11.8-423.78,52.72"/><path class="cls-1" d="M.13,1372.68c297.18-45.85,607.92,1,878.31,132.5,81.44,39.54,162.14,87.49,252.39,95.86,108.46,10,220.45-44.12,280-135.23,41.42-63.39,57.78-140.71,99.45-204,87.4-132.88,272.84-174.69,426.15-132.21s278.82,152.48,384.34,271.51,197.6,250.73,315.39,357.68c147.66,134,333.86,225,530.36,259.33"/><path class="cls-1" d="M1104.56,119.37c23.14,74.1-34.23,147.11-50.9,223-13.17,60.08-.24,122.85,18.58,181.35,26,80.6,64.84,159.29,127,216.74,47.18,43.67,105.56,73,163,101.75L1579.66,951c95.92,48,191.83,96.08,290.93,137.11,140.86,58.27,290,103.43,412.86,193.64,155,113.8,252.43,287.28,365.72,442.71S2911.41,2030,3102,2055.5"/><path class="cls-1" d="M1042.3,123.22a622.66,622.66,0,0,0,90.47,297.39c35.73,58.36,83.16,112.32,145.37,140.78s141.3,26.9,194.14-16.66c28.68-23.6,47.42-57,66-89.24A3580.12,3580.12,0,0,1,1775.51,95.55"/><path class="cls-1" d="M1509.92,107.55a359.43,359.43,0,0,1,73.72,145.52c8.82,36.3,11.89,75.09-.14,110.46-7.73,22.56-21.19,42.84-37.59,60.14-72.09,76.18-199.13,87.69-289.49,34.32S1115,296,1120.4,191.23c1.95-37.71,8.54-81.19-17.88-108.14"/><path class="cls-1" d="M696.55,372.37c78.83,96.05,209.53,134.13,333.59,140.28s248.2-14.44,372.38-11.26c170.59,4.22,348.87,59.84,458.81,190.42C1925,767.3,1961,861.39,2004,950.17c174.67,360,472.14,643,763.23,917.58,80.26,75.71,176.26,157,285.9,143.63"/><path class="cls-1" d="M2323.36,438.2c15.22,186.53-22.25,377-107,543.84-22.66,44.56-51.89,90.37-98.42,108.5-72.59,28.33-149.61-21-225.08-40.34-86-22-180-3.19-255.26,43.78s-132.39,120.19-167.06,201.87c-41.27,97-64,219.41-160.45,261.89-48.55,21.35-105.29,15.35-155.07-2.72s-94.65-47.36-140.86-73.21c-195.15-109.15-423.12-159-646-141.23-87.86,7-177.57,25.3-250.85,74.5"/><path class="cls-1" d="M170.73,1089.81c141.61,59.91,302.83,62.9,453,30.24s291.09-99.36,425-174.86C1135.35,896.43,1224.7,842.1,1324,840c101-2.1,197.17,50.68,298.1,48.44,108.3-2.44,205.29-68,282.56-143.74S2046.9,580.34,2131.1,512.22"/><path class="cls-1" d="M1555.9,46.36a871.55,871.55,0,0,0,70,400.32c15.5,35.81,33.8,70.93,60,99.71,27.39,30.06,62.32,51.94,94.12,77.3,203.45,162.14,261.1,446.73,425.22,648.66,108.92,134,261.18,227.17,371.32,360,48.2,58.19,87.59,123.22,135.49,181.69,101.25,123.78,240.33,216,393.68,261.39"/><path class="cls-1" d="M117.32,1412.61c244.78-79.76,521.75-54.68,748.22,67.62,61.1,33,119.15,72.84,184.71,95.67S1193,1602,1250.9,1563.82c66.92-44.12,90.59-128.79,124.79-201.29,76.23-162,228.66-286.08,402.66-327.94,41.08-9.91,84-15.37,125.47-7.61,38.33,7.16,73.85,25.45,106.36,47,183.42,121.83,272.77,339.89,405.34,515.65,195.43,259,478.37,402.39,786.37,474.18"/><path class="cls-1" d="M221.08,1113a1081.39,1081.39,0,0,0,528-17.54c57.92-16.73,116.38-38.56,176.48-33.66,108.11,8.74,191,100.13,294.57,132.46,133.2,41.5,273.74-19.85,412-38.41,60.77-8.14,122.47-7.95,183.65-5.71,85.34,3.16,172,10.58,251.36,42.07,125.21,49.59,220.07,153.77,300.71,261.55s153,223.8,253.6,313.16a700.32,700.32,0,0,0,283.51,152.37"/><path class="cls-1" d="M2203.25,205.92c106.35,186.73,93.53,417.47,55.2,629-14.79,81.33-35.4,166.87-94,225.24-84.38,84.19-218.13,85.66-337.28,83.79s-254.24,5.19-332.44,95c-59.27,68.14-70.65,168.93-132.21,235-68.19,73.1-182.11,84.77-279.39,61.67s-185-74.55-277.7-112c-204-82.28-435.3-94.56-646.85-34.48"/><path class="cls-1" d="M226.54,1065.5c128,35.78,258.29,71.78,391.18,69,149.69-3.15,298.17-55.57,446.57-35.5,148.79,20.09,287.15,112.06,436.69,98.81,67.67-6,131.47-33.43,197.52-49.13,177.79-42.14,374.58,6.11,512.55,125.93,98.44,85.42,164.77,201,230.66,313.44s135.33,226.83,237.76,307.41,246.13,121.6,365.7,69.8"/><path class="cls-1" d="M1596.07,257.91c16.72,49,31,99.72,30.66,151.51s-16.36,105.26-53.07,141.69c-68,67.54-185.5,56-265.16,2.73a330.75,330.75,0,0,1-120.55-146.47C1149,314.24,1154.3,207,1113.48,114.56"/><path class="cls-1" d="M647.54,382.19l207.6,71.41c101.41,34.93,204.17,70.07,311,78.78,60,4.85,120.26,1.26,180.33,2.11,177.31,2.47,362,48.11,492.09,168.69,167.6,155.36,214.75,402.49,356,582.11,61.16,77.7,138.39,140.86,215,203.33l711.6,580.1"/><path class="cls-1" d="M204.2,1675.9c124.05,61,273.58,25.07,408,57.1,81.17,19.3,154.07,62.69,228.82,99.66a1555.42,1555.42,0,0,0,575.35,156.43c119.6,8.64,241.83,3.65,357.24,36.37,110.36,31.32,208.14,95.24,305.52,155.86q264.42,164.49,543.52,303.81"/><path class="cls-1" d="M419.14,1147c90.16-56,199.85-74,305.82-69.7s210,29.61,313.13,54.79l194.3,47.4c83.66,20.47,168.7,41,254.79,38.1,140-4.79,273.29-71.46,413.27-69.45,201.38,2.93,373,146,502.63,300.08,183.48,218.36,335.31,479.9,640.53,530.69"/><path class="cls-1" d="M1179,352.24c24.55,88.29,52.7,182.26,123.41,240.63,15.52,12.82,36.37,23.95,55.12,16.6,14.62-5.72,23-20.8,30.7-34.53,40.46-71.17,97-131.73,145.18-197.85s89.36-142.07,91.41-223.88"/><path class="cls-1" d="M1080.4,58.49c-12.72,63.06,3.15,128.18,23,189.29,27.85,85.53,65.44,170.86,130.42,232.95s162.69,96.64,247.39,66.59c72.92-25.79,124.18-94.32,148.65-167.66s26.28-152.06,27.76-229.49"/><path class="cls-1" d="M752.41,381.22c295.25,178.74,711.22,38.24,996.34,232.66,162.89,111.1,242.59,305.19,338.38,477.59,230.35,414.59,600,750.16,1035,939.29"/><path class="cls-1" d="M2449.64,2384.31l13,11.09c-127.07-79.06-257-153.32-384.06-232.37-104.05-64.66-211.91-130.93-333.17-148.66-168.08-24.68-337.72,47.13-507.07,33.07-230.79-19.31-417.31-190.94-633.73-273.18-190.2-72.28-399.88-73.64-602.58-55.61"/><path class="cls-1" d="M237,1659.27c113.39,64.12,231.18,123.31,357.82,153.58,301.24,71.86,619.47-26.28,926,18.34,188.09,27.42,365.22,108.14,525,210.87s304.05,227.73,447.76,352.19"/><path class="cls-1" d="M255.31,1741.5c151.13,29.62,316.17,57.33,452.31-14.66,111.52-59.08,192-180.25,316.55-200.49,62.34-10.1,125.82,7.59,188.94,4.67,83.12-3.81,163.79-45.49,215.06-111,32.58-41.64,53.16-91.38,83.47-134.75,113.87-163.23,350.31-204.51,538.06-138.73s333.51,216.17,451.43,376.38c96.26,130.61,180.93,272.82,303.73,378.82a749.46,749.46,0,0,0,246.93,141.45"/><path class="cls-1" d="M202,1138.52q344-7.69,688.17-15.3c86.39-1.92,172.76-3.84,259,0,157.12,7,314.35,33.43,470.91,18,90.91-9,181.43-31.87,272.44-23.8,149.74,13.36,278.73,108.38,391.51,207.81,53.21,46.93,105.08,95.82,150.74,150.27,63.72,75.89,114.77,161.66,177.74,238.28a986.81,986.81,0,0,0,411.32,295"/><path class="cls-1" d="M1054.52,153.51q9.32,68.75,25.22,136.27c15,63.56,37.62,130.61,90.35,169.18,42.76,31.3,100,38.51,151.78,27.22s98.49-39.47,139.31-73.26A544.82,544.82,0,0,0,1591.47,255c22.15-40.4,37.73-94.06,8.39-129.44"/><path class="cls-1" d="M1090.6,226.6a597,597,0,0,0,82.59,272.93c12.46,20.9,26.43,41.48,45.52,56.56,47.81,38,116.61,34.56,175.32,17.83,26.66-7.58,53.25-17.84,74.46-35.68,32.44-27.18,48.87-68.42,64.12-107.84l84-217.57c9.38-24.34,18.85-51.1,10.59-75.82"/><path class="cls-1" d="M2150.07,514.66q-124.16,106.83-248.23,213.6c-39.31,33.88-79.85,68.41-128.63,86.15-167,60.55-352.77-95.35-522.38-42.69-120,37.18-185.17,163.48-281.17,244.56a427.75,427.75,0,0,1-226.09,97.47c-165.74,18.79-333.81-60.12-497.35-26.68"/><path class="cls-1" d="M688.56,399.14c192.14,116.29,425,164,647.36,132.7,106.19-14.87,218.61-53.76,275.91-144.4,52-82.28,46.36-187,38.9-284"/><path class="cls-1" d="M2178.13,139.19c111,295.9,112.23,631.47,3.58,928.25-20.43,55.9-48.75,114.86-102.27,141.12-53.71,26.35-118.74,12.19-173.21-12.57s-104.75-59.77-162.36-76.18c-103.66-29.55-223.47,10.26-288.8,96-33.47,43.91-52.5,96.69-80.31,144.28-48.82,83.77-132.56,154-229.39,158.66-59.44,2.85-116.94-18.66-172.81-38.93-211.8-76.76-440.39-141-660.17-91.14"/><path class="cls-1" d="M428.07,1060c215.24,4.52,430.61,9.09,645.87,3.63,70.06-1.75,140.45-4.57,209.29-17.56,69.78-13.14,137.25-36.61,207-49.63,204.93-38.35,425.7,19,586,152.27,122,101.35,206.15,239.73,308.74,360.53,164.45,193.6,379.78,343.55,618.32,430.81"/><path class="cls-1" d="M1347.16,3938.64c70,31,154.92,25.67,220.56-13.82s110.09-112.1,115.45-188.41c7.29-104.23-52.88-200.51-117.92-282.14-99.35-124.9-216.61-237.46-292.52-377.75-97.32-179.75-118.83-389-158.61-589.59-15.83-79.74-36.14-161.74-86.55-225.57-34.84-44.11-82.21-76.82-131.58-103.72-93.35-50.87-200.07-83.67-305.66-71.45-90.87,10.52-174.47,53.09-255.81,95"/><path class="cls-1" d="M1296.37,3874.1c21.65,28.47,53.2,56.45,76.77,83.22,27.73,31.48,66,61.78,109.94,34.59,40.15-24.82,54.43-76.2,58.43-123.28,8.26-98.35-14.16-196.48-20.28-295s7.45-205.67,74.35-278.21c58.88-64,147.34-89.07,225.36-127.42,146.64-72,264.94-199.82,325.54-351.42s63-325.77,6.61-479c-8-21.7-17.29-44.94-11.39-67.32,8.23-31.2,44.46-48.27,76.68-45.79s61.26,19.45,89,36.08l293.79,175.71"/><path class="cls-1" d="M179.73,1663.08c-8.6-2.12-17.24-4.33-25.83-6.44,276.48,90.69,518.94,273.42,802.33,339.37,40.31,9.4,82,16.35,123,10,54.32-8.33,102.21-39.07,154.19-56.88,101.53-35,213.39-19.17,317.23,8.13,302.55,79.44,572.2,250.47,827.77,430.82"/><path class="cls-1" d="M199.09,1404.76c55.74-29.58,122.95-23.25,185.7-16.14C581,1411,783.61,1435.3,953.89,1535.35c124.71,73.28,223.82,182.58,338.29,270.93,381.17,294.13,908.36,340.15,1294.65,627.48"/><path class="cls-1" d="M389.76,1136.91q295.9,21.26,591.4,48.17c76.49,7,155.07,14.87,223.33,50,54,27.95,98.19,71.29,141.35,114,29.33,29,59.41,59,75.54,97.05,19.12,45.22,16.24,96.09,21.95,144.81,15.28,129.67,93.32,245.38,191.07,332.08s214.62,148.18,330.28,208.84q317.68,166.61,635.31,333.14"/><path class="cls-1" d="M1088.72,233.3c31.82,72.33,64.15,145.62,113.07,207.73,167.2,212.63,479.66,245.71,686.8,419.7,63.7,53.48,115.85,119.09,167,184.55,153.14,195.53,303,394.52,476.81,571.8s374,333.61,604,427"/><path class="cls-1" d="M2180,2342.41c-73.87-138.77-151.2-281.69-274.74-378.92-92.17-72.56-204.37-115-301.69-180.64s-183.9-167.76-179.37-285.07c4-105,83.09-196.25,178-241.42s203.35-52,308.45-49.81c39.83.83,82.57,2,115.92-19.86,37.07-24.43,52.49-72.8,49-117s-23.05-85.46-43.25-125a2542.7,2542.7,0,0,0-230.23-369.15c-59.75-79.8-124.68-156.85-168.5-246.47C1589.61,239.22,1557,94,1609,.43c-55.1,153.44-52,332.35,13.89,481.58,73.76,167.35,215.18,296,300.64,457.66,28.6,54.11,45.53,132.07-4.44,167.41-26.12,18.39-60.75,16.73-92.69,16.47-113.29-1-230.39,27.29-317.74,99.48s-138.36,193.44-108.38,302.61c14.82,53.73,47.36,101,84.61,142.47,134.86,150.21,329.64,231.59,482.65,363.1A939.92,939.92,0,0,1,2229,2399.86c31.85,81.36,52.19,168.5,47,255.73-8.06,133.56-76.57,258.46-170.12,354.18S1895,3174.55,1774.4,3232.45C1673,3281,1556,3336.12,1526.8,3444.69c-18.22,67.63,3.77,138.72,23.25,205.93s36.44,141.07,9.35,205.62-117.92,104.82-169.88,57.9"/><path class="cls-1" d="M156.44,1411.66c165.22,12.24,332.88,25,488.86,81.08s301.51,161.75,368.13,313.5c80,182.36,34.46,392.78,56.17,590.7,11.91,108.71,44.36,214,76.63,318.43,36.63,118.51,73.49,237.79,128.59,348.94,86.93,175.53,217,326.66,306.81,500.86,51.41,99.63,88.89,221,38.9,321.37-30.07,60.45-91,104.57-157.84,114.07s-137.72-15.68-183.53-65.29"/><path class="cls-1" d="M373.52,1048.06C546.75,995.41,750,1064,855.82,1211c93,129.08,108.67,297.13,112.89,456.1,10.71,402.85-28.2,824.65,138.54,1191.49,101.81,224.12,272.81,408.36,405.59,615.6,57.19,89.2,108.77,188.51,106.29,294.32-1.23,50.58-21.4,108-69.22,124.48-49.86,17.18-101.68-18.37-139.79-55"/><path class="cls-1" d="M361.37,1400.6a1575.82,1575.82,0,0,1,304-38.3c41.49-1.19,83.82-.57,122.94,13.2,44.49,15.57,81.62,46.91,114.38,80.69a751.44,751.44,0,0,1,158.09,243.47c28,69.82,45.27,143.33,62.52,216.56,35.67,151.9,71.4,303.89,97.46,457.72,19.5,115.05,33.67,231.31,62.36,344.46A1379.62,1379.62,0,0,0,1396.49,3016c17.55,33.71,37,67.32,65.31,92.59,27.37,24.31,61.89,39.61,97.48,48,133.36,31.56,275.64-33.54,368.3-134.56s143.84-232.81,183.88-363.86a2969.52,2969.52,0,0,0,90-385.15c4.17-25.42,8.71-52.28,25.32-72,26.44-31.24,76.2-33.05,113-15.27s63.95,50.52,89.77,82.33q59.28,73,118.51,145.86"/><path class="cls-1" d="M357.67,1078.77a3561.65,3561.65,0,0,0,671.08,133.35c40,4,81.68,7.14,119.65-6.21,50.83-17.92,86.83-62.3,120.72-104,73.06-90.17,155.27-182.49,266.76-215,91.72-26.83,193.87-9.72,281.52-47.64,112-48.49,168.93-170.83,219.42-282,11.81-26,24.14-52.43,43.68-73.22,34.59-36.8,87.37-51.47,123.83-86.44,52.41-50.35,58.11-141.79,12.21-198.2"/><path class="cls-1" d="M1071.9,93.69A1179.55,1179.55,0,0,0,1137,326.79c27.17,68.9,65.35,139.78,131.79,172.59,79.42,39.14,174.51,12.89,262.19,24.55,103.41,13.73,193.27,80.66,260.45,160.54s116,173.26,171.47,261.65c109.81,174.71,246.77,330.37,383,485.37,226.8,257.76,464.39,523.44,779.72,659.19"/><path class="cls-1" d="M1585.67,54.23a829.16,829.16,0,0,0,21.61,208.16c17.68,75.76,45.88,148.52,75.14,220.5q102.78,252.82,224.53,497.49c47.13,94.77,96.89,189.16,163.48,271.54,49.12,60.76,106.6,114,165.38,165.48a4220,4220,0,0,0,870.19,588"/><path class="cls-1" d="M2231.77,186.91q23.52,164.3,40.43,329.38c12.19,118.51,21.58,240.1-7.91,355.6s-105.07,225.7-217.09,266.32c-148.38,53.84-328.33-21.15-464.44,58.57-136.55,79.95-174.78,287.59-326.06,333.81-95.3,29.06-194.65-20.14-285.42-61.24a2009.05,2009.05,0,0,0-451.81-143.42c-124.44-23.73-262.41-33.24-369,35.18"/><path class="cls-1" d="M249.6,1037.07c203-32.13,412.66,65.48,548.85,219.51,47.89,54.17,88.48,115.72,111.78,184.17,20.33,59.85,26.89,123.4,33.78,186.3q31.39,289.52,73.13,577.84c12.58,86.84,26,174.23,56.42,256.47,36.58,99,96.62,187.37,156.43,274.27,57.4,83.42,115.32,166.69,180.26,244.29,68.34,81.63,149.62,159.89,252.79,186,128,32.27,267.55-26,355.25-124.58s129.17-231.24,141.5-362.66c12-126.35-.66-254.65,20.16-379.88,4.08-24.58,12-52.45,34.76-62.71,21.06-9.6,45.41.23,66.08,10.6A1104.72,1104.72,0,0,1,2538.69,2426c6.31,5.93,13.76,12.28,22.29,11.49s14.46-14.12,6.67-18.15"/><path class="cls-1" d="M239.91,1650.62c346.94,62,654.39,311.47,786.55,638.14,58.45,144.68,83.84,300.23,125.15,450.61a2195.7,2195.7,0,0,0,403.1,790.24c40.46,50.41,85.81,107.29,78.47,171.53-4.93,43.83-33.82,80.67-61.62,114.9-23.07,28.43-46.86,57.6-78.31,76.43-63,37.77-179.62,16.3-230.34-35.11"/><path class="cls-1" d="M276.87,1334.61c157.86-22.31,322.5,5.9,464,79.59,48.84,25.47,95.45,56.55,132.1,97.67,58.37,65.4,87.82,151.39,108.1,236.74,79.15,333.63,38.72,688.49,132.44,1018.29,30.82,108.63,77.06,214.73,150.06,300.86,38.55,45.55,85.65,85.87,142,105.3,83.33,28.8,175.26,9,258.82-18.95a1402.52,1402.52,0,0,0,332.54-162.68c65.9-43.92,129.44-94.85,171.47-162,53.49-85.49,67.89-191.8,51.53-291.36s-61.56-192.36-119.08-275.14c-28.51-40.91-60.32-80-98.29-112.24-40.55-34.4-87.36-60.51-132.43-88.89a1534.86,1534.86,0,0,1-354-306.73c-82.4-97.21-155.64-216-144.46-343,13-147.62,145-266.83,290.29-296.26s297.47,17.18,424,94.47,232.23,183.5,339.34,285.9a8405.63,8405.63,0,0,0,683.66,586.54"/><path class="cls-1" d="M2189.75,11.77q54.58,186.36,90.45,377.55c27.7,147.53,46.6,301.54,7.14,446.47s-149.63,279.35-297.28,306.55c-155.52,28.65-310.88-63.57-468.57-52.23-58.46,4.19-114.73,22.52-172.25,33.6C993.75,1192.38,627,984.36,272.35,1056.88"/><path class="cls-1" d="M215,2150c97.13-116.41,250.8-183.37,402.25-175.11,68.17,3.67,134.77,21.64,202.44,30.34,231.55,29.71,467.21-49.29,698.33-17.19,109,15.17,213.14,54.55,314.71,97.25a4807,4807,0,0,1,762.74,404.3"/><path class="cls-1" d="M1109.36,123.73c-23.16,39.35-2,89,19.22,129.62q31.49,60.27,63,120.41c12.32,23.58,24.87,47.59,43.58,66.53,21.05,21.55,48.54,35.37,75.79,48.31,39.69,18.9,81.74,37.11,125.73,35.73C1507.35,522,1568,468,1599.06,404.5s38.18-135.63,44.74-206"/><path class="cls-1" d="M747,416.34c103.84,46.77,218.65,61.93,331.6,76.58q129.53,16.84,259.07,33.57c181.79,23.63,374.65,51.92,514.43,170.42,129.31,109.68,190.41,277.29,281.65,420.2,109,170.74,262.5,307.3,395.91,459.64,163.75,186.95,312.23,409.62,546,494.07"/><path class="cls-1" d="M273,1033.59a3140.83,3140.83,0,0,0,638.08,135.7c169.57,17.9,341.23,22,510.41,1.38,189.69-23.13,386.44-76.27,567.36-14.81,115.34,39.21,210.47,121.17,299.46,204.37,255.48,238.83,495.46,509.26,814.66,652.08"/><path class="cls-1" d="M2217.6,200.54c35.72,39.35,47.11,94.32,57,146.46,24.24,126.27,48.55,254.66,36.23,382.67s-66.47,257.85-171.17,332.56c-84.91,60.58-193.31,78.82-297.61,79.61s-208.4-13.81-312.8-11.28c-160.45,3.88-321.81,48.3-479.51,18.44-89.21-16.85-172.22-56.79-259.83-80.86a751.26,751.26,0,0,0-398.89,1c-53.4,15-105.36,35.88-160.39,43.36"/><path class="cls-1" d="M1078,139.53a1456.2,1456.2,0,0,0,99.66,240.66c21.49,41.12,45.7,82.05,80.53,112.7s82.41,50.11,128,41.53c22.44-4.21,43.16-14.87,62.66-26.57,67-40.32,126.08-97.71,156.15-169.94,34.15-82,28.46-174.4,22.28-263"/><path class="cls-1" d="M1541.44,160.34c78.3,322.87,258.92,613.06,472.53,867.51s461.15,477.88,697.65,711.25c123.8,122.11,248.72,250,407.86,320"/><path class="cls-1" d="M169.71,1669q259.26,93,527,159.91c146.84,36.75,296.78,67.55,448.1,63.77,158.44-3.94,318.12-45.66,473.55-14.95,126.45,24.93,238.3,95.76,346.92,165.1l658.52,421.14"/><path class="cls-1" d="M260.49,1324.85c180.53-19.06,366.84,21,523.58,112.59,113,66.06,214.48,165,247,291.78,22.73,88.46,10,181.51,6.18,272.73-19,460.41,192.47,896.34,414.13,1300.33,85.94,156.59,177.23,327.12,150.6,503.68-6.43,42.92-22,87.63-57.12,113.08s-93.57,20.79-113-17.93"/><path class="cls-1" d="M363.66,2117.15a1608.57,1608.57,0,0,0,471.27-108.84c113.25-44.93,223-103.3,343.29-122.53,144.11-23,292.24,12.23,426.44,69.49s258,135.94,386.56,205.31c162.82,87.93,333.34,160.91,503.51,233.73"/><path class="cls-1" d="M295.94,1001.72c184.35,7.11,365.24,82.38,500.17,208.21s222.74,301,242.69,484.35c18.54,169.94-19.33,340.7-23.8,511.67-7.84,297.94,89.62,597.62,271.25,834,88.39,115.16,195.89,215.51,275.73,336.73s130.68,273.33,88,412.12c-7.94,25.83-19.29,51.11-37.87,70.7-36.77,38.87-96.51,48.51-149,38s-99.61-38.38-145.64-65.8"/><path class="cls-1" d="M258.54,1369.59C447.1,1340.29,654.81,1407,787.11,1546,893.79,1658,957.87,1804.36,999.69,1953.35s63.23,302.79,96.64,453.85a2900.29,2900.29,0,0,0,239.27,672.68c35.59,70.89,85.48,148.45,164.17,158.31,29.84,3.75,60.11-3.21,88.72-12.44,147.24-47.24,268.59-151,382.49-255.64,75.66-69.47,150.55-141.26,206.84-227.17s92.77-188.26,83.71-290.44c-3.13-34.91-11.45-70-6-104.58s29.7-69.88,64.61-73c18.26-1.64,36.15,5.61,52.62,13.62a557.84,557.84,0,0,1,156.41,112.33"/><path class="cls-1" d="M1350.16,3895c51.23,33.6,123.67,19.27,169.71-21.12s69.44-101,80.43-161.33,11.35-122,20.17-182.56a660.1,660.1,0,0,1,90.3-249.66c101.1-164.94,269.13-277.68,385.06-432.53,95.7-127.78,153.63-283.28,164.92-442.45,2.28-31.33,3-64.23,18.53-91.58,27.92-49.34,96.07-63.44,150.33-46.73s97.69,56.5,139.24,95.13"/><path class="cls-1" d="M3105,2014.54c-52.63-17.46-70.11-46.34-106.93-83.29-55.25-55.47-122.38-102.6-182.55-152.83q-179.31-149.71-358.66-299.5c-94.57-79-189.81-158.4-296.94-219.05s-228.3-102.08-351.37-98.7c-151.19,4.17-293.9,75.73-412.11,170-99.53,79.43-202.2,182.15-329.24,173.39-97.42-6.71-176.09-78.36-248.2-144.28C656.6,1211.8,472.28,1067.59,253.85,1040.63"/><path class="cls-1" d="M301.09,2491.57c58.33-103.41,164.86-169.12,268.49-227.06,82.48-46.15,177.42-91.68,267.76-64.1,88.19,26.89,141.78,114.61,180,198.45,115.47,252.54,168.19,533.63,313,770.6,100.63,164.64,246.23,309.71,287.31,498.25,13.35,61.19,14.23,127.51-13.16,183.82s-88.28,98.94-150.39,91.15"/><path class="cls-1" d="M424.42,2675.4c158.39-63.12,286.77-189.67,371.15-337.82s127.07-317.2,145-486.81c8.08-76.06,14.8-160.46,70.38-213.17,72.15-68.41,190.91-50.27,278.6-97.08,91.27-48.82,131.65-156.59,203.38-231.12,96.39-100.17,247.49-133.73,385-113.67s263.69,87.49,379.11,165c63.35,42.57,124.55,88.77,177.2,144,56.15,59.07,101.38,127.45,151.3,191.86a1616,1616,0,0,0,200.5,214.69c38.32,34.23,87.07,68.7,136.76,55.68"/><path class="cls-1" d="M779.36,679.49c24,111.35,52.26,230.28,136.38,307.1,51.84,47.38,119.61,73.05,186.16,95.66,121.43,41.3,250.89,75.95,376.74,51.35s245.41-125.49,250.61-253.69c2.58-64.88-23.18-127.07-47.23-187.32-70.55-177.09-130.34-370.32-86.73-555.91"/><path class="cls-1" d="M1601.15,200.87c89.9,180.07,147.26,386.69,102.34,583s-214.77,372.78-416,374.22c-119.42.89-233-57.91-321.68-137.88S809.7,839.93,743.23,740.71"/><path class="cls-1" d="M643.1,770.15c118.22,131.86,264.4,243.91,434.15,294.54S1442,1098,1584.9,993.26c169.22-124,239.33-366.8,162.47-562.06C1705.35,324.54,1627,237,1550.24,151.93"/><path class="cls-1" d="M2157.47,122.66l63.25,274c37.8,163.79,74.9,339.28,14.74,496.19-36.48,94.87-116.37,180.06-217.21,192.27-142.73,17.34-265.62-109.91-408.91-121.14-183.09-14.34-325.15,157.85-501.59,208.92-146.42,42.39-302.59-2.32-446.85-51.64S366.47,1017,215.72,1039.55"/><path class="cls-1" d="M740,405.23a1992.46,1992.46,0,0,0,381.61,79.93c122.54,13.31,247.95,15.59,364.63,55.2,185.62,63,329.47,215.49,427,385.53,46,80.3,83.46,165.37,132.21,244,124.87,201.13,317.39,349.72,511,485.93Q2863,1871.37,3187,2060.45"/><path class="cls-1" d="M581.25,2903.39c133.06-51.14,260.83-133.11,330.61-257.4,98.71-175.79,71.76-415.42,213.14-559,102.86-104.4,268.81-123.19,410.62-86.16s265.93,120.95,388.83,200.63c198,128.46,407.44,252.11,640.6,289.12"/><path class="cls-1" d="M376.32,2529.87a2122.68,2122.68,0,0,0,478.34-230.33c90.68-58.67,177.17-124.37,272.19-175.71s201.22-88.23,309.11-83.11c55.27,2.6,109.41,16.08,162.86,30.4a5617.37,5617.37,0,0,1,811,283.84"/><path class="cls-1" d="M958.82,3375.25c94.42-70.6,216.15-92.31,333.62-101.78s237.31-9.12,350.07-43.49c76.69-23.38,147.63-62.28,215.55-104.74,104.39-65.25,205-141.73,273.53-244,68.81-102.63,101.67-228.88,91.65-352.05-5.23-64.47-20.5-134.84,13.78-189.69,44.22-70.68,148.22-75.27,225.88-44.94"/><path class="cls-1" d="M504.8,2923.81c255.88-47.73,468-274,499.06-532.39,11.94-99.51,2.61-210.1,64.24-289.16,45.47-58.32,120.6-85.28,193.58-97.3,173.68-28.56,350.63,12,521.11,55.47,91.79,23.4,183.6,47.93,270.7,85.12,69.12,29.55,134.53,66.83,199.91,104q141.26,80.58,282.47,161.07c5.22,3,11.38,7.78,10,13.62s-13.32.73-8.34-2.7"/><path class="cls-1" d="M811.79,3300.44c170.13-21.81,300.55-175.82,343.13-342s13.95-341.82-26.26-508.53c-18.85-78-40.15-155.64-50.32-235.16-23.82-188.08,20.19-388.16,139.49-535.37,40.7-50.24,89.35-93.61,131.64-142.55,70.8-81.84,123.26-178,191.37-262.1s158.08-158.85,265.41-172.9c85.44-11.16,172.26,17.83,245.17,63.69s134.17,107.77,194.67,169.06c56.73,57.4,113.42,114.94,166.83,175.47,50.65,57.45,98.15,117.73,150,174.09,113.86,123.65,285.36,285.1,446.21,341.36"/><path class="cls-1" d="M853.35,3416.5c143.89-78.75,292.1-158.88,454.89-179.16,64.9-8.06,130.69-6.31,195.86-12.36,127-11.71,249.9-52.93,365.28-107.39,93.81-44.24,184.73-98.61,255.35-174.58s119.64-176,118.28-279.69c-1.27-98.39-46.29-199.21-13.63-292.1,5.65-16,13.73-31.51,26.38-42.88,30.39-27.22,77-22.85,116.82-14.11a912.81,912.81,0,0,1,194.68,66.27"/><path class="cls-1" d="M405.62,2767.23c46.14,10.15,92.47-12.62,134.26-34.57,87.28-45.87,176.41-93.17,243.39-165.56,138.14-149.28,171.06-392.27,348.48-491.87,117.31-65.88,262.4-46.55,393.88-18.53a3914.79,3914.79,0,0,1,536.51,155.08c77.5,28.5,171.71,37.7,181.9,127.84,9.75,86-12.78,176.77-42,256.92-35.56,97.67-86,189.08-128.73,283.91-57.39,127.14-107.89,269.42-225,345.18-112,72.37-258.8,64.22-386.84,26.66s-247.37-101.31-376.56-134.6-278-31.48-382.35,51.56"/><path class="cls-1" d="M668.71,3067.31c150.08-77.05,269.06-209.73,338.08-363.52s89.27-327.92,66.57-495.08c-13-95.68-39.69-190.19-38.69-286.83.67-66.36,14.34-131.69,28.48-196.54,5.1-23.65,10.51-47.81,23.62-68.13,50.31-78,174.23-55.68,249.29-110.24,50.81-36.93,70.17-102,98.6-158.07,87.64-173.43,302.76-278.95,488.35-221.49,59.25,18.37,112.85,50.94,165.84,83.16,62.21,37.85,124.46,75.8,183.2,118.64,167.1,122,302.44,281.46,455.81,420.26A2346.6,2346.6,0,0,0,3038,2026.23"/><path class="cls-1" d="M2162.34,209c39.15,72.06,10.74,162.08-29.44,233.56A790.8,790.8,0,0,1,2000.07,617c-73.12,72.55-160,130.31-231,204.81-58.63,61.46-105.47,133.18-161.45,197.09s-124.64,121.39-207.18,141.43c-176.47,42.71-359.16-95.23-535.93-53.72-61.69,14.51-116.16,49.76-173.49,76.69-155,72.66-338.11,83.45-500.63,29.38"/><path class="cls-1" d="M276.3,2331.52c87-95.75,233.1-107.3,361.5-92.13,110.49,13,222.33,42.42,311.07,109.45,130,97.94,191.45,259.2,259.2,407.1s161.55,302.24,316,353.16c119.5,39.37,255.08,5.8,357.77-66.94s175.93-180.66,229.79-294.38,90.34-234.93,133.94-352.89c11.88-32.22,27-67.17,58.09-81.66,18.37-8.47,39.47-8.39,59.65-6.76a481.65,481.65,0,0,1,240.34,87.43"/><path class="cls-1" d="M1608.92,4030c124.7-103.77,157.57-279.7,171.72-441.3s21.45-334.16,115.58-466.3c55.29-77.57,135.75-133.29,199.21-204.44a595.73,595.73,0,0,0,134.06-256.36c18.76-78.34,21.48-160,43.94-237.4,42.4-145.79,153.7-265.43,286-339.73s284.59-107.12,436-119.21c10-.78,16.94,1,19.72,10.93-38.82,15.39-90.4,20.16-133.57,26.93a1833.73,1833.73,0,0,0-248.38,56.76c-121.4,36.82-244.83,90.54-321,192-69.28,92.36-89.76,211-119.65,322.54a1722.11,1722.11,0,0,1-168.12,408.48c-35.74,62.56-75.52,123.06-105.51,188.57A712.11,712.11,0,0,0,1856.35,3516c5,71.95,21,143.49,16.14,215.37-4.73,69.78-29,136.5-53,202.19q-38,104.25-76.09,208.39"/><path class="cls-1" d="M1006.41,3592.48c156-183.76,366.33-320.65,597.47-388.76,71.24-21.06,145.1-35.92,211.15-69.95,57.87-29.81,107.66-73.18,155.43-117.33,63.66-58.8,126.55-121.85,162.12-200.94,25.47-56.76,35.53-119,54.22-178.33,35.45-112.17,101.26-212.35,172.44-306.05,52.84-69.6,110.29-137.75,183.52-185.37,147.62-95.79,336.33-95.18,503.08-151.3"/><path class="cls-1" d="M1088.53,3687.92c142.57-235.85,370.34-418.9,631.27-507.23,49.69-16.86,101-30.64,146.23-57.24,51.11-30.19,91.54-75.19,129.79-120.62,57.75-68.46,112.79-139.67,157.69-217.17,64.29-111,106.69-233.27,164.13-347.91s133.72-225.59,244.77-289.88c70.49-40.81,150.94-60.52,230.45-78.38q132.55-30,266-55.18c4.94-.92,11.29-1.13,13.41,3.29s-8.09,7.36-6.65,2.63"/><path class="cls-1" d="M1147.4,3766.62c135.7-278.23,394.94-478.49,672.33-616.1,73.95-36.65,152.11-71.33,206.92-133,53.17-59.81,78.54-138.49,106.15-213.58A2622,2622,0,0,1,2364,2329c35.86-57.86,74.73-115.17,127.55-158.15,82.43-67,190.25-92.26,294.44-112.24q131.27-25.18,264-43.19c-7.22,6-14.47,12-21.65,18.08"/><path class="cls-1" d="M441.75,2797.76c153.57-57.05,257.49-197.23,360.14-324.84,99.79-124.06,208.13-243.71,340.69-331.84s292.53-142.72,450.78-125.47c54,5.84,106.91,19.91,158.58,36.85,137.48,45,267.15,110.22,392.71,181.47,113.13,64.26,218.94,149.06,349.83,171.73"/></g></g></svg>