<svg xmlns="http://www.w3.org/2000/svg" viewBox="0 0 3255.52 4153.74"><defs><style>.cls-1{fill:none;stroke:#0fade2;stroke-miterlimit:10;stroke-width:1.75px;}</style></defs><title>brainbow-lightblue</title><g id="Layer_2" data-name="Layer 2"><g id="Layer_2-2" data-name="Layer 2"><g id="Layer_2-3" data-name="Layer 2"><g id="Layer_1-2" data-name="Layer 1-2"><g id="hellblau"><path class="cls-1" d="M29.3,1862.49c47.34-36.38,99.59-67.73,157.23-83.15,117-31.35,240.81,5.58,353.19,50.79s224.81,99.73,345.75,104.74c111.05,4.62,219.12-33,329.54-46.15,204.73-24.3,411,36.92,597.71,124.46s359.93,201.4,545.07,292.22c55.68,27.26,116.88,53.1,177.83,41.5"/><path class="cls-1" d="M43.75,1574.9C197.82,1494.3,374,1429.71,543.31,1469.67c122.29,28.85,225.65,108.71,341.61,157.16,74.24,31,153.18,48.85,231,68.95a3970.09,3970.09,0,0,1,1178.79,520.79"/><path class="cls-1" d="M3250.45,1893.1c10.42-1-.62,15.64-11.16,15.53-213.54-3-417.58-96.71-589.1-223.8s-315.67-287-462-442.49c-36.43-38.74-73.9-78-120.59-103.68-136.73-75.16-306.31-15.23-446,54.34-83,41.29-169.19,90.63-210.69,173.48-40.25,80.37-30.16,175.86-50.13,263.49-29.15,128.55-123.55,235.66-236.88,302.74s-244.67,98.16-375.26,115.08c-84.68,11-170.56,16.41-253,38.57s-163.07,63.23-214.23,131.48"/><path class="cls-1" d="M962,183.1A668.94,668.94,0,0,0,1100.1,485.34c48.22,59.58,112.47,113.21,188.78,119.89,26.75,2.37,55.58-1.84,76.23-19.09,13.85-11.55,22.82-27.71,31.25-43.59Q1429.14,481,1459,417.95c20.92-44.13,41.11-91.76,34.68-140.09-5.5-41.54-30-77.78-53.78-112.28"/><path class="cls-1" d="M100.65,1183.61a1174.08,1174.08,0,0,1,524.09-31.28c147.14,24.76,289,77.6,437.22,94.14s312.76-10.36,414.41-119.53c41.49-44.51,69.54-99.52,105.15-148.92s78.72-93.05,121.64-136.47q157.31-159,314.55-318.12"/><path class="cls-1" d="M2029.6,490a494.82,494.82,0,0,0-140,170.89c-32,64.43-52.36,139.36-109,183.76-55.85,43.84-133.55,46.45-204.06,37.33s-140.86-28.11-211.45-20.39c-101.66,11.22-190,76.9-256.51,154.49-38.24,44.56-72.56,95-123.69,123.87-85.85,48.62-192.3,23.67-289,4.07s-210.75-27.47-280.1,42.76c-23.23,23.57-38.83,54-62.56,77.15-63.22,61.75-181.82,49.87-231.43-23.33"/><path class="cls-1" d="M3178.34,1937.74a998.66,998.66,0,0,1-487.86-178.69c-206.56-146.14-348.62-364-520.1-550.06-49.74-53.95-104.6-107.1-174-131.24-76.3-26.57-161.76-14.4-236.34,16.47s-140.42,79.33-205.45,127.2c-31,22.84-62.41,46.23-84.48,77.73-72.81,104.42-25,270.27-119.56,355.44-44.25,39.87-109.57,48.94-168.31,38.89s-113.1-36.74-167.38-61.45a2677.53,2677.53,0,0,0-410.16-147.2c-171.7-46.29-364.39-73-519.82,13.56"/><path class="cls-1" d="M1545.16,3989.47a329.93,329.93,0,0,0,199.53,18c23.57-5.34,47.19-13.56,65.51-29.3,40.79-34.9,45.31-96.13,38.89-149.35a550.33,550.33,0,0,0-85.53-234.49c-27.8-42.52-62.59-83.44-70.3-133.63-12.22-79.6,49.21-153.52,119.2-193.34s150.89-57.4,221.61-95.9c117.5-63.94,199.13-182.91,236.62-311.25s34.49-265.77,12.36-397.77c-12.79-76.61-33.18-154.86-81.65-215.57-70.49-88.41-186.36-124.07-295.1-155.17-130.48-37.31-268.89-74.72-400-39.62-93.4,24.94-178.27,85.78-275,87.37-100.19,1.7-188.33-60.18-276.28-108.17-191-104-413.32-149.68-629.84-129.43"/><path class="cls-1" d="M3166.28,1932.91c-70.92,10.54-142.37-12-209.19-37.92a1913.86,1913.86,0,0,1-626.86-399c-141.16-134.8-269.38-296.62-452.8-363.2-56-20.3-118.15-30.74-174.76-12.41-78.54,25.46-129.87,99.53-170.53,171.35-29.55,52.28-57,106.41-73.2,164.36-12,43.12-17.73,87.62-25.84,131.65-40.75,220.66-158.58,443.23-363,535.67-51.83,23.51-107.38,37.77-161.35,55.94C708.11,2246.9,526.91,2370.75,391,2533.08"/><path class="cls-1" d="M174.33,1870.88c158.3-38.73,325.07-11.76,483.23,27.68s314.42,91.62,477,103.73c147.51,11,296.5-11.4,443.43,5.76,96.72,11.37,190.66,39.64,282.29,72.62,260,93.57,506.09,225.73,772.29,299.81"/><path class="cls-1" d="M196.71,1269.91c124.06,72.15,284.92,76.52,412.58,11.15,31.22-16,60.5-35.72,92.91-49.13,80.49-33.15,172.43-23.34,256.39-.52s164.63,58.12,249.91,75.55c41.43,8.49,86.33,12.24,124.55-6,26.35-12.61,46.92-34.45,66.79-55.84,43.95-47.17,88.54-95.35,116.23-153.68,22.51-47.37,33.43-100.7,63.9-143.49,60.72-85.25,180.45-105.28,255.84-177.86,28.11-27.07,49.08-60.6,69.74-93.69L2006.1,515.2"/><path class="cls-1" d="M2101,99.33c24,121.13,69.47,236.72,100.45,356.26s47,247.23,11.57,365.54-132.12,224.41-254.41,240.73c-59.06,7.88-119.81-4.91-178.28,6.28-49.74,9.61-94.37,35.79-137.89,61.68-51.32,30.39-104.3,62.44-137.1,112.14-31.73,48.21-40.79,107.26-54.9,163.15-24.38,97-74.59,198.1-167.45,235.31-66.89,26.75-143.2,14.71-211-9.51S941,1570.77,872.49,1548.7c-106.37-34.24-220.57-33.79-332.26-30.73-144,3.92-294.88,13.34-417.75,88.6"/><path class="cls-1" d="M.21,1542.65c292.2-71,605.8-50.72,886.4,57.27,84.51,32.46,169,73.38,259.64,74,108.92.76,215.89-62.72,267.45-158.57,35.87-66.69,45.59-145.12,81.72-211.76,75.77-139.84,257-197.28,413.35-168s290.79,128.2,406.05,237.81,218.22,233,344.69,329.54c158.53,121,351.8,195.81,550.51,213.25"/><path class="cls-1" d="M993.95,199.89c29.36,71.86-21.58,149.49-31.74,226.51-8,61,10.22,122.43,34,179.11,32.79,78.1,78.16,153.2,145,205.14,50.73,39.5,111.39,63.79,171.09,87.5l225.84,89.9c99.66,39.7,199.31,79.41,301.54,111.85,145.3,46.07,297.79,78.37,427.84,157.8,164.16,100.19,276,264.76,402.08,410s287.29,282.09,479.36,291.31"/><path class="cls-1" d="M932.24,209A622.66,622.66,0,0,0,1047.7,497.63c40.57,55.1,92.42,104.83,156.82,127.9s143.07,14.77,192-33.13c26.57-26,42.4-60.81,58.13-94.53A3580.12,3580.12,0,0,1,1660.44,119"/><path class="cls-1" d="M1396.84,153.61a359.43,359.43,0,0,1,85.84,138.72c11.88,35.42,18.24,73.81,9.26,110.07-5.78,23.13-17.47,44.48-32.34,63.12-65.35,82-190.94,104.32-285.52,58.84S1019.36,375,1015.85,270.14c-1.27-37.74,1.6-81.62-27-106.22"/><path class="cls-1" d="M609,486.69c86.72,89,220.19,115.81,344.32,111.38s246.07-35.51,370.07-42.92c170.33-10.31,352.69,29.92,473.36,150.68,69.81,69.8,113.7,160.49,164.14,245.28C2165.52,1295,2486,1551.6,2799.4,1800.41c86.41,68.6,189,141.41,297.08,118.78"/><path class="cls-1" d="M2235.46,413.82c31,184.56,9.92,377.56-60.36,551-18.78,46.33-44,94.46-88.83,116.49-69.92,34.41-150.85-8.21-227.7-21-87.51-14.58-179.61,12.15-250.61,65.34s-121.68,131-149.27,215.36c-32.86,100.12-45.1,224.06-137.58,274.59-46.56,25.41-103.6,24.26-154.74,10.49s-98.34-39.13-146.57-61c-203.73-92.14-435.11-122.4-655.67-85.74-86.95,14.47-174.77,40.32-243.6,95.58"/><path class="cls-1" d="M146.11,1246.29c146.19,47.64,307.08,36.89,454-8.43s281.57-123.77,408.6-210.4c82.08-55.94,166.48-117.69,265.24-128.23,100.46-10.69,200.77,33.72,301.14,22.9,107.7-11.64,198.76-85.2,269.3-167.26S1972.11,579,2050.2,503.94"/><path class="cls-1" d="M1437.44,88.73A871.55,871.55,0,0,0,1541.3,481.63c18.49,34.36,39.71,67.8,68.27,94.24,29.85,27.62,66.52,46.45,100.36,69,216.51,144.23,298.17,422.88,478.88,610.11,119.92,124.21,279.56,204.12,400.62,327.12,53,53.88,97.76,115.31,150.46,169.5,111.41,114.72,257.85,194.81,414.5,226.93"/><path class="cls-1" d="M120.37,1572.46c237.1-100.3,515.2-98.89,751.26,3.69,63.69,27.68,124.92,62.43,192.18,79.6s144.42,13.91,198.9-29.11c62.93-49.66,79.3-136,107.21-211.18,62.16-167.94,203.49-304.51,373.28-361,40.09-13.37,82.38-22.46,124.37-18.26,38.8,3.88,75.74,19.07,110,37.81,193.12,105.78,300.71,315.44,447.76,479.27,216.76,241.44,510.88,360.22,823.87,405.53"/><path class="cls-1" d="M198.25,1265.11a1081.39,1081.39,0,0,0,524.58-62.41c56.29-21.6,112.67-48.32,173-48.56,108.46-.49,198.86,83.51,304.78,106.91,136.25,30,271.05-43.08,407.2-73.34,59.86-13.28,121.35-18.34,182.5-21.32,85.3-4.11,172.31-4.1,254,20.53,129,38.75,232.36,134.48,321.88,235s171.46,210,279.33,290.44A700.32,700.32,0,0,0,2941,1840"/><path class="cls-1" d="M2096,192.61c121.86,177,128.72,408,108.54,622-7.82,82.29-21.07,169.28-74.46,232.42-76.91,91.06-210.05,103.92-328.92,112.19s-252.87,26.81-323.14,123c-53.26,72.94-56,174.33-111.74,245.36-61.72,78.63-174.24,100-273.13,85.23s-190.72-58.53-286.23-87.93c-210.24-64.62-441.77-57.17-647.44,20.7"/><path class="cls-1" d="M199.64,1217.31c130.59,24.76,263.46,49.54,395.63,35.42,148.88-15.88,292.36-80.75,441.93-73.38,150,7.36,295.64,87.21,443.51,61.29,66.91-11.77,128.14-44.5,192.62-65.76,173.56-57.12,373.74-25.8,521.41,81.85C2300.1,1333.46,2376,1443,2451.25,1549.4s154.14,214.49,263.06,286.06,255.59,100.21,370.31,38.42"/><path class="cls-1" d="M1495.47,296.09c20.82,47.38,39.34,96.72,43.44,148.35s-7.34,106.27-40.82,145.7c-62,73.08-180.06,71.58-264,25.29a330.75,330.75,0,0,1-132.58-135.68c-46.69-89.49-50.59-196.82-99.12-285.41"/><path class="cls-1" d="M561,500.65l212.93,53.48c104,26.17,209.39,52.43,316.61,52,60.17-.27,119.93-9,179.86-13.25C1447.23,580.28,1635.13,610,1775,719.1c180.21,140.54,248.23,382.75,404.3,549.7,67.55,72.21,149.88,128.57,231.54,184.29l758.39,517.43"/><path class="cls-1" d="M229.34,1827.4c128.79,50.18,274.72,1.69,411.36,22.17,82.52,12.32,158.84,49.35,236.47,79.82a1555.42,1555.42,0,0,0,586.58,106.89c119.9-1.57,241.27-16.95,359,5.83,112.63,21.81,215.49,77.18,317.68,129.29q277.46,141.38,567.41,256.45"/><path class="cls-1" d="M398.49,1282.15c85.07-63.48,192.83-90.71,298.78-95.47s211.74,11.63,316.66,27.94l197.63,30.69c85.09,13.28,171.58,26.49,257.11,16.27,139.07-16.69,266.22-94.46,405.86-104.37,200.9-14.22,384.09,113.68,526.35,256.21,201.4,202,374.94,449.62,683.38,474.24"/><path class="cls-1" d="M1088,425.57c32,85.88,68,177.11,143.44,229.25,16.56,11.45,38.27,20.77,56.33,11.85,14.08-6.95,21.13-22.68,27.65-37,34.25-74.36,85.39-139.5,127.82-209.49s76.94-149.16,72-230.85"/><path class="cls-1" d="M964.7,141.28c-7.31,63.92,14.05,127.44,39.06,186.64,35,82.85,79.74,164.67,149.78,221s170.33,82.44,252.16,45.3c70.46-31.91,115.7-104.55,133.85-179.7s13.24-153.75,8.12-231"/><path class="cls-1" d="M665.37,490.76c309.39,153,711.9-22.43,1012.53,147,171.76,96.83,267.68,283.44,377.8,447.06,264.8,393.48,661.66,696.37,1111.21,847.79"/><path class="cls-1" d="M2526.92,2342.12l13.91,9.94c-133.33-68-269.08-130.89-402.44-198.84-109.18-55.57-222.29-112.42-344.61-119.76-169.57-10.28-332.48,75.7-502.41,76.11-231.59.41-432.05-154.73-654.68-218.25C441,1835.5,232,1852,31.57,1887.21"/><path class="cls-1" d="M260.64,1808c118.44,54.24,240.84,103.19,369.6,122.57,306.26,46,615-78.91,924.16-60.53,189.74,11.31,373.1,76.67,541.07,165.42s322.33,201,476.11,312.8"/><path class="cls-1" d="M285.85,1888.41c153.1,16.65,319.9,30.22,449.42-53.1,106.09-68.36,176-195.93,298.34-226.71,61.25-15.37,126-3.15,188.65-11.43,82.49-10.87,159.32-59.27,204.83-128.88,28.92-44.26,45.19-95.58,71.7-141.37,99.56-172.33,331.63-233.58,524.3-184s350.7,187,481.83,336.59c107,121.94,203.5,256.43,334.87,351.59A749.46,749.46,0,0,0,3097.85,1951"/><path class="cls-1" d="M181.42,1292.16q342.14-36.94,684.37-73.82c85.91-9.26,171.8-18.53,258.1-22,157.15-6.37,316.06,6.55,470.73-22.11,89.81-16.67,178.06-47.2,269.43-46.9,150.33.57,286.95,84.26,407.78,173.73,57,42.23,112.85,86.53,163,136.9,69.94,70.19,128.12,151.3,197.38,222.28a986.81,986.81,0,0,0,434.94,259"/><path class="cls-1" d="M947,238.16q15.14,67.71,36.73,133.63c20.4,62,48.6,126.93,104.42,160.88,45.27,27.55,102.93,29.85,153.54,14.2s94.77-47.71,132.57-84.85A544.82,544.82,0,0,0,1490.65,293.6c18.63-42.14,29.58-96.93-2.65-129.68"/><path class="cls-1" d="M989.17,307.92A597,597,0,0,0,1094.7,572.83c14.19,19.76,29.86,39.08,50.17,52.48,50.87,33.82,119.13,24.51,176.2,2.84,25.92-9.82,51.54-22.31,71.16-41.88,30-29.84,42.87-72.33,54.71-112.91l65.18-223.93c7.28-25.05,14.43-52.52,4.1-76.44"/><path class="cls-1" d="M2069.32,504.76q-114.62,117-229.15,234c-36.28,37.1-73.73,75-120.83,96.79-161.24,74.55-359.6-65-524.12,1.92-116.37,47.26-170.58,178.65-259.33,267.6a427.75,427.75,0,0,1-217,116.36c-163.54,32.83-337.71-31.49-497.82,15.74"/><path class="cls-1" d="M603.28,514c201.34,99.52,437.4,127.24,656.31,77.12,104.54-23.86,213.25-72.17,262.62-167.36,44.8-86.41,30.28-190.22,14.59-286.25"/><path class="cls-1" d="M2065.31,128.25c135.75,285.39,165.57,619.63,82.57,924.57-15.6,57.44-38.79,118.59-89.89,149.31-51.27,30.83-117.27,22.25-173.65,2.22s-109.45-50.64-168.25-62.08c-105.79-20.62-221.79,29.24-279.58,120.23-29.61,46.6-44.08,100.81-67.74,150.59-41.52,87.62-119,164.74-215.06,177.61-59,7.9-118.11-8.64-175.5-24.08-217.56-58.46-450.79-103-665.53-34.62"/><path class="cls-1" d="M400,1194.66c214.85-13.81,429.82-27.6,643.84-51.35,69.66-7.7,139.55-16.51,207-35.31,68.41-19,133.64-48.16,202-67.07,200.93-55.65,425.78-17.25,596.79,101.84,130.14,90.61,225.8,221.32,338.31,332.95,180.33,178.9,407.64,310,652.74,376.62"/><path class="cls-1" d="M1560.74,3984.65c72.39,24.93,156.54,12.39,218.59-32.54s100.15-121.06,99-197.55c-1.61-104.47-69.76-195.28-141.51-271.08-109.62-116-236-218.16-323.61-351.48-112.26-170.81-151.5-377.47-208.21-574-22.56-78.1-49.77-158.07-105.43-217.38-38.47-41-88.45-69.54-139.93-92.15-97.34-42.74-206.47-66.34-310.63-45.17-89.64,18.22-169.32,67.74-246.79,116.44"/><path class="cls-1" d="M1504.64,3924.67c24,26.53,57.81,51.72,83.58,76.38,30.31,29,71,55.94,112.49,25.11,37.89-28.15,47.74-80.56,47.72-127.81-.14-98.7-30.84-194.57-45.31-292.22s-10.08-205.56,50.4-283.52c53.22-68.74,139.23-101.29,213.7-146.14,140-84.27,247-221.65,294.45-377.85s35.08-330-34.18-477.82c-9.77-20.95-21.05-43.31-17.07-66.11,5.55-31.79,40.19-51.88,72.51-52.15s62.7,14.16,91.75,28.37L2682.36,2381"/><path class="cls-1" d="M203.86,1816.71c-8.75-1.38-17.55-2.84-26.28-4.22,283.19,66.83,540.33,228.26,828.31,269.85,41,5.94,83.14,9.31,123.36-.46,53.41-12.93,98.51-47.63,148.79-69.8,98.19-43.52,211-37.26,316.77-18.9C1903,2046.57,2186.24,2194,2456.24,2352"/><path class="cls-1" d="M201.17,1557.68c53-34.22,120.52-33.63,183.65-31.89,197.36,5.57,401.35,12.57,579.52,97.76,130.5,62.4,238.54,162.87,360.13,241.15,404.82,260.62,934,261.6,1343.36,515"/><path class="cls-1" d="M368.36,1274.57q296.63-4,593.35-2.34c76.8.42,155.77,1.62,226.78,30.86,56.19,23.25,103.9,62.68,150.55,101.6,31.7,26.43,64.22,53.77,83.53,90.27,22.9,43.43,24.36,94.36,34.19,142.42,26.26,127.9,113.87,236.55,218.64,314.61s226.45,129.38,346.86,180q330.71,139,661.36,277.85"/><path class="cls-1" d="M987.86,314.75c37.86,69.36,76.31,139.63,130.34,197.36,184.69,197.63,498.83,204,720,359.72,68,47.86,125.57,108.79,182.11,169.66,169.22,181.79,335.49,367.3,523.74,529.14s401,300.57,638.15,374"/><path class="cls-1" d="M2254.73,2323.32c-85.41-132-174.63-267.79-306-354.16-98-64.46-213.42-97.2-316-154.31s-197.52-151.5-203-268.77c-4.93-105,66.09-202.61,156.81-255.69s198.19-69.12,303.09-75.89c39.76-2.57,82.44-5.05,113.81-29.65,34.86-27.49,46.1-77,38.83-120.73s-30.24-83.19-53.73-120.88A2542.7,2542.7,0,0,0,1727.76,595c-66.33-74.42-137.58-145.67-188.87-231.23-51.45-85.79-96.29-227.67-52.42-325.37C1444.63,196,1463,374,1541.3,517.09,1629,677.56,1780.89,793.7,1879.8,947.51c33.1,51.48,56.6,127.72,9.83,167.18-24.46,20.55-59.11,21.84-91,24.3-113,8.64-227.23,46.8-308.12,126.16s-121.39,204.52-82.23,310.74c19.34,52.27,55.79,96.58,96.42,134.75,147.15,138.19,348.16,202.7,511.8,320.7a939.92,939.92,0,0,1,291.9,345c38.66,78.35,66.34,163.45,68.56,250.81,3.34,133.76-54.3,264-139.35,367.37s-196.07,182.13-311.33,250.09c-96.85,57-208.76,121.88-228.63,232.55-12.4,68.93,15.56,137.9,40.69,203.2s48.31,137.45,26.82,204.08-108.57,114.47-164.34,72.15"/><path class="cls-1" d="M159.27,1568.18c165.66-1.87,333.81-3.38,494,39.18s314.19,135.5,393.48,281c95.26,174.89,67.76,388.42,106.25,583.77,21.12,107.3,62.42,209.44,103.45,310.75,46.59,115,93.47,230.68,157.82,336.73,101.56,167.49,244,307,348.32,472.93,59.7,94.89,107.38,212.66,66.11,316.89-24.82,62.79-81.77,111.93-147.55,127.09s-138.56-3.9-188.42-49.43"/><path class="cls-1" d="M344.6,1187.43c168.12-67.21,376.51-16.16,494.41,121.27,103.62,120.7,133.57,286.8,151.3,444.84,45,400.48,42.1,824.06,239.45,1175.38,120.52,214.64,306.57,383.66,456.51,578.84,64.57,84,124.42,178.57,131,284.21,3.08,50.5-12.12,109.46-58.37,129.92-48.22,21.36-102.88-9.65-144-42.88"/><path class="cls-1" d="M362.51,1539.72a1575.81,1575.81,0,0,1,299.66-64c41.23-4.72,83.47-7.7,123.61,2.69,45.65,11.72,85.32,39.8,120.83,70.66a751.44,751.44,0,0,1,178.24,229.13c33.84,67.18,57.31,139,80.73,210.45,48.47,148.32,97,296.71,136.07,447.77,29.23,113,53.24,227.6,91.45,337.9a1379.62,1379.62,0,0,0,138.26,286.87c20.35,32.09,42.57,63.93,73,86.7,29.34,21.89,65,34.2,101.21,39.53,135.57,20.1,271.79-56.88,355.51-165.42s123.51-244.2,152.24-378.19a2969.52,2969.52,0,0,0,56.94-391.42c2-25.69,4.23-52.83,19.1-73.86,23.68-33.37,73.11-39.42,111.32-24.83s68,44.89,96.45,74.39l130.5,135.24"/><path class="cls-1" d="M331.43,1219.38a3561.65,3561.65,0,0,0,680,75.75c40.24.57,82,.17,118.69-16.37,49.12-22.18,81.21-69.46,111.42-113.93,65.12-96.06,139.17-195,247.49-236.93,89.11-34.54,192.34-26.18,276.45-71.42,107.51-57.85,153.78-184.59,194.62-299.62,9.56-26.87,19.59-54.3,37.29-76.67,31.33-39.62,82.67-58.72,116-96.67,47.93-54.63,45.83-146.22-4.7-198.52"/><path class="cls-1" d="M959.23,177.07a1179.55,1179.55,0,0,0,84.68,226.72c32.94,66.34,77,133.71,146,160.74,82.46,32.24,175-2,263.32,2.14,104.2,4.88,199.43,63.92,273.17,137.79s130.28,162.76,193.12,246.1c124.29,164.73,274,308.16,423,451,247.92,237.52,507.25,482,833,590.44"/><path class="cls-1" d="M1467.77,94A829.16,829.16,0,0,0,1507,299.6c24.06,74,58.36,144.07,93.64,213.31q123.93,243.15,266.06,476.58c55,90.41,112.64,180.22,186,256.65,54.11,56.36,115.92,104.55,178.87,150.81a4220,4220,0,0,0,917.07,511.76"/><path class="cls-1" d="M2122.82,171.24q37.42,161.7,68.32,324.74c22.23,117,41.94,237.39,22.39,355S2128,1084.8,2019.89,1134.81c-143.25,66.28-328.94,6.88-457.77,97.89C1432.87,1324,1412.45,1534.12,1265.66,1593c-92.48,37.07-195.66-3.5-289.6-36.72a2009.05,2009.05,0,0,0-462.38-104.45c-126-13.05-264.29-10.79-364.63,66.46"/><path class="cls-1" d="M220.21,1187c199.56-49.29,416.73,30.12,565.55,172,52.32,49.9,98,107.77,127.05,174,25.35,57.9,37.3,120.66,49.51,182.75q55.92,285.79,122,569.52c19.93,85.45,40.75,171.39,78,250.74,44.88,95.53,112.22,178.47,179.21,260,64.3,78.23,129.08,156.27,200.4,228.06,75,75.52,162.68,146.57,267.71,163.81,130.24,21.27,264.37-48.64,343.36-154.37s109-241.4,110.11-373.38c1.16-126.91-22.33-253.67-12.25-380.22,2-24.84,7.51-53.28,29.29-65.44,20.17-11.35,45.27-3.63,66.75,4.94a1104.72,1104.72,0,0,1,272.21,156.73c6.8,5.37,14.76,11.07,23.19,9.56s13.21-15.3,5.1-18.66"/><path class="cls-1" d="M262.77,1799.17c351,32.23,678.52,254.64,838,568.88,70.55,139.18,109.09,292,163.05,438.32a2195.7,2195.7,0,0,0,468.9,753.06c44.6,46.79,94.63,99.6,92.79,164.23-1.18,44.09-26.84,83.26-51.62,119.73-20.56,30.29-41.79,61.37-71.52,82.82-59.61,43-177.58,31.53-232.49-15.38"/><path class="cls-1" d="M272.7,1481.16c155.39-35.67,321.83-21.57,469,39.81,50.83,21.23,99.92,48.23,139.93,86.07,63.72,60.2,100.39,143.37,127.86,226.68,107.26,325.68,97.18,682.7,218.63,1003.33,40,105.61,95.05,207.39,175.12,287,42.29,42.1,92.65,78.26,150.49,92.83,85.48,21.61,175.39-6,256.27-40.91a1402.52,1402.52,0,0,0,317.49-190.39c61.93-49.37,120.9-105.52,157.06-176,46-89.74,51.31-196.89,26.54-294.69s-77.71-186.42-142.07-264c-31.89-38.33-66.91-74.53-107.49-103.47-43.33-30.83-92.19-52.85-139.52-77.3a1534.86,1534.86,0,0,1-378.83-275.49c-90.37-89.85-173.46-202-173.13-329.46.4-148.19,121.79-278.2,264-319.89s297.85-8.2,430.47,58,247,163.07,362.44,256a8405.63,8405.63,0,0,0,731.1,526.23"/><path class="cls-1" d="M2066,.32q70.25,181,122.26,368.48c40.15,144.64,72.09,296.48,45.11,444.24s-125.31,291.07-270.11,330.74c-152.52,41.78-315.16-36.88-471.31-12.16-57.89,9.15-112.4,32.2-168.76,48.14-348.36,98.68-731.45-77.38-1078.68,25.07"/><path class="cls-1" d="M280.45,2298.82c86.87-124.26,234.28-204.05,385.89-208.71,68.24-2.14,136.12,10.09,204.29,13,233.24,9.9,461.32-88.88,694.34-76.57,109.93,5.84,217,36.21,321.85,70.11a4807,4807,0,0,1,794.39,337.91"/><path class="cls-1" d="M999.1,203.82c-19.72,41.18,5.6,88.89,30.18,127.51q36.51,57.37,73,114.61c14.28,22.44,28.83,45.3,49.09,62.58,22.81,19.68,51.38,31.11,79.63,41.68,41.15,15.45,84.6,30,128.31,24.9,70.22-8.31,126-67.31,151.59-133.22s26.49-138.38,27-209.08"/><path class="cls-1" d="M662.92,526.22C770.36,564,886,569.31,999.83,574.3q130.49,5.76,261,11.4c183.14,8.07,377.71,19.85,527.07,126,138.17,98.28,213.32,260.08,316.39,394.7,123.1,160.85,287.7,283.84,433.59,424.27,179.07,172.33,346,381.56,586.12,445.8"/><path class="cls-1" d="M243.22,1181.56a3140.83,3140.83,0,0,0,647.31,80.9c170.48,3.4,341.87-7.13,508.68-42.07,187-39.19,378.55-108.88,564-63,118.26,29.25,220,102.82,315.77,178.14,274.88,216.22,537,465.24,867.21,580.38"/><path class="cls-1" d="M2109.86,186c38.94,36.17,55,90,69.28,141.07,34.9,123.75,70,249.6,68.66,378.2s-44.29,262.57-142.24,345.92c-79.45,67.58-185.89,95-289.76,104.66s-208.82,4-312.62,15.38c-159.54,17.52-316.53,75.51-476.2,59.19-90.32-9.19-176.43-41.93-265.77-58.45a751.26,751.26,0,0,0-397.35,35c-51.93,19.48-101.93,44.72-156.12,56.85"/><path class="cls-1" d="M969.22,222.23A1456.2,1456.2,0,0,0,1089,453.54c24.91,39.14,52.52,77.87,89.83,105.43s86.38,42.91,131.08,30.49c22-6.11,41.74-18.49,60.17-31.81,63.34-45.88,117.31-108.09,141.12-182.61,27.05-84.59,13.52-176.19-.19-264"/><path class="cls-1" d="M1432.73,203.52c105.5,315,310.16,588.8,544.65,824.14S2477.53,1464.56,2733,1677c133.75,111.13,269.09,227.89,433.62,284.17"/><path class="cls-1" d="M194.39,1823.43Q460.63,1894,733.08,1937.9c149.43,24.12,301.45,42,451.9,25.4,157.53-17.41,313.08-72.57,470.56-55.2,128.11,14.08,245.59,75.13,359.71,135l692,363.56"/><path class="cls-1" d="M255.54,1472.83c178.25-34.36,367.29-10.33,531.26,67.61,118.16,56.21,227.75,146.15,270.95,269.7,30.17,86.21,25.36,180,29.37,271.22,20.28,460.35,268.06,876.71,523.3,1260.36,99,148.7,204.43,310.84,192.92,489-2.76,43.31-14.45,89.18-47.29,117.53s-91.46,28.68-114.11-8.24"/><path class="cls-1" d="M425.77,2253.47a1608.57,1608.57,0,0,0,460.3-148.56c109-54.41,213.39-121.9,331.61-151.3,141.63-35.23,292.22-12.69,430.81,32.95s268.68,113.49,402.63,171.66c169.71,73.75,345.82,132,521.58,190"/><path class="cls-1" d="M263.37,1147.86c184.28-8.61,370.93,51,516.08,164.88s247.55,281,283,461.94c32.93,167.75,9.74,341.11,19.83,511.84,17.55,297.53,140.17,587.83,341.25,807.85,97.87,107.22,213.52,198.06,303.39,312s153.47,261.21,122.73,403.14c-5.71,26.42-14.87,52.56-31.72,73.67-33.33,41.86-92,56.54-145.21,50.51S1570.24,3904,1522,3880.57"/><path class="cls-1" d="M257.41,1517.58c185.39-45.24,398,3.52,541.66,130.75,115.84,102.58,192.14,242.92,246.49,387.81s88.77,296.31,134.92,444A2900.29,2900.29,0,0,0,1476.14,3130c41.49,67.6,97.8,140.64,177,143.76,30,1.19,59.62-8.31,87.33-19.95,142.68-59.6,254.76-173.36,359.34-287.27,69.47-75.66,138-153.56,186.75-244s76.41-195.47,58.69-296.51c-6.09-34.51-17.37-68.77-14.91-103.69s23.64-72.16,58.17-78.24c18-3.19,36.49,2.51,53.59,9.09a557.84,557.84,0,0,1,165.41,98.61"/><path class="cls-1" d="M1560,3940.95c53.9,29.12,124.86,8.68,167.29-35.49s60.59-106.59,66.4-167.59.93-122.48,4.56-183.62A660.1,660.1,0,0,1,1867,3297.81c86.7-173,244.52-299.58,346.85-463.74,84.48-135.46,129-295.33,126.67-454.88-.4-31.41-2.43-64.25,10.67-92.82,23.62-51.54,90.32-71.39,145.81-59.36s102.14,48,146.83,82.93"/><path class="cls-1" d="M3148.4,1917.92c-53.93-12.92-73.8-40.21-113.63-73.89-59.77-50.56-130.66-91.81-194.89-136.74q-191.4-133.9-382.85-267.89c-100.95-70.65-202.6-141.67-314.51-193S1906.36,1164.14,1784,1178c-150.29,17-286.38,100.47-396.14,204.5-92.41,87.61-186,198.69-313.29,200.78-97.64,1.6-182.12-63.08-259.58-122.63-174.42-134.15-370.34-262.15-590.28-270.42"/><path class="cls-1" d="M395.3,2631.86c49.31-108,149.87-182.54,248.19-249.09,78.26-53,169-106.45,261.33-86.66,90.16,19.29,151,102.13,196.28,182.4,136.54,241.8,213,517.38,377.43,741.16,114.27,155.48,271.69,287.63,328.68,472,18.51,59.83,25,125.83,2.53,184.27s-79.54,106.1-142.08,103.62"/><path class="cls-1" d="M533.83,2804.53c152.44-76.37,269.58-213.39,341-368.18S974.49,2109.49,978,1939c1.58-76.47,1.09-161.14,52-218.39,66.07-74.3,185.94-66.33,269.33-120.44,86.78-56.41,117.85-167.23,183-247.59,87.51-108,235.21-154.31,374-146s270.18,64.73,391.78,132.17c66.74,37,131.65,77.85,188.82,128.43,61,54.08,111.86,118.36,167.08,178.29a1616,1616,0,0,0,218,196.85c41.1,30.85,92.6,61,141,43.84"/><path class="cls-1" d="M717.61,785.65c33.39,108.9,71.67,225,162,294.37,55.68,42.79,125.39,62.61,193.63,79.46,124.5,30.81,256.44,54.32,379.74,19.1s233.83-145.92,228.11-274.1c-2.95-64.87-33.91-124.63-63-182.62C1532.74,551.42,1456.73,364,1484.38,175.36"/><path class="cls-1" d="M1495.67,238.83c104.9,171.76,179.64,372.75,151.58,572.13S1465,1200.67,1264.63,1219.23c-118.91,11.05-237.13-37.87-332.25-110s-170.89-166.3-245.56-259.5"/><path class="cls-1" d="M589.55,887.58c129,121.32,284.2,220.52,457.64,256.52s366.28,2.11,499.73-114.37c158-137.95,207.24-385.84,114-573.84-50.94-102.71-136.5-183.27-220.18-261.49"/><path class="cls-1" d="M2043.32,113.55l86.34,267.65c51.6,160,103.5,331.68,56.92,493.14C2158.31,972,2086,1063.65,1986.52,1084.39c-140.74,29.42-274-86.9-417.73-85.9-183.65,1.3-310.53,185-482,250.86-142.28,54.69-301.69,23.45-449.63-13.42s-302.23-78.8-450.52-43.55"/><path class="cls-1" d="M655.07,515.73a1992.46,1992.46,0,0,0,387,47.16c123.23,2.83,248.37-5.57,368,24,190.31,47,346.62,186.66,458.23,347.79,52.68,76.09,97.24,157.67,152.5,231.85,141.53,189.77,346,321.44,550.55,440.67q323.71,188.7,662.63,349.52"/><path class="cls-1" d="M709.49,3018.35C837.71,2956.07,958,2863.52,1017,2733.75c83.39-183.55,36.14-420,164.79-575.06,93.6-112.78,257.35-145.62,401.8-120.8s275.26,97.87,404.5,166.8c208.23,111.14,427.42,216.52,662.88,233.55"/><path class="cls-1" d="M473.52,2663.62a2122.68,2122.68,0,0,0,457-270.21c85.36-66.18,165.94-139,256.25-198.24s193-105,300.92-109.12c55.29-2.12,110.38,6.71,164.86,16.43a5617.37,5617.37,0,0,1,832.17,213.79"/><path class="cls-1" d="M1125.86,3456.36c88.07-78.38,207.51-110.37,323.75-129.81s235.68-29.29,345.1-73.13c74.43-29.82,141.8-74.62,205.85-122.71,98.46-73.9,192.17-158.67,251.77-266.4,59.83-108.12,81.82-236.7,61.35-358.58-10.7-63.79-31.9-132.6-2.42-190.18,38-74.19,141.27-87.61,221.23-64"/><path class="cls-1" d="M635.06,3045.2C886,2975.86,1078,2732.4,1087,2472.27c3.43-100.16-15.28-209.56,39.4-293.58,40.34-62,112.9-95.24,184.59-113.43,170.62-43.24,350.37-17.92,523.94,10.92,93.44,15.5,187,32.13,277,61.78,71.38,23.56,139.73,55.14,208,86.63q147.61,68.26,295.16,136.44c5.45,2.55,12,6.78,11.07,12.72s-13.21,1.86-8.54-2"/><path class="cls-1" d="M973,3394.33c167.65-36.21,284.49-200.76,312.77-369.93s-15.2-341.77-69.45-504.45c-25.42-76.08-53.25-151.66-70.15-230-39.74-185.37-12.92-388.47,93.42-545.3,36.27-53.52,81.06-100.87,119-153.24,63.58-87.57,107.66-187.8,168.37-277.44s144-171.73,249.73-194.86c84.18-18.39,173.15,3.1,249.7,42.59s142.86,96,208.35,151.88c61.41,52.37,122.79,104.87,181.16,160.63,55.36,52.94,107.81,108.95,164.29,160.69,124,113.51,308.59,259.78,473.64,302.14"/><path class="cls-1" d="M1024.28,3506.43c136.67-90.71,277.52-183.16,438-217.23,64-13.56,129.68-17.41,194.1-29,125.56-22.48,244.49-74,354.81-138.1,89.7-52.06,175.66-114,239.57-195.68s104.22-185.57,94-288.74c-9.64-97.92-63.08-194.55-38.44-289.88,4.27-16.44,11-32.56,22.64-45,28-29.71,74.75-29.32,115.19-24a912.81,912.81,0,0,1,199.62,49.46"/><path class="cls-1" d="M522.92,2897.63c46.84,6.19,91.06-20.45,130.83-45.87,83.06-53.13,167.84-107.85,228.42-185.67,124.93-160.49,137.05-405.4,305.35-519.74,111.27-75.63,257.49-68.71,390.87-52a3914.79,3914.79,0,0,1,547.76,108.85c79.65,21.8,174.29,22.95,192.12,111.9,17,84.88,2.31,177.22-20,259.56-27.12,100.34-69.59,195.72-104.09,293.83-46.36,131.56-84.56,277.62-194.84,363.08-105.48,81.65-252.39,86-383.17,59.49s-255.1-79.89-386.65-102.07-279.67-7.71-376.58,83.92"/><path class="cls-1" d="M810.6,3174.23c143-89.55,250.23-231.87,305.92-391s61-334.33,24.19-499c-21.07-94.23-55.73-186.12-63-282.5-5-66.17,3.08-132.43,11.65-198.25,3.07-24,6.41-48.53,17.74-69.89,43.49-82,168.86-70.3,239-131.06,47.48-41.12,61.23-107.6,84.79-165.89,72.57-180.26,277.91-303.7,467.73-262.25,60.59,13.26,116.77,41.15,172.31,68.74,65.2,32.42,130.46,64.93,192.64,102.62,176.88,107.34,325.3,254.7,489.93,379.94a2346.6,2346.6,0,0,0,329.11,209.51"/><path class="cls-1" d="M2055.53,199.2c45.14,68.47,24.49,160.58-9.46,235.22a790.8,790.8,0,0,1-117.5,185.1C1861.88,698,1780.26,763,1715.79,843.25c-53.19,66.22-93.75,141.68-144.09,210.11s-113.86,131.56-194.39,158.55c-172.19,57.57-366-64.32-538.56-7.91-60.23,19.71-111.51,59.47-166.34,91.17-148.28,85.59-329.78,111.92-496.32,71.89"/><path class="cls-1" d="M357,2474.5c78.5-102.8,223.12-126.75,352.35-122.56,111.2,3.56,225.14,23.34,319.25,82.57,137.85,86.52,212.82,242,292.91,383.56s186.68,287.39,344.95,325c122.42,29.05,254.65-15.94,350.78-97.15s159.92-195,203.9-312.87,70-241.76,103.42-363c9.09-33.12,21.14-69.22,50.93-86.31,17.59-10,38.62-11.72,58.86-11.81a481.65,481.65,0,0,1,246.9,66.66"/><path class="cls-1" d="M1829.33,4053.38c115.42-114,133.19-292.09,133.54-454.31s-7.07-334.77,75.48-474.45c48.49-82,123.92-144.36,181.08-220.66a595.73,595.73,0,0,0,111.75-266.84c12-79.65,7.78-161.29,23.57-240.27C2384.58,2248,2485.3,2119.29,2610.8,2034s274.44-131,424.26-155.88c9.9-1.63,17-.47,20.58,9.21-37.37,18.64-88.36,27.78-130.79,38.2a1833.73,1833.73,0,0,0-242.64,77.7c-117.83,47-236.23,111-303.46,218.59-61.17,97.92-71.48,217.87-91.77,331.55a1722.11,1722.11,0,0,1-132.74,421.31c-30.29,65.37-64.77,129-89.08,196.87a712.11,712.11,0,0,0-33,348.7c11.12,71.26,33.16,141.18,34.42,213.21,1.23,69.93-17.26,138.47-35.59,206q-29,107.11-58.07,214.11"/><path class="cls-1" d="M1191.77,3668.75c139.75-196.37,337.71-350.67,562.21-438.2,69.19-27,141.51-48.14,204.43-87.67,55.13-34.63,101-82.08,144.88-130.14,58.43-64,115.72-132.18,144.43-214,20.54-58.72,25.27-121.64,38.85-182.3,25.77-114.78,82.82-220.2,145.77-319.62C2479,2223,2530.5,2150.18,2599.4,2096.5c138.94-108,327-123.46,488.37-193.57"/><path class="cls-1" d="M1281.71,3756.85c122-247.13,333.34-448.9,585.81-559.12,48.08-21,98.06-39.12,140.83-69.47,48.36-34.43,84.81-82.7,119.06-131.23,51.71-73.13,100.49-148.76,138.63-229.8,54.61-116.06,86.45-241.51,133.92-360.62s114-236.15,219.2-309.66c66.77-46.66,145.25-73.15,222.94-97.71q129.52-41.14,260.3-77.61c4.85-1.34,11.15-2.09,13.64,2.14s-7.44,8-6.4,3.18"/><path class="cls-1" d="M1347.06,3830.25c111.52-288.77,352.78-510.37,617.45-671.09,70.56-42.81,145.49-84,194.85-150.15,47.88-64.11,66.47-144.67,87.59-221.84a2622,2622,0,0,1,190-492.89c30.81-60.7,64.65-121.11,113.62-168.43,76.44-73.73,181.7-108.11,283.82-136.89q128.65-36.26,259.39-65.51c-6.68,6.62-13.4,13.18-20,19.86"/><path class="cls-1" d="M561.51,2925c148.16-69.92,239.77-218.42,331.19-354.32,88.87-132.1,186.63-260.54,311.21-359.63s279.32-167.1,438.47-163.38c54.34,1.22,108.22,10.74,161.14,23.22,140.81,33.14,275.56,87.08,406.73,147.39,118.19,54.4,230.83,129.89,363.18,141.33"/></g></g></g></g></g></svg>