<svg xmlns="http://www.w3.org/2000/svg" viewBox="0 0 3013.79 2779.33"><defs><style>.cls-1{fill:none;stroke:#e32422;stroke-miterlimit:10;stroke-width:1.75px;}</style></defs><title>Asset 1</title><g id="Layer_2" data-name="Layer 2"><g id="Layer_1-2" data-name="Layer 1"><g id="Layer_2-2" data-name="Layer 2"><g id="Layer_1-2-2" data-name="Layer 1-2"><g id="rot"><path class="cls-1" d="M1942.33,2390A1442.92,1442.92,0,0,1,2574,2545.9c89.51,45.54,195.56,101.28,283.64,53,44.78-24.59,72.72-71.41,93-118.43a656.82,656.82,0,0,0,52.09-225c3.52-71-7.88-149.5-60.74-197.1"/><path class="cls-1" d="M2952.35,2048.08c41.89,45.17,36.28,116.36,18.87,175.53s-44.1,118.68-35.78,179.66c4.72,34.53,20.59,66.82,26.24,101.21,12.79,78.61-45.95,168.32-125.65,168.44-106,.12-159.66-133.89-257.55-174.6-40.06-16.65-84.86-16.31-128.25-15.75q-141.74,1.86-283.48,3.81"/><path class="cls-1" d="M1735.31,1841.19q48.94-86.86,97.87-173.81c35.35-62.74,71.87-133.64,54.51-203.55-22.81-91.66-133.5-157.29-118.43-250.52,10-61.46,70.61-98.69,120.76-135.35,60.33-44.12,116.41-105.48,120.57-180.07,2.21-38.44-9.86-76.36-25.79-111.42C1905,611,1716.27,490.92,1523.48,493c-40.6.42-82.12,5.65-121-5.76-52.74-15.54-92.53-59.6-120.34-106.94-6.88-11.7-13.78-24.39-25.77-30.91-36.41-19.75-68.66,29.61-99.14,57.62-85.71,78.81-231.37-9.48-338.08,37A1203.25,1203.25,0,0,1,501,642c-82.87,35.06-179.81,60.14-260.72,20.77-22.27-10.86-42.6-26.25-66.6-32s-54.37,2.83-62.21,26.25"/><path class="cls-1" d="M2162.7,647.43c13.9,58.8,8,124.93-28.07,173.44s-105.9,73.42-160.5,47.55c-77.57-36.83-88-144.23-147.82-205.87-48.44-50-122.07-63.05-189.07-81.93a855.24,855.24,0,0,1-277-136.5c-42.69-31.75-87.27-69.38-140.47-69.37-32.6,0-63.18,14.56-93.78,25.83a501.26,501.26,0,0,1-192,30.7c-36.82-1.35-76.8-5.93-107.6,14.24-21.78,14.33-34.52,38.43-49,60.15C693.17,632.57,520.67,693.09,375.68,646.6c-47.14-15.08-92.82-40.39-142.35-38.93-94,2.83-155.46,96.28-200.2,178.86-21.65,40-43.87,87.68-25.34,129.3,9.11,20.36,26.74,35.5,43.86,49.73q73.23,60.55,150.48,116"/><path class="cls-1" d="M2094.61,616a526.54,526.54,0,0,1,29.79,189.66c-1.53,53.63-25.67,120.5-79.26,121.62-31.8.68-59-24.81-72.48-53.6s-16.83-61.15-24.2-92c-34.73-146.49-170.92-262.93-321-274.35-76-5.85-156.9,11.89-225.54-21.07-48.36-23.16-82.14-67.76-120.12-105.68-7.82-7.93-16.64-15.85-27.57-17.59-17.14-2.74-32.25,10.2-45.82,21-71.5,57.39-172.16,76.42-259.79,49.16-32.16-10-63.8-26.13-97.48-24.42-53.27,2.71-93.08,47.72-129.24,87-71,77.29-155,146.57-254.91,178.5-96.64,30.85-170.77,10-261.27-22.32C111.6,618.14,79.51,711.34,44,792.58c-9.95,22.86-19,47.17-17.1,72.06,1.86,23.87,13.59,45.8,26.8,65.77a405,405,0,0,0,194.57,154.06"/><path class="cls-1" d="M1893.47,2225.31c92.28,83.19,185.26,166.9,290.77,232.6s225.25,113.19,349.51,116.7c46.72,1.29,93.85-3.53,139.88,4.08,29.47,4.85,58.13,14.72,88,16,83.66,3.43,157-64,187.86-141.87s28.4-164.26,25.53-247.91c-2.32-67.17-5.49-137.54-39.73-195.42-52.66-89.31-162.2-124.14-262.14-151.83"/><path class="cls-1" d="M2647.2,1806.14c147.08,36.76,295.94,178.11,328.21,326.65,26.78,123.24-1.48,252.7-49,369.64-20.63,50.72-48.72,104.05-99.1,125.72-57.63,24.88-123.51.18-181.29-24.4-208.87-89-418.46-178.31-613.94-294"/><path class="cls-1" d="M1766.36,2218.74c-6.06-6.95-12.21-13.89-18.31-20.84,82.75,94.45,184.06,118.71,296.82,163.51,131.91,52.4,264.58,141.09,404.4,168.17,87.26,16.87,180.69,4.36,263.1,37.9,37,15,70.4,38.93,108.68,50.45s86.06,6.79,109.32-25.77c20.27-28.41,15.18-67,9.15-101.45Q2920.29,2380,2901,2269.27c-24.87-142.84-59-300.84-177.86-383.93"/><path class="cls-1" d="M1920.4,2266.71c264.08,147.9,540.66,299.41,843,313.81,31,1.43,63.82,1,90.58-14.8,39.36-23.2,53.91-71.93,65.34-116.11,20.3-78.92,40.79-158.74,41.88-240.27s-19.33-166.13-72.28-228.13-142.47-96-219.48-69.27"/><path class="cls-1" d="M2171.59,2723.84c-23.5-98.56-48.65-200.68-112.16-279.73-38.23-47.52-88.18-83.86-132.62-125.59-117.49-110.43-198.2-274.72-164.19-432.36,16.71-77.86,59.36-147.22,89.25-221S1898,1504.94,1862,1433.89c-13.92-27.39-34.78-50.69-50.58-77-47-78-44.39-183,6.27-258.73,28.46-42.43,69.77-75.07,97.72-117.8,58.74-89.8,44-220.6-33.5-295-34.62-33.38-78.55-55-121.68-76.26l-354-173.73c-40.61-20-82.72-40.27-128-42.36-89.87-4.14-170.14,64-260.05,64.3-68,.23-138.49-38.1-201-11.35-26.73,11.41-47.3,33.32-68.7,53.15C631,607.65,465.22,662.08,306.22,644.19c-39.27-4.4-81.11-12.56-116.64,4.67-21.84,10.63-38.35,29.79-51.64,50.19-76.9,118.78-43,295.59,72.44,377.45"/><path class="cls-1" d="M2141.55,591.35c53.42,66.09,50.24,173.35-11.78,231.5s-175.15,51-224.5-18.19c-37.1-52-36.2-124.77-75.77-175-67.76-85.88-205-58.19-303.83-105-88.24-41.76-144.7-143.42-240.59-161.56-129.59-24.53-259.54,118.07-380.74,66-24.09-10.34-46.33-28.1-72.43-27.7-33.4.5-58,29.88-79.87,55.12C601.48,630.27,352.8,712.46,128.32,663c-12.65-2.81-26.29-5.9-38.32-1.12-19.28,7.69-25.73,31.23-29.72,51.45C47.19,779.91,34.36,850,55.14,914.61c27.61,85.76,107.58,142.18,182.54,192.25"/><path class="cls-1" d="M2170.15,2655.39c5.28-82-21.46-165.82-73.2-229.71-46.51-57.4-110.6-97.63-162.6-150.14-127.57-129-170.62-329.25-126.39-505.13,23.67-94,70.26-187.19,54.81-282.86-14.24-88-79.8-163.9-81.76-253-2.15-102,78.37-185.41,110.82-282.12,47.93-142.43-25.89-315.14-162-379-89.86-42.14-197.63-40.26-281.26-93.73-44.74-28.61-81.71-72.56-133.31-85.19-85.73-21-165.92,52.47-253.7,61.16C967.31,465.12,871,399.18,781.77,431c-59.68,21.31-96.2,80.07-143.56,122.27-92.46,82.42-226.51,100.05-349.89,89.33-33.65-2.89-68.82-7.45-100.24,4.89-52.69,20.71-77.55,82.59-79.59,139.23-2.91,78.45,28,157.69,83.26,213.45,48.86,49.26,119.35,87.29,132.48,155.41"/><path class="cls-1" d="M359.2,1121.52c-99.13-54.3-180.56-140.41-229.32-242.43C99.82,816.14,91.51,723.55,153.94,692.5c25.11-12.48,54.65-10.43,82.66-10,180.56,3.06,360.77-77,479.72-212.92,15.63-17.84,32.83-38,56.4-40,19.08-1.59,36.54,9.45,53.48,18.19,70.06,36.44,156.53,39.82,229.27,9,75.12-31.84,157.33-98.2,226.68-55.25,19.49,12,33.28,31.1,49.13,47.46,114.2,117.78,316.78,86.89,451.4,180.65,98.25,68.32,143.91,203.64,107.15,317.61-30.18,93.57-108.62,170.58-117,268.51-7.9,91.93,48.19,176.09,68.15,266.2,45.42,205.24-97.77,429.94-12.94,622.27,39.57,89.7,123.25,153.25,212.38,194.29s185.56,63,278.48,94.55A1417.9,1417.9,0,0,1,2541.75,2491c92.28,50.4,188.85,113.44,293.15,99.86,24.05-3.21,48.83-11.24,64.55-29.78,36-42.25,5.8-105.31-1.84-160.29-13.7-98.8,53.27-195.73,38.92-294.52-10.39-71.35-61.13-128.09-115.91-171,76.31,72.55,161.12,151,175.2,261.76,12.15,95.53-42.69,185.38-95.27,266-46.91,71.92-94.6,144.84-159.23,201.41-67.11,58.82-143.45,89.79-231.95,84.14-85.79-5.49-161.51,20-247.08,29.86"/><path class="cls-1" d="M92.24,1809.56a501.22,501.22,0,0,1,261.87-57.09c105.31,6.07,214.81,44.94,312.83,6.14,66-26.2,115.51-85.46,140.3-152.05,29.69-79.67,21.4-181-44.77-234.34-52.14-41.91-124.48-44.11-189-61.93-112.69-31.19-204.24-112.7-284.05-198.2-58.56-62.72-115.18-132.67-133.31-216.6S170.24,711,248.83,676.53c79.77-35,171.33,7,258.38,3.07,94-4.23,177.38-62.41,243.46-129.41,37.72-38.27,74.46-81.94,125.61-98.62,58.21-19,121.74,1.35,182.54-5.08,96.16-10.06,189.82-85.8,280.15-51.17,71.93,27.61,117.72,105.52,181.75,147,76.16,49.25,180,67.17,264.83,98.39,57.13,21,115.18,43.65,161.68,82.95s80.12,98.9,73,159.36c-7.26,61.82-53.42,110.83-96.74,155.49-72.17,74.64-148.08,166.67-132,269.24,11,70,63.65,128,74.62,198,6.54,41.6-2.32,83.94-11.3,125.1-25.43,116.5-52.54,234.72-44.43,353.62s57.13,241.26,155.51,308.64c143.41,98.23,339.76,54.24,505.1,107.93,67.95,22.07,129.84,60.74,184.35,107,31.1,26.43,60.86,56,98.64,71.71s86.51,13.79,113.25-17.12c19.26-22.29,22.79-53.75,25.44-83.1,8.39-93.14,16.53-188.87-9.46-278.69-28.08-97.09-93.33-178.3-157.12-256.74"/><path class="cls-1" d="M2196.25,827.54c-65,53.3-172,43.92-226.72-19.85-23.42-27.34-37-61.45-55.41-92.36C1869.77,640.2,1795.89,582.91,1712,558.69c-101-29.17-224.09-17.49-293.86-95.94-16.89-19-29-42.07-46.92-60.1C1315.05,346,1220.79,354.44,1146,382.28c-40.18,14.92-79.7,34.51-122.54,37.67-87.82,6.44-186.85-54.76-257.16-1.79-13.45,10.12-23.94,23.46-34.35,36.72-67.4,86-147.62,177.87-256.34,189.32-76.28,8.06-152.32-26.09-228.5-17.92-84.17,9-159.35,74.63-179.62,156.85s15.77,175.28,86.2,222.42c61.23,41.07,138.73,46.5,209.54,66.82,108.59,31,205.89,100,271.16,192"/><path class="cls-1" d="M987.53.63c147.25,140.71,343.93,216.59,538.57,276.54,61.6,19,125,37.41,176.58,75.92,79.3,59.1,119.19,156.1,155.4,248.17,39.43,100.22,79.55,206.42,62.86,312.78-22.51,143.85-146.47,279.56-97.58,416.63,10.34,28.85,27.83,54.69,39.07,83.12,54,137-46.49,285-50.53,432.22-3.62,130.47,71.16,253.25,169.87,338.51s220,139.47,339.36,192.36Q2535,2471.74,2749,2566.59c49.54,22,110.06,43.13,154.5,12.25,38.6-26.79,45.68-80.41,46.67-127.42A1330.83,1330.83,0,0,0,2906.67,2085"/><path class="cls-1" d="M154.48,1735.2a985.35,985.35,0,0,0,406.16,7.52c53.25-10.21,106.78-25.42,151.26-56.51s78.78-80.51,80.36-134.71c3-100-96.57-168.55-184.12-217.12L272.48,1148.07c-85.83-47.6-175.42-98.85-226.1-182.88S2.06,754.24,85.8,703.16c66.79-40.72,151.71-20.11,229.86-16.8,150.31,6.51,302-61.1,397.75-177.07,39.68-48,79.95-109.33,142.22-111.18,33.39-1,64.15,16.43,96.58,24.64,80.82,20.58,164.37-16.8,247.74-19.07,70.48-2,139.14,21.28,205.13,46.28a3301.8,3301.8,0,0,1,319.38,140.76C1785,621.31,1847,655.86,1885.22,712c77,113,30.79,268.46-38.83,386.36-26.81,45.41-57.51,91.58-60.51,144.24-3.87,68.17,39.47,128.82,62.15,193.18a331.85,331.85,0,0,1,15.66,154.58c-18.28,132.7-116.59,257.6-84.21,387.63,14.06,56.59,51.49,104,88,149.58l191.67,239.36c48.32,60.38,98.3,124,113.16,200,11.17,57.13,1.59,117.59,19.64,172.92"/><path class="cls-1" d="M2955.49,1975.33c66.55,55.59,66.52,158.31,43.59,242S2936,2382.85,2941.7,2469.4c1.83,28.17,8.1,58.68-6.54,82.81-17.66,29.16-57.37,34.88-91.4,33.5-87.77-3.77-171.84-34.39-254.21-64.64Q2348,2432.33,2106.4,2343.5c-140.1-51.48-299.1-123.16-335-267.93-25.25-101.93,21-206.19,60.32-303.65s72.14-211,23.32-304c-34.89-66.39-109.6-119.84-102.55-194.48,3.45-36.35,26.58-67.41,47.93-97,45.15-62.59,86.74-129.93,102.89-205.29s3.05-160.66-50.1-216.67c-43.29-45.62-106.72-66.38-155.33-106.35-82-67.46-134.07-194.28-240.28-194.27-60.1,0-118.13,45.1-175.88,28.55-22.4-6.46-41.13-21.38-61.21-33.07-69.42-40.25-154.13-40.26-234.36-39.24-53.7.71-110.38,2.17-156.26,30.18-33.89,20.62-58.09,53.38-86,81.52-145.48,147-374.54,158.11-581,172.14-26.58,1.8-54.64,4.33-76.21,20.06C55.45,736.75,47.52,780.58,52,818.91c11,94.75,80.53,173.5,160.15,225.9s170.75,84.42,255.58,127.93A1040.29,1040.29,0,0,1,697.1,1332.47c49.71,45.65,97.56,101.83,101.5,169.28,3.93,67.85-39.3,131.51-95,170.57s-122.49,58-188,76.27L340.69,1797.5"/><path class="cls-1" d="M291.44,1702.61c78.6,19,158.34,38.09,239.18,35.77s164.28-28.8,219.08-88.25,72.84-155.83,28.21-223.26c-48.82-73.76-147.59-90.26-233.33-112.06A984.39,984.39,0,0,1,294.8,1213.2c-90.1-52.14-175.09-123-213.07-220s-14.89-223,73.18-278.35c83.61-52.58,191.88-28.63,289.79-41.91,65.87-8.9,127.57-35.55,184-69.91C676.4,573.92,724.13,515,777.19,499.18c53.26-15.91,126.69-2.23,183.64-12a902.82,902.82,0,0,0,220.3-67.56c30.1-13.66,61.36-29.33,94.31-26.13,22.54,2.16,43.21,13,62.48,24.75,101.85,62,187.18,155.17,301.51,188.94,38.18,11.32,78.44,15.41,115.85,29,120.78,43.94,184.64,172.31,274.84,263.75,12.19,12.41,26.28,24.77,43.52,27.14,38,5.12,63.12-38.56,71.75-76a432.81,432.81,0,0,0-6.21-217.63"/><path class="cls-1" d="M1304.87,75.31c118.87,115.51,243.3,234.42,400.55,286.75,26.74,8.89,55.06,16.26,76,35.05,17.24,15.34,27.57,36.76,36.38,58.15,27.1,65.69,43.47,135.62,73.15,200.31S1967.22,781.42,2033.52,807c14.59,5.68,30.35,9.54,46.07,7.59,33.84-4.12,59.47-35.11,68.17-68,17.59-66.48-6.27-136.22-42.52-191.57"/><path class="cls-1" d="M1109.87,1008.68c41.6-59.44,83.94-120.6,101.61-191,12.56-50,11.85-102.39,19.07-153.4s24.32-103.93,63.62-137.28c46.8-39.71,116.36-43,174.66-23.76s108.09,57.56,156.47,95.43,97.78,76.52,155.79,96.54"/><path class="cls-1" d="M769.29,1005.47C885.43,947.69,898.78,780,1000.67,699.71c30.64-24.07,68.4-39.45,93.87-68.93,48.16-55.84,40.35-148.53,96.63-196.09,44-37.17,111.34-30.89,163.32-5.88s94.81,65.47,144.17,95.12c88.72,53.22,194.62,69.54,288.84,112.21s183.79,129.12,175.36,232.26c-8.94,109.15-119,179.06-169,276.4-33.9,66-38.78,146.41-12.91,215.92,23.36,62.86,70.19,117.25,79.8,183.6,17.09,118-87.83,222.66-89.81,341.81-.86,48.82,16,96.27,36.54,140.56,80.64,172.79,225.92,314.5,400.6,390.85,92.22,40.3,200.38,69.46,251.9,155.88"/><path class="cls-1" d="M1304.24,163.83c75.28,24.16,127,93.18,196.81,130.42,93.27,49.89,217.07,42.61,291.05,118.19,39.52,40.4,56.59,97.35,69.63,152.39s24,112.25,55.23,159.52,88.86,82.36,143.56,68"/><path class="cls-1" d="M405.78,1862.69c153.55-43.94,318.3-107.35,394.83-247.5,29.38-54,41.82-123.65,8.23-175.08-55.29-84.67-186.81-64.76-272.44-118.47-55.94-35.16-86.7-98.24-130.31-147.94C323,1078.76,191.51,1031.16,123.39,925c-18.75-29.22-32.07-63.22-29.69-97.74C99.5,742.45,191.45,692.38,274,671.89c163.7-40.7,351.9-36.06,475.69-150.76,25.15-23.28,48-51.84,80.66-62.63,38.81-12.89,80.55,2.78,121.31,5.93,78,6.11,152.51-33.73,230.53-39.21,86.32-6.11,169.47,29.93,247.75,66.74,125.82,59,249.59,122,373.46,184.94,30.54,15.54,62.19,32,82.72,59.45,32.57,43.71,29.09,104.47,15.29,157.18-21.74,83-64.69,158.91-93.67,239.66s-43.27,173-7.18,250.94c24.71,53.53,71.17,95.73,90.21,151.45,22.4,65.8,2.6,138.47-26.84,201.43s-68.66,121.86-87.84,188.56c-5.51,19.19-9.4,39.54-5.6,59.19,4,21.35,16.61,39.85,28.78,57.75q152.35,222.85,304.72,445.62"/><path class="cls-1" d="M2830.49,1910.42q28.09,51.92,56.09,103.86c24.4,45.24,49,90.86,64.34,139.94,20,64.11,5.93,120.52,12.39,183.64,5.87,57.12,32.12,99.52,23.65,161.16-4,29-11.4,59.28-31.38,80.79-36.7,39.47-100.47,35-151.73,18.61-76.38-24.44-145.06-68.1-219.23-98.78-101.37-42-211.32-59.2-314.22-97.33a819.61,819.61,0,0,1-248.65-146.53c-42.32-36.36-81.6-78.17-104.67-129-59.92-132.11,1.78-284.26,8.27-429.18a557.48,557.48,0,0,0-41.21-236c-21.71-52.81-51.57-102.33-66.7-157.31s-12.81-119.22,24.44-162.39c25.45-29.49,63.13-44.67,97.35-63.19,127.57-68.95,221-197.59,247-340.19"/><path class="cls-1" d="M1224.55,118.43c62.93,54,124.14,113.33,195.91,157,82.07,50,172,87.09,248.07,146.82,56.89,44.74,103.9,100.93,146.54,159.39,36.77,50.45,71.49,104.42,84.32,165.53,37.53,179-120.76,352-97.19,533.44,6.81,52.8,29,102.57,37.37,155.15,22,136.58-49.38,271.19-52.08,409.48-5.21,269.06,243,483.16,275.24,750.2"/><path class="cls-1" d="M312.59,1843.91c173.69-15.14,338.65-111.06,437.68-254.48,23-33.2,43.3-73.17,34.19-112.64-12.75-55.51-74.45-81.68-127.18-103A1360.54,1360.54,0,0,1,134,996.63c-19.45-22.83-38.41-46.82-49-74.76-24.9-65.63,6.36-147.51,68.57-180,61.22-31.83,134.86-16.55,203.74-18.7,156.24-4.78,294.38-101.69,408.37-208.73,42.2-39.64,85-82.7,140.39-99.84,85.31-26.3,176.35,15.32,265.52,11.87,38.08-1.48,75.83-11.25,114-9,57.16,3.34,108.82,33.15,158.16,62.11Q1585,562.8,1726.52,646c30,17.65,60.55,35.69,83.95,61.53,69.88,77.15,56.6,197.36,26.52,297.13s-72.92,203.23-48,304.37c11.72,47.43,37.58,89.94,57.05,134.75a522,522,0,0,1,41.12,250.66c-8.05,95.07-42.21,190.26-23.5,283.79,21.64,108.08,108,188.88,179.08,273.11a1188.72,1188.72,0,0,1,235.8,445.27"/></g></g></g></g></g></svg>