<svg xmlns="http://www.w3.org/2000/svg" viewBox="0 0 2821.08 4148.19"><defs><style>.cls-1{fill:none;stroke:#e65498;stroke-miterlimit:10;stroke-width:1.75px;}</style></defs><title>Asset 1</title><g id="Layer_2" data-name="Layer 2"><g id="Layer_1-2" data-name="Layer 1"><g id="Layer_2-2" data-name="Layer 2"><g id="Layer_1-2-2" data-name="Layer 1-2"><g id="pink"><path class="cls-1" d="M77.58,632.52c41.17,9.2,72.13,44.58,89,83.15S189,796.71,198,837.94c36.53,168.34,134.15,322.73,270.62,427.84,54.31,41.8,124.47,77.2,189.2,54.83,60.85-21.05,94.08-84.78,121.46-143q52-110.78,104.09-221.46c11.33-24.18,28.52-52.11,55.22-51.3,22.4.64,38,21.73,50.2,40.44,141,214.38,334.81,412.27,584.25,472.56,100.28,24.27,204.59,25,307.67,22.57,252.56-6,507.28-31.19,746.81-111.73"/><path class="cls-1" d="M2764.49,1214.92c5.1-55-55.8-95.9-111-97.59s-108,21.39-162.58,30c-80.41,12.58-162.56-6.86-243.72-1.78-174.23,10.56-326.55,130.88-500.45,146.24-202.47,17.87-388.3-108.37-539.59-244.08-61.3-54.95-123.73-114.4-203.12-136.13-29.36-8-62.48-10-88.56,5.65-20.31,12.25-33.36,33.44-43,55.12-43.59,97.62-38.86,226.38-126,288.42-58.6,41.63-139.65,35.12-206.73,9.5-106.7-40.63-195.52-126-240.49-231C232.64,883.58,257,687.4,143.7,561.52"/><path class="cls-1" d="M338.91,524.64a3087,3087,0,0,0,153.56,833.2c152.66,460.7,432.66,900.28,858,1133.89,156.33,85.86,327.64,141.71,483.87,227.57,204.62,112.52,378.24,273.75,540.13,442"/><path class="cls-1" d="M2321.61,3720.8c-36.93-31.74-94.88-11.21-133,19.12s-72.46,70.78-120.31,79.43c-31.65,5.73-63.93-3.73-94.8-13.11-181-55-382.83-127.66-459.5-300.59-38.84-87.52-37.86-186.73-54.25-281.11-31.83-183.17-129.23-347.27-224.79-506.68l-550.6-918.3C498.73,1489.8,309.29,1170.37,251.91,813.88"/><path class="cls-1" d="M2814.91,2234.08c-119.59-52-262.35-47.6-378.63,11.66-82.79,42.2-153.8,110.92-244.55,130.88-134.39,29.48-263.41-55-389.71-109.46-99.22-42.78-205.2-68.21-305.3-109-266-108.46-474.92-318.26-691.11-507.39C650.82,1515.41,484.37,1383,390,1200.3c-64.61-125.13-91.16-269.65-75.36-409.56"/><path class="cls-1" d="M231.69,4014.91c-16.37-91.79,70.51-165.41,110.44-249.63,27.88-58.7,34.67-129,78.21-177.27,37.5-41.57,94.28-58.08,146.43-78.57,59.43-23.33,118.11-54.26,182-55.82,95.79-2.3,182.58,64.58,231.37,147s66.8,179,83.79,273.4,34.59,190.85,82.89,273.71"/><path class="cls-1" d="M1380,4019.66c-96.34-142.8-194.5-287.7-326-398.94-79.79-67.42-183.9-123.57-285-97.43-59.19,15.33-107.69,56.59-153.7,96.82-68.47,60-137.22,121-191.2,194.17s-93,160.58-94.18,251.59"/><path class="cls-1" d="M1346.77,4063.2q-86.62-112-173.13-224c-68.15-88.31-137.5-177.71-227-244.26s-203.2-108.63-312.95-88.72c-33.85,6.15-67.56,18.49-93.3,41.38-20.86,18.55-35.59,43-47.51,68.24C453.11,3700,440.06,3798.09,382,3870.9c-29.83,37.42-69.82,65.61-102.37,100.75s-58.51,82.05-50.17,129.16"/><path class="cls-1" d="M.49,3630.89c61.61,41.56,138.7,53.8,213,52.25s147.59-15.67,221.64-22.32c96.24-8.5,193.08-4.17,289.61.19,82.53,3.7,166.56,7.69,244.36,35.52,149.8,53.52,262.06,199.6,275,358.11"/><path class="cls-1" d="M35.06,3585.13c119.19,67.63,265.83,85.17,397.55,47.71,75.05-21.35,144.95-59.56,221.36-75.2,148.58-30.58,306.63,30.47,415.5,136s172.92,250.45,205.35,398.62"/><path class="cls-1" d="M2057.33,3835.83c-118.39,16.27-248.8,14.61-344.82-56.59-119.08-88.23-147.22-250.87-176.58-396.12s-69.51-289.7-139.46-420.4c-43.89-82-98.95-157.28-150.71-234.51-182.18-271.78-324.65-568.45-505-841.45-122.24-185-261.92-359.11-367.49-554.14S196.45,914.88,226.4,695.17"/><path class="cls-1" d="M204.8,592.21C269.55,722.85,281.64,873,329.35,1010.72s152.4,275.19,297.88,285.55c43.62,3.08,89.05-6.45,124.16-32.6,89.22-66.45,77.34-200.07,106.07-307.58,9.35-35.07,28.18-72.81,63-83,47.1-13.74,89.92,29.25,121.39,66.89a2530.75,2530.75,0,0,0,747.24,608.49c90.25,48.35,185.67,91.75,287.55,102.41,106.28,11.13,213.61-14.19,320.16-5.82,131.08,10.24,257.35,73.63,343.86,172.6"/><path class="cls-1" d="M2555.33,685.42c-49.8-82.74-170.09-98.17-258.23-58.52S2146.57,746.3,2090.28,824.72q-90,125.16-171.77,255.85c-69.59,111.21-139.24,230-252.15,296.74-40.43,23.9-86.5,40.43-133.52,39.47-64.61-1.33-124-34.8-176.73-72.31a1047.76,1047.76,0,0,1-296.29-324.06c-16.3-27.89-32.12-57.47-58.16-76.58s-66-23.82-88.91-1.05c-17.87,17.73-20,45.45-22.59,70.57a593.86,593.86,0,0,1-51,186c-10.83,23.58-23.76,47.07-43.73,63.72-54.17,45.3-137.63,24.3-197.2-13.66a443.79,443.79,0,0,1-165.09-190.5c-27.64-61.31-40.93-128-53.91-194.11L342.11,676.63"/><path class="cls-1" d="M213.19,881c118,387.76,327.54,747.34,606.79,1041.21,154.9,163.08,335.65,308.7,548.19,382.22,161,55.73,333.4,68,500.09,104,284.75,61.43,554,193.88,776.4,382.06"/><path class="cls-1" d="M2498.06,2985c-127.13-146.58-261-298-440.12-372.81-59.08-24.67-121.6-40.11-183.51-56.37-150.9-39.51-302.33-84.4-436.71-163.61C1119.34,2204.59,940,1855.1,695.87,1577.77,645.05,1520,591,1465,542.51,1405.27,486.31,1336,438,1260.73,391.32,1184.77,291,1021.6,194.48,836.69,226.41,647.85"/><path class="cls-1" d="M325.49,535.14A1801.67,1801.67,0,0,0,438.35,1066c19.58,52,42.56,104.39,81.95,143.61s98.86,62.58,151.73,45.5c53.67-17.49,87.39-71.08,106.1-124.27s27.3-110.5,53.94-160.3c14.8-27.81,38-54.47,68.95-59.7,37.75-6.37,72.65,20.48,98.45,48.68a473.25,473.25,0,0,1,98.41,165.91c15.73,46.09,24.49,94.93,46.31,138.47,24.45,49,64.08,88.53,104.22,125.85,173.58,161.65,374.4,301.29,602.78,365.52,99.7,28.07,203.41,41.42,301.16,75.73,176.26,61.84,327.11,193.23,412.53,359.41"/><path class="cls-1" d="M2539.1,2427.39c-106.86-62-213.81-124-318.29-190-116.07-73.26-232.94-155.51-300.8-274.73-22.18-39-38.49-81-60.78-119.87-24.21-42.23-55-80.3-86.15-117.67a6075.36,6075.36,0,0,0-686.82-701.51c-43.67-38-99.77-77.78-154.43-59-68.73,23.6-76.67,114.76-101.27,183.14-24.6,68.68-78,126.47-144.47,156.46-45.65,20.53-102.91,26.85-143.22-2.87-20.91-15.45-34.58-38.55-47.14-61.26A1550.12,1550.12,0,0,1,315.89,687.6"/><path class="cls-1" d="M2538.45,2557c-160.77,5-293.86-117.37-406.21-232.45-90.17-92.35-179.86-185.84-256.12-289.84-98.28-134.09-173.37-284.25-275.37-415.51-62.18-79.94-133.81-152-205.13-223.92Q1176.83,1174.86,958,954.54c-8.06-8.14-16.82-16.67-28-18.9-31.75-6.37-47.84,36.45-51.8,68.58-9.26,74.17-25.51,150.69-71.81,209.32s-130.43,93.26-198.35,62c-54.28-25-84.2-82.93-110.12-136.8Q360,852.09,222.16,565.48"/><path class="cls-1" d="M169.73,623.78A1970.41,1970.41,0,0,0,457,1225.6c19.5,27.56,40.4,55.2,69.07,73.1s67,23.94,96,6.8c18.12-10.74,30.39-28.82,41.86-46.61A2008.73,2008.73,0,0,0,789.55,1033c30.43-64,74.27-140.85,145.11-137.26,39.31,2,71.92,29.88,100.05,57.27,86.61,84.17,163.6,178.21,254.38,257.77s199.46,145.45,319.56,158.18c73.36,7.76,147.18-4.47,219.89-16.7q268-45.15,536.16-90.41"/><path class="cls-1" d="M2655.33,1620.13A824.53,824.53,0,0,0,2467,1546.39c-289.95-74-613.44,10.55-885.16-115-225.26-104.06-366.71-331.34-569.56-474.27-34.07-24-81.63-45.31-114.65-19.9-14.32,11.1-21.89,28.66-27.27,46-19.06,61.44-17.28,127.23-29.92,190.33s-45.27,128.73-105.3,151.77-130.14-5.15-174.58-51.73-68.89-108.2-92.23-168.14Q366.38,843.74,264.52,582"/><path class="cls-1" d="M2504.87,813.2C2395.79,732.89,2235,770.26,2130.16,856s-170.28,208.82-246,321.1c-61,90.34-139.59,181.12-246.74,200.8-123.84,22.7-243.32-57.23-330.68-147.9S1144.92,1031.5,1034.48,970.9c-54.32-29.8-132.71-41.53-169.74,8-18.13,24.24-20.39,56.35-25.27,86.28-11.2,69.08-41,137.51-94.84,182.08s-134.27,60.48-195.81,27.22c-53.62-29-83.64-87.1-110.54-141.8Q327.44,906.87,216.59,681.11"/><path class="cls-1" d="M28.93,3787.78c238.53-38.13,410.17-266.49,646.93-314.22,170.26-34.34,357.6,39.6,458.53,181,92.55,129.63,110.26,296.6,125,455.2"/><path class="cls-1" d="M1840.07,3869.31c-217.64-209.93-328.08-504.93-421.57-792.46S1237.74,2491,1051.76,2252.6c-73.08-93.68-159.69-175.75-242-261.35a3848,3848,0,0,1-492.4-631.56c-49.56-79.35-96.51-161.3-124.5-250.58-45.13-144.38-38-299.54-23.17-450"/><path class="cls-1" d="M2449.83,2582c-40.73-85.2-138.63-128.6-232.24-141.21s-189.22-1.92-282.91-14A585.44,585.44,0,0,1,1722.16,2356c-49.81-28.14-95.06-63.51-140.09-98.69q-184.5-143.84-368.91-287.82c-61.65-48.16-123.41-96.2-184.06-145.67-179.27-146-350.72-304.06-489.56-488.86-157.33-209.26-232.6-425.42-290.22-676"/><path class="cls-1" d="M2618.7,3114.13c-109.35,6.8-190.11,122.49-299.7,124.69-73.09,1.44-138-50-178.61-110.7s-63.56-131.44-96.73-196.6c-79.14-155.53-214.6-275-356.94-376s-295.08-187.87-428.93-300c-126.09-105.79-233-232.11-339.32-357.84-205-242.52-411.25-486.72-567.77-763C273.71,998.79,208,851.06,203.8,695"/><path class="cls-1" d="M37.43,3691.81a668.52,668.52,0,0,0,240.06-48.14c64.32-25.87,124.56-61.71,190.3-84.09,84.29-28.61,175.16-34,263.92-25.92,144.5,13.15,289.18,63.9,395.2,162.93s167.92,250.48,139.56,392.8"/><path class="cls-1" d="M1190.41,4080.14c-1.24-73.79-16.65-143.29-30.87-215.88-10.7-54.72-22.1-111.14-53.64-157.11-38.31-56-102.76-89.91-169.09-104.07s-135.08-10.52-202.53-4.43c-216.36,19.57-443.94,70.63-598.09,223.75"/><path class="cls-1" d="M1917.68,3842c-95.89-25.7-170.44-100.85-230.32-180.13a1245.87,1245.87,0,0,1-203.78-409.43c-32-112.77-48-229.46-72.91-343.94-90.94-417.55-305.18-807.4-608.88-1107.9-60.84-60.26-125.1-116.89-184.31-178.77C380.88,1374.7,232.08,1045.18,203,704.26"/><path class="cls-1" d="M2635.06,1442.06c-111.38-38.49-225.57-77.56-343.36-75.6-136.69,2.19-265.48,59-396.91,96.69s-281.41,53.85-397.55-18.21c-80.66-50-132-134.64-193.8-206.7A826.75,826.75,0,0,0,1053,1040.76c-40.35-20.6-90.27-37.64-129.1-14.27-37.74,22.67-46.78,71.94-61.9,113.26-26.76,73.29-83.88,135-155,167.23-47,21.24-103.89,29.25-149,4.18-27.51-15.3-47.4-41-65.59-66.62A1241.2,1241.2,0,0,1,286,754.93"/><path class="cls-1" d="M2516.19,2329.05a1254.64,1254.64,0,0,1-506.42-289.92c-70.89-66.79-133.74-141.63-196.28-216.28q-212-252.86-424.09-505.62c-115.2-137.27-232.32-276.41-380.34-377.44-11.36-7.82-23.51-15.53-37.23-17.13-25.52-3-49.19,16.55-60.21,39.74s-12.74,49.49-16.25,75a478.09,478.09,0,0,1-124,259c-30.07,32-67.66,61.06-111.43,64.61-77.05,6.16-135.78-65.51-175.67-131.72a2074.56,2074.56,0,0,1-231.6-549.53"/><path class="cls-1" d="M2244.82,204.47C2152,202,2068.88,272,2029.82,356.34s-42.39,180.42-39.76,273.2,10.46,186.93-8.68,277.87c-33.93,161-157.42,300.14-313.25,352.89s-338.48,17.16-463.17-90.24c-94.49-81.42-159.18-201.25-272.94-252.52-8.52-3.84-18.16-7.26-26.83-4.11-9.68,3.47-14.9,13.81-18.83,23.24-23.69,56.87-36.75,117.87-63.14,173.47S752.6,1217.75,692.7,1232c-51.51,12.28-106.65-6-149.17-37.52s-74.35-75.26-103.28-119.55a1712.28,1712.28,0,0,1-208.16-447.7"/><path class="cls-1" d="M2188.12,2307.24c-324.3-163.54-688.86-226.1-1031.65-346.4-56.75-19.89-113.11-41.48-166.31-69.49-61.94-32.65-119.14-73.63-173.66-117.64C550.83,1559.14,347,1268.91,235.16,946.23c-16.65-48-31.43-99.77-18.48-149"/><path class="cls-1" d="M2283.59,3457.38c-198.31-193.16-366.94-416-574.67-599C1581.29,2746,1439.49,2649.09,1323,2525.24c-265.06-282-378.87-682.06-651.28-956.89-131.77-132.94-300-236.12-389.43-400.47-88.89-163.26-84.92-360.29-63.36-544.94"/><path class="cls-1" d="M1177.81,4014.93c41.34-145.11,24.38-306-46.39-439.28-22.61-42.64-51.81-83.72-93.39-108.33-90.8-53.84-208.7-13.28-296.07,46s-165.88,137.41-267.6,165.65c-66.46,18.38-145.93,9.86-192-41.41"/><path class="cls-1" d="M2420,3389.44c-167.38-51.08-335.1-112.7-473.71-219.46-89.8-69.25-164.94-155.5-239.21-241.07Q1292,2451.21,876.86,1973.57C701.79,1772,525.41,1568.71,395.7,1335.45s-210.76-501.88-179.58-767"/><path class="cls-1" d="M2613.62,2499.34c-184.87,32-375.16-49.28-515.57-173.75s-239-288.27-331.89-451.3-183.8-330-313.12-465.93c-42.12-44.29-88-84.86-133.71-125.43q-158.52-140.3-317-280.72C970,973.55,923,943.59,887.52,968.15c-19.7,13.65-26.52,39.19-31.94,62.54-24.73,106.08-67.63,229.8-173.13,257.06-80.05,20.68-165-28.6-211.61-97s-63.21-152-78.8-233.23Q359.77,789.79,327.6,622"/><path class="cls-1" d="M2167,.43c-22.41,39.76-73.62,52.14-106.93,83.38-39.83,37.4-49,96.36-53.81,150.7-15.61,176.81-9.31,354.88-22.33,532s-46.68,356.55-135.5,510.2c-27.65,47.9-61.82,94.05-109.62,121.8-74.69,43.35-171.06,33.24-248.83-4.29s-141-99-202.76-159.43l-223.39-218.68c-21.66-21.14-48.12-44-78-39.33-28.47,4.41-46.77,31.84-60.69,57.14-42.93,77.92-79.53,161-140.16,226.12S631.89,1370,546.41,1345.4c-75.46-21.75-126.86-90.48-166.06-158.49A1280.52,1280.52,0,0,1,212.71,632.82"/><path class="cls-1" d="M1318.11,4013.42c-125.31-166.29-251.84-334.48-334.83-525.48-47.3-108.76-79.73-223.33-112.06-337.49-37.57-132.83-75.34-266.06-96.13-402.51-32.76-214.17-23.76-433.84-67.9-645.94C680.26,1972.88,634,1848.71,588,1725.14Q403.7,1230.42,219.34,735.6"/><path class="cls-1" d="M302.53,3869.09C322.74,3773.84,398,3700.29,477,3643.41S643.44,3539,708.31,3466.53c129.35-144.54,143.5-357.26,132.1-551-24.06-406.44-130.84-803-241-1195C524.47,1454,443.57,1179.79,268.51,965.26"/><path class="cls-1" d="M1294.09,3942.09c-34.5-164.62-254-213.36-344.4-355.34-52.07-81.72-54.84-184.2-60.35-280.95-26.16-462.72-150.75-913.53-274.5-1360.14C514.1,1582,411.72,1214.52,229.21,884.13"/><path class="cls-1" d="M1302.17,4035.13c-126.56-159.59-254.29-322.86-327.74-512.71-124.35-321.13-81-680.35-134.43-1020.58C748.68,1920.79,379.31,1418,244.94,845.37"/><path class="cls-1" d="M2229.56,3127.16c-25.18,57.88-55.77,115.11-102.86,157.15s-113.72,66.53-174.55,49.78c-51.7-14.22-91.4-54.74-127.88-94.08C1333.8,2711.36,930.73,2109,529.85,1509.48c-157.72-236-318-477.2-392.87-751"/><path class="cls-1" d="M2309.18,3043.27c-317-347.3-485.14-800.89-712.77-1212.35a4537.26,4537.26,0,0,0-595.74-836.59c-18.45-20.46-41.51-42.6-68.89-39.5-46.47,5.34-52.6,68.69-55.47,115.31a346.94,346.94,0,0,1-77,196.87c-13,15.89-28.07,31.1-47.23,38.44-42.09,16-88.18-10.46-121.8-40.41-92.8-82.73-149.84-197.22-204.65-308.72Q362.78,828.38,299.8,700.54"/><path class="cls-1" d="M2820.53,1967.93c-104.7,84.09-247.7,110.1-380.74,92.27s-257.66-75.83-372.57-145.2c-387.91-234.09-678.85-595.18-1008.42-906.19C1024,976,977.52,941.2,932.93,958.32c-32.11,12.34-48.76,46.85-62.43,78.36Q833.77,1121.4,797.13,1206c-26.36,60.69-62.45,129.56-127.77,140.73-66.82,11.39-124.63-44.5-167.31-97.18A2347.62,2347.62,0,0,1,147.33,643.88"/><path class="cls-1" d="M1313.08,3899.34c-364.42-289.76-554.56-762.59-568.54-1227.9-4.88-162.57,9.71-325.68-2.54-487.9-10-132-37.7-262.14-70.64-390.4A4856.37,4856.37,0,0,0,228.08,670.44"/><path class="cls-1" d="M2313,3347.36a1587.89,1587.89,0,0,0-402.88-435.47c-168.21-124.18-359.77-214.09-527.68-338.67-173-128.35-317.63-290.9-455.24-456.6C586.5,1706.49,269.42,1244.21,203.88,715"/><path class="cls-1" d="M2382.33,2760.84c-281.77-186.75-522.88-434.61-701.86-721.38C1571,1864,1484.81,1674.78,1377.22,1498.05s-240.61-344.26-418.68-449.63c-26.61-15.71-61.32-29.86-86.79-12.17-21.7,15-24.77,45.08-26.48,71.39-3.76,60.43-13.58,127.3-60.49,165.54-41,33.4-101.15,34.84-150.59,16.13s-90.4-54.44-128.46-91A1920.17,1920.17,0,0,1,114.85,665.78"/><path class="cls-1" d="M1298.48,3968.35c-275.31-347.76-445.28-779.18-473.2-1221.89-8-127.54-4.66-255.58-14.49-383a1842.85,1842.85,0,0,0-137.65-569.72c-143.3-342-392-648.86-435-1017.16"/><path class="cls-1" d="M2314.08,430.17c-67.33,9.49-136,37.89-174.53,93.88-38.95,56.38-41,129.3-48.16,197.55-25.46,239.69-135,469.49-305.05,640.27-30.28,30.32-63.07,59.36-102.24,76.84-91.5,40.87-201.73,10.37-282.86-48.55s-140-142.49-202-221.24-131.53-156.56-223.56-196.2C947,960.32,913.7,952.06,885,964.28c-40.37,17.1-55,65.6-66.61,107.89a1623.69,1623.69,0,0,1-65,189.58c-21.42,51.66-60,111.05-115.55,104.34-21.92-2.64-41.11-15.8-57.33-30.78-46.32-43-73.64-102.16-99.36-159.91Q391.93,975.19,308.87,772.34"/><path class="cls-1" d="M2573.07,2807.75c-211.87-76.76-402.19-211.64-544.72-386.25-195.44-239.29-295.34-540.67-448.72-809a2279.64,2279.64,0,0,0-516.8-617.06c-31.59-26.37-72-53.58-111-40.19-34.52,11.85-51.34,50.28-61.08,85.44-13.84,50.2-21.26,102.36-41,150.51s-55,93.5-104.71,109c-91.89,28.67-179.39-52.3-236.75-129.48A1974.69,1974.69,0,0,1,226.77,637.55"/><path class="cls-1" d="M2199.13,3600.69c-53.65,6-107-12.9-155.77-36.27-225.3-108.16-391.47-310.36-521-524s-230.24-444.34-368.16-652.67c-59.25-89.47-125.08-174.4-189.3-260.43a8810,8810,0,0,1-759.64-1212"/><path class="cls-1" d="M2333,3223.91c-29.48-134.19-65-269.23-134.22-387.88-136.31-233.72-383.33-375.12-596-542.47C1347,2092.25,1132.52,1843.5,885.23,1631.8c-137.86-118-285.84-224.53-415.17-351.89S229,1000.38,184.78,824.27"/><path class="cls-1" d="M285.49,3753.91c134.07-60.48,237.92-175.83,307.29-305.44S700,3174.79,729.55,3030.67c57.07-278.32,85.28-567.34,30.65-846-56.81-289.49-198.32-552-322.15-816.71C375.58,1234.28,316.19,1098.61,274,957c-37.21-124.84-29.61-263.09-81.27-379.72"/><path class="cls-1" d="M123.06,3777.2c187.17-46.37,355.85-163.9,464-323.58,62-91.56,104.19-195.16,138.73-300.31C756.08,3060.88,781.1,2966,788.59,2869c19.57-252.95-79.44-498-170.75-734.78Q356.24,1456,160.89,754.74"/><path class="cls-1" d="M100,3882.5C252.28,3710.88,467.36,3597.62,594,3406.29c40.56-61.3,70.67-128.81,96.56-197.51C849.77,2787,852,2308,696.71,1884.71,549,1482.17,265,1128.73,192.32,706.16"/><path class="cls-1" d="M294.61,3963.33c26.76-142,162.92-231,277.79-318.53,117.55-89.65,226.76-198.2,282-335.36,66.1-164.29,47.56-349.45,15.53-523.62-91.44-496.15-282.14-967.37-460.58-1439.19-72.7-192.18-144.55-390.56-141.74-596.08"/></g></g></g></g></g></svg>