<svg xmlns="http://www.w3.org/2000/svg" viewBox="0 0 2529.31 4416.54"><defs><style>.cls-1{fill:none;stroke:#ffe927;stroke-miterlimit:10;stroke-width:1.75px;}</style></defs><title>brainbow-yellow</title><g id="Layer_2" data-name="Layer 2"><g id="Layer_2-2" data-name="Layer 2"><g id="gelb"><path class="cls-1" d="M2140.77,4294c-41.49-391-83.32-783.36-177.86-1164.93-25-100.64-53.81-201-99.86-293.79-43-86.52-100.21-164.93-154.5-244.82-263.18-387.17-460.1-815.4-637.91-1248.55"/><path class="cls-1" d="M1782.41,4406.41c-30.52-293.15,6.72-589.23-5.63-883.7-22-525.08-201.36-1033.91-449-1497.51C1198.2,1782.48,1048.15,1546.33,975.3,1281"/><path class="cls-1" d="M2192.23,4164.67c-39.25-241.29-70.88-485.79-56.09-729.8,23.76-393.43,166.6-768.63,251.43-1153.58s105.67-811.31-95.82-1150.17C2115.06,833.91,1789.2,642,1637.64,331.27"/><path class="cls-1" d="M436,2532.16c-131.25,197.7-212.56,428.2-234.28,664.5-5.6,60.29-7,122.74,14.29,179.47s69.95,106.66,130.16,113.26c99.16,11,171.24-89.59,215.31-179.07,245.23-496.94,366.19-1072.2,747.85-1473.87,50.71-53.36,105.43-102.93,153.37-158.7,59.17-68.9,107.39-146.7,150.24-226.85,94.65-177.06,165-370.13,179-570.54S1760.08,471.69,1641.05,310"/><path class="cls-1" d="M2472.73,103.4c27.2,105.43,7.8,218.67-33.87,319.29s-104.44,190.84-167.14,279.94q-319.65,454.27-652.6,899.24c-62.74,83.91-140.09,175.44-244.83,179.2-80.54,3-154.69-50.24-199.11-117.51s-64.49-147.13-83.81-225.32q-29-117-57.84-233.86"/><path class="cls-1" d="M1598.4,1354.16c-45.17,133.57-94.58,266.69-167.91,387.11-104.67,172.14-254.35,312.73-366.35,480.07-162.71,243-239.63,531.89-365.63,795.87-67,140.35-153.74,279.77-288.38,357.71-27.66,16-58.59,29.47-90.37,27.07-76.14-5.74-116.22-94.24-123.18-170.34-22.22-243.87,126.11-471.06,296.89-646.57"/><path class="cls-1" d="M1892.6,149.55"/><path class="cls-1" d="M702.4,3863.24c-.43-516.29,35.72-1055.54,296.81-1501,114-194.68,266.71-363.3,407.33-539.65s272.43-366.46,334-583.47,43.19-467.11-95.31-645.26"/><path class="cls-1" d="M2525.57,347.7c19.29,116-62.43,222.15-139.14,311.37Q2135,951.76,1883.5,1244.34c-91.23,106.23-182.55,212.46-276.76,316-76.26,83.79-154.57,165.84-224.57,254.86-85.85,109.18-158.61,228-228.94,347.83q-268,456.27-493.7,935.66c-31.33,66.61-62.81,134.63-112.49,189s-121.7,93.58-194.87,85.3c-104.47-11.84-178.46-119.59-182.33-224.62s46.72-204.6,107.83-290.17,134.24-162.76,186-254.27"/><path class="cls-1" d="M635.87,3651.24c4.25-76,25.67-149.69,47-222.72q149.79-512.8,299.67-1025.7c55.08-188.63,110.42-378.51,131.7-573.86s6.61-398.64-73.51-578"/><path class="cls-1" d="M898.46,3767.35a2960.9,2960.9,0,0,1-.36-791.41C937,2687.54,1018.25,2406.41,1066,2119.35s60.36-588.35-35.25-863.14"/><path class="cls-1" d="M560.12,3689.5c-18.59-274.89,65.13-547.16,177.85-798.55s255-488.82,363.93-741.8c24.22-56.2,46.9-113.68,57.6-174,10.17-57.61,9.21-116.51,6.34-175a2652.54,2652.54,0,0,0-52.37-408.08c-16.69-80.36-38.31-162.48-87.79-228"/><path class="cls-1" d="M496.44,3747.46c-10.8-112.74,16.11-225.65,49.87-333.84,135.52-433.41,381.51-824,541-1249.17,20.09-53.59,38.86-107.88,50.41-164,28.74-140.47,10.51-285.81-7.82-427.93C1116.67,1469.36,1094.48,1352,1005,1299"/><path class="cls-1" d="M558.67,3801A1054.16,1054.16,0,0,1,587,3424.54c18.5-70.85,44.37-139.52,70.13-208,104.57-277.87,209.23-556.24,339.12-823.34,68.25-140.39,143.91-279.22,179.58-431.16,41.76-178.46,24.89-370.16-47.56-538.47-28.6-66.62-82.35-113.71-109.79-178.16"/><path class="cls-1" d="M1915,4314.08a5460.87,5460.87,0,0,0-83.75-1261.34c-21.16-114.84-46.11-229-78.51-341.36-126-436-362.37-830.87-605-1214.35-62.32-98.48-125.85-197.92-162.61-308.62"/><path class="cls-1" d="M1750.56,4175.48c101.65-536.19,15.51-1090.87-120.12-1619.54-25.53-99.46-52.75-198.49-89.57-294.29-52.28-136.08-123.13-264.12-195.73-390.41q-153.43-266.55-319-525.68"/><path class="cls-1" d="M2167.57,4247.8c46.2-173.78-4.72-357.21-60.28-528.2a9075.61,9075.61,0,0,0-871.36-1899.88c-73.88-121.66-149.62-242.26-206-373.42C980.27,1330.46,927.4,1244,915.86,1112.19"/><path class="cls-1" d="M1683.11,287.34Q1698.51,549.8,1714,812.28c9.6,163.89,18.64,333-36.6,487.53-59.23,165.74-185.54,296.67-299.11,431.15-313.51,371.33-549.28,803-737.74,1250.9-62.42,148.23-135.36,314.26-285.93,370.84-24.74,9.31-52.59,15-77.46,6-26.89-9.84-45.11-35-58.14-60.48-66.17-128.68-40.61-289.27,29.74-415.75s179.78-225.88,287.69-322.39"/><path class="cls-1" d="M1894.86,134c27.16,269.84-21.14,540.91-69.16,807.78-17.37,96.63-34.93,193.56-66,286.69-31.26,93.71-76,182.52-127.09,267.2-59,97.91-136.46,197.64-247.88,223.21-31.71,7.3-66.21,7.67-95.43-6.7-30.74-15-51.77-44.25-70-73.15a1083.07,1083.07,0,0,1-146.38-364.3"/><path class="cls-1" d="M2152.86,4222.71a1409.15,1409.15,0,0,1-47.48-443.44c12.64-239.05,85.91-470.52,121.12-707.32,28.23-190.07,32-383.16,60.29-573.24,23.2-155.92,63-309.21,81-465.78,74.62-646.16-239.56-1301.63-733.16-1725.27"/><path class="cls-1" d="M1656.76,325.6c378.95,321.09,617.61,789.73,707.88,1278.17,14.65,79.22,25.62,159.34,27.27,239.82,2.43,113.77-13.67,227.07-32.3,339.35q-26.66,160.72-60.46,320.14c-22.41,105.88-47.5,212.33-95.68,309.23s-121.82,184.53-219.65,230.61c-56.77,26.72-124.37,38.24-182.28,14.07-93-38.88-128.34-150.73-146-250.07-28.52-160.25-40.31-324.58-90.81-479.42-71.75-219.76-216.81-407.12-319.55-614.3-49.45-99.84-86.22-204-126.26-307.74-37-95.89-41.68-150.58-7.68-253.28"/><path class="cls-1" d="M1780.23,307.47c214.46,295.55,425.2,604.82,516.45,958.36,102.93,398.75,45.33,819.64-24.7,1225.49-30.77,177.94-66.38,361.92-171.56,508.89-42,58.61-99,112.35-170,124.47-90.3,15.36-180.37-42.21-231.54-118.19s-72-167.74-93.52-256.86c-82.26-340.11-191-675.66-353.46-985.58-85.13-162.45-186.18-321.55-219-501.9"/><path class="cls-1" d="M1027.76,1509.27a6949.12,6949.12,0,0,1,365.09,955.14c38.67,128.85,74.83,261.48,151,372.38s202.49,197.95,336.64,187.44c96.33-7.53,184-64.53,245.15-139.41s98.43-166.25,126.53-258.69c91.85-303.22,91-625.63,89.44-942.51-.82-166.84-1.9-335.58-42.1-497.51C2248.71,981.57,2138,797.63,2024,620.39q-117.42-182.58-241.72-360.67"/><path class="cls-1" d="M669.55,3675.1c-15.66-291.48,29.29-583.36,97.78-867.21,82.38-341,213-693.84,491.92-906.49,83.83-63.85,179.74-114,249.33-193.14,97.4-110.9,129.9-263,157.71-407.93,41.92-218.77,80.07-450.75,2.13-659.33"/><path class="cls-1" d="M1576.17,299.95c57,180.38,238,285.5,370.12,420.91,217,222.44,306.14,537,377.23,839.56,45.38,192.79,86.85,388.9,80.35,586.86-3.6,109.45-21.84,217.8-40.1,325.67-31,183.72-62.2,368.21-119.6,545.51-32.79,101.17-74,199.47-104.5,301.37-93.62,311.38-84,652.84,26.85,958.52"/><path class="cls-1" d="M2045.64.46c-50.48,82.67-74.1,178.57-96.92,272.65-33,135.89-66.12,272.09-86.61,410.42C1836.5,856.42,1830.4,1033,1785.66,1202s-135.56,335.37-287.15,422.5c-68,39-153.26,60.07-224.9,28.18-68.4-30.51-109-101.55-136.31-171.31-39.91-102.15-61.08-210.35-82.13-317.9"/><path class="cls-1" d="M2502.2,116.37c11.72,21.58,15.13,46.59,16.72,71.05,12,183.93-66.82,364.13-178.61,510.56s-255.6,264.74-395.26,385-278.13,246.27-375.34,402.89c-27,43.68-51,89.68-84.69,128.55a327.85,327.85,0,0,1-142.94,95.59c-21.11,7-43.75,12-65.43,7.06-48.94-11.12-73.27-64.95-90.41-112.18q-75.53-208.54-151.19-417.18"/><path class="cls-1" d="M1680.7,353.53c119,175.1,141.44,397.75,139.08,609.51-1.16,104.05-7.75,210-44.82,307.2-32,84.24-85.55,158.28-140.66,229.67-71.21,92.35-160.8,189.63-277.34,193.33-35.88,1.12-73-7.74-101.19-29.95-25.27-20-41.5-48.94-57.11-77.12q-120.17-217.48-240.48-435.06"/><path class="cls-1" d="M1693.27,218.36c154,429,127.5,919.75-72,1329.67-41.22,84.8-106.54,176.69-200.86,177.06-90.72.37-156.37-84.81-198.85-164.94A1447.71,1447.71,0,0,1,1097,1236.45"/><path class="cls-1" d="M1750.68,224.69c55.67,65.25,61.8,158,65.23,243.63l8.18,203.95c6.51,162.48,13,326.66-16.13,486.65a1109,1109,0,0,1-139.77,371.24c-37.45,62.49-82.33,122.49-143,162.82s-139.5,58.57-207.93,33.57c-95.79-34.91-145.23-140.15-171.28-238.65s-40.63-205.23-104.6-284.55"/><path class="cls-1" d="M457.13,2533.35A3047.3,3047.3,0,0,0,227.32,2822c-54.24,77.27-107.07,164.9-98.9,259,6.24,72.15,51.28,139.81,115.36,173.51s145.37,32.3,208.38-3.57c45.68-26,80.32-67.6,111.74-109.81a1635,1635,0,0,0,240.46-460.3c60.12-180.36,89.82-373.89,188.18-536.65,46.82-77.56,107.83-145.51,168.44-213q98-109.18,196.2-218.36c110.95-123.46,222.86-248.21,305.82-392s136.17-310.06,119.29-475.27c-9.27-90.68-59.46-195.39-150.43-200.32"/><path class="cls-1" d="M1616.07,237.22c115.25,279.25,108.9,591.65,100.75,893.7-4,146.27-11.42,303.14-100,419.6-55.55,73.11-136.72,121.32-208.64,178.28-171.13,135.4-293.35,323.83-386.4,521.15S862,2655.84,781.87,2858.9c-35.85,90.75-75,181.5-134.35,258.81S506,3258.78,410.37,3278.19c-58.68,11.87-123.39,5.5-171.91-29.55-89.36-64.4-93.41-196.94-65.53-303.57,47.06-180.31,161.07-342.3,315-447.4"/><path class="cls-1" d="M848.72,3664.42c-17.92-169.65-36-340.29-25.27-510.57,20.45-326.91,145.75-639.18,303.19-926.45s347.71-555.27,512.87-838.16c50.75-87,99.46-175.88,131.17-271.42,110.9-333.67,5.84-712,126.16-1042.49"/><path class="cls-1" d="M530.25,2578.8c-249.43,48.48-443.59,297.28-429.77,551,7.12,131.26,86.44,275.56,217.19,289.77,125.14,13.66,231.68-99.11,273.13-218s40.18-248.64,74.56-369.66c23.83-83.91,64.24-162,106-238.49,86.92-159.63,180.91-316.36,297.51-455.71,189-225.74,437.38-406.05,576.38-665.59,124.6-232.59,187.78-639.84,4.54-857.55"/><path class="cls-1" d="M395.49,2599.72c11.42-2.82,21.25,11.21,19.15,22.77s-11.33,20.33-19.9,28.37a1020.55,1020.55,0,0,0-216.45,290.82c-39,78.63-68.23,165.6-59.17,252.88s64.05,174.06,148.11,199.29c62.05,18.64,130.8,1.6,185.44-33.17s97.22-85.48,134.84-138.17c279.81-392.08,331.92-922.27,652-1282.18,96.77-108.75,216.22-199.47,290.64-324.62,30.56-51.48,52.65-107.53,72.42-164a2307.68,2307.68,0,0,0,127.77-687.8c1.18-37.24.18-78.23-24-106.56s-80.25-28.74-91.74,6.7"/><path class="cls-1" d="M1689.82,128.58Q1835.42,278.11,1981,427.76c85.62,87.91,171.66,176.51,239.3,278.94,168.39,255,208.07,575,195,880.43s-73.94,607.14-87.59,912.45c-5.75,129.16-3.14,259.69-32,385.66-34,148.42-110,283.48-161.17,426.94-119.19,334.11-96.66,716.12,60.91,1033.91"/><path class="cls-1" d="M2336.74,4325.54c-97.31-256.85-168.27-529.44-151.82-803.72,16.64-278,121.79-542.36,173-816.12,61.77-330.08,44.47-669.33,27-1004.66-14.88-285.09-37.67-591.57-218.59-812.4-93.36-114-220.58-193.93-335-286.63s-222.29-208.28-250.69-352.85"/><path class="cls-1" d="M1646.07,203.39c71.34,67.45,144.13,136.67,188.43,224.35,37.73,74.76,52.41,158.68,65.31,241.35,12,77.6,22.72,155.72,21.84,234.28-2.15,175.73-62.34,345.5-131.8,506.93-41.48,96.51-88,193.87-164,266.35s-187.69,116.15-288,85.09c-94.56-29.23-160.64-118.59-188.62-213.54s-24.3-195.89-20.25-294.75"/><path class="cls-1" d="M1030.91,1210.88c-20.4,24.88-27,58.09-30.76,90-11.39,95.66-3.36,195.67,37.82,282.84s118.77,159.7,212.71,181c102.31,23.31,214-17.87,285.23-94.92,68-73.66,75.62-155.11,102.37-246.2,23.81-81.2,47.44-154.61,60.84-239.72,20.44-129.53,40.83-260.76,27.33-391.23-5.25-51-18.1-105.43-57.34-138.34"/><path class="cls-1" d="M991.91,1278.61a735.69,735.69,0,0,0,56.47,267.51c38.52,92.18,104.1,182.22,200.62,208.3,110.19,29.79,228.37-36,294.88-128.7s92.76-207.61,117.41-319.05q19.16-86.23,38.23-172.35c27.14-122.41,114.35-420.21-37.44-498.84"/><path class="cls-1" d="M1110.37,1113.18c-2.55,178.44-15.68,368.19,49.95,537.6,63.36,163.65,180.21,301.62,250.69,462.38,111.34,253.95,99.14,543.81,167.28,812.59,22.75,89.69,62.2,186,146.23,224.95,63.66,29.51,138.88,18.48,205-4.71,123-43.2,231.26-127.3,303.54-235.8,72-108.08,107.25-236.33,129.34-364.31,66.7-385.85,21.79-784.93-83.25-1162.21S2010.56,648.19,1837.25,297.06"/><path class="cls-1" d="M358.54,2651.4c-73.58,125.43-147.9,252.59-188,392.48s-43,295.94,23.16,425.41c9.85,19.33,21.6,38.41,38.88,51.62,53.38,41,131.83,10,183.54-33,163.07-135.27,217.28-357,286-557.32,123.56-359.65,322.5-693.31,580.18-973,56-60.81,115-119.2,166-184.28,192.35-244.65,261-565.62,273.29-876.59,2-50.68,2.5-102.41-12.87-150.69s-49.36-93.24-97.42-109.39"/><path class="cls-1" d="M1668.86,162.19c158.73,277.91,400.44,504.17,539.95,792.13,145.89,301.09,168.87,646.45,161.15,980.93a5988.29,5988.29,0,0,1-138.79,1150.49c-70.4,319-165.35,660.95-39.56,962.41,52,124.78,140.2,235.72,166.9,368.22"/><path class="cls-1" d="M1833,55.89c12.48,235.54,123.73,455,257.1,649.52,49.36,72,102.9,143.35,129.47,226.52,4.94,15.67,8.84,33.06,2.05,48-4.72,10.24-13.7,17.79-22.61,24.75-169.95,135-369.78,242-491.66,421.5-45.91,67.62-79.07,143.6-127.93,209.11s-119.19,122.22-200.79,126.64c-110.07,6-205.75-87.11-240.26-191.78-22.65-68.59-24.6-141.06-20.53-212.5,3.77-64.73,23.28-110.54-18-164.46"/><path class="cls-1" d="M1634.08,301.13c179.2,189.6,458.34,263.23,628.6,461C2417,941.4,2455.58,1193.52,2448.48,1430s-53.47,471.61-41.77,708c5,101.1,20.45,202.8,6.29,303-26.6,187.43-152.79,344.86-212.74,524.43-77,230.74-40.56,482.15-63,724.38-21.44,231.8-97.37,464.95-49.9,692.79"/><path class="cls-1" d="M1646.57,4406.92a1061.19,1061.19,0,0,1,260.88-301.21c67.13-52.93,142.25-99.26,191.33-169.24,76.44-109.21,74.88-252.52,81.21-385.65a2443.2,2443.2,0,0,1,90.55-552.46c64.6-227,162.94-449.59,165.65-685.57,1.64-139.9-30.78-277.74-42.63-417.17-15.29-179.64,3.7-360.35,2.14-540.58S2369.91,988.53,2277.24,834c-147.74-246.32-435.41-364.72-703.72-467.35"/><path class="cls-1" d="M1665.2,643.59c129.68,99.67,184.37,275.09,171.57,438.12s-84.09,315.71-167.64,456.33c-31.7,53.42-66.21,106.48-114.22,145.89s-112.14,63.48-172.85,50.41-109.08-61.43-137.66-116.65-40.13-117.3-51.34-178.52q-20.93-113.57-42-227.2"/><path class="cls-1" d="M498.43,2539.49a1544.86,1544.86,0,0,0-367.37,355.84c-43,58.34-82.5,121.09-100.13,191.31S20,3236.21,63,3294.52c29.13,39.49,72.1,66.18,114.9,90.18,87.23,49.1,195.76,91.1,283.84,43.58C544,3383.94,571.45,3281.63,595,3191.22c64.52-247.47,159-485.9,253.19-723.56,30.33-76.49,60.78-153.28,103.12-223.81a757.28,757.28,0,0,1,136.9-167.94c57.52-52.85,122.81-96.42,183.66-145.36C1599.24,1667.3,1787.3,1239.67,1760,820.48c-3.2-49.33-10.06-100.85-38.91-141s-86.14-63.89-129.49-40.17"/><path class="cls-1" d="M1530.46,344C1613,446.26,1734.19,508,1840,585.89c346.05,254.8,526.36,700.87,503.7,1129.89-5.82,108.9-23.36,217.14-24.47,326.23-1.72,179.42,41.36,358.18,27.72,537-5.33,69.68-19.46,139.31-48,203.1-23.84,53.3-57.24,101.86-95.3,146.06-51.14,59.38-113.66,112.66-189.1,134.11-132.68,37.77-277.87-33.91-362.89-142.58s-121.15-247.07-146.3-382.71-41.89-274.63-96.21-401.44c-29.79-69.68-70.43-134.26-105.35-201.6-116.25-223.93-169.21-476.06-281.38-702.16"/><path class="cls-1" d="M1588.55,618.44c34.6-3.88,63.57,25.51,83,54.47,68.31,101.71,93.09,228,89.16,350.52s-34.55,242.48-69.33,359.91c-20.55,69.11-46.08,142.77-104.92,184.35-58.46,41.29-136.49,41.38-201,72.43-28,13.5-54.79,33.06-85.86,34.34-64.85,2.53-102.59-71.33-120.13-133.75a1710.59,1710.59,0,0,1-60.85-368.32"/><path class="cls-1" d="M2209.19,4360.77c37.51-646.52-140.37-1303.64-498.79-1843-192.79-290.06-436-547-601-853.72-40.45-75.18-76.07-153.31-99.41-235.38A844.57,844.57,0,0,1,978.72,1235"/><path class="cls-1" d="M2150.65,4332.21c8.8-85.08-1.94-170.81-12.74-255.78-27.54-218.17-55.36-437.27-115-649.06-93.77-333.18-263.7-639-432.14-941.44q-159.52-286.3-319-572.7Q1098.37,1602,925.06,1290.69"/><path class="cls-1" d="M1655.1,4336.95q74.25-75,148.51-150.16c60.88-61.55,122.15-123.51,172.07-194.35,134.64-191.09,176.89-444.29,111.51-668.73-21.63-74.21-54.6-147.62-51.29-224.93,4.6-109.28,79.45-200.53,138.68-292.34,144.13-223.58,208.94-492.11,214.12-758.07S2342,1518.17,2267.2,1262.84c-20-68.58-43.05-138.74-90.09-192.53s-124.52-87.21-191.65-62.5c-46.44,17.12-79.49,57.76-109.19,97.33a3169.71,3169.71,0,0,0-311.15,507.62c-35.18,71.79-78.77,154-157.34,168.72-68.86,13-137.07-35.73-171.17-96.89s-42.19-133-52.95-202.18a2279.18,2279.18,0,0,0-71.29-312.91"/><path class="cls-1" d="M452.37,2633.43c-87.41,110.22-175,220.89-246.21,342.21-42.75,73-80.2,153.14-79.4,237.74s49.82,173.76,131.23,197c63.41,18.11,133-7.07,183.37-49.61s84.89-100.45,117-158.07c168.88-303,296.07-627,422.77-950,29.76-76,59.62-152,81.1-230.83,72.78-266.37,46.74-550-7.25-820.83"/><path class="cls-1" d="M1514.71,4297.31a5021.1,5021.1,0,0,0,230.64-859.78c30.31-173.23,51.6-350.11,30.76-524.68-38-317.65-211.11-601.06-384.88-869.77S1035,1499.77,973.88,1185.76"/><path class="cls-1" d="M1947.49,4297.45C2035,3763.66,1866,3221.23,1650,2725.25s-482.62-975.53-607.57-1501.79"/><path class="cls-1" d="M947.13,3394.82a1596.94,1596.94,0,0,1-85.68-457C851.2,2674.94,906.38,2415.68,969.23,2162c56.46-227.89,143.27-451.64,143.87-688.25a678.93,678.93,0,0,0-26.37-189.23"/><path class="cls-1" d="M1402.59,4234.36c219-214.86,327-523.17,354.57-828.78,7.85-86.65,9.77-174.35-2-260.55-29.21-215.41-140.64-409.28-240.45-602.43-149-288.3-276.35-587.61-383.77-893.8-24.28-69.34-47.67-139.41-59-212a666.51,666.51,0,0,1-7.61-123.73"/><path class="cls-1" d="M1878.8,4397.54c-6.2-684.9-150.31-1368.28-421.14-1997.49-31.91-74.13-65.5-147.51-98.21-221.31q-125.37-283.8-230.8-575.78c-38-105.46-74.56-216.48-59.6-327.54"/><path class="cls-1" d="M494.16,2562.23C380.44,2584.46,308.55,2694.84,255.65,2798c-38.67,75.43-74.78,153.58-89.22,237.12s-5.27,174,41.15,244.94,134.61,117.34,217.51,99.88c76.58-16.07,134.08-80.23,173.17-148.06,120.44-209.39,113.6-471.11,220.82-687.53,80-161.43,220.07-290.25,281.6-459.56,41.86-115,44.21-240.35,41.14-362.71-2-77.57-6-155.1-14.38-232.19a2020.85,2020.85,0,0,0-44.52-254.44"/><path class="cls-1" d="M1699.15,666c103.58,372-7.16,795.82-279.42,1069.54-58.72,59.08-124.2,111.36-181.5,171.91-76,80.19-136.54,173.54-190,270.23-279.61,505.13-366.5,1113.83-239.41,1677.06"/><path class="cls-1" d="M1661.3,689.51c62.79,112,58.57,248.64,42.37,376q-13.88,108.44-37.61,215.35c-21.74,98-50.47,196.2-105.51,280s-139.84,152.52-238.92,168.33c-29.9,4.75-62.1,4.26-88.16-11.21-18.24-10.79-31.62-27.91-43.51-45.49-86.46-128.2-104.24-300-45.67-443.1"/><path class="cls-1" d="M1062.89,1163.86c31.13,212.71,131.9,414.63,283.19,567.4,27.8,28.13,62.32,56.36,101.74,53,42.51-3.6,72.72-42.61,92.66-80.35,39.79-75.06,61.65-158,82.63-240.24q65.62-257.86,122.67-517.69c12.23-55.57,24.09-113.56,10-168.65s-62.63-105.77-119.35-102.46"/><path class="cls-1" d="M1419.2,4298c188.27-169.9,317.68-404,361.23-653.79,72.14-413-85.12-829.33-260.77-1210s-376.62-765.34-399-1184c-.41-7.09.06-15.7,6.16-19.38s15.1,6.87,8.68,10"/><path class="cls-1" d="M521,2592.07c-146.23,82.48-263.72,214.66-328.36,369.55-31.36,75.22-50.61,159.15-30.78,238.26S249,3350,330.4,3353.47c90.25,3.94,163.39-69.65,219.71-140.37a2499,2499,0,0,0,369.8-640.73c21.55-54.74,41.09-110.21,60.63-165.68,46.86-132.68,93.9-266.26,116.47-405.26,37-227.24,8.29-466.42,86.39-683.06"/><path class="cls-1" d="M382.77,2525.05A3672.2,3672.2,0,0,1,88.43,2944.46C41.06,3002.72-11.23,3071,3.37,3144.76c17.74,89.53,121,129.53,209.39,152.33,71.42,18.44,145.82,35.89,218.33,22.53,86.88-16.07,161.22-75.79,211.08-148.67s78.15-158.27,100.33-243.84c34.81-134.44,56.11-272.2,95.46-405.36s98.76-264.1,197.23-361.83c42.23-41.94,90.85-76.9,134.53-117.36,48.35-44.89,90.41-96.1,131.27-147.92q114.73-145.21,219.52-297.64c90.22-131.21,175.88-268.29,222.38-420.57s50.48-323-19.23-466.14"/><path class="cls-1" d="M499.18,2509.66Q388.51,2665.85,288,2829.06c-69.63,113.11-137.65,236.6-133,369.32,1.15,33.58,7.5,68.31,27.31,95.42,32.58,44.74,92.47,58.65,147.6,64.22,37.22,3.74,75.37,5,111.39-5.26,82.36-23.64,135.68-101.48,179.31-175.25a3684.93,3684.93,0,0,0,388.7-929.68c15.26-57.86,29.6-117,60.47-168.18,35.45-58.73,90.13-102.79,141.24-148.66,105.36-94.62,199.08-201.32,292.4-307.71,39.83-45.44,80-91.1,111.71-142.48,100.83-162.92,109-369.33,68.67-556.64"/><path class="cls-1" d="M726.11,3785.93a1707.45,1707.45,0,0,1-2.48-511.24C775.61,2920,938.11,2589,995.41,2235.18c46.4-286.73,24.6-590.23,141.82-856,17.2-38.91,37.15-76.48,57.09-114.06"/><path class="cls-1" d="M1207.06,1379.45c-144.62,262.91-123.25,582.42-191.41,874.67a1437.93,1437.93,0,0,1-257.26,545.2c-75,98.06-162.39,186.28-233.15,287.41-63,90.22-128.62,200.92-238.18,212.33-6.59.68-13.68.89-19.29-2.76-6.83-4.41-9.37-13-11-21-25.68-126.13,42-250.59,107.3-361.58q96.35-163.89,192.6-327.68"/><path class="cls-1" d="M444.94,3752.08c-4.47-44.69-33.82-82.38-54.48-122.2-47.73-92.18-50.2-200.26-51.63-304.06-1.76-125.9-3.45-252.61,18.24-376.57S425.61,2702.77,510,2609.39"/><path class="cls-1" d="M697.44,3670.91c-42-276.93-42.95-562.41,22.77-834.7,53.72-222.41,150.64-431.54,246.9-639.05"/><path class="cls-1" d="M584.38,3705.52c-41.17-492.64,134.35-974.69,307-1437.87"/><path class="cls-1" d="M430.7,3556.61A9403,9403,0,0,1,820.51,2511.56c48.79-110.33,100.1-220.52,171.57-317.69"/><path class="cls-1" d="M839.75,3718.5c-12.26-79.58-26.79-122.69,6.31-197.66,36.48-82.67,70.52-166.07,98.5-252,55.69-170.74,90.46-349,92.86-528.84,1.77-135.3-14.48-270.9-2.9-405.68s55.47-273.78,156.15-364.17"/><path class="cls-1" d="M369.7,2692.59c-73.72,88.64-148.39,178.88-194.31,284.62s-60.09,231-10.91,335.24c23.2,49.06,67.23,95.44,121.52,94.5,33-.53,63.2-18.6,89.45-38.55,107.72-81.88,177.74-202.62,244.94-320Q775.25,2778.11,930,2507.75"/><path class="cls-1" d="M654.12,3667.14c41.13-462,190-906.75,337.9-1346.51"/><path class="cls-1" d="M466.52,3662.64c38-66.9,76.23-134.21,103.4-206.21,26.05-69,41.61-141.34,58.89-213.05,89.49-372.28,224.06-731.94,358.36-1090.48"/><path class="cls-1" d="M449.31,3718.85c-46.22-17.6-52.88-79.64-48.47-128.88,20.1-223.49,108.31-435.64,216.79-632s237.82-380.49,349.76-574.81"/><path class="cls-1" d="M192.82,2992.12a957.38,957.38,0,0,0,38,279.53c15.07,52,35.77,104.33,74.14,142.41s98.5,58.73,148.42,37.75c36.58-15.35,61.42-49.36,83.81-82.11a3583.32,3583.32,0,0,0,465.94-965.28"/><path class="cls-1" d="M1312.38,4260c47.5-57.27,95.09-114.64,138-175.38,193.82-274,288.39-618.82,250.53-952.28s-210.54-651.6-476.25-856.66c-18.31-14.09-37.7-28-60.35-32.8-69-14.55-122.76,58-153,121.79-142.64,300.66-221.45,647.53-464.3,875.1C508.28,3276,464.9,3309,414.21,3324.38S304.37,3334.8,263.5,3301c-47.94-39.56-60.38-107.93-59.45-170.09,3-195.26,114-385.48,282.61-484.1"/></g></g></g></svg>