<svg xmlns="http://www.w3.org/2000/svg" viewBox="0 0 2187.06 2826.74"><defs><style>.cls-1{fill:none;stroke:#ee7020;stroke-miterlimit:10;stroke-width:1.5px;}</style></defs><title>brainbow-orange</title><g id="Layer_2" data-name="Layer 2"><g id="Layer_6" data-name="Layer 6"><path class="cls-1" d="M1655.74,2424c33.83,74.47,14.44,169.76-45.79,225.07-25.63,23.63-57.13,39.92-88.17,55.94q-100.4,51.81-200.82,103.47c-17.74,9.17-36.6,18.59-56.49,17.39-46-2.69-69.24-56.08-107.22-82.27-57.21-39.48-138.31-11.29-202.75-37.59-76.16-31-102.74-124-115-205.3"/><path class="cls-1" d="M1628.93,2465.62c5.64,78.25-30.24,156.41-86.95,210.72s-132.46,86.06-209.9,98.8c-34,5.6-70.18,7.43-101.94-6.12-41.43-17.66-68.33-58.3-106.68-81.83-51.94-31.86-120.84-30-168.64-67.86-53.07-42-62.35-117.72-67.38-185.3"/><path class="cls-1" d="M1648.2,2559.45c-17,90-97,160.16-186.19,181.29s-184.39-1.17-265-44.84-148.43-107.35-211.95-173.34c-18.32-19-37.59-45.72-25.6-69.21"/><path class="cls-1" d="M1213,2539.34c-28.5,39.08-57.64,78.79-96.38,107.62s-89.36,45.83-136.08,33.4c-41.45-11-74.13-42.92-114.11-58.24"/><path class="cls-1" d="M1239.87,2516.49c-11.39,18.32-31.54,29-51,38.43-43.32,21-88.35,39.82-136,46.34-49.28,6.75-102.73-.7-143.53-30.73-8.47-6.23-30.32-40.71-42.12-37.92-76.75,18.07,114.49,195.34,134.68,211.72,22.52,18.28,45.62,36.78,73,46.37,25.46,8.94,53.08,9.34,80.08,9.24,78-.29,158-5,229.76-35.67,49.22-21,92.7-53.42,135.58-85.46,23.68-17.74,49.68-39.78,50-69.39"/><path class="cls-1" d="M1646.85,2610.78c-3.46,58.37-48.41,108.18-101.63,132.34s-113.59,26.8-172,24.7c-91.62-3.28-184.48-17.73-266.28-59.28s-151.5-112.94-175.34-201.46"/><path class="cls-1" d="M1641.73,2569c8.26,48.05-41.29,84.34-84.07,107.69-74.74,40.82-150.3,82-232.57,103.71s-173.2,22.33-249.13-16c-108.64-54.83-165.64-175.8-202.21-291.79"/><path class="cls-1" d="M914.75,2499.23c24.17,64.31,50.58,131.74,104.17,174.73,50.87,40.78,118.63,53.15,183.68,58.69A1166.13,1166.13,0,0,0,1472.5,2724c37.18-5.5,75.51-13.53,105.43-36.26s48.62-64.34,34.14-99"/><path class="cls-1" d="M1028.53,2556.29a402,402,0,0,0,132.11-.43"/><path class="cls-1" d="M1520.48,2596.68c18.38,30.51,3.4,72.44-24.1,95.07s-63.92,30.67-99,37.09-70.76,12.11-106.55,11.78c-126.79-1-249.35-83.15-298.54-200.1"/><path class="cls-1" d="M874.49,2473.62c10.55,20.16,21.51,40.78,38,56.48,33.38,31.86,83.22,38.06,129.31,40.31,29.37,1.43,59.13,1.89,87.59-5.4s55.83-23.08,71.37-47.94"/><path class="cls-1" d="M1580.22,2522.29c-.46,64.67-53.18,116.29-106.31,153-62.62,43.19-132.49,77.53-207.35,91.21s-155,5.58-221.57-31.22c-43.67-24.11-80-59.37-113.51-96.27-45.28-49.89-88.91-116.74-66.06-180.11"/><path class="cls-1" d="M870.16,2510c10.7,44.1,87.51,32.78,119.38,80.94,24,36.39,33.3,80.36,50.34,120.46s46.89,79.8,89.85,87.49c37,6.61,73.46-12.11,110.8-16.7,33.56-4.06,67.32,3.39,101.09,5.42,118,6.93,237.16-60.19,292.27-164.73,18.29-34.74,26.36-85-6-107.29"/><path class="cls-1" d="M1577.39,2508.8c17,35.28,28.66,74,26.6,113s-19.43,78.51-51.42,101.1c-27.36,19.26-61.86,24.48-94.93,29.2q-101.09,14.34-202.25,28.76c-16,2.31-33.31,4.39-47.8-3-12.23-6.19-20.38-18.22-31.34-26.6-48.09-36.59-124.6,11.17-175.78-21-18.47-11.52-29.64-31.4-39.48-50.85a1008,1008,0,0,1-71.61-184.22"/><path class="cls-1" d="M1272.56,2551.27c-1.59,34-36.89,54.81-67.67,69.24-18.24,8.51-36.4,17.08-54.64,25.58-26.11,12.17-57.47,24.31-82.25,9.61-12.12-7.13-20.16-19.59-26.24-32.25-18.1-37.36-25.17-82.13-55.92-109.93"/><path class="cls-1" d="M1611.23,2549.14c18.41,63.63-19.63,133.35-75.08,169.6s-124.11,45.31-190.3,47.35a1058.88,1058.88,0,0,1-174.26-9.05c-33-4.47-66.24-10.75-95.75-26-68.89-35.57-106.25-122.83-84.54-197.17"/><path class="cls-1" d="M1132.39,2598.75c-23.81,33.61-69.6,41-110.49,45.67-15.24,1.8-30.78,3.48-45.94.58-26.4-5.08-48-23.66-66.68-43-30-31.15-47.08-70.68-47.45-113.86.15,17.9,35.33,25.33,44.07,35.52,13.35,15.6,12.61,24.92,21.54,43.12,21.43,44.05,38.15,81.2,86,103.18,32.18,14.79,68.21,18.15,103,24.77,68.61,13.06,134.22,39,202.62,52.81s143.43,14,203.67-21.3,97.91-114.75,68.79-178.19"/><path class="cls-1" d="M1350.55,2554c-40.94,58.21-90.3,121.71-160.91,129.68-18.33,2.12-36.81.13-55.14-2.52-65.32-9.49-136.13-32.71-168.14-90.38-22.13-39.86-23.39-92.41-57.79-122.39"/><path class="cls-1" d="M951,2466.17c1,114.56,88.17,222.53,199.84,247.75,31.08,6.94,63.05,8.17,94.87,9.27l54.8,2c14.55.48,29.81.88,43.23-4.7s24.89-19.08,23.24-33.55"/><path class="cls-1" d="M1628.09,2578c-.28,54.13-10.14,119.28-59.73,140.85-44.54,19.49-95.86-8.52-144.22-3.22-30.23,3.28-57.41,19.47-86.52,28-53,15.68-109.88,5.73-164.25-4.4-66.69-12.41-137-26.5-187.59-71.65-50.37-44.89-72.43-112.76-92.35-177.23"/><path class="cls-1" d="M1595.15,2605.13c-26.92,88.53-108.28,158-200,170.63-39,5.41-78.71,1.28-117.88-2.82l-163.44-17.14c-35.22-3.73-73.57-8.85-97.93-34.54-18-19-24.79-45.62-30.92-71.08q-15.56-64.61-31.2-129.27"/><path class="cls-1" d="M917.54,2506.9c-1.64,34.86-1,75,25.7,97.5,15.88,13.28,37.39,17.09,57.84,20.29l113,17.91c16.47,2.55,33.46,5.27,49.69,1.31,13.8-3.35,26-11.09,37.93-18.8q36.78-23.66,73.7-47.47"/><path class="cls-1" d="M941,2494c54.8,44.35,59.23,127.43,104.11,181.63,38.45,46.41,100.29,64.79,158.38,80.66,30.88,8.45,62.62,17,94.3,13.31,28.38-3.23,54.71-16,80.35-28.54q66.67-32.63,133.48-65.27c80.16-39.25,94.37-72.93,72-150.87"/><path class="cls-1" d="M1232,1109.42c-77.56,41.76-162.3-.63-235.24,52.73-80.87,59.16-157.43,114.6-250.76,153.73-181.49,76-386.52,97.88-579,55"/><path class="cls-1" d="M1101.65,1190.21c-71.11,5.26-82.08,7.18-136.35,51.35-47.79,38.88-102.67,68.25-159.82,90.9-120.6,47.65-250.8,65.09-378.59,81.14q-130.32,16.31-260.63,32.77"/><path class="cls-1" d="M896.28,1227.26c-96.34,7.45-198.28,17-276.06,74.46-28.26,20.85-52,47.14-77.78,71.07C434,1473.35,286,1530,138.14,1527.48"/><path class="cls-1" d="M200.21,1487.83c60.33-5.77,122-12.11,176.91-38,30.5-14.4,58-34.46,87.42-50.88,87.14-48.79,188.37-64.5,287.06-79.45,58.1-8.74,117.26-10.69,174.6-18.5,55.31-7.52,91.48-42.56,133.47-78.42"/><path class="cls-1" d="M949.12,1319.88l-228.7,47.22c-36.05,7.44-72.17,15-108.86,18.28-112.76,10.22-225.12-18.91-334.68-47.69"/><path class="cls-1" d="M965.36,1270.84c-153.64,16.32-314.4,35.22-441.49,123.07-36,25-69.32,55.4-110.57,70.21-29.06,10.41-60.34,12.45-91.22,14.31q-61,3.78-122.14,7.5"/><path class="cls-1" d="M163.68,1456.51a1953.8,1953.8,0,0,0,283-84.14c91.57-34.89,180.65-72.44,279.74-78,86.93-4.91,167.38-33.88,256.7-29.51"/><path class="cls-1" d="M816.7,1324.82c-73.11-.22-146.84-.31-218.58,14C462.93,1365.7,340.64,1442.88,204,1461.28"/><path class="cls-1" d="M841.77,1328c-164.47,58.53-342.1,106.63-512,66.49-34.69-8.2-69.84-20.11-105.2-14.95"/><path class="cls-1" d="M1223.88,1300.64q-247.76,33.42-495.61,66.78c-59.73,8.05-119.61,16.12-179.78,15.83-93.1-.35-185.49-20.61-278.45-17"/><path class="cls-1" d="M1051.17,1277.78l-411.38,46.79c-92.11,10.49-185.33,21.25-272.44,53.19s-168.83,87.71-213.56,169"/><path class="cls-1" d="M1026.89,1340.38Q797,1354.13,567,1368c-49.45,3-99.48,5.93-148.19-3.09a309.25,309.25,0,0,1-180.21-106"/><path class="cls-1" d="M1024.26,1372.5c-140,47.39-292.6-4-440.33.75-123.22,3.92-241.22,47.1-361,76.18-31,7.56-76.8,3.86-78.26-28"/><path class="cls-1" d="M995.39,1325.88c-199.54-6-398.68,16.4-597.11,38.86-55.16,6.23-110.94,12.59-162.66,32.82-66.34,25.87-122.14,73.19-172.26,123.82"/><path class="cls-1" d="M1210.65,1174c-282,109.34-561,223.86-857.53,289.21-65.75,14.51-134.83,26.95-199.48,8.21C95,1454.47,46.84,1413.69.49,1374"/><path class="cls-1" d="M1012.4,1319.2c-56.09,30.07-150.95,24.43-213.86,36.08q-148,27.43-296.18,54.66c-132.68,24.45-270,48.88-401.14,17.36"/><path class="cls-1" d="M1373.69,622c-188-10.4-374.57,29.53-562,46.51-16.63,1.44-33.47,2.84-50,.14-17.64-2.86-34.27-10.3-51.22-16.08-79.92-27.53-167-20.26-251.14-12.72"/><path class="cls-1" d="M1399.72,548.22c-138.19-34.13-271,55.24-399.41,93.61-28.41,8.5-57.58,15.08-87.18,14.89-25.55-.26-50.77-5.53-76.3-7.07-100.44-6.06-194.07,46.61-280.85,97.5"/><path class="cls-1" d="M1394.6,548.18c-139.69-12.29-291.27-22-409.21,54-31.79,20.44-59.87,46.46-91.92,66.42-69.12,42.94-153.78,55.36-235,49.86S498.35,690.56,420,668.34"/><path class="cls-1" d="M1289.55,582.7c-47.69-35.5-115.06-21.53-170.79-1-111.33,41-214.91,102-328.19,137.25-30.38,9.34-63.22,16.95-93.61,7.73-20.48-6.19-38-19.51-56-31.15a394.53,394.53,0,0,0-162.08-59.44"/><path class="cls-1" d="M1371.84,545.43c-45.9-10.73-93.85-5.6-140.74-.52-51,5.65-102.27,11.26-151.15,26.58C966.08,607.2,862,695.29,743.69,680.29a205.14,205.14,0,0,1-131.34-72.87"/><path class="cls-1" d="M1244.24,581.72c-71.33-25.58-151.07-11-222.52,14.37S882.27,657.29,808.54,675c-25,6-51,9.85-76.15,4.64-61-12.65-101.83-74.8-162.32-89.77"/><path class="cls-1" d="M2106.31,640.73c-51.1,104.84-154.41,175.14-261.86,220.72-66,28-141.92,48.37-208.4,21.58-82.8-33.34-123.73-132.38-116.49-221.43s52.14-170.06,98.37-246.53c27.9-46.26,57.72-100.62,39-151.35-21.45-58-93.38-77-155-81.65-50.95-3.88-103.36-4-151.05-22.41-42.21-16.23-77.87-45.44-116.74-68.49s-85.27-40-128.82-28.06"/><path class="cls-1" d="M2166.46,633.27c8.12,39.18-23.43,74.88-54.42,100.21a727.89,727.89,0,0,1-333.48,152.66c-44.75,7.85-92,11.26-134.5-4.72-84-31.51-125.58-132.33-115.93-221.49s58.9-168.7,110.33-242.23c29.47-42,60.58-98.43,31.05-140.43-12.51-17.75-33.22-27.61-53-36.58q-71.52-32.56-143.06-65.26c-36-16.37-73.25-33.05-112.81-34.13-27.31-.79-54.32,6.14-80.18,15.16a497.89,497.89,0,0,0-224.39,159.17C997.84,388.78,960.75,477.94,896.51,546a383.54,383.54,0,0,1-188,108.83"/><path class="cls-1" d="M543.43,653.6c159,4.88,306.1-86.4,420.85-196.5,38.67-37,75.2-76.77,118.73-108,37.71-27.09,79.85-47.11,122.07-66.29Q1387.46,200,1577.33,135.21"/><path class="cls-1" d="M2172.49,700.26a947.28,947.28,0,0,1-378.87,227c-35.12,10.9-72.94,19.88-108.43,10.13-60.15-16.5-93.71-80.19-111.45-140.06S1545.47,672.2,1504,625.53c-36.87-41.53-93.39-61.39-148.77-64.73s-110.55,8.14-164.65,20.52c-118.47,27.1-236,58.71-356,78.36C730,676.8,604.59,699,499.66,690.85"/><path class="cls-1" d="M2067.46,794.42c-95,127.17-261.63,179.17-419.74,192.76-55.59,4.85-111.65,5.84-167,12.66-338.55,41.64-623.46,293-961.92,335.46"/><path class="cls-1" d="M2092.34,743c-76.45,79.11-185.05,117.69-291.5,145.52s-216.66,48.1-313.37,100.59c-54.31,29.46-102.94,68.42-156,100.31-62.49,37.63-130.37,65.09-198,92.37-272,109.87-573.81,242-869.34,252.19"/><path class="cls-1" d="M2015.31,734.43C1551.94,1078.67,999,1301.12,426.43,1373.68"/><path class="cls-1" d="M715,651.63c94.24-26.28,176.27-55.14,276.82-65.09,104.84-10.47,211.17-10.71,314.88,9.09,51.72,9.91,105.09,26.19,141.33,64.37,33.2,34.94,47.71,83.55,77.25,121.57,51.63,66.51,143.49,91.23,227.25,83.24s162.19-43.51,238.73-78.62"/><path class="cls-1" d="M2147.84,675.73c-92.25,97.45-218.35,155.7-345.16,199.73s-258.24,76.31-379.79,133.23c-192.95,90.28-355,239.64-553.21,317.67-84.76,33.33-174.3,52.87-264,68.52q-117.63,20.43-236.5,32.39"/><path class="cls-1" d="M2125.77,660.39c-41.52,75.9-130,110.61-211.43,139.55-67.39,24-137.66,48.35-208.89,41.54s-144.12-54.27-155.8-124.93c-10.45-63,28.11-122.21,61.19-176.76,46-75.87,85.22-158.29,94-246.5,5.77-57.4-6.54-123.8-55.36-154.42-36.88-23.11-84.48-19.38-127-9.7C1384.38,160.44,1263.76,242.72,1150,327.05,953,473.06,757.32,621.93,606,815.44"/><path class="cls-1" d="M1205.34,2483.82c-53.68,73.11-128.92,134.53-220.68,151.75-73.14,13.78-157.13-10.48-196.87-73.39"/><path class="cls-1" d="M1192.15,2562.9c-39.07,50.2-103.55,77.58-167.26,78.16S898.81,2617.4,847.29,2580"/><path class="cls-1" d="M1245.56,2648.63c-38.71,43.41-104.8,55.32-160.64,39.23s-102.24-56.2-137.6-102.29c-15.21-19.82-29.27-43-27.1-67.85"/><path class="cls-1" d="M1374.08,2638.19c-70.9,53.86-165.25,73.61-253,58.56S952.83,2633,894.05,2566.14"/><path class="cls-1" d="M936.48,2481.19c11.12,61.83,25.69,129.56,75.83,167.43,17.35,13.06,37.63,21.4,56.45,32.17,34.08,19.42,63.34,46.52,96.77,67.22,86.08,53.26,199.39,59.33,290.75,15.65s157.65-135.81,170.09-236.35c-11.62,2.42-23.26,4.69-35,7"/><path class="cls-1" d="M1719,2476.81c27.64,54.64,5.27,187.56-50.17,217.78"/><path class="cls-1" d="M1668.85,2694.58c-34.65,18.88-76.48,19.32-115.64,14.57s-78.11-14.21-117.62-13.3c-89.36,2-176,56.61-263.35,37.38-58.13-12.8-104.53-56.39-141.12-103.35s-66.89-99.12-109.59-140.61"/><path class="cls-1" d="M1197.41,2472.49c-63.4,43.2-130.38,87.62-206.68,95-41.87,4.14-91.71-8.88-107.28-47.93-1.93-4.92-3.09-11.27.56-15.13"/><path class="cls-1" d="M1254.6,2555c-83.17,53.43-183.87,79.1-282.51,71.93-19.84-1.42-42.82-6.43-51.24-24.46-1.92-4.14-1.86-10.4,2.43-11.56"/><path class="cls-1" d="M1184.64,2629.44c-5.93,14.12-20.79,22.28-35.07,27.82a223.5,223.5,0,0,1-276.21-100c-9.47-17.22-15-42.31,1.21-53.37,3.54,2.62,7.1,5.38,10.58,8.07"/><path class="cls-1" d="M1639.87,2627.78c-84.45,61.67-180.94,115.48-285.5,117.67-38.67.68-77.14-5.56-115.27-11.91q-56.86-9.45-113.64-18.83c-96.06-15.9-230.48-52-230.64-174"/><path class="cls-1" d="M1267.35,2593.54c-39.55,27.78-83.7,50.43-131.31,58.79s-99.1,1.34-139.17-25.78-66.46-75.85-60.57-123.88"/><path class="cls-1" d="M1368.35,2646.68c-111.31,37.16-234.83,36.84-345.88-.89-51-17.31-103.62-46.89-121.68-97.62-4.82-13.57-6.82-28.72-1.68-42.2"/><path class="cls-1" d="M1013.54,1489.63a258.83,258.83,0,0,0-61.95-62.52c-47.67-33.93-105.14-50.57-161.34-66.7-47.71-13.74-96.06-27.49-145.65-30.65-44-2.75-88.07,2.82-131.26,11.43a965.89,965.89,0,0,0-270.23,97.74c-66.84,36.16-153.36,84-204.87,139.72"/><path class="cls-1" d="M1851.15,889.69c-234.89,32.15-444.6,150.55-651,259.37-217.36,114.65-431.57,202.09-675.46,239.3q-187.38,28.53-374.75,57.21"/><path class="cls-1" d="M2001.65,858.2c-472.54,89-884.71,369-1336,535.28"/><path class="cls-1" d="M1923,839.71c-82.75,28.79-169.41,46.54-249.56,81.81C1576.78,964,1493,1030.27,1404.71,1088.2c-271.88,178.32-579.44,282.86-900.45,334.48A2192.08,2192.08,0,0,0,1224,1157c101.13-59.2,198-126.86,306-172.69,102-43.3,211.39-66,316.76-100.16S2057,802.12,2131.08,719.7C2080.26,791,2005.61,810.79,1923,839.71Z"/><path class="cls-1" d="M1248.47,525.26c-116,47.53-234.66,90.42-357.88,113.53S638.76,664.53,517.65,632"/><path class="cls-1" d="M1696.22,296.89c10.28-9.81,3-27.18-6-38.26-39.91-48.89-102.9-74.9-165.76-80.46s-125.87,7.82-186.15,26.38c-55.58,17.22-110.5,39.49-156.82,74.66-48.36,36.73-85.4,86-126.47,130.72C960.53,512.8,835,597.65,709,656c-68.51,31.72-154.16,26.32-228.72,29.95"/><path class="cls-1" d="M1662.28,183C1592.8,126,1503,94.09,1413,94.69c-118.5.79-231.33,56.17-322.49,131.82S926.94,397.43,855.26,491.75"/><path class="cls-1" d="M2176,690.44a916.1,916.1,0,0,1-409.38,206.33c-52.09,11.17-111.41,16.34-154-15.56-55.21-41.47-55.86-123-47-191.54a1699.33,1699.33,0,0,1,121.92-447.53c14.64-34.22,30.49-68.5,35.91-105.32s-1.35-77.35-27-104.33c-31.53-33.19-84-37.69-128.21-25.64s-83.08,37.92-123.77,58.86c-154.89,79.58-348.14,95-468.59,220.73"/><path class="cls-1" d="M2041.79,731.32c-79.47,91.08-192.42,152.15-312.09,169-36.79,5.17-75.73,6-109.6-9.37C1557,862.24,1529.51,784,1535.84,715s38.62-132.62,65.08-196.79A1251.25,1251.25,0,0,0,1693,118.71c1.27-20,1.85-41-6.37-59.27-11.94-26.7-41-42.66-70.06-46.82s-58.5,1.46-87.28,7.08c-70.8,13.75-142.35,27.8-208.37,56.77-103.62,45.46-188.06,125-267.47,205.73Q950.23,387,853.11,497.73"/><path class="cls-1" d="M2186.46,710.82c-46.58,62.78-120.05,100.77-195.24,122.3s-153.57,28.61-230.54,42.51a1332.69,1332.69,0,0,0-418.93,151.3c-79,44.68-153.26,97.25-231.18,143.74A1716.64,1716.64,0,0,1,729.5,1338.79c-120.33,36.53-239.77,40.55-360.25,72.19"/></g></g></svg>