<svg xmlns="http://www.w3.org/2000/svg" viewBox="0 0 3484.95 4563.2"><defs><style>.cls-1{fill:none;stroke:#76b72e;stroke-miterlimit:10;stroke-width:1.75px;}</style></defs><title>Asset 1</title><g id="Layer_2" data-name="Layer 2"><g id="Layer_1-2" data-name="Layer 1"><g id="grün"><path class="cls-1" d="M2214.07,4489.44c-190.65-117.52-367.43-309.24-352.23-532.65,6.06-88.2,41.73-171.22,76.09-252.63,129-305.36,248.33-622.31,261.68-953.51,11.87-294.91-61-590.37-29.39-883.79,16.73-155.21,62.57-308.53,53.8-464.42-5.85-103.7-35.69-204.48-67-303.57Q2089.7,886,2012.4,676.43C1940,480.26,1862.12,255.8,1959.84,70.85"/><path class="cls-1" d="M2228.15,87.24c41,110.58,37.3,237.08-10.25,345-42.36,96.12-116,174.45-172.59,263S1948.6,894.06,1983.94,993c25.33,71,84.55,123.26,133.78,180.24,121.86,141.25,188.24,323.82,214.72,508.51s15.26,372.49-3,558.1c-16.23,164.31-38.06,328.72-82.59,487.74-64.6,230.43-175.61,444.78-285.81,657.22-69.24,133.33-139,267.56-231.23,386.1-102.14,131.14-234.49,248.2-279.52,408.22"/><path class="cls-1" d="M1007.26,4487.27c95.79-25.54,174.26-97.38,227.22-181.2s83.52-179.64,111.38-274.85c72.59-248.13,130.58-510,80.67-763.54-19.34-98.39-54.58-192.78-85.63-288.06-36-110.78-66.7-223.27-100.65-334.76A5758.12,5758.12,0,0,0,724.24,1454"/><path class="cls-1" d="M655,2492.42c25-22.41,66.49-14.43,91.3,8.16s36.72,55.48,47.94,87.08c50.56,142.88,101.12,286,136.79,433.24,17.73,73.29,31.76,147.79,56.9,218.88,69.19,195.87,222.06,356.9,405.8,454,62.41,33.07,128.93,59.44,186.24,100.72,62.62,45,111.95,106,157.47,168.13,140.28,191.34,262.88,411.69,472.33,523.19"/><path class="cls-1" d="M2416.46,4486.06c-19-170.59-99-327.56-177.61-480.22q-155.38-301.43-310.66-603-85.12-165.11-170.14-330.33c-52.14-101.18-104.39-202.55-166.83-297.73-51.43-78.48-109.67-152.25-162.5-229.83-233.75-343.2-365-761.64-668.16-1045.51"/><path class="cls-1" d="M1925.36,121.37c-30.83,152.31,15.64,312.79,99.79,443.46s203.3,234.81,327.64,328c87.73,65.66,181.66,129.92,236.6,224.7,39.73,68.58,55.86,148.08,85.8,221.46,38.14,93.48,98.28,176.26,141.22,267.54,64.46,136.87,88.73,292.46,69,442.47-11.76,89.71-38.72,176.72-53.38,266-27.83,168.61-10.25,347.4,67.72,499.57S3119.26,3089,3286,3126.48c68.41,15.37,144.11,18.44,198.43,62.81"/><path class="cls-1" d="M3165.63,3485.23c-64.72-49.47-157.12-36.93-232.83-67.1-68.51-27.27-117.94-87.25-161.86-146.43-96.26-129.76-183.62-274.52-199-435.31-12.06-126.49,21.49-253.21,17.53-380.21-6-194-98.36-375.86-117.25-569-15.87-162.59,20.76-327.81-3.61-489.3-23.77-157.39-104.63-304.45-109.7-463.55-6.49-202.7,109.73-386.55,221.56-555.7C2617.55,322.47,2656,265,2711,226.13"/><path class="cls-1" d="M1751.67,146.85q364.12,507.29,765.83,986.07c28.41,33.79,57.13,67.78,78.55,106.37,20,36.09,33.33,75.59,51.95,112.48,28.82,57.19,69.95,107.07,104.67,160.85,98.67,153.26,143.55,340.44,125,521.75-4.28,42.4-12,85-7.54,127.4s23.44,85.89,60,107.57c24.11,14.19,52.91,17.58,80.61,21.06a2434,2434,0,0,1,438.34,96.91"/><path class="cls-1" d="M3351.5,3185.15c-230-31-429.4-221.71-470.7-450.09-16.24-89.59-10.08-181.5-3.92-272.4Q2890,2269.9,2903,2077.24c8.55-125.5,16.59-254.61-22.86-374-51-154.28-173.82-271.62-283.37-391.58s-214.71-262-215.49-424.51c-.45-108.7,46.31-211.42,92.16-309.94,61.14-131.43,126.18-267.86,240.34-357"/><path class="cls-1" d="M2494.56,115.22c47.5,235.68-9.89,490.5-153.8,683-23.69,31.71-50,62.42-63.86,99.53-40,106.82,33.7,218.29,71.24,325.87,53.47,153.18,33.54,320.89,13,481.79q-59.2,462.93-118.5,926c-18.64,145.51-38.47,295-109.32,423.55s-205.4,233-351.8,223.85c-96.4-6-183.43-58.92-259.85-117.89-59.12-45.67-115.64-96.85-154.27-160.73-110-181.65-53.68-415.58-97.27-623.46-34.57-164.59-131-308.34-225.5-447.5q-183.42-269.92-366.74-539.94"/><path class="cls-1" d="M384.91,2760.54c-199.47,77-327.47,305.74-288.88,516,8.42,45.8,27.14,94.49,68.25,116.27,73.62,39.17,157-30.37,207.76-96.59,170.1-221.57,294.19-476.83,475.1-689.61,66.67-78.43,140.43-150.36,211.5-224.79,361.53-379,660.23-845.59,717.8-1366.21,9-81.5,12.13-164,31.19-243.71,17.37-72.81,47.74-141.62,71.81-212.53A1281.37,1281.37,0,0,0,1945,70.16"/><path class="cls-1" d="M2431.79,4554.25c33.27-290.51-139.14-559.14-287.35-811.08-174.53-296.52-324.56-606.76-467.2-920-47.55-104.38-94.49-209.76-121.54-321.15-44.78-184.08-33.56-378.09,5-563.6,16.17-77.81,37.63-156.12,80.9-222.94,68.15-105.33,190.42-173.48,315.82-176.14,33.3-.71,67.6,3.27,96.71,19.46,34.71,19.48,58,54.27,76.94,89.27a705.48,705.48,0,0,1,59.77,149.27c7.71,28,13.92,57.19,29.74,81.59,15.71,24.19,39.62,41.68,63.23,58.17,332,231.86,722.27,379.49,1124.59,425.31"/><path class="cls-1" d="M3361.79,3161.74C3105.87,3122.65,2888,2903.95,2849.66,2648c-10-66.9-8.86-135-8-202.6,1.64-132.7,1.88-265.5-3.57-398.1-4.35-105.2-12.49-211.19-41.94-312.28-34.85-119.88-98.5-229-161.45-336.73q-72.65-124.32-145.31-248.54c-53.44-91.48-107.28-183.35-174.52-265.22-48.13-58.58-103.65-112.75-135.68-181.44-48.15-103.38-35.6-226.88,7.76-332.4S2301.58,174,2372,84.27"/><path class="cls-1" d="M2182,87.76c52.54,96.68,69.59,212,48.94,320.08-18.36,96.11-64.62,184.13-110.38,270.65-77.34,146.23-154.67,292.47-237.71,435.4-178.47,307.28-387.54,603.67-666.24,824.09-38.19,30.22-81.57,60.24-130.27,59.46-83.5-1.36-135.64-87.24-178.07-159.12A1476.8,1476.8,0,0,0,707.39,1572"/><path class="cls-1" d="M414.71,2754.73A833.47,833.47,0,0,0,179,2956.23c-64.27,80.13-112.81,197.65-53.48,281.42,58.94,83.17,191.93,75.22,273.81,14.48s128-156.66,181.09-243.58c191.86-314.28,501.26-542.12,700.53-851.81,69.35-107.83,124.5-224.35,194.56-331.78,152.2-233.27,375.12-419.66,631.67-528.18,34.69-14.72,73.19-28.13,109.29-17.35,41.81,12.48,68.62,55.17,75.84,98.17s-1.26,86.9-8.64,129.8a2497.87,2497.87,0,0,0-25.82,647.91c19.8,218.09,67.29,445.07-7.52,650.9-46.14,127.12-135.2,233.56-199.75,352.39s-103.68,266.65-43.13,387.62c30.43,60.69,82.35,107.26,129,156.64,198.89,210.81,313,499.36,312.14,789.16"/><path class="cls-1" d="M2204.16,4481.15c-174.85-109.62-236.55-342.8-217.44-548.31s104.83-397.85,167.34-594.47c166.47-523.47,169.63-1089.27,74.09-1630.23S1941.39,647.66,1725,142.76"/><path class="cls-1" d="M1276.09,638.45c116.54,93.75,289.72,44.87,433.94,84.31,54.21,14.78,104.12,42.25,153.33,69.43q208.4,115,416.7,230c69.52,38.37,140.13,77.54,196.06,134,50,50.48,86.15,112.66,121.78,174.15q89,153.41,177.93,306.92c32.22,55.59,64.85,112.07,81.08,174.26,23.94,91.79,10.48,188.5,4.82,283.2A1679,1679,0,0,0,2960,2766.22c34.24,93.88,78.08,186.37,146.91,258.84s166,123,265.65,117.18"/><path class="cls-1" d="M3201.32,3473.51c-102.08,42.74-224.09,15.7-314-48.86s-151.57-161.73-196.21-262.91c-41.94-95-80.59-206.16-176.11-246.72-129.62-55-266.78,55.32-406,76.58-156,23.87-311.53-72-400.89-201.93s-124.73-289-150.89-444.63c-14.34-85.09-26.37-171.59-18.41-257.59,17.72-190.51,133.14-360.06,273.79-489.72,50.38-46.52,104.66-89.35,149.34-141.47,51.77-60.52,89.24-131.74,126.11-202.36Q2243.48,957,2398.8,660.06c27-51.61,54.25-103.92,67.63-160.63,16.47-70.11,10.94-144.2,30.21-213.61S2573,147.89,2644.78,152.26"/><path class="cls-1" d="M402.1,2732.83c11.62,56.1-134.85,105.46-170.84,135.57C155,2932.34,102.64,3043.46,72.78,3136.18c-7.89,24.4-14.48,50-11.77,75.51,2.61,24.6,13.92,47.69,29.23,67.19,59,75.67,172.54,92.72,262.53,59.39s159.35-107.17,212.82-187,94.33-167.44,148.49-246.66a878.52,878.52,0,0,1,199.41-207.79c71.38-53.23,151.06-95.87,215.63-157.19,153.34-145.37,197.24-367.79,281.26-561.62,81-186.74,203.35-352.39,299.07-532.13s165.93-384.77,129.34-585.06c-2.51-14-6-28.7-15.92-38.89-9.2-9.6-22.51-13.69-35.31-17.28-181.32-50.72-387.13-58.23-526.88-184.27"/><path class="cls-1" d="M596.86,4237.55a3759.55,3759.55,0,0,0,482.76-85.91c68.19-16.83,137.28-36.06,195.87-75,56-37.22,99.36-90.34,149.94-134.67,118.06-103.25,273.23-156.42,392.09-258.77,121.75-104.85,196.09-253,266.93-397.22,106.81-217.45,215.4-450.19,189.8-691.18-14.86-139.19-74.12-270.87-87.78-410.16-20.19-206.19,60.22-406.83,111.24-607.55s66.41-433.63-62.36-595.87C2187.41,921,2121.39,873.08,2090.86,802.4c-50.55-117,12.39-249.11,72.24-361.53S2281.59,192.61,2223.74,79"/><path class="cls-1" d="M1047.86,4478.25c91.07-73.24,171.93-160.68,228.79-262.8,49.66-89.22,80.12-187.64,105.58-286.55,81.06-314.64,114.72-643.85,73.08-966s-160.88-637.43-363.49-891.34c-83.15-104.16-179.49-197.52-257.53-305.59s-137.9-235.94-133.36-369"/><path class="cls-1" d="M2208.85,4441.75c-160.13-72.63-271.61-241.88-275.08-417.58-1.43-73.7,14.44-146.61,30.2-218.61,41.72-190.32,84.13-382.44,166.46-559,61.94-132.73,146.39-256.66,183.23-398.48,63.29-243.83-22.82-500-18.53-751.79,3.9-228.6,82.6-454.64,57.4-681.93-27.21-245.79-171.4-459.93-285.1-679.58S1867.32,253.39,1961.32,24.65"/><path class="cls-1" d="M2439.88,4532.35c24.51-202-16.08-411.49-114.36-589.65-62.15-112.77-146-212.14-212.94-322.21C1975.09,3394.55,1913,3131.37,1800.37,2892c-81.78-174-190.55-335.82-252.53-517.79s-70.37-396.87,41-553.62c134.12-188.66,392-234.77,623.19-246.17,74.7-3.63,156.9-8.37,210.87-60.09,25.49-24.41,41.68-57.22,51.56-91,46.83-160.92-42.74-326.08-73.21-490.87-40.8-220.58,25.61-445.31,91.41-659.84,21.47-70,62.93-154.83,135.93-150.36"/><path class="cls-1" d="M1459.07,4494.37q19.33-44.11,38.56-88.22c19.78-45.41,40-92,43.14-141.42,7.75-119.6-88.6-226.16-200.12-270s-235.42-39.1-355.21-33.64q-104.85,4.7-209.6,9.49"/><path class="cls-1" d="M1367.32,4387.41c-74.56-144.67-90.44-318.46-43.41-474.18,25.76-85.31,69.23-164.43,94-249.94,43.63-150.52,27.16-310.91,19.4-467.51a4023.31,4023.31,0,0,1,128-1221.86c15.87-60,33.75-121,70.23-171.23,106.44-146.45,328.63-153.14,460-277.7,91.26-86.64,124.81-217.15,141-342s19.49-253.51,66.74-370.13c53.94-133,162.39-242.47,194.73-382.38,14.07-60.71,12.85-124.21,28.42-184.51s53.75-121,114-136.65"/><path class="cls-1" d="M1870.69,4544.09C1976,4358.45,1916.51,4127,1936,3914.47c29-315.71,233-585.2,334.41-885.65A1400.56,1400.56,0,0,0,2342,2652.29c12.49-249.71-41.92-497.18-70.72-745.57-18.77-161.49-26.74-324.19-26.91-486.89-.2-226.9,15.3-456.61,84.51-672.74s196.52-419.39,384.26-546.77"/><path class="cls-1" d="M2723.06,4254.32c-59.53-61.57-79-150.17-111.1-229.55-119.63-294.85-420.9-468.42-623.71-713.63A1237,1237,0,0,1,1821,3046.82c-60.16-128.67-98-267.56-166.67-391.83-50.84-91.88-117.38-173.85-183.61-255.32q-187-230-374-459.94c-155-190.63-312.17-384.66-407.27-611.32"/><path class="cls-1" d="M526.21,2293.68a280.92,280.92,0,0,0,167.19-16.07c19.9-8.41,39.09-19.32,60.29-23.53,68.89-13.73,133.42,49.24,150.65,117.33s1.56,139.5-7.61,209.2c-44.35,336.52,75.8,690.87,315.61,931.16,219.5,220,528.85,346.27,709.86,598.89,68.14,95.17,117.09,206.85,206.72,282.11"/><path class="cls-1" d="M2421.45,4458.85c-2-296-178.35-562.12-375.64-782.64-68.93-77.07-141.57-151.44-201.7-235.61-161-225.23-222.32-504.6-279.94-775.38-34-159.59-68.14-321.67-57.11-484.48s73.46-329.23,201.31-430.59c125.86-99.75,294.75-123.23,455-133.8,55.3-3.62,116.7-9,154.08-49.87,40.58-44.62,36-113.12,26.82-172.71-26.07-169.79-68.95-341.17-44.12-511.08,33.6-229.81,185-422.48,331-603.14"/><path class="cls-1" d="M3094.52,3471.46c-175.73-73.22-361.17-154-469.14-310.8-78.45-113.77-106.31-255.25-112.87-393.25s6.48-276.4,1-414.4c-7.68-194.8-51.87-386.68-61.45-581.47-11.2-226.9,24.3-459-33.8-678.59-40-151-123.53-307-71.4-454.27C2408.41,464.86,2636.28,384,2676,203.94"/><path class="cls-1" d="M1446.35,4445.88c40.08-56.92,81.65-117.64,86.62-187.14,8.45-117.1-86.29-212.26-139.84-316.74-122.3-238.35-28.23-523.79-9.94-791.1,19.18-278.81-48-556.58-49.56-836.08-.76-139.9,15.88-282.91,77.12-408.73,150.07-308.27,531-449.93,686.17-755.7,65.24-128.53,84.78-276.44,151-404.47C2340.36,567.19,2525.19,415.71,2510.5,215"/><path class="cls-1" d="M776.1,4332.37c232.7,1.8,457.43-160.5,528.93-381.93,30.26-93.61,35-193.52,59.27-288.93,29.85-116.81,88.4-224.34,124.15-339.45,35.95-115.82,48.3-237.82,52.14-359,2.76-87.5.92-176.3-22.31-260.79-21.43-77.89-60.57-149.67-99.3-220.56q-101-185.06-202.16-370.21c-44.64-81.68-89.27-163.56-141.9-240.34-101.76-148.66-231.72-276.3-372.37-388.94"/><path class="cls-1" d="M373.21,2752a1449.27,1449.27,0,0,0-253.59,256.61c-35.88,46.82-69.46,96.83-85.93,153.44S19.84,3283.3,52.56,3332.39c44.53,66.78,137.24,90,214.73,68.91S407.86,3322.63,454.13,3257s78.64-139.83,115.81-211c71.34-136.43,163.28-264.17,282.84-361.12s268.83-161.52,422.73-164c22.1-.31,45,.78,64.9,10.47,20.2,9.89,35.21,27.58,49.22,45.18,87.35,109.66,159,232,254.55,334.59,110.05,118.15,248.19,206.29,365.24,317.54,118.95,113.15,216.91,250.71,354.45,340.35,164.95,107.53,385.26,146.33,495.24,309.68"/><path class="cls-1" d="M227.55,3774.51c24.32-184.31,53.93-380.72,178.07-519.08C450.91,3205,506.49,3165.09,557,3119.77c191.72-172.38,300.72-415.33,432.42-637a3202.11,3202.11,0,0,1,494.42-634.42c73-72.53,151.44-144.27,193.1-238.38,27.47-62,37.24-130.22,44.31-197.72a2839.33,2839.33,0,0,0-18.32-731.49c-1.6-10.2-4.51-22.1-14.11-26-8.1-3.2-17,.81-24.8,4.61-147.27,71.36-334.08,52.65-464.22-46.7"/><path class="cls-1" d="M386.82,2782.24A1595.38,1595.38,0,0,0,33.08,3145.29C17.49,3167.5,1.8,3191.81.91,3218.91c-1.08,34.7,21.83,65.19,45.24,90.88,63.13,69.47,149.26,131.83,242.45,120.69,94.89-11.34,162.66-93.17,232.23-158.8a878.72,878.72,0,0,1,221.33-152.3c53.39-25.72,116.38-46,170.69-22.17,72.11,31.57,92.75,121.06,119.59,195,50.76,140.08,156.21,259.43,288.74,327.27,104.92,53.65,228.73,78.4,311.17,162.56,30.61,31.29,53.63,69.18,77.45,106a2129.29,2129.29,0,0,0,443.82,493.61c11,8.9,11.12,35.4-.59,27.4"/><path class="cls-1" d="M1471.05,4453.47c35.49-18.32,43.07-64.82,46.45-104.72,2.49-29.5,4.87-59,7.36-88.5,4.38-53,5.35-114.7-35.17-149.08-33.51-28.39-83.81-26.16-125.51-12.35-23.7,7.81-46.49,18.92-66.09,34.43-19,14.91-34.69,33.52-50.18,52l-161.32,192.07"/><path class="cls-1" d="M1028.65,4454.26a2785.35,2785.35,0,0,0,425.12-415c73-88.33,141.32-182.56,181.77-289.68,65.82-174,53.14-366.62,39.56-552.22-12.68-173.49-25.55-348.09-67.13-517.07-25.65-104.39-62.19-206.17-83-311.66A1084.62,1084.62,0,0,1,1508,2070.45c8.36-101.5,32.21-204.41,89.77-288.44,81-118.54,220.72-186.4,362.11-211.46s286.39-12.22,429.3.61c19.4,1.79,40,4,55.11,16.28,21.31,17.29,24.42,48,25.33,75.39,3.54,103.2-.41,211.8,47.43,303.28,49.24,94.18,144.87,153.84,239.19,202.9a2473.38,2473.38,0,0,0,717.41,241.79"/><path class="cls-1" d="M3373.69,3160.44c-109.81-12.55-209.43-71.41-294-142.67-69.93-59-132.76-128.34-173.19-210.42-77.37-157.07-65.25-341.47-52.32-516.08,13-177,24.85-355.61-.43-531.3s-90.75-350.26-214-478.11c-61-63.27-134.45-113.44-196.18-176s-113-143.05-112.3-231c.48-56.1,22-109.71,45.73-160.42a1602.55,1602.55,0,0,1,341.59-476"/><path class="cls-1" d="M2472.9,216.43c47.86,132.68,38.93,288.18-37.92,406.32-73.65,113.23-197.52,181-308.89,257.33-253.52,173.61-462,412.3-600.1,686.86-32.27,64.11-61.34,131-107.92,185.65-77.16,90.33-201.14,138.19-318.95,123s-225.74-92.7-277.59-199.58c-28.93-59.59-42.06-128.18-85.08-178.36-4.9-5.7-12.61-11.49-19-7.59s5,15.4,6.3,8.1"/><path class="cls-1" d="M1240.09,646.87c281.2-4.72,517.88,193.07,764,329,79.42,43.87,164.54,83.93,222.27,153.8,38.52,46.68,62,103.57,84.27,159.76q69.68,176.67,128.46,357.34c78.41,241.07,142.42,498.14,89.93,746.16-32.63,154-108.86,315-49.5,460.82,42.65,104.78,145.37,171.14,213.51,261.51,56.33,74.68,89.77,167,157.6,231.43,84.13,80.06,205.85,103.51,321,119.26"/><path class="cls-1" d="M1368.32,703.11c178.71,31.42,338.26,129.55,485.1,236.29s287.1,224.77,449.43,305.7c79.62,39.67,163.93,70.13,240.45,115.6,200.05,118.91,333.25,343.15,341.85,575.75,3.34,89-7.22,188.5,49.81,256.88,24.71,29.59,59.22,49.07,93.13,67.46q198.95,108.06,406.59,198.72"/><path class="cls-1" d="M2399.23,4412a808.33,808.33,0,0,0-79.15-343.67c-36.73-76.38-85.16-146.46-133.49-216.14Q1909.36,3451.93,1632,3051.7c-102.46-148-205.73-297.31-275.5-463.18-41.34-98.48-70.49-201.67-112.43-299.85-65.87-153.87-162.23-292.43-258.59-429.39Q846.68,1661.94,706.15,1466"/><path class="cls-1" d="M2311.55,4212.3c1.66-92.4-37-180.18-76.91-263.57-195.08-407.92-436.25-792-682-1171.6-126.89-195.94-255.87-392.29-347.56-607-27.73-64.79-52.16-131.48-89.08-191.56-38.43-62.38-89.45-115.76-140.47-168.34q-107.15-110.5-216.6-218.81"/><path class="cls-1" d="M357.69,2698.45c-94.56,80.84-188.43,167.18-246.68,277.11s-75.49,249-14.84,357.61c18.51,33.09,44.53,63.08,78.43,80,69.52,34.57,156.6,5.93,214.08-46.19s92.85-123.54,131.12-191.06a1907.94,1907.94,0,0,1,396.29-488.07c68.17-60.13,140.75-115.56,203.62-181.19,151.53-158.37,237.44-366.4,345.76-557.05a2529.37,2529.37,0,0,1,219.56-325c66.86-84.13,140.33-165.06,231.2-222.5,89.68-56.74,192.86-88.58,296.35-112.53,76.09-17.63,154.09-31.47,231.89-24.7,205.11,17.71,384.89,195.33,404.87,400.32,15.27,156.29-50.56,324.62,18.4,465.59,75.07,153.27,269.09,196.78,437.8,222.61"/><path class="cls-1" d="M967.86,4479.19A704.65,704.65,0,0,0,1268.65,4225c27.48-41.51,50.56-86.12,82.35-124.54,61.87-74.63,156-121.27,252.85-125.21,45.2-1.82,93.4,6.46,127.32,36.44,47.62,42.18,53.65,112.68,63.68,175.57a839.54,839.54,0,0,0,82.11,250.66"/><path class="cls-1" d="M1918.25,4463.07c48.38-42.82,37.65-119.62,22.82-182.51q-21-89.39-42.18-179c-15.23-64.39-30.76-129.79-63.88-187.07s-86.75-106.26-152-117.53c-45.1-7.78-93.2,2.64-136.21-13-74.21-27.07-103.85-118.85-171.27-160.13-51.11-31.28-117.11-28.45-173.6-8.62s-106.18,54.75-157,86.47a1590.56,1590.56,0,0,1-485.71,200.81"/><path class="cls-1" d="M812.64,3966.45c107.41,23.25,221.81,12.7,323.19-29.54,40.49-16.92,79.48-38.83,122.58-47.45,110.09-21.95,218,47,330.22,50.76,122.4,4,232.47-69,332.94-139,55.08-38.42,111.17-77.65,151.74-131.17,34.28-45.22,56-98.52,77.23-151.13q128.71-318.36,257.52-636.71c43.05-106.52,86.71-215.14,95.16-329.74,17.1-231.41-110.8-454.35-98.7-686.16,7.54-145.5,70.18-284.93,69.81-430.63-.38-181.8-98.25-351.16-109.23-532.65-16-265.19,153.58-504.67,337.4-696.45"/><path class="cls-1" d="M1164.38,4074.1c51.46-94.72,174.55-123.48,282.25-120.52s217.91,27.2,321.7-1.74c142.48-39.76,241.12-172.51,293.26-310.93s68.47-287.63,110.41-429.45c61.51-207.73,177.13-397.18,228.74-607.6,104-424.25-64-863.17-87.57-1299.26-6.45-119-4.51-246.9-71.85-345.27-42-61.38-106.15-103.35-160-154.63-186.48-177.52-236.61-482.3-116.61-710.15"/><path class="cls-1" d="M735.22,1397.69a4735.73,4735.73,0,0,0,253.69,433.19c31.42,47.69,66,96.77,117.45,121.35,57.71,27.57,127.71,18.64,185.3-9.08S1396.92,1870.9,1442.5,1826a3979.54,3979.54,0,0,0,476.15-565.91c31.18-44.91,61.66-91.13,79.84-142.63,47.14-133.62,6.07-287.2,58-419C2092.17,608,2168.24,537.16,2199.1,445c22.87-68.31,19.84-145.81,57.31-207.22,31-50.71,89.16-91.44,87.93-150.84"/><path class="cls-1" d="M2202.74,70.35c40.48,175.88,1.06,368.5-105.28,514.35-42.77,58.62-95.55,109.84-133.33,171.76-35.57,58.22-56.65,123.92-78,188.73-128.73,390.86-290.75,793.13-608.54,1054.57-39,32-81,62.14-129.47,76.16s-104.7,9.35-143.51-22.84c-34.11-28.29-49.93-72.58-62-115.27-15.42-55-27.35-111.59-53.07-162.68s-68.34-97-123.65-110.95"/><path class="cls-1" d="M469.85,2159.4c136.09-15.36,299.89-19.23,379.94,91.93,56.53,78.48,47.08,184.18,60.72,280,25,174.79,131.54,325.44,234.9,468.6,96.16,133.06,209.22,277,371.43,302.54,161.41,25.33,319.67-76.84,482.57-64.81,14.1,1,28.7,2.89,42.3-1.12,38.69-11.52,48.57-60.52,53.76-100.52,12.36-94.71,37.22-189,85.28-271.54,35-60,81.75-113.14,111.42-175.95,80.83-170.94,21-371.21,20.46-560.31-.47-157.7,41.46-312,64.5-468s25.46-323-48-462.58c-51.34-97.48-135.38-173.24-198.71-263.31-16.21-23.09-31.62-49.19-30.23-77.39,3.47-67.4,88.46-90.14,149.55-118.67,200.76-93.89,222.64-376.3,380.27-532"/><path class="cls-1" d="M2757.31,4132.81c-97.31-14.06-198.51-29.61-279.54-85.28-50.92-35-90.54-83.86-127.36-133.44A2272.24,2272.24,0,0,1,2164.19,3618c-43.14-82-84.57-170.56-161.2-222.53-44.41-30.08-97.22-45.26-150.12-54.23a758.15,758.15,0,0,0-244.7-1.79c-64.8,10.13-132.49,28.46-194.3,6.38-44.21-15.78-78.92-50.47-107.74-87.55-123.57-159.25-157.66-368.13-187.85-567.42l-115.53-763.15c-25.77-170.39-54.15-347.58-153-488.83"/><path class="cls-1" d="M3049.13,3489.78c-176.25-116.62-295.93-298.87-434.8-458.11-54-62.08-122.25-125.65-204.45-122.41-59.1,2.33-110.38,39.15-165.87,59.57-131.48,48.26-283.4-.78-390.64-90.93s-178-215.42-241.65-340.29c-39-76.48-76.47-154.57-96.1-238.16-44.08-187.28,9.53-393.7,135-539.56s318.6-229.44,511-226.72c95.7,1.36,206.91,17.31,273.18-51.72,48.38-50.42,52.14-128.32,44.71-197.82-16-150.19-70.23-293.27-106.89-439.85-5.81-23.1-11.12-46.9-7.93-70.5,4-29.2,20.58-55,37-79.52q165-247.12,353.69-477.35"/><path class="cls-1" d="M3418.26,2401.82c-268.13-63.28-521.18-178.37-766-304.87-218-112.71-431.3-235.11-636.36-370-77.72-51.17-166.65-106.63-257.24-85.39-84.89,19.94-139.06,99.86-199.63,162.59-63.57,65.83-140.85,116.66-219.33,163.8-86.58,51.94-184.76,101.68-284.06,83.22-73.61-13.77-136.23-64.24-180.35-124.72s-72.26-131-99.89-200.56q-34.54-86.83-69-173.77"/><path class="cls-1" d="M217.24,3743.11c-43.43-59.48-34.06-144.39,0-209.8s88.65-117.14,136.52-173.06c141.33-164.76,227.44-369,348.36-549.25,151-225.27,354.12-410.25,521.73-623.53,108.54-138,201.77-287.59,294.71-436.73,54.56-87.52,109.12-175,157.28-266.27,171.46-324.27,259.2-688.41,438.26-1008.59,69-123.43,154.49-259.57,116-395.65"/><path class="cls-1" d="M483.88,2687.2a1494.07,1494.07,0,0,0-248,179.41c-64.67,57.73-125.45,123-159.41,202.77S39.22,3246,85.76,3319.17s149.35,111.23,225.73,70.1c54.79-29.42,84.76-89,114.14-143.85,189.25-352.88,480.52-638,727.88-952.92,467.14-594.7,776.74-1295,1078.53-1988.37,29.77-68.31,55.83-157.92,1.51-209.1"/><path class="cls-1" d="M2217.63,4414.64c-115-99.65-234.59-205.5-287.45-348.17-60.37-163-23.25-344,14.48-513.61,34.33-154.22,68.77-308.83,121.6-457.65,42.55-119.72,97-235.34,132.24-357.46,37.34-129.32,52.48-263.82,67.63-397.53,51.8-460,100-945.94-89.5-1368.36-62.06-138.37-147.82-264.94-212.68-402s-108.73-291.35-79-440.07"/><path class="cls-1" d="M2554.63,4177.9q-187-268.57-374.13-537.24c-39.42-56.68-79.65-114.87-97.08-181.66-25.94-99.69,1.91-204.5,26.27-304.51,191.06-783.28,170.8-1617.07-58.14-2390.07-30.55-103.29-64.89-206-83.24-312.16-19.25-111.39-20.3-227.09,8.35-336.3"/><path class="cls-1" d="M2527.68,4290.81Q2336,3883.64,2144.32,3476.57c-69.26-147.17-138.63-294.34-215.19-437.81C1616.18,2452.7,1186,1937.09,726.44,1457.29"/><path class="cls-1" d="M3378.79,3177.24c-204.5-2.61-407.33-78.12-563.79-209.85-62-52.27-117.75-113.55-188.77-152.92s-164.52-52.33-230.6-5.2c-92.37,66-205.55,108.89-318.56,97.94-188.21-18.32-329.28-174.26-449.54-320.1q-417.67-506.82-817.85-1027.74c-56.63-73.78-63.36,97-19.68,45.31,23.29-27.61-62.85-124-77.36-146.77"/><path class="cls-1" d="M399.39,2711.43a1893.05,1893.05,0,0,0-238.6,224.8C104.32,2999.56,50.35,3070.49,35.08,3154S55.16,3335.78,134,3367.25c86.21,34.36,182.49-21.48,246-89.11,112-119.55,172.48-276.88,250.92-420.61s189.38-285.38,347.56-328.05c192.58-51.88,389.73,57.83,548.58,178.46S1844.9,2970.3,2042.62,2996c56.6,7.38,118.7,3.15,163.59-32.17,49.88-39.32,66.65-106.73,76.43-169.53a1557.49,1557.49,0,0,0,15.66-330.71c-6.85-114.7-21-246,58.86-328.63,76.87-79.53,208.77-73.49,310.19-29.24S2854.38,2224.46,2954.7,2271c132.53,61.44,282.43,70.68,428.33,78.91"/><path class="cls-1" d="M1921.86,4475.57c-7.77-383.3,125.37-753.85,257-1113.91,50.94-139.32,102.18-279.74,124.31-426.45,48.86-324.12-47.59-656.88.07-981.2,30.21-205.21,117.72-402.65,114.63-610.15C2416,1217,2380.19,1093.37,2360.43,968s-21.81-260.29,38.74-371.82c35.77-65.92,90.95-118.94,137-178.16a767.18,767.18,0,0,0,141-296.46"/><path class="cls-1" d="M3162.54,3518.63c-142-42.64-270.26-130.18-361.61-246.94-52.43-67-93-143.16-149.89-206.43a519.29,519.29,0,0,0-121.74-99.75c-26.31-15.59-54.31-29-84.41-34.26-111.61-19.65-218.57,74.2-330.87,59.34-51.2-6.78-96.52-35.46-139.43-64.24-353.3-237.35-674-536.61-877.7-910.42-103.18-189.46-182.28-404.62-354.73-534.35"/><path class="cls-1" d="M459.11,2744.31C261.75,2844,109.33,3029.06,49.32,3241.89c-6.69,23.7-12.28,48.91-5.47,72.5,13.42,46.89,67.33,67.17,114.24,80.55,65.91,18.77,141.22,35.74,199.1-.89,32.39-20.51,53.18-54.52,73-87.33Q531.63,3137.78,633,2968.83C713.84,2834.1,796.78,2697,916.24,2594.91s283.93-164.72,435.65-124c105.51,28.25,192.34,101.82,271.48,177.28s156.27,156.13,254,205,223.23,59.5,311.4-4.94c98.47-71.94,119-207,163.66-320.47a682.49,682.49,0,0,1,192.68-269.18c48.58-41.22,104.07-75.95,165.76-91.87,115.89-29.85,238.2,10,346,61.85s211.65,116.81,328.66,141.66"/><path class="cls-1" d="M3395.36,2405.83Q3219.23,2345.46,3043,2285c-96.21-33-199.53-66.31-297.62-39.47-101.39,27.84-175.45,114.68-229.41,204.9s-95.52,189.14-164.88,268.17c-45.68,52-102,93.44-158.54,133.37-45,31.72-93.87,63.84-148.87,65.16-44,1.12-85.71-17.66-125.32-36.75-70.11-33.57-139.83-69.44-200.65-117.81-231.78-184.2-294-510.57-483-738.39-54.33-65.48-118.55-121.95-182.48-178.12Q882.5,1696.87,712.68,1547.7"/><path class="cls-1" d="M3395.19,3167.13c-107.5-.65-214.32-42-294.25-113.87-99.94-89.86-154.1-220.83-181.35-352.52s-30.52-266.89-46.37-400.28c-52.39-440.58-239.47-852.5-429.95-1253.21-40.84-85.88-82.58-172.66-144.31-244.84-56.13-65.58-127-117-185.78-180.22-75.94-81.57-130.28-181-204.81-263.81a715,715,0,0,0-215.77-163"/><path class="cls-1" d="M1539.71,452.74q200.46,139,400.82,277.93c71.42,49.47,143.34,99.44,203.17,162.41,148.57,156.24,209.17,381.41,199.86,596.81-4.85,111.9-26.9,222.31-34.65,334-26.24,373.31,103.73,766.45-37.21,1113.12-44.05,108.42-112.61,205-163.56,310.37s-84.4,226.74-52,339.12c26.84,93,94.77,167.36,154.51,243.63a1706.39,1706.39,0,0,1,250.39,444"/><path class="cls-1" d="M2170.06,4475.06c-111.13-62.35-171.88-191.22-184.74-318s15-253.81,42.64-378.22q76.35-343.83,152.8-687.67c29.54-133.11,59.28-266.63,72.72-402.43,15.63-158.11,9.16-317.5,2.59-476.2q-11.52-279.29-23-558.69c-5.05-122.5-10.31-246.1-42-364.48-38.86-145.18-115.82-276.85-192-406.42l-360.27-613"/><path class="cls-1" d="M393.61,2763.24c-78,51.13-157.35,103.67-215.12,176.79s-91.32,172-64.09,261.23,128.37,156.44,216.45,126c69.29-23.93,109.26-94.35,145.23-158.26a3370.72,3370.72,0,0,1,508.8-684c42.58-44.22,88.56-88.74,146.85-108.26,96.59-32.34,202.31,11.71,286,69.78,200.36,139,339.16,360.25,556.11,471.66,35.81,18.38,74.71,33.77,114.91,31.65,99.8-5.14,161.65-110.07,191.81-205.28,48.93-154.92,71.55-333.23,195.91-437.69,71.77-60.23,167.36-85.07,260.76-91.21,236.19-15.7,464.83,75.5,684,164.9"/><path class="cls-1" d="M3382.59,3172.93a3259.08,3259.08,0,0,1-567.53-299.65c-115.53-76.45-249.07-164.49-381.55-124-120.68,36.85-197.13,171.79-321.62,192.14-85.09,13.94-168.31-30.53-239.53-79.1A1603.05,1603.05,0,0,1,1614.26,2643c-314.64-330.86-477.94-784.79-800.68-1107.85-3.7-3.7-8.6-7.7-13.6-6.09s-3.09,11.7,1.6,9.4"/><path class="cls-1" d="M1904.77,4496.78c-7.17-164.7-14.24-331.19,17.89-492.91,34.13-171.91,111.26-331.75,173.78-495.58,143-375.06,210.66-778.79,197.49-1180-6-182-28.26-363.39-26.44-545.49,2.49-246.7,49.49-491.82,45.68-738.52-2-125.2-15.91-256.39,35.74-370.42,78.62-173.63,289.79-263,354.71-442.25"/><path class="cls-1" d="M2855.52,3921.06a1934.17,1934.17,0,0,0-450.09-437.7c-68.82-48-141.14-91.64-204-147.11-73.43-64.87-132.36-144.14-190.6-222.92Q1865.58,2917,1720.2,2720.86c-82.95-112-167.2-226.43-210.66-358.91-86.72-264.46,2.06-550.7,87.94-815.44s169.26-554.17,72.74-815.23c-13.42-36.19-30.93-72.39-60.24-97.47s-72.82-36.87-107.61-20.15"/><path class="cls-1" d="M1356.22,4388.82c-42.43-60.88-51.46-138.48-56-212.58-33.74-556.49,116.42-1107.35,140.37-1664.36,7.82-181.1,2.24-363.5,30-542.61,42.08-272.12,159-526.17,273.16-776.72,49.05-107.62,98.41-217.44,112.35-334.85,27.4-231.21-84.9-453.56-193.89-659.32"/><path class="cls-1" d="M2191.37,4495.55c-41.65-353.08-83.31-710.26-39.66-1063.08,32.19-260,110.38-515.35,109.86-777.35-.39-198.4-46.27-395.28-39.16-593.58,7.41-206.5,72.22-409.13,65.73-615.73-8.11-262.1-129.42-505.94-253.42-737.09q-160-298.43-331.76-590.36"/><path class="cls-1" d="M2788,3883.39c-56.66-131.28-199.49-198-310.83-287.76-78-62.77-143.06-140-207.49-216.61Q1504,2468.85,738.19,1558.69"/><path class="cls-1" d="M2562.47,4260.69a6172.36,6172.36,0,0,1-999.23-1680.46c-97.11-245.16-178.83-518.52-94.53-768.36,34.36-101.91,94.42-192.74,144-288.26,93.82-180.84,150.63-383.37,145.44-587.06s-75.18-408.27-210.24-560.81"/><path class="cls-1" d="M3282.89,3168.48q-218-146.9-436.13-293.81c-75.62-51-158.25-103.93-249.24-100-164.3,7.17-272.42,192.42-434.8,218.59-146.89,23.76-278.24-89.08-376.79-200.54-79.44-89.87-154.58-185.33-250.41-257.39s-218.15-119.3-335.84-96c-154.09,30.67-259.53,169.11-350,297.55q-142.26,201.81-284.52,403.72c-49.27,69.92-101.24,142.24-176.72,182.38s-181.68,36.48-233.61-31.4c-18-23.49-27.92-52.39-32.64-81.59-13.84-86.09,16.72-175.11,68.19-245.53s122-124.55,195.43-171.69"/><path class="cls-1" d="M2877,3538.76c-61.09,22.83-124.18,46-189.28,43.28-124.2-5-223.94-100.4-307.18-192.67-209.9-232.91-397.31-485.93-617.11-709.43C1570.79,2484.12,1355,2312.82,1155.53,2124c-76.83-72.77-151.46-148.33-216.5-231.91-67.94-87.27-125.28-183.35-164.73-286.73"/><path class="cls-1" d="M2204.73,4414.85c-210.86-126.11-363.56-370.34-326.47-613.26,29.62-193.91,168.55-353,229.66-539.4,46.14-140.42,46.47-291,55.51-438.52,29-475.11,152.19-944,140.28-1419.86-5.5-220.4-39.1-448.28,34.81-656,72.51-203.73,238-357.9,397.78-503.57"/><path class="cls-1" d="M2911.56,3560.44c-79,76.63-174.13,159.08-283.24,145.22-90.81-11.46-158.64-86.73-214-159.61-53.43-70.38-103.46-143.25-155.09-214.93-439-610-987.39-1132.37-1462.25-1715.06"/><path class="cls-1" d="M1487.35,4457.56c28.06-88.11,51.62-179.72,45-271.92-5.53-77.2-32-151.39-61.8-222.87a2259.45,2259.45,0,0,0-279.71-487.68c-58-77.07-121.27-150.75-170.5-233.73-46.23-77.88-79.47-162.77-111.81-247.45-64.27-168.17-127.05-348.84-88-524.56,4.89-22.1,11.38-43.9,17.87-65.61"/><path class="cls-1" d="M1965.68,4518.05q-10.22-51.15-20.34-102.29c-9.62-48.1-19.14-96.39-35-142.88-45-132.08-137.21-242.14-232.55-344-173.78-185.62-364.15-355-537.44-541.17s-331-391.86-424.57-628.21c-31.73-80.09-56.07-164.48-57.71-250.57s21-174.81,75-242"/><path class="cls-1" d="M2465.76,4257.53c-66.93-306.57-267.75-563.38-449.86-818.9-358-502.34-662.75-1040.21-986.88-1565.07-96.87-156.86-197.44-314.91-335.89-436.65"/><path class="cls-1" d="M2842.47,3580.17c-39.28,52.62-119.68,46-182.19,25.88-190.13-61.12-359.59-209.24-408.88-402.82-23.74-93.29-19.18-191.19-16-287.39q11-326.4-.68-653.2c-4.66-131.2-12-262.59-2.27-393.5,12.63-168,53.45-332.72,71.48-500.33s11.45-344-64.92-494.17c-25-49.09-57.24-95.08-73.46-147.77C2099.43,511.69,2319.64,305.5,2313.64,80.5"/><path class="cls-1" d="M3082.5,3182.07c-53.75-103.38-180.28-180-274.41-246.18-106.73-75.05-241.77-149.29-376.34-99.34-118.08,43.85-199.54,148.89-334.53,161.25-132.59,12.06-259.94-98.29-352.78-178.95-151-131.43-289.24-317.87-386.61-492.63-50.54-90.58-73-192.47-117.62-285-99.09-205.76-312.58-407.56-496.64-540.88,5.7,2.2,10.1,5.4,15,8.89"/><path class="cls-1" d="M2612.52,4153.67c-134.3,2.26-242.25-109.49-313-223.76-127.39-205.84-192.29-443.72-298.59-661.27-151.23-309.33-387.45-580.53-475.9-913.39-58.1-218.77-47.1-455.38,31.31-667.71,32.16-87.21,75.23-170.13,108.59-256.95C1790,1105.13,1769,726.74,1609,417"/><path class="cls-1" d="M3362.42,3017.74c-118-3.15-215.54-92.61-286.18-187.28-132.68-177.54-213.67-393.41-230.37-614.5-15.89-210.49,22.91-433.81-67.37-624.57-41.64-88-108-161.55-172.6-234.42-158.58-178.83-315.16-365.66-406.36-586.62-37.24-90.38-63-193-29.42-284.79,18.68-51,54.06-94,77.74-142.83,37.27-76.82,43.83-167.92,18.09-249.21"/><path class="cls-1" d="M1545.93,4401.74c-53.91-259-131.62-512.84-178.84-773.12s-63.13-531.67,6.26-787c26.66-98,66.11-197.23,52.37-297.92-9.53-70.4-44.36-134.38-79.59-196.07A6228,6228,0,0,0,774.87,1514c-4-4.9-8.8-10.2-15.1-10.19s-10.9,9.9-5.29,12.6"/><path class="cls-1" d="M327.92,2776.27c-65.5-2.07-110.67,63-141.45,120.86-38,71.32-74.44,145.33-85.8,225.34s6.17,168.1,63.8,224.77c13.61,13.39,29.71,25,48.31,28.88,14.5,3,29.6,1.09,44-2.52,94.19-23.74,155-112.27,209.42-192.69a4683.32,4683.32,0,0,1,375.69-482.76c57.77-64.93,119.44-129.85,198.33-166.39,111.78-51.75,246.08-38.41,357.71,13.74s203.16,139.61,281.7,234.48c48,57.88,92.65,119.86,152.17,165.93,125.34,97,311.75,106.46,446.11,22.41,45.19-28.22,84.47-65.64,131.76-90.06,151.37-78.17,335.8-4.65,480.24,85.79s290.69,202.57,461.09,202.9"/><path class="cls-1" d="M2677.64,4189a1289.78,1289.78,0,0,0-181.77-388.22c-113.57-164.05-263.43-298.89-396.3-447.73a2713.57,2713.57,0,0,1-232.13-299.8c-54.74-81.88-104.87-166.55-156.61-250.33A8083.52,8083.52,0,0,0,757.69,1551"/><path class="cls-1" d="M1923.66,4485.27c-83.11-258.36,14.77-536,104.75-792.15,113.36-322.95,216.41-655.59,222.07-997.9,2.82-172.5-19.25-345.19-5.83-517.1,19.09-245.51,110.09-483.95,103.88-730.15-5.19-209.7-80.88-419.26-42.17-625.38C2329,702.39,2389.07,593,2448.82,486.14q95.33-170.59,192.05-340.28"/><path class="cls-1" d="M3080.84,3516.77A1498.26,1498.26,0,0,1,2774.5,3182c-51.63-77.38-99.77-163.06-180.79-208.82-93.32-52.76-209-40.11-313.71-17s-211.58,55.39-317.18,36.94c-124.31-21.75-228-112.4-294.9-219.47s-102.3-230.26-137-351.64c-31.95-112-64.3-226.47-57.95-342.77,5.46-102,40.51-199.92,78.47-294.73C1670,1489.38,1825,1190.41,1799.59,873.42c-14.78-184.49-90.46-357.86-165.13-527.23"/><path class="cls-1" d="M1062.06,4481.75c94-71.44,154.82-177,231-267.3s182.43-171.08,300.13-161.33C1711.88,4063,1802.42,4160,1877,4252.89s155.38,194.73,271.5,221.08"/><path class="cls-1" d="M2567.56,4240.69a2814.48,2814.48,0,0,1-311.08-418.76c-36-59.18-70.15-120.67-86.68-188-31-126.49,3.39-258.4,29.13-386a2892.15,2892.15,0,0,0,52.92-419.82c14.28-273-10.24-548.9,33.44-818.71,28.52-176.31,85.95-349.54,84.57-528.14-1.59-201.7-78.58-402.07-46.06-601.18,40.29-247.22,242.11-445.71,278.8-693.42"/><path class="cls-1" d="M3337.2,3195.75A2304.09,2304.09,0,0,1,2923,2968.83c-69.52-48-136.94-100-213.66-135.31s-165.62-52.43-246-26.59c-104.19,33.45-179.64,133.08-286.73,155.52-71.89,15-147.6-8.24-209.12-48.21s-111.14-95.65-158.77-151.53c-327-383.86-603.36-819.44-1001.39-1129.06"/><path class="cls-1" d="M363.08,2685.65a1711.49,1711.49,0,0,0-234.28,278.8c-35,52-68,108.43-73.43,170.93-7.46,84.5,41.57,170.58,117,209.45s172.51,29.42,240.59-21.31c108.86-81.25,126.5-234.16,186.54-356,65.74-133.33,185.1-231.38,305.76-318.13,82.17-59.14,171.75-117,272.75-124.62,114.9-8.75,224.92,49.6,314.55,122.06S1658.73,2807.29,1752,2875c131,95.14,313.76,144.86,454.83,65.2,83.68-47.24,142.24-134,231.33-170,97.48-39.44,210.8-8.49,300.32,46.67s162.86,132.63,245.79,197.29,182.55,118.12,287.55,112.07"/><path class="cls-1" d="M3105.23,3485c-170.41-28.63-315.17-150.66-403.13-299.42s-125.44-322-143.92-493.84-19.35-345.29-40.83-516.78c-24.18-193.39-74.37-383.87-80.75-578.66-5.57-171.2,22.75-344.31-7.12-513-18.14-102.79-57.79-203.37-52.83-307.58,9.51-200.7,178.44-357.78,231.66-551.6"/><path class="cls-1" d="M3369.35,2379.84a4610.37,4610.37,0,0,1-1109-452.12c-65.22-37.17-129.63-75.94-191.25-118.72-82.63-57.46-174.05-125.62-273-107.58-80.79,14.74-138.76,82.86-199,138.69a832.92,832.92,0,0,1-175.65,124.68c-76.28,40.43-162.27,69.37-248,59.21-99.71-11.86-187.33-75.92-249.37-154.89s-102.28-172.56-141.72-264.84"/><path class="cls-1" d="M2821.4,3882.38c-85.52-54.76-111.17-166-129.52-265.74q-124.34-674-248.59-1348.19c-37.19-201.88-74.48-404.37-88.37-609.16-8.35-123.7-8.11-248.5-31-370.29-74-394.27-374-701.44-659.73-982.91"/><path class="cls-1" d="M2460.26,4237.74c-155.07-169.73-283.46-376.28-304.66-605.17-15.27-164.79,25.56-328.81,53.69-491.92,44.89-259.62,58-525.33,30.56-787.41-10.24-97.8-26.09-195.49-25.23-293.79,1.33-157.4,45.36-312.82,39.6-470.12-8.3-227.2-119.49-437.95-248.07-625.59s-277.76-362.68-379-566.23"/><path class="cls-1" d="M2130.34,4421.08c-87-29.36-143.35-118-159.69-208.43s.62-183.1,19.38-273c120.35-577.75,317.9-1144.94,336.74-1734.75,5.82-181.9-5.56-363.8-16.84-545.49-7.86-126.5-16-254.19-50.66-376.08-27.24-95.69-70.48-186.07-117-273.95a3709.52,3709.52,0,0,0-494.71-716"/><path class="cls-1" d="M458.89,2489.51c-22.75,119.91-133.61,198.86-209.77,294.29-84,105-129.1,240.56-124.94,375,2.23,73.2,25.47,155.19,90.58,188.66,39.51,20.28,89.81,17.56,126.8-6.86,26-17.11,44.68-43.12,62.57-68.63a10237,10237,0,0,0,549.72-872.54c36.17-64.32,72.14-130.53,85.31-203.14,18.56-102.11-9.79-207.2-49.23-303.28a1336.27,1336.27,0,0,0-236.47-379.2"/><path class="cls-1" d="M813.14,3974.55c313.21,23.86,652.12,41.62,915.74-129.1A727,727,0,0,0,1962.78,3599c57.06-99.12,89.71-210,122-319.85,56-191,112.33-383.55,128.85-582,22.88-274.61-31.14-554,18.14-825.11,34.42-189.41,118.94-374.35,100.05-565.94-18.68-189.89-135.65-353.64-248.62-507.39q-209.37-284.76-418.65-569.62"/><path class="cls-1" d="M3135.53,3481.64c-144.82-35.84-275.26-126.48-359.41-249.54-33-48.29-59.44-101.77-100.56-143.36-85-86.06-215.95-105.61-336.85-107.25s-245.9,9.31-359.41-32.64c-71.21-26.37-133.63-72.34-190.75-122.42-78.13-68.37-148.46-145.24-218.5-221.9C1284.51,2292,997.77,1978.07,764,1625.28"/><path class="cls-1" d="M2464.49,4306.83c-56.08-188.38-159.46-358.53-259.23-527.89q-332.35-564.3-626-1150.13c-114.9-229.25-228.21-484.2-169.12-733.83,39.73-167.92,152.37-307.47,231.3-460.9,174.45-339.08,177-761.38,6.42-1102.6"/><path class="cls-1" d="M2161.85,4460.17a9631.67,9631.67,0,0,0-956.73-985.08c-58.72-52.37-118.45-104.45-166.47-166.73-82.65-107.06-126.4-238.55-163.06-368.73q-39.36-139.93-69.92-282.17c-25.85-120.59-44.21-256.38,24.64-358.71,62.16-92.33,186.74-142,215.69-249.39,21.17-78.61-18-160-60.3-229.57a1926.79,1926.79,0,0,0-231-306.6"/><path class="cls-1" d="M833.24,3976.15c374.16,128.14,822.6-5.26,1065.86-317,89.65-114.84,151.79-248.27,213.13-380.39,54.65-117.82,109.7-236.55,141.24-362.56,72.17-289.13,15.94-594.11,43.61-890.82,12.14-130.91,40.69-261,35.23-392.32-7.18-173.8-73.55-339.27-146.52-497.14-139.73-301.84-310.16-594-544-830.66"/><path class="cls-1" d="M3228.19,3164.8c-89.33-79.76-179.47-160-283.3-219.48s-224-97.1-343-84.15c-113.89,12.45-219.67,70-334,78.65-158.69,12-311.13-73.06-424-185.32-112.95-112.05-195-250.71-288.17-379.77-208.73-289.21-474.13-532-737.64-772.38"/><path class="cls-1" d="M285.23,2804.38A1063.25,1063.25,0,0,0,78.74,3284.57c-2.79,17.4-4.78,36.4,4,51.7,12.11,21.09,39.81,26.88,64.11,26.77,92.5-.54,176.68-54.68,243.15-118.91,123-119,202.68-274.69,305.22-411.73s243.69-262.81,414.38-275.58c114.6-8.55,227.32,35.6,325.64,95.16s186.36,134.62,282.89,197.08c55.82,36.08,114.33,68,169.25,105.33C2061,3072.71,2191.92,3242.05,2333.79,3397s306,303,509.26,356.18"/><path class="cls-1" d="M2440.55,4223.85C2293,3715.21,1978,3275.25,1724.43,2810.36c-120.3-220.55-229.5-456.1-241.41-707C1468.39,1795.67,1600.26,1503,1695.14,1210s149.73-630.17-5.49-896.3"/><path class="cls-1" d="M3287.07,3119c-127.62-53.74-259.74-97.69-382.67-161.43s-238.47-150.1-309.72-269c-52.54-87.58-78.38-188.27-102.53-287.46-50.19-205.58-96.48-416.66-74.77-627.27,12.75-123.61,49-246.72,34.14-370.12-18.27-151.59-111.82-286.65-127.29-438.54C2313.58,861,2342.14,753.29,2402.8,668c34.28-48.21,78.26-89.23,109-139.75,58-95,63.11-212,66.56-323.33"/><path class="cls-1" d="M2195.24,4433.45c-89.4-229.46-43.71-486.18-10.32-730.2a6636.83,6636.83,0,0,0,61-822.43c2.22-183.4-3.26-366.8-8.64-550.1q-9.29-315.3-18.67-630.49c-4.37-149.4-8.93-299.8-40.79-445.78C2098,887.89,1852.36,574.2,1770.6,208.14"/><path class="cls-1" d="M1039.56,3566.06c-48.76,94.32,9,211.2,87.62,282.56a535.24,535.24,0,0,0,269,130.58c61.6,10.37,127.2,9.34,183.69-17.28,57.39-26.92,99.77-77.14,140.35-125.86,149.52-179.36,301.24-362.63,389.25-578.87,42.75-104.92,69.51-215.53,96.06-325.64,51-211.22,102.22-423.24,123.12-639.45,41.41-428.72-38.08-862.38-177.05-1270-81.8-240.06-184.11-472.82-300.3-698.27"/><path class="cls-1" d="M1471.25,4450.67C1545,4332.24,1549,4182,1521.47,4045.25s-83.92-265.76-124.37-399.35c-123.08-406.35-96.67-841.36-56.65-1264.08,12.34-130.41,26.39-262.71,75.43-384.23,39.76-98.52,101.12-186.44,154-278.47,146.29-254.46,229.06-545.1,238.73-838.4,6.81-207.2-26.29-425.29-150.76-591.13"/><path class="cls-1" d="M349.42,2778.76a1051.84,1051.84,0,0,0-200.31,206.69c-56.37,76.92-103,179.44-60.38,264.73,37,74.08,133.45,104.84,213.84,84.81s145.26-80.66,192.24-148.88,79.44-145.33,119.61-217.75c86.53-155.84,208.37-289.19,338.22-411.25,44.18-41.62,92.76-83.74,152.46-94.57,78.39-14.23,155.31,28.83,218.63,77.1,134.74,102.74,244.6,235.89,382.65,334.23s321.57,159.26,477.34,92.49c89.48-38.34,159.55-114.47,250.94-148,155.28-57.07,325.91,21.86,464.75,111.8s280.49,197.08,445.89,201.71"/><path class="cls-1" d="M2965.92,3455.72c-165.88-193.93-307.28-418.27-352.09-669.45-24.56-137.79-19.42-279.09-32.18-418.49-26.32-286.89-128.14-560.54-198.17-840.11s-107-581.05-5.87-850.9c62.83-167.63,177.26-318.38,199.68-496"/><path class="cls-1" d="M3317.17,3131.26c-199.65-105.91-325.14-316.86-386.33-534.33s-67.39-446-87.49-671.06-56.6-455.08-170.28-650.43c-186.54-320.22-562.83-517.05-681.28-868.2-32-94.79-42.59-198.78-17-295.49"/><path class="cls-1" d="M2050.2,206.42c-244.75,342.31-10.52,871.4-253.37,1215.11-55.07,77.92-131,139.46-183.5,219.18-71.35,108.43-93.59,242.24-96,372-7.62,407.3,167,806.43,437.68,1110.71,47.32,53.18,97.75,104,155.46,145.53,70.82,51,151.24,87.13,223.86,135.5,83.12,55.46,155.06,126.53,239.28,180.3s187.34,89.92,283.93,64.38"/><path class="cls-1" d="M2691.4,4116.44q-233.21-246-442.42-513.31c-36.22-46.38-72.64-94.37-90.57-150.46-26.64-83.29-9.58-173.4,4.79-259.6,54.76-328.52,67-662.53,79.17-995.33l21-575.71c5.73-158.1,11.06-320.2-39.2-470.28-38.25-114.18-106.59-215.45-171.14-317.13a5837.32,5837.32,0,0,1-315-563.46"/><path class="cls-1" d="M2126.44,4433.28c-112.62-36.85-144.68-179.34-148.63-297.84-6.89-211,18.21-426.91,108-617.85,45.06-95.92,105.62-183.95,150.68-279.87,44.36-94.52,73.11-195.73,93.47-298.14,76.43-384.93,33.86-786.81-76-1163.67s-284.82-731.28-475.37-1074.49c-56.44-101.68-114.59-203-184.83-295.72"/><path class="cls-1" d="M1894.08,4517.58c47.75-119.92-10.51-255-80.86-363.26-154.4-237.73-368.69-429.34-555.08-643s-351.2-465.35-372.23-748c-5.43-73-1-147.3,20.31-217.31,28.06-92.91,84.22-174.74,145.39-250.16,181.3-223.78,412.82-406.18,572.32-646A1354.48,1354.48,0,0,0,1798.66,1270c22.17-78.31,37.23-159.82,29.8-240.81-7.13-78.7-35.17-153.88-67.5-226a1882.92,1882.92,0,0,0-219.56-369.6c-6.6-8.7-15.31-18.29-26.21-17.29s-14.79,21-3.79,21.5"/><path class="cls-1" d="M750.66,1482.88Q854.06,1619,957.47,1755.09c47.83,63,99.56,128.86,173.47,157,82.41,31.36,177,8.22,252.78-36.81s137.15-110,201.63-170c89.76-83.64,191-161.08,310.12-190.34s259.4-.11,333.34,97.75c42.52,56.28,59.06,128,94.68,188.86,43.43,74.08,113.16,128.65,183.08,178.42a3239.11,3239.11,0,0,0,833.19,427.24"/><path class="cls-1" d="M3397.6,3194c-144-22.44-274.65-118-339.61-248.45-36.33-72.78-52.57-153.78-68.4-233.57q-81.48-409.76-163-819.43c-38.38-192.78-78.57-390.37-182.44-557.32-60-96.47-140.08-180.34-190.12-282.32-69.16-140.67-74.44-311.27-14.2-456,28.57-68.71,70.64-130.83,106.81-195.95a1258.18,1258.18,0,0,0,106.59-254"/><path class="cls-1" d="M2813,3806.68a1736.86,1736.86,0,0,1-499.78-403.38c-49.53-58.18-96.35-122.26-112.19-197-15-71.19-.46-144.8,9.51-216.9,49.94-364.42-22-741,58.42-1099.93,17-75.61,40.63-150.22,46.8-227.42,15.32-192.41-78.36-374.77-169.34-545q-221.88-415.4-443.86-830.71"/><path class="cls-1" d="M2506.28,4286.62c-35-221.18-133.19-432.14-280.16-601.18-87.84-101.06-195-191.12-245.74-315.09-34.74-84.78-39.88-178.18-59.32-267.77-43-198.28-154.46-373.53-253-550.89s-188-370.62-179.65-573.32S1633,1565,1834,1537.11c93.59-13,187.51,13.72,281.31,24.68s199.7,1.61,264.87-66.82c45.58-47.92,62.75-116.73,64.72-182.93,3.75-123.4-38.41-242.88-64.36-363.57s-33.51-255,32-359.61c30.08-48,73.46-86.13,108-131,65.66-85.53,97.11-196.54,86.07-303.84"/><path class="cls-1" d="M1016,3567.37c-44.16,81.62,3.68,184.7,70.31,249.27,93.44,90.56,223,139.9,353,145s259.79-32.11,373.06-96c69.48-39.13,136-91.76,166.53-165.47,16.28-39.41,21.26-82.41,25.95-124.71,12.15-110.91,22.6-226.41-15.54-331.19-31.64-87-94.07-158.66-154.2-229a10334.47,10334.47,0,0,1-1064-1495.64"/><path class="cls-1" d="M2854.53,3722.46a1835.22,1835.22,0,0,1-282.44-93.28c-101.62-43-200.24-95.71-282.87-168.58-80-70.57-143-158-205.21-244.71q-71.89-100-143.69-200-130.13-181.14-260.16-362.29c-52.53-73.18-105.46-147-143.1-228.84-93.89-204.66-81.1-455,33.22-648.91,54.36-92.22,135.52-175,239.21-201.4,29.7-7.61,61.2-10.33,91-3.24,54.11,12.78,95.42,55.16,134.64,94.74,327,329.76,738.56,591.18,1196.29,670.08a28.77,28.77,0,0,0-9.91-32.2"/><path class="cls-1" d="M3186.89,3174Q3020.95,3068.49,2855.1,2963c-79.82-50.77-163.74-103-258-111-96.8-8.16-193.19,32.78-267.86,94.92s-130.14,144.26-178.6,228.48c-39.67,69.12-78.54,144-146.82,185.06-48.59,29.12-106.58,37.45-163,43.37a2761,2761,0,0,1-376,13.86c-32.4-1-66-3-94.31-18.76-44.91-25.08-64.93-77.87-81.66-126.56-103.93-303-209.07-613.61-202.61-933.81,4.11-200.9,49.32-416.82-48.46-592.38-67-120.37-190.09-197.92-312.81-260.56"/><path class="cls-1" d="M379,2782c-98.48,55.14-201.35,114.39-259.71,211S67.42,3235.28,163,3295.34c95.23,59.76,225.5,5.5,298.77-79.63s110.72-195,171.67-289.47c47.87-74,109.74-137.75,170.51-201.57,200.41-210.59,393.71-429.67,552.21-673.34s281.48-513.92,331.05-800.34c25.14-145.31,30.87-296.21-6.09-438.9S1561,535.13,1436.51,456.18"/><path class="cls-1" d="M3356.64,2372.65c-139.81-28.44-289.83-62.67-384.67-169.23-142.77-160.34-101.78-411.56-186.67-608.72-61.46-142.87-184.61-247.72-292.86-359.47s-209.81-248.51-208-404.11c2.89-246,258.51-428.11,280-673.12"/><path class="cls-1" d="M3335.19,3165.26c-138.91-12.54-250.65-123.79-316.91-246.46-126-233.45-127.92-511-134.84-776.24s-27.14-546.09-180.33-762.62c-56.83-80.18-129.36-147.64-199.69-216.41q-97.24-95.21-189.59-195.32C2235.09,882.83,2156.15,789,2135.3,674.78c-38.49-211.08,132.21-425.36,72.92-631.53"/><path class="cls-1" d="M2854.51,3673.66c-246.11-30.29-476.08-173.29-612.17-380.63-37.62-57.28-68.25-119-107-175.55-125.78-183.95-328-303.06-462.61-480.7-100-132-159-293.53-173.2-458.52-12.66-146.69,9.27-294,32.91-439.31,16.36-100.41,33.71-201.11,66.87-297.23,29.66-85.91,71.63-167.23,98.79-253.94,83.78-267.84,16.25-565-121.65-809.35"/><path class="cls-1" d="M3365.26,2402.34q-109.82-38.2-219.73-76.3c-70.21-24.37-140.72-48.94-206.84-83-75.32-38.77-143.74-89.44-216.36-133-116.93-70-244.65-121.69-357.29-198.44-116.23-79.25-215.08-184.31-339.61-249.75-37.31-19.58-77.52-35.67-119.62-38.25-82.6-5.06-159.78,41.77-221.36,97s-114.55,120.85-183.23,167C1343.08,1994,1110,1969.72,977.11,1832.88c-76.43-78.77-120.88-187.35-208.91-253"/><path class="cls-1" d="M367.93,2796.25c-138.66,84.86-250.11,213.51-314.34,362.84-13.49,31.31-25.17,65.31-19.86,99,10,63.2,79.65,103.77,143.44,100s120.78-41.35,168.06-84.37c95.86-87.14,164.61-199.37,243.17-302.41a1883.74,1883.74,0,0,1,170-193.57c67.77-67.13,143.34-130.66,234-160.1,127.88-41.56,270.5-9.32,388.42,55.33s216.27,159.11,314.81,250.66q309.88,288,641.24,551.72c110.54,88,244.08,178.89,381.66,146.53"/><path class="cls-1" d="M2879.23,3939.15c-81.08,35.74-167.17,72.27-255.17,61.41-98.71-12.26-179.64-81.62-252-150-98.44-93.16-197.09-197.21-228.84-329.1-28-116.29.1-238,30.55-353.61,63.69-241.93,138.69-484.76,140.78-734.86,1-121.3-15.21-242.19-13.36-363.49,2.33-149.2,32.27-297.41,26.61-446.51-11.33-300-163.35-574.13-311.56-835.16-104.58-184.15-210.86-370.71-360.53-520.44"/><path class="cls-1" d="M3392.79,3162.53c-151.61-23.43-289.25-124.37-357.21-261.94-64.46-130.47-66.42-281.57-74-426.87-24.1-458.49-126.71-931.64-413.16-1290.52-80.54-101-179.49-202.92-185.54-332-4-87.6,36.53-170.22,70.19-251.23A1721.4,1721.4,0,0,0,2553,136.3"/><path class="cls-1" d="M2758,4066.71c-179.82-49.52-335.07-167-459-306.4s-219.83-301-314.9-461.46q-183.74-310.27-367.47-620.44c-71.25-120.27-143.81-243.94-167.87-381.73-15.94-91.49-9.78-185.4,3.68-277.3a1799.84,1799.84,0,0,1,105.53-397.55c64.13-163.43,153-319.87,181.69-493.08,39.6-238.92-39.21-479.88-117-709.25"/><path class="cls-1" d="M388.89,2706.54c-151.65,110.07-264.18,273-313.6,453.84-6.09,22.4-11.38,45.71-8.57,68.8,8,66.9,80.45,108.67,147.65,114.34,93.4,7.86,189.48-35.88,244.85-111.51,31.38-42.81,49.66-93.62,74.74-140.43,74.24-138.73,204.6-237,330.86-330.74,113.56-84.35,246-173.31,384.74-145.57,56.4,11.28,107.42,41.25,153.73,75.33,157.65,115.73,272.82,279.68,373.69,447.24,168.82,280.23,306.75,579.87,500.27,843.68,48.53,66.18,100.86,130.36,163,184a704.31,704.31,0,0,0,220.16,128.9"/><path class="cls-1" d="M1796.7,4562.33c45.1-.62,84.78-34.94,102.87-76.25s17.86-88.41,12-133.11c-27-206.89-165.17-382.23-318.43-523.76s-327.31-261.86-461.88-421.2c-144.77-171.44-238.87-385.1-267.56-607.68-6.42-50-9.54-101.7,4.23-150.2,26-91.11,105.43-154.65,163.8-229.17,159.41-203.47,150.57-520.27-20-714.49-77.44-88.27-180.27-149.62-270.2-225.08"/><path class="cls-1" d="M2738.67,376.81q-59.38,40.68-118.66,81.25c-44.59,30.52-90.87,63-115.15,111.25-37.27,74-12.73,162.91-21,245.31-7.07,69.9-37.84,135-53.11,203.62-32.64,147.21,7.83,299.2,36,447.28a2752.54,2752.54,0,0,1,43.65,352.78c2.62,45.6,4.44,92.5,22.26,134.49,34.24,80.59,118.85,125.85,198.37,162.31a4208.07,4208.07,0,0,0,632.7,231.22"/><path class="cls-1" d="M3334.18,3145.86c-117.71-20.45-244.62-45.89-324.26-134.86-56.13-62.78-79.46-147.87-95.8-230.46-77.57-392.07-39.15-808.28-180.92-1181.92-87.6-231-243.19-435.69-442.25-582-130.64-96-278-166.48-416.21-251.12S1603.66,577.71,1523.2,437"/><path class="cls-1" d="M3109.44,3516.15q-229-182.15-458.06-364.4c-63.82-50.77-129.84-102.74-208.05-125.91-102.81-30.46-213.1-7.51-320.21-13.16-224.61-11.8-436.17-162-521.46-370.07-33.54-81.79-48.47-169.88-63.11-257.07-18.55-110.89-37-222.88-29.75-335.09,10.73-165.1,76.36-320.83,118.79-480.75,105.83-398.55,67-820.43,5.76-1228.3-1.5-9.8-1.21-22.8,8.19-26s9.51,18.7,2,12.3"/><path class="cls-1" d="M2826.14,3749.78c-145.54-85.94-307.06-142.07-452.5-228.3-370.2-219.64-599.07-608.34-850.92-957.43C1269,2212.16,978.93,1888.18,685.49,1568.61"/><path class="cls-1" d="M2420.58,4300.65c-70.63-306-231.05-582.8-398.07-848.73s-344.33-529-454.86-822.9-149.17-628-33.7-920.09c42.45-107.32,104.51-206.45,141.06-315.86,30.86-92.31,42.82-189.82,48.37-286.92a2256.57,2256.57,0,0,0-110.26-835"/><path class="cls-1" d="M2168.84,4426.46q-77.31-145.92-165.42-285.73c-112.08-178-242.65-353.09-426-456.21-53.31-30-110.12-53.25-163.94-82.23-276.36-148.88-453.69-440.1-534.32-743.47-15.63-58.79-28.25-119.09-26.68-179.89,4.72-182.1,132.85-338.06,169.17-516.57,35.92-176.72-27.26-370.29-160.61-491.73"/><path class="cls-1" d="M2804.59,4076.89c-55.22-52.48-134-69.14-205.84-94.61-199.33-70.71-362-220.64-489.47-389.39s-224.56-358-332.74-539.75c-154.81-260.13-332.82-505.66-510.63-750.68q-214.48-295.71-428.86-591.31c5.6,11.1,11.11,22.1,16.71,33.19"/><path class="cls-1" d="M2723.68,4064.12Q2440.27,3929.4,2157,3794.67c-64.41-30.57-129.43-61.64-185.15-106.12-49.32-39.38-90-88.36-126.06-140.15-192.52-276.32-249.67-622.29-381.11-932.33-156.86-370-417.8-684.82-675-993.71"/><path class="cls-1" d="M1510.12,4386.35a9153,9153,0,0,0-57.42-970.68c-17.07-151.69-38-302.88-51.5-455-15.17-170.69-20.95-342.19-26.82-513.49-6.08-179.5-11.56-363.3,44.07-534,54.33-166.52,163.17-309.07,240-466.4,156.86-321,173.79-707.38,45.65-1040.82"/><path class="cls-1" d="M2157.94,4422.57c-146.75-113-266.11-261.28-345.59-428.65-56-117.88-91.81-244.06-127.56-369.54-133.4-469.34-268.11-947.68-254-1435.49,3.74-130.5,18.59-262.31,64-384.73,58.13-156.83,163.67-291.27,238.91-440.7,174.15-346,173.76-774.58-1.19-1120.1"/><path class="cls-1" d="M2829.77,4039.88c12-299.51-106.66-586.35-187-875.12-193.1-694.92-171.53-1448.43-463-2108.1-135-305.64-338.86-601.25-331.61-935.36"/><path class="cls-1" d="M3210.58,3151.51c-39.83-68.88-111.75-113.45-185.76-142.62s-152.52-45.63-226.73-74.3c-261.54-101.09-447.55-350-522.77-620.07-60.9-218.67-57.2-449.38-85.79-674.56a2346.91,2346.91,0,0,0-83.77-390.46c-31-101.79-69.39-202.27-125.23-292.95-57.44-93.37-132.28-174.64-196.21-263.71-48-66.88-90.06-138.36-143.79-200.74a687.38,687.38,0,0,0-155.26-133.33"/><path class="cls-1" d="M393.5,2738.54C244.64,2832,133.11,2983.25,88,3153.17c-16.37,61.61-21.84,134.51,20.48,182.19,47.42,53.48,133.82,49.74,199.11,20.51,108-48.45,183.23-149.48,238.39-254.1s95.71-217.44,160.56-316.37c58-88.53,133.93-163.46,209.2-237.79q67.47-66.63,135-133.16c43.58-42.92,92-88.34,152.76-95.17,67.3-7.63,129.91,34.34,179.44,80.62,167.47,156.53,268.67,385.58,468.32,498.1,124,69.95,277.74,84.88,412.92,40.32,97.19-32,184.76-93.08,285.55-110.22,274.28-46.72,519,240.67,795.09,206.35"/><path class="cls-1" d="M1522.56,4471.95c40.29-31.42,53.26-85.62,63.64-135.63,12.57-60.41,25.25-122.81,13.62-183.41s-53.75-119.78-114.26-132c-11.1-2.2-22.9-2.79-33.5,1.21-8.8,3.3-16.1,9.41-23.09,15.61-67.77,61.13-111.34,143.65-160.7,220.37-23.48,36.51-76.74,145.53-129.54,133.26-68.41-16,81.35-107.64,101.84-132.14,17.49-21,30.68-45.11,45.67-67.92,31.08-47,70.16-88.13,108.94-128.95,32.2-5.11,65,11.57,86.32,36.16s32.82,56.29,40.84,87.88a508.59,508.59,0,0,1-2.19,256.7"/><path class="cls-1" d="M2424.24,4425.15c5.6-229.4-62.1-460-190.78-650-60.74-89.67-134.17-169.84-200-255.81-196.81-257-321.94-560.26-477-844.39-204-373.71-460.91-716.1-732.46-1044"/><path class="cls-1" d="M3007.42,3470.6c-156-135.13-215.16-358.11-374.61-489-31.41-25.79-67.12-47.87-107-55.55-89.11-17.26-174,38.68-261.77,61.71-142.18,37.46-297.41-15-410.35-109.12s-189-225.42-247.56-360.29c-101.1-233-156.62-495.93-94-742,30.95-121.71,89.4-234.44,132.85-352.36,132.64-360.16,118.56-772.05-38.39-1122.28"/><path class="cls-1" d="M3392,2401.13a1949.57,1949.57,0,0,1-490.78-191.19c-119.73-66.55-232.86-145.9-358.89-199.54-31.91-13.59-71-24.87-99.3-4.76-27.49,19.51-30.57,58.61-30,92.31a1708.05,1708.05,0,0,0,61.39,425.87c10.52,38.2,22.73,76.59,44.45,109.68,28,42.79,70.23,74,111.45,104.15,230.27,169,472,342.89,753.87,389.47"/><path class="cls-1" d="M2769.38,3830.9c-159.37-167-407.11-245.82-525-444.37-80.06-134.87-84.23-301.66-63.5-457.07s63.77-308.13,70.1-464.73c7.12-174.7-31.55-348.79-26.63-523.59,5.81-208.8,73.62-411.63,85-620.24,8.93-162.4-16.44-326.69,10.59-487.1,38.8-230.52,181.11-429.28,257.42-650.21"/><path class="cls-1" d="M3328.79,3178.36C3134.68,3142,2992.1,2966.9,2928,2780.13s-66.07-388.07-84.65-584.66a3420.88,3420.88,0,0,0-93.13-531.76c-25.94-100.39-56.79-200.48-107.43-291-48.14-85.88-112.87-161.05-177.2-235.62Q2366.25,1022,2266.8,906.82c-59.73-69.27-122.56-145.65-127.6-237-2.82-51.9,13.56-102.61,27.93-152.41A2106.1,2106.1,0,0,0,2245,71"/><path class="cls-1" d="M2779.95,3758.6c-316.08-187-565.2-466.25-808.92-740.95q-127.41-143.49-254.73-287.09c-53.43-60.18-107.05-120.75-150.48-188.53-132-206-157.91-476.33-67.41-703.67,32-80.31,77.13-154.63,116.3-231.75,207-407.29,240.71-899.11,91.22-1330.84"/><path class="cls-1" d="M2422.73,4414.15c.61-213.8-101.18-412.76-201.26-601.71-271.12-511.78-550.85-1028-685.19-1591.3-46.28-193.88-73.78-403-1-588.6,45.95-117.22,128.51-215.86,188.56-326.48C1890.44,999.38,1865.17,598.2,1661.25,315"/><path class="cls-1" d="M3356.89,3164c-111.7,6.75-210.13-75.41-273.37-167.78C2973,2834.91,2933.46,2635.73,2915,2441s-18.47-392.09-61-583A1337.33,1337.33,0,0,0,2721,1505.32c-184.15-335-506.55-581.88-669.3-927.81-84.28-179.16-121.87-380-108-577.45"/><path class="cls-1" d="M1553.34,4437.13c74.4-228.83-4.51-475.2-64.11-708.27a4369.54,4369.54,0,0,1-122-733.75c-9.45-119.3-14.1-239.09-30-357.79C1285,2246,1106.53,1872.63,835.1,1586c-4.7,5.8,0,16.1,7.41,16.4"/><path class="cls-1" d="M2819.1,3655.48c-246.33-70-464.5-218.6-649.47-395.62s-340-382.55-494-587.08Q1569.26,2531.52,1463,2390.27c-206.12-273.71-414.14-549.52-671.54-775.61,6.11,12.2,12.31,24.39,18.42,36.59"/><path class="cls-1" d="M2739.77,4034.31c-191.92-57-354.08-188.45-487.15-338s-241.84-318.89-363.81-477.74c-193-251.52-428.52-495.71-478.75-808.79-40.31-251.18,47.38-504.32,148.08-738s217.4-467.39,239.49-720.9c18.11-208.21-31.18-421.69-138.66-600.84"/><path class="cls-1" d="M2102.33,4406.39c-123-102.95-160.82-279.63-143.29-439.14s81.47-309.44,129.9-462.36c86.88-274.24,124.76-561.75,146.73-848.56a7929,7929,0,0,0,9.54-1066.8c-9.17-156.2-23-313.19-64.6-464.07-88.84-322.36-297.16-596.37-501-861.48"/><path class="cls-1" d="M3341.88,3137.85c-178.43-64-306.6-227.67-373.68-404.94s-81.66-369.36-95.64-558.36q-9.05-122.7-18.11-245.49c-9.76-132.3-19.82-266-59.17-392.57s-111.61-247.55-222.24-320.7-263.64-89.79-376.11-19.54c-67.78,42.33-114.85,110.05-161.92,174.57a3939.8,3939.8,0,0,1-403.7,470.28c-63.77,63.43-130.65,125.36-210.13,167.29s-173.87,62.28-260.48,38.21c-106.71-29.65-184.35-119.72-251.29-208q-97.86-129.26-184.52-266.52"/><path class="cls-1" d="M3021.93,3487.89,2579.13,3029c-36.32-37.68-80.83-78.36-132.83-71.94-25.3,3.21-47.49,17.42-70.29,28.83-118.47,59.75-264.18,46.91-384.5-9S1773,2826.24,1687.7,2724.67c-109.46-130.15-204.52-281.31-224.1-450.3-17.87-154.29,28.47-307.91,71.6-457,73.29-253.53,139.28-511.06,156.86-774.37s-15.43-534.59-131.74-771.44"/><path class="cls-1" d="M2822.53,3720.68c-139.71-15.44-274.13-76.48-377.57-171.54-55.32-50.78-102-111.36-134.58-179-102.69-213.66-54-464.48-35.51-700.88,26.95-344.41-15.5-690.09-58-1033.07-26.89-217.49-54.09-436.28-118.38-645.85C2014.32,716,1868.81,465,1716.91,221.56"/><path class="cls-1" d="M2720,4077.82c-172.07-150.43-341.64-319.25-413.53-536.22-67.09-202.57-41-422.38-23.58-635.09a7139.41,7139.41,0,0,0-8.65-1261.1c-18.08-189.69-44-379.48-96.35-562.76C2079.23,737.3,1890.09,425.88,1703,119.17"/><path class="cls-1" d="M2473,4245.43c-99.86-128-201.51-259.41-252-413.69-32.14-98.39-42.19-202.48-47.63-305.78-19.36-366.89,16.18-734,36-1100.82s23.68-738.71-57.68-1096.88S1896.58,623,1612.18,390.41c-6.1-5-13.8-10.19-21.2-7.59s-6.19,17.4,1.51,15.4"/><path class="cls-1" d="M2128.94,4427.38q-330.47-396.61-694.73-763.5c-226.6-228.2-473.1-465.29-548.34-778-22-91.49-28.08-188.39-5.12-279.7,31.65-125.61,114.9-231.05,198.46-330.19,170.61-202.37,354.63-401.05,457.92-644.9,52.95-125.12,83-258.64,109.83-391.85,30-149.31,56.57-300.92,48.9-453s-52.43-306.38-150.78-422.73"/><path class="cls-1" d="M3307.64,2358.67q-137.28-72.84-280.36-134c-54.81-23.48-112.62-46.05-172.12-42.53-83.1,5-155.77,61-204.74,128.29s-78.84,146.23-114.2,221.55c-45.26,96.32-101.22,189.14-177.69,263.08s-175.44,128-281.54,136.72c-161.59,13.27-315.33-79.16-427.69-196.11s-194.81-259-297.67-384.47c-13.51-16.39-28-33.09-47.62-41.48-39.21-16.68-83.6,5.24-118.79,29.35-329.1,225.84-444.11,665.09-742.59,930-39.28,34.82-83.27,67.24-134.47,78.56s-111.3-3.15-140.82-46.54c-15.51-22.79-21.32-50.89-24-78.39C126.94,3055.65,220,2883,368.53,2804.95"/><path class="cls-1" d="M3229.06,3318c-248-65.29-411.13-295.22-552.72-509.16-51.43-77.68-103.47-156.75-130.51-245.84-23-75.79-27-155.79-31.4-234.79-18.85-340.29-48.9-685.08-168.24-1004.33-110.33-295-296.44-561.17-535.63-766.07-77.93-66.77-162.26-128-224.69-209.5"/><path class="cls-1" d="M2081.84,4436.2C1986.12,4160,1952,3863,1981.47,3572.35c28.78-283.71,173.37-533.88,226.45-813.5,50.18-264.32,26.27-536.71-3.85-804-19.68-174.29-42.45-350.38-106.72-513.55-47.85-121.48-117.5-232.85-180.25-347.32a3400.49,3400.49,0,0,1-263.17-617.09"/><path class="cls-1" d="M2315.94,4425.2q-69.56-259.47-139.13-518.84c-49-182.48-98.76-367.16-190.53-532.32"/><path class="cls-1" d="M2709.31,4126.73A3259.72,3259.72,0,0,1,2080,3333.9"/><path class="cls-1" d="M2815.31,3912.88c-245.85-117.79-463.63-293.7-630.62-509.23"/><path class="cls-1" d="M2914.83,3719.54c-251.12-34.69-488.67-160.59-658.35-348.91"/><path class="cls-1" d="M2701.8,3412.13Q2620.44,3286.62,2539,3161.2c-49.23-75.88-99.07-152.46-164.39-214.93-35.31-33.78-77.43-64.07-126-69.65"/><path class="cls-1" d="M2684.84,3521.64c-70.9-1.07-144.5-2.74-208.41-33.51-37.11-17.78-69-44.57-100.13-71.46-93.64-81-187.07-171.92-223.53-290.2"/><path class="cls-1" d="M3289.48,3148.08c-38-29.68-79.82-45.87-118.63-72-49.61-33.48-87.24-89.76-123.16-136.95-77.74-102.07-144.89-215.44-169.45-342.83-17.94-93.19-12.48-189-12.72-283.89-1-413-115.26-825-327.11-1179.56C2493,1056.72,2442.94,983,2385.11,915.87c-50.13-58.18-106-111.25-162.27-163.63q-220-205-450.07-398.9"/><path class="cls-1" d="M3336.35,2380.05c-206.22-39.41-412.24-94.52-594.39-198.94s-339.61-263.05-409.1-461.12c-45.26-128.88-51.72-267.78-83-400.76-52.2-221.88-171.88-421.23-294-613.77C1869.16,568.69,1779.4,432,1663.85,318.58"/><path class="cls-1" d="M2437.66,4257.65c-276-319.88-428.54-774.91-292.91-1175.07,30.66-90.51,75-176,104.58-266.95,53.13-162.82,57.45-337.23,56.68-508.52-1.1-238.8-11.21-477.4-21.41-715.89-7.78-182.1-15.86-366.39-68.54-540.87-97.84-324.16-347.67-617.15-313.62-954.06"/><path class="cls-1" d="M2056.19,182.21c-11.87,61.51-48.65,114.82-77.13,170.63-69.84,137.33-89.87,293.54-118.21,445a3738.19,3738.19,0,0,1-398.22,1110.77c-17.69,32.11-37,65.22-67.86,84.93-49.29,31.52-114.19,20.65-169.1.67-185.53-67.32-325.5-219.06-457.76-365.5"/><path class="cls-1" d="M2177.54,4425.56c-121.05-117.65-214.22-273.51-220.09-442.2-3.54-100.9,23.81-200,50.27-297.32,129.29-475.16,244.68-959.11,253.67-1451.51,5.18-284.6-25.25-569-19.17-853.59s51.45-576.22,195.64-821.69c72.55-123.63,170.8-237.77,198.64-378.39"/><path class="cls-1" d="M3291.27,3130.47c-144.82-52.34-308.07-150.57-412.42-264.42-70.43-76.87-124.07-167.25-175-258.22-157.22-281-292.75-573.87-410.38-873.62-41.15-104.68-80.19-210.67-104.54-320.45-17.53-79-27.37-159.59-44.6-238.68-51.9-239.08-172.5-462.92-343.58-637.85"/><path class="cls-1" d="M3189.11,3208.12c-197.78-191.91-321.4-458.46-340.12-733.45-9-131.5,5.19-263.7-1-395.4-13.73-296.69-130.85-582.14-297.86-827.77-184.32-271-428.92-499-594.94-781.54"/><path class="cls-1" d="M2862.92,3227.56c2,3.7,4,7.3,6,11-96.47-165.36-52.86-373.88-29.15-563.89a2666.38,2666.38,0,0,0-46.5-921.48c-15.33-67-33.26-133.59-56.79-198.18-76.39-209.07-209.37-391.91-340.65-571.65-40.52-55.38-81.55-111.46-134.17-155.44"/><path class="cls-1" d="M2784,3365.9c33-89.71,1.52-188.5-8.82-283.5-20.18-185,41.34-367.82,67.86-552,35.79-249.22,7-504.6-57.43-747.87s-163.71-476-270.31-704.08c-59.86-128.07-131.52-264.54-260.24-323"/><path class="cls-1" d="M2760.78,3612.21a1194.32,1194.32,0,0,1-66.31-251.37c-13.74-91.59-16.68-185.09-5.42-277,15.64-127.71,58.29-250.23,90.64-374.74,98.24-377,102.06-778.34,11.2-1157.31"/><path class="cls-1" d="M2658.37,4038.55C2532,3888.61,2478,3690,2457.43,3495.14c-55.93-528.18,104.33-1079.95-61.79-1584.37"/><path class="cls-1" d="M1773.18,4529.74a12169.19,12169.19,0,0,0,467.18-1649"/><path class="cls-1" d="M1621,4484.3a5853,5853,0,0,0,643-1439"/><path class="cls-1" d="M1614.79,4552.31c113.28-41.35,189.73-150.78,227.58-265.3s44-236.62,60.64-356a2026.93,2026.93,0,0,1,226.6-687.9"/></g></g></g></svg>