<svg xmlns="http://www.w3.org/2000/svg" viewBox="0 0 2872.38 3760.41"><defs><style>.cls-1{fill:none;stroke:#1f4595;stroke-miterlimit:10;stroke-width:1.5px;}</style></defs><title>brainbow-blue</title><g id="Layer_2" data-name="Layer 2"><g id="Layer_7" data-name="Layer 7"><g id="blau"><path class="cls-1" d="M49.84,1689.76c242.85-41.91,472.75,121.73,717.88,147.94,159.32,17.1,319.35-25,468.57-83.37,58.18-22.71,115.61-48.08,176.29-63.16,79.47-19.61,162.21-20.88,244-22q116.46-1.55,233-3.15c225.53-3.11,464.87-10.11,653.68-133.68"/><path class="cls-1" d="M1535.51,181.84c-51,9.88-91.07,51.93-111.52,99.68s-24.16,100.69-25.57,152.63a1918.9,1918.9,0,0,0,42.7,456c34,157.53,86.95,327.4,19.09,473.56-49.4,106.52-155.32,177.09-266,216.39s-228.5,52.14-343.42,76.13c-91.92,19.25-184,45.76-277.76,41.35-74.19-3.54-146-26.3-219.47-36.34-117.41-16-236.6.88-353.44,20.23"/><path class="cls-1" d="M2569.61,1463.85a879.73,879.73,0,0,1-426.75,188.38c-102.47,15-206.63,11.69-309.89,19.33-256.22,18.9-506.51,105.09-763.36,97.43-128.69-3.8-255.52-31.19-383.87-41.75-111.71-9.17-223.9-5.48-335.9-5.87-101.52-.33-205.5-18.76-306-9.33"/><path class="cls-1" d="M2020.21,2793.23c-153.91-105.57-353.25-170-528-104.65-49.18,18.33-95.8,47.55-126.2,90.31-68.92,96.79-38.09,231.65,11.42,339.56"/><path class="cls-1" d="M1631.3,3489.48c-51.67-57.16-77.62-133.23-124.8-194.28-30.49-39.48-69.6-72.17-96.27-114.26-32-50.48-43.87-110.94-52.25-170.11-8.6-60.64-13.58-124.92,11.42-180.9,24.29-54.34,75-94.06,131-114.11s117.16-22.13,176.39-16.23"/><path class="cls-1" d="M790.3,3526c180.41-95.45,299-274,409.75-445.28,30.41-47,61.52-96,68.78-151.42,2.23-17.42,2.24-35.59,9.43-51.59,14.89-32.73,54.3-45.37,89.69-51.76,98.31-17.92,199.45-15.56,298.08-31.61,138.71-22.57,269.81-81.12,387.82-157.5,67.9-43.93,132.88-94.35,208.81-122,187.14-68.31,418,8.55,581.11-105.86"/><path class="cls-1" d="M2754.66,2402.74c-353.58,133.34-761.93-34.19-1123,77.08-77.69,24-151.71,60.53-231.5,76.79-115.16,23.32-237.11,2.06-342.91-49S861,2376.9,787.35,2285.2c-40.05-49.89-75.42-103.54-117.35-151.86-77.71-89.61-177.79-159.37-288.12-202.76-42.13-16.55-113.72-49.29-159.8-41.47-28.18,4.8-48.46,30.66-69,48"/><path class="cls-1" d="M2819.06,2168.1a643.6,643.6,0,0,1-313.91,5.71c-88.24-20.63-173.31-60.09-263.94-62.53-131.32-3.41-251.83,71.7-350.9,158s-187.11,187.23-300.11,254.11c-65.28,38.66-137,64.8-209.55,87-99.92,30.58-209.08,53.87-307.37,18.54-58.23-21-107.7-60.91-152.42-103.64A1174,1174,0,0,1,749.14,2319.1c-39.41-60.11-74-124.52-125.22-174.76-40.75-40-90.59-69.42-140.64-96.92a3141.47,3141.47,0,0,0-332.71-159"/><path class="cls-1" d="M2054.86,550.71Q1914.49,667.92,1777.32,789c-38.13,33.63-76.34,67.75-108.12,107.5-96.84,121.54-123.88,282.22-169.7,430.74s-128.24,304.54-275.77,353.4c-48.17,16-99.76,19-148.87,32-112.69,29.83-205.52,110.4-280,200.07s-134.76,190.46-209.35,280.08A1128.4,1128.4,0,0,1,150.78,2512.3"/><path class="cls-1" d="M2596.26,1612.06c-48.7,53.26-124.44,70.53-195.25,84.92-77.61,15.89-155.58,31.74-234.64,36.48-78.47,4.77-158.29-1.42-235,15.78-67.88,15.2-130.64,48.2-198.62,63-206.83,45.17-418.26-83.22-628.14-55.37-100.24,13.27-192,61.38-281.41,108.57-76.9,40.7-155.68,82.75-212.7,148.42C548.75,2085,518,2177.6,467,2256.92c-75.79,117.84-198.32,204.82-334.55,237.52"/><path class="cls-1" d="M2161.81,793.38c-133.49,42.24-275.19,89.91-361.95,199.79-125.34,158.73-97.49,398-216.39,561.56-70.31,96.75-182.94,153.55-295.74,193.32s-230.86,66.57-337.51,121c-67.24,34.38-128.58,79.1-189.39,123.76-69.75,51.27-140,103.36-195.85,169.45-53,62.47-91.56,135.61-139.12,202.22s-107.5,129-185,155.36"/><path class="cls-1" d="M1552.56,3382.5c-6.33,10-21.77,5.33-31.8-1.09-74.81-48-120.86-132.16-139.83-218.9s-13.84-177-5-265.39c5.35-53.48,12.41-107.78,34.71-156.74s62.39-92.27,114.29-106.16c27.13-7.18,55.66-6,83.63-4.25,90,5.86,180.39,18.5,264.29,51.56s161.1,88.09,208.55,164.66c43.23,70,61.66,156.78,121.8,212.8"/><path class="cls-1" d="M2720.55,2496.74c-91,148.48-281.11,228.82-451,190.51-63.9-14.4-123.58-43.54-186.39-62-215.6-63.39-465.65,12.69-609.33,185.46-62.09,74.63-104.4,163.5-158.8,244a960.51,960.51,0,0,1-304,286.7"/><path class="cls-1" d="M1169.32,2949c126.16,47.94,262.41,76.17,396.37,59.56s265.31-82.11,342.55-192.79c44.47-63.7,69.24-138.5,99.52-210,60.11-141.77,143-272.61,225.45-402.55,38-59.89,76.13-120,122.12-174,35.14-41.33,74.59-78.84,116.73-113,73-59.15,157.77-109.52,251.41-118.57"/><path class="cls-1" d="M2578.79,1563.22a1444.65,1444.65,0,0,0-414.94,132.56c-90.73,44.94-177.51,99.8-274.36,129.75-150.11,46.39-312.34,29.15-466.54-1.25s-307.12-73.63-464.24-78.18c-120.72-3.54-239.38-17.83-360.52-26.59-122.22-8.86-246.26-37.4-368.39-40.41q40.36,1,80.77,2.05"/><path class="cls-1" d="M2492.4,1292.48c-50.23,84.26-135.35,140.72-217.74,194-265.63,171.82-549.18,347-865.22,359.78-65.11,2.6-131.86-2.1-191.88-27.43-52.36-22.07-97.53-58.88-150.27-80.17C995.14,1709.53,914.77,1711.8,837,1713a6534.18,6534.18,0,0,1-701.3-26.32c9.64.84,19.33,1.77,29,2.61"/><path class="cls-1" d="M1448.31,180.29c-53.63,107.31-22.91,235.41,3.47,352.45A3944.54,3944.54,0,0,1,1542,1169.92c4.62,78,6.17,159.54-27.36,230.08-45.81,96.31-147.1,152-244.21,196.08-120,54.43-245.34,101.35-376.37,115.61-53.47,5.88-107.33,6.19-161.14,6.58q-323.14,2.15-646.19,4.26"/><path class="cls-1" d="M1584.65,105.08c-141,131.71-164,347.09-145,539s70.82,384.06,44.35,575.19c-7.22,52.11-20.36,103.76-44,150.7-68.29,135.83-212.32,214.49-351.86,274.84s-288.63,114.37-391.93,226c-100.22,108.26-143.34,255.89-213,386A1022.13,1022.13,0,0,1,269,2530.9"/><path class="cls-1" d="M2129.42,1103.11c-32.42,42.37-83.89,64.88-126,97.68-152.18,118.66-161.31,351-290,494.74a370.34,370.34,0,0,1-71.06,61.51c-102.1,68-231.64,81.41-353.85,71.29s-241.68-41.56-363.56-55.72c-239.71-27.75-484.36,12.06-722.52-26.74"/><path class="cls-1" d="M2676.13,1779.72c-94.23,44.55-201,52.16-305.06,57.93-266.09,14.66-533.9,21.06-799.31-7.2-130-13.78-259.15-36-385.44-69.85-135.58-36.31-245.25-89.24-366.36-158.85"/><path class="cls-1" d="M2590,1900.28a1662,1662,0,0,1-643.18,46.67c-78.53-9.72-156.38-25.15-234-40.44l-677.25-133.76"/><path class="cls-1" d="M2322,3034.39a1452,1452,0,0,0-294.76-299.52c-56.4-42.71-117-81.81-184.45-103.26-100.47-32-213.64-21.88-306.93,27.39s-165.38,137-195.57,238.07c-29.17,97.48-20,202.4,1.16,301.83s54,196.28,72.22,296.37"/><path class="cls-1" d="M2077.53,3405.5c-49.59-89-125.67-165.67-220.4-203.24s-208.57-32.09-292.48,25.76c-71.24,49.12-114.28,128.17-162.08,200.24a1327.45,1327.45,0,0,1-164.8,202.15c-22.69,22.85-48.2,46-79.94,51.52"/><path class="cls-1" d="M2280,3263.24A1611.8,1611.8,0,0,1,1989.52,3221c-117.27-28.2-244.26-69-354.13-19.12-77.81,35.4-129.41,109.28-184.15,175-90.16,108.19-198.16,201.1-317.09,276.61"/><path class="cls-1" d="M1030,3400.32a1869.87,1869.87,0,0,1,185.37-372.76c63.6-98.48,137.71-192.15,232.63-260.8s212.89-110.84,329.36-98.1c151.12,16.62,280.36,122.95,363.67,250.06,36.88,56.25,76.19,124,142.89,132.82"/><path class="cls-1" d="M2718.7,2505.34c-75.13,73.8-178.54,113.74-282.87,127.85s-210.38,4.06-314.66-10.91c-89.81-13-180.66-29.59-270.77-18.8-78.61,9.38-153.09,39.14-226.55,68.69-52.76,21.16-107,43.36-147.43,83.31-63.12,62.36-81.31,155.76-123.53,233.8-42.9,79.31-110.39,142-176.63,203.17q-78.63,72.67-157.4,145.3"/><path class="cls-1" d="M2730.2,2434.14c-220,56.55-454.86-26-678.54,13.33-151.08,26.6-287.8,107.23-437.26,141.93-293.27,68.06-608.21-53.12-827.75-259.21-76.43-71.79-143.57-153.34-222.91-222.09a935.55,935.55,0,0,0-371.52-196.6"/><path class="cls-1" d="M366.54,2401.74C541,2271.25,636.46,2062.6,780.78,1899.47c30.72-34.76,64.26-67.85,104.62-90.76,118.23-67.08,265.27-34,397.58-2.49,202.18,48.12,416.29,87.79,615.21,27.46,123.56-37.48,232.35-111.18,344.64-175s235.45-119.77,364.55-115.85"/><path class="cls-1" d="M2021.29,578.26c-65.83,56.89-140.31,103.55-203.5,163.45C1605.41,943,1547,1264.13,1346.58,1477.24c-119.19,126.84-285.88,207.89-459.21,223.27-44.18,4-88.66,3.77-133,3.53q-293.1-1.2-586.34-2.44c-5.24,0-11.8-1-13.15-6.11"/><path class="cls-1" d="M1600,158c-69.58,33.6-113.69,106.63-130.3,182.05s-9.56,153.91-.5,230.65q24.58,207.26,68.08,411.74c7.82,36.77,16.18,73.71,16.59,111.28.48,38.33-7.23,76.4-19.25,112.81-61.77,188.17-232.17,324.67-417.39,394.67S731,1684.68,533.3,1697.36Q334.22,1710.23,135.18,1723"/><path class="cls-1" d="M1969.17,682a988,988,0,0,0-199.37,71.12c-44.43,21.46-87.64,46.69-124,80-176.6,162.41-144.59,465-306.82,641.75-46.32,50.51-105.54,86.94-164.67,121.39-65.47,38.09-132.46,74.83-204.68,97.81-121.65,38.72-252,36.63-379.71,34.1-73.64-1.45-154.27,6.07-226.68-7.05C295.62,1708.93,228.34,1694,159,1686.34"/><path class="cls-1" d="M248.48,2487.11c253.8-101,456.85-298.72,630.66-509.46s326.47-439.74,518.57-634c27.82-28.1,56.73-55.86,77.18-89.65,20.24-33.56,31.35-71.86,40.27-110,44.24-189.32,40.24-389.64-11.7-576.94-14.44-52.29-32.77-104.42-35-158.62s14.64-112.72,58.08-145.34"/><path class="cls-1" d="M2404.49,1247.51c-250.25,98.54-418.06,348.16-669.58,443.07-107.59,40.6-224.31,50.23-339.21,52.88-389.74,8.84-785-57.91-1166.39,22.72"/><path class="cls-1" d="M882.06,3465.17c117.56-104.28,200.45-245.69,303.21-365.29a3936.74,3936.74,0,0,1,345.27-354.38c50.88-46,103.75-91.31,166-120.27,122.68-57.1,265-44.16,399.74-31.45,99.6,9.43,199.88,18,299.69,10.09a906,906,0,0,0,267.6-63"/><path class="cls-1" d="M2579.88,2168c-78.29-34-157.35-68.2-241.07-85.47s-173.39-16.24-251.4,18.36c-111.27,49.39-182.41,157.7-271,241.24-72.82,68.59-158.86,121.23-244.24,173.4-50.34,30.76-101.69,61.95-159,76.13-74.05,18.29-152,6.76-226.51-8.85-36.91-7.66-73.76-16.48-108.38-31.5-57.64-25.13-106.35-66.63-154.15-107.49Q839.46,2371.41,755,2299.07C627.34,2189.83,536.77,2059.35,363,2020.83"/><path class="cls-1" d="M2522.94,2098.67q-141.55-12.22-283.15-24.53c-159.72-13.82-319.66-27.63-479.93-31.06-61.87-1.3-123.83-1.08-185.36-7.67-73.24-7.91-145.24-25.33-215.58-47.28a1759.67,1759.67,0,0,1-536.57-275.76c-37.51-28.45-108.93.46-154,7-61.17,8.88-122.08,19.1-183.37,27.13-120.39,15.69-243.5,24-363.23-1.19"/><path class="cls-1" d="M164.55,1934.4c225.18,23.52,441.8,122.22,607.46,276.53,145.38,135.57,263,319.19,453.19,377.13,159,48.47,335.18-6.68,469.43-104.83,92.1-67.35,168.8-153.46,256.53-226.41s192.21-134.58,306.32-138.28c133.74-4.35,260.65,71.21,394.28,66"/><path class="cls-1" d="M2306.74,1298.83c-60.3,5-113.26,42.73-154.62,86.83s-74.46,95.57-115.92,139.49c-92.12,97.55-221.33,153.27-352.76,180.11s-266.58,27.3-400.69,29.47Q715.06,1744,149.41,1799"/><path class="cls-1" d="M2050.84,847.14A1208.74,1208.74,0,0,0,1716.78,1148c-74.78,98.35-134.86,208.67-222.77,295.45-110.18,108.95-256.63,173.35-404.5,219.68C742.59,1771.63,368.37,1791.21,12,1719.58"/><path class="cls-1" d="M1930.67,623.83c-141.67,104.62-244.21,261-283.59,432.73-31.39,136.92-25.34,286.08-95.1,408-47.92,83.71-128.09,145.79-216.07,185.29s-184,58.11-279.62,70C752,1757.62,438.89,1731,142,1807.72"/><path class="cls-1" d="M984.42,3496.26C876.07,3281,850.12,3025.4,913.24,2792.81c11.48-42.48,28.35-87.39,65.61-110.79,58.89-36.82,134.14-2.76,203.28,4.06,96.6,9.56,188.95-36.82,274.74-82.29,149.43-79.17,300.56-161.06,420.65-280.1,77.64-77,148.55-173,254.87-198.85,57.4-14,117.61-5,176.18,3.05q173.16,23.86,347.61,36.36"/><path class="cls-1" d="M2556.88,2014.52c-209.94,78.27-454.74,74.25-634.45,208-81.51,60.65-142.2,145.08-219.25,211.29-116.17,99.9-269.45,155.6-422.7,153.41s-304.91-62.11-418.17-165.32c-90.79-82.7-155.58-189.68-237.81-280.94s-192.82-170-315.62-166.44"/><path class="cls-1" d="M931.94,3409.46c78.44-67.63,131-163.6,199.91-241.2q124.54-140,248.94-280.1c71.54-80.5,146.5-163.51,245.73-205.52,142.11-60,305.49-24.57,451.35,25.4a2487.94,2487.94,0,0,1,279.91,115.35c57.54,27.91,117.4,58.89,181.33,55.79"/><path class="cls-1" d="M1186.75,3612.74c157.28-143.42,314.91-287.24,487.73-411.42,51.11-36.73,106.13-72.73,168.54-80.57,39.45-4.94,79.42,1.87,118.63,8.52q166.32,28.55,332.72,57.05"/><path class="cls-1" d="M2690.6,2067c-135.65,60.65-295.62-8.64-441.17,20.66-89.94,18.08-168.4,72.78-236,134.73S1886,2354.76,1815.94,2414.06c-131.5,111.31-300.36,180.7-472.66,181.92s-346.21-68.65-461.36-196.73c-73.5-81.76-121.85-183.72-195.91-264.84-98.91-108.19-242.91-173.91-389.49-177.64"/><path class="cls-1" d="M2576.8,1892.38c-117.91,56.47-256.32,37.11-385.63,18.21q-423-61.74-849.09-99.54c-61-5.4-122-10.43-183.32-11.71-70.64-1.36-141.31,2.29-211.93,1.6-78.58-.73-157.05-6.74-235.39-12.71q-269.3-20.61-538.65-41.31c7.79.13,15.62.13,23.41.26"/><path class="cls-1" d="M144,1866.54a720.46,720.46,0,0,0,386.61,70.13c202.41-20,386.14-124.25,583.45-173.62,217.83-54.48,447.21-40.7,668.73-4.55,128.47,20.94,257.35,49.83,373.19,109,66.12,33.75,127,76.91,192.82,111.25,98.39,51.38,206.08,82.23,312.85,112.66"/><path class="cls-1" d="M1130.44,3564.08c52.49-32,104.91-65.26,149.59-107.62,56.57-53.62,99-120.08,149.26-179.51s112.35-114.2,188.37-131.16c64.68-14.4,131.89,0,196.6,14.46q242.21,53.87,484.38,107.88"/><path class="cls-1" d="M1253.38,62.8c-58,100.37-38.62,227.5-.47,337.08,56.59,162.56,149.49,310.29,211.22,471s89.83,346.74,15.07,501.82c-66.74,138.3-206.72,230.21-354,273.61s-303.39,44.55-456.91,44-309.22-2.25-458,35.73"/><path class="cls-1" d="M237.85,1934.79c130,33.29,264.46,54.42,398.29,45.36s267.71-49.92,374.77-130.86c76.45-57.82,136.66-133.83,205.1-200.86,79.27-77.72,170.4-144.55,236.59-233.75,35.79-48.14,63.46-101.69,95-152.76,45-72.7,99.13-141.38,169.68-189.68,161.67-110.7,379.72-97.09,554.85-185.05"/><path class="cls-1" d="M1939.86,433.91c-110.93,19.36-188.58,120.83-236.09,223-59.31,127.39-89.62,266.33-110.26,405.31-13.37,90.13-23.27,182.5-61.06,265.42-62.6,137.55-193.19,230.89-325.19,304.45-106.43,59.27-219.48,110.63-340.09,127.8-118.12,16.74-238.24-.05-357.51.39s-245.9,21.42-335.57,100.07"/><path class="cls-1" d="M1303.9,5.73c-78.09,52-98.94,161.82-75.69,252.73s81,168.3,134.11,245.69c95.79,139.6,182.64,294.89,189,464.09,5.76,153.07-57.07,304.14-156,421.21s-231.65,201.94-372.83,261.36c-53.22,22.43-108,41.51-164.38,54.05-134.69,30.06-274.54,22.6-412.29,15q-136.65-7.53-273.35-15.15"/><path class="cls-1" d="M2639.06,2083.9c-166.64-67.53-356.72-11.26-520.43,63.08a2466.19,2466.19,0,0,0-227.76,118c-102.82,60.28-202.23,128.38-313.66,170.7-224.51,85.18-486.31,54.53-693.09-67.49C655.67,2233.53,491.26,1997,243.5,1902.59"/><path class="cls-1" d="M188.77,1882.25c41.58,50,108,72.58,172.41,81.46,331.09,45.56,638.87-206.54,973-203.71,310.3,2.58,578.82,222.33,885.36,271.19,148.33,23.68,303.05,5.56,442-51.64"/><path class="cls-1" d="M2502.53,2660.83q-104.69,9.2-209.48,18.44c-77.29,6.75-154.68,13.55-232.24,14.09-270.9,1.69-536-73.6-794.24-155.53-244.82-77.67-495.16-166.45-684.28-340.17-51.89-47.63-98.53-101.13-154-144.31a546.5,546.5,0,0,0-252.05-108.06"/><path class="cls-1" d="M306.31,2429.29Q404.66,2316.59,503,2204c69.55-79.77,139.67-160,222.13-226.22s179-118.54,283.72-134.09c95.25-14.11,192.19,2.64,286.29,23.18,218,47.48,431.85,115.31,653,144s455.72,15.56,651.79-90.9"/><path class="cls-1" d="M2471.32,2972.77c-148.74-148.18-331.54-267-535.52-317-128.78-31.67-275.85-31.85-381.5,48.11-109.19,82.66-147.45,229.84-153.47,366.65s12.61,275.59-14.07,409.87"/><path class="cls-1" d="M2291.52,3213.38c-66.07-26.05-136.14-40.32-205.95-53-94.31-17.14-190.26-31.82-285.74-22.8s-191.43,43.83-257.79,113c-52.38,54.66-82.75,126.23-126.51,188.07-63,88.84-154.65,157-257.9,191.51"/><path class="cls-1" d="M970,3394.36c-57.42-206.61-96.27-433.39-11.72-630.5,18.65-43.49,45.45-86.81,88.13-107.33,69.54-33.46,150.68,4.6,227.72,7.52,121.87,4.62,227.25-78.59,320.36-157.39Q1741,2382.78,1887.42,2258.8c44.11-37.29,89.05-75.14,142.17-98,80.61-34.63,172.55-31.42,259.06-16.34s170.94,41.28,258.14,50.89"/><path class="cls-1" d="M2684.59,1902.29c-211.32,73.79-443.56,30.8-663-12.93l-647.31-128.95c-103.81-20.67-209.64-41.5-314.79-29.56-54.45,6.18-107.44,21-160.57,34.08a2589.07,2589.07,0,0,1-727.57,72.55"/><path class="cls-1" d="M2473.1,1304.09c-128.33,21.2-257.24,54.85-366.7,125.17-92.59,59.45-167.72,142.78-259,204.11-119.64,80.32-266.09,120.21-410,111.39-71.22-4.34-141.15-20-211.58-31.16C948.95,1670,660.79,1699.77,398.66,1799"/><path class="cls-1" d="M101,1881.11c238.31-160.34,537.39-193,823.23-221,54.56-5.33,109.44-10.72,164.07-5.77,55.31,4.93,109.22,20.38,161.77,38.37,139.9,47.95,272.38,114.86,407.7,174.57,302.22,133.23,629.35,232.1,958.66,206.66"/><path class="cls-1" d="M2683.91,2270.7c-303.84-67.1-582.89-214.25-872.26-328.84s-606.49-198-910.09-129.68c-108.77,24.44-217.92,71.66-286.29,159.76-48.05,61.88-72.06,138.54-109,207.52-62,115.57-162.7,209.88-281.92,264.32"/><path class="cls-1" d="M1293,.58c-71.92,58.23-107,152.07-115.49,244.13s6.76,184.54,18.63,276.22q18.91,146,27.21,293.07c7.95,141.91,8,286.46-30.73,423.23s-120.54,266.24-244.33,336.07c-61.68,34.8-131.06,53.54-200.24,68.87a2355.25,2355.25,0,0,1-646.58,51.33"/><path class="cls-1" d="M1314.88,48c33.12,50.09,9.43,115.92-1.57,174.93-21,111.92,8.86,227.78,54.07,332.33s105.74,201.9,150.86,306.5c19,43.83,35.19,89.27,41.93,136.5,17.43,123.43-34.21,250.1-118.76,341.66s-199,151.06-317.55,189.47-242.35,57.42-365,79.22c-189.17,33.65-377.19,74.74-562.23,126.25"/><path class="cls-1" d="M864.46,3422.86c37.6,3.88,74.29-16.15,101.17-42.83s46.24-59.77,68.48-90.43c28.61-39.53,62.16-75.35,95.86-110.68,76.82-80.6,165.34-164.77,276.41-173.3,30.31-2.31,60.7,1.24,91.11,2.07,131.19,3.59,263.06-46.74,358.44-137,73.56-69.55,126.12-161.31,209.51-218.66,129.77-89.16,303-75.32,457-43"/><path class="cls-1" d="M2647.07,2613.8c-125.77,16.88-248.74,54.61-375.57,59.79-136.61,5.56-271.95-26.91-408.64-31.86s-285.51,23.95-376.15,126.38c-78.16,88.47-97.67,215.16-89.93,333s39.21,232.95,48.83,350.69"/><path class="cls-1" d="M1217.21,3688.54c197-103.53,268.39-379.63,478.42-453.3,86.06-30.18,180.94-19.59,269.77,1.07s175.83,51,266.55,60"/><path class="cls-1" d="M1472.29,3642.79c-36.65-77.82-24.68-169.7-.93-252.35,19.5-68.34,50.38-139.39,111.61-175.65,53.49-31.65,125.14-29.25,176.45,5.87,83.35,57.19,101.9,180.8,187.53,234.61"/><path class="cls-1" d="M2589.59,2724.09c35.72-50.6,18.67-125.1-24.54-169.66s-105.48-64.6-166.43-75.81c-100.62-18.52-208.69-16.25-300.24,29.7-66,33-121.4,87.62-191.91,109.34-63.81,19.6-132.72,10.05-199,18.36-156.21,19.37-292.42,148.75-319.75,303.8-22,124.61,20.44,250.63,62.27,370"/><path class="cls-1" d="M2778.36,2160.77c-142.18,9.34-276.84-70.7-419.31-73.12-61.5-1-122.23,12.48-181.44,28.82-76.92,21.19-153.87,47.84-218.28,94.89-108.89,79.43-174.25,211.19-291,278.63-124.14,71.72-279.86,55.42-418.69,19.61-162.32-41.93-320.76-109.21-448.5-217.82-47.1-40-89.48-85.11-135.49-126.24C520.44,2035.88,338.75,1947.71,147,1913.74"/><path class="cls-1" d="M142,2024.71c179.23,21.85,369.91,42,532.85-35.92,79.3-37.9,146.9-97,225.49-136.44A515.23,515.23,0,0,1,1126.15,1798c87.8-.7,173.93,21.06,260.84,34.12,340.61,51.23,700-37.13,978-240.54"/><path class="cls-1" d="M2522.91,1667c-535.51,76.85-1079.78,37.76-1620.76,33.79-91.83-.66-185.54,0-272.56,29.26a431.89,431.89,0,0,0-202.27,144c-24.16,31.12-44.67,70.73-33.86,108.62"/><path class="cls-1" d="M254.42,2218.81q172.52-126.12,352-242.37c73.43-47.58,149.43-94.6,234.71-114.38,74.31-17.18,151.62-12.7,227.89-11.41,183.26,3.12,376.56-16.07,527.32-120.46,132.25-91.51,214.86-236.39,309.95-366.07s220.4-255.25,380.12-273.78"/><path class="cls-1" d="M2418.68,1272.69a628.49,628.49,0,0,0-350.88,48.7c-146.27,66.23-261.5,186.06-401.46,264.69C1462.82,1700.41,1220.56,1721,987.16,1719.6s-469.06-22-698.72,19.73"/><path class="cls-1" d="M403.47,1781.11c152-36.38,304.14-72.76,453.29-119.66,145.38-45.67,292.49-104.41,398.08-214.3,40.48-42.15,73.66-90.71,108.37-137.71C1439.46,1206,1524,1109,1608.43,1012c61.71-70.91,124.77-142.88,204.67-192.57,100.52-62.45,220-84.92,336.38-106.17"/><path class="cls-1" d="M2194.43,892.43q-119.71,28.49-238.63,60.76c-58.55,15.87-117.62,32.7-169.74,63.74-53.18,31.6-97,76.8-136.49,124.43-84.3,101.76-151.23,216.66-229.44,323.21s-170.88,207.12-289.55,265.13c-83.34,40.75-179.36,60.61-248.07,122.91C828.23,1901.81,798,1971.36,761.92,2035c-66.58,117.44-159.36,221.82-275.29,291.07s-255.89,101.57-388.83,77.8"/><path class="cls-1" d="M900,3441.12C1001.33,3355,1054.5,3248.7,1141.57,3153l318.71-350.79c58.15-64,121.22-131.1,205-152.67,58-14.92,120.71-6.22,177.65-25.08,41.08-13.53,76.1-40.5,112.32-64.14C2068.69,2486,2203.64,2439.9,2339,2447.85s269.91,74.3,344.76,187.35c17.54,26.56,32.08,57.24,29,88.87"/><path class="cls-1" d="M1246.39,3563.37a807.87,807.87,0,0,0,207.73-189c48.13-62.37,88.72-133.29,153.46-178,109.36-75.37,269.18-51.84,366.89,38,39.71,36.57,74.11,84.39,126.4,97.86"/><path class="cls-1" d="M1975.27,3392.17c6.57-86.94-33.8-175.93-103.46-228.32s-166.51-66.24-248.09-35.74c-49,18.37-91.45,51-129.7,86.74-56.94,53.14-106.55,113.81-164.23,166.21s-125.91,97.19-202.83,109.07"/><path class="cls-1" d="M2233,3114.5c-38.37-143.63-134.08-271-261.35-347.87s-284.55-102.2-429.54-69.33c-31.16,7.07-62.63,17.15-87.37,37.47-56.46,46.42-61.75,131.53-46.62,203.08s45.77,140.91,44.57,214c-1.29,76.27-37.77,148.51-87.32,206.54s-111.45,103.84-172.87,149.06"/><path class="cls-1" d="M2689.75,2426.22c-84.41,25.21-173,32.56-260.8,39.75-158.41,12.94-321.3,25.56-473.45-20.69-58-17.65-118-44-177.19-30.09-64.7,15.2-108.64,74-165.3,108.79-52.22,32.11-114.41,43.12-174.86,53.55-64.2,11.07-128.84,22.15-193.92,21.21-123.26-1.72-245.41-48.3-338.65-129-41-35.55-76.27-77-111.37-118.3C607,2131.63,402.4,1903.68,126.08,1820"/><path class="cls-1" d="M276.59,2439.68A3139,3139,0,0,0,750.65,2125C812,2075.73,872.1,2023.76,941.5,1986.63c119.89-64,259.84-79.4,395.76-77.78s271.4,18.92,407.3,15.22c155.12-4.26,308.12-35.74,460.14-67.16,140.45-29.07,284-59.25,406.76-133.62"/><path class="cls-1" d="M2535.14,1904.86c-402.28,36.45-818.91,47-1198.12-92.24-97.81-35.92-194.12-81.95-297.84-90.18C936,1714.28,834.1,1744.2,731.78,1760c-194.12,29.72-396.05,7.23-578.78-64.49"/><path class="cls-1" d="M2186.71,904.29c-123.68,36.41-250.15,74.2-353.6,151.05-122.86,91.24-201.4,228.26-287.36,354.86s-191,252.44-336.75,299.19c-66.89,21.48-138.16,24.66-208.41,27.63l-843.74,36"/><path class="cls-1" d="M785.64,1679.07q129.47-50.58,259-101.3c134.89-52.75,283.92-119.33,335.35-254.64,28.94-76.13,20.77-160.72,9.8-241.43a4324.71,4324.71,0,0,0-108.94-542.23c-18.24-67.84-38.29-136.07-40.9-206.28s14-144.07,61-196.29"/><path class="cls-1" d="M1044.53,3148.28c55.27-125,121.3-247.69,217.32-345s225.85-167.27,362.52-167.64c67.73-.26,134.42,16.39,199.29,36.17,51.41,15.65,102.85,33.9,147,64.56,100.72,70.11,155.79,200,269.26,246.71"/><path class="cls-1" d="M2597.05,2429.66c-15.63,75.35-44.4,149.68-95,207.7s-125.21,98.06-202.08,94.82c-65.35-2.72-125.44-35.17-180.67-70.21a1600.18,1600.18,0,0,1-229-176.06c-47.71-44.08-101.29-94.43-166.09-90.41-69.67,4.25-117.39,68.44-171.22,113-61.13,50.62-141.06,79.33-220.3,74.41-57.42-3.58-112.32-24-165-47.09-225.74-98.57-428.64-248.9-588.84-436-69.64-81.34-135.64-173-233.91-215.74"/><path class="cls-1" d="M577.26,1955.45c275.57-75.25,571.6-49.35,845.07,33.26,98.48,29.77,195.48,66.92,283.08,121,71.61,44.19,136.14,99.1,206.73,145,227,147.62,517,194.45,778.93,125.73"/><path class="cls-1" d="M2697.65,2168.56a1095.53,1095.53,0,0,1-504.18-48.34c-240.12-82.23-462.68-250.16-716.19-236.79-75.14,4-148.24,24.06-221.83,39.83-367.34,78.3-757.84,43.63-1105.67-98"/><path class="cls-1" d="M1804.82,334.33c-142,15.82-265.68,114.2-339.14,236.81S1363.28,838,1352.23,980.42c-8.53,110.35-7.1,221.94-29.79,330.24s-73.45,215.89-164.09,279.4c-101,70.65-231.86,75.28-354.07,91.61a1616.9,1616.9,0,0,0-650.75,236.86"/><path class="cls-1" d="M2213.83,822.44c-187.92,72.36-329.68,228-458.67,382.66s-257.56,317.76-434.08,414.75c-220.25,121-484.17,122.61-735.44,117.74q-144.84-2.8-289.81-7.11"/><path class="cls-1" d="M861.24,3263.32a1740,1740,0,0,1,57.38-435.95c13.63-51.58,31.58-105.47,72.57-139.49,45.88-38,110.62-42.57,169.92-37.16s118.71,19.25,177.73,11.64c79.07-10.2,148.3-57.79,207.75-110.92s112.82-113.54,178.63-158.62c42.55-29.19,89.47-51.31,136.61-72.17,117.37-52,239.19-97.37,366.53-114.07,161.88-21.27,325.88,4.55,487.11,30.27"/><path class="cls-1" d="M2677,2550.74c-61.06,65.56-155.62,90.89-245.23,89.49s-176.94-26.25-264.2-46.73c-173.25-40.72-356.15-64.34-528.1-18.26-39,10.48-77.63,24.75-109.86,48.85-99.63,74.68-111.8,217-115.23,341.47"/><path class="cls-1" d="M1316.22,2825.56C1404.49,2648.92,1605,2535.09,1802,2549.8c58.87,4.38,116.47,19.1,174.81,28.19,195.94,30.36,401.61-5.34,575.77-100.16,66.16-36,130.13-81.07,204.57-92.3"/><path class="cls-1" d="M2729.8,2524.12a1121.82,1121.82,0,0,1-483.18-109.66c-66.65-32-130.4-70.64-200.19-95.15s-148.26-33.93-216.86-6.31c-42.54,17.16-78.27,47.22-114,75.9-137.13,109.9-301.72,209.46-476.51,191.25-166.57-17.29-303.25-137.9-412.24-265.08S620.48,2045.3,479.23,1955.29c-82.13-52.39-175.4-84.28-267.75-115.53"/><path class="cls-1" d="M283.06,2462.31c284.48-117,395-481,667.63-623.5,143.2-74.91,315.54-78,473-41.35s303.56,109.93,447.64,183.21,289.53,147.65,446.39,186.6a1053.16,1053.16,0,0,0,312.55,29.4"/><path class="cls-1" d="M2450.66,1143.63a399.33,399.33,0,0,0-240.2,46.62c-44.25,24.54-83.27,57.17-121.41,90.35q-77.32,67.2-151.26,138.14c-51.24,49.17-101.58,100-160.67,139.22-106.63,70.73-235.9,99.69-363.49,110.63s-255.95,5-383.67,13.18c-155.32,9.81-308.22,40-461.43,65.81-74.84,12.59-149.8,24.33-225.28,32.14-61.11,6.24-144.49,24.08-204.06,7.59"/><path class="cls-1" d="M387.86,1937.7a2223.51,2223.51,0,0,0,655.49-15.26c66.78-11.55,133.24-26.22,196.71-49.84,56.66-21.1,110.52-49.1,166.74-71.43,54-21.38,110-37.45,166.29-51.56a2688.31,2688.31,0,0,1,391.47-68.22c53.13-5.25,106.94-9,158.32-23.68,90.3-25.87,167.5-83.76,242.37-140.5"/><path class="cls-1" d="M2528,1561.19c-325.87,200.41-728.42,272.52-1103.67,197.55-139.95-27.95-276.84-75.58-419.3-83.46-279.45-15.51-556.55,122.87-832.36,75.22"/><path class="cls-1" d="M287.11,2458.43c103.37-14.62,183.23-95.49,252.14-173.89q103.12-117.13,199-240.28c74.81-96,146.88-195.37,236.81-277.34,83.35-76,180.41-135.63,264.55-210.63s157.46-171.43,170.69-283.39c6.1-52.07-.92-104.71.47-157.1,2.44-90.4,30.41-178.72,33.3-269.13,1.22-39.81-2.3-79.79.94-119.44,14-172.3,150.52-307.64,287.93-412.59"/><path class="cls-1" d="M1876.87,524c-140.52,110.36-262,245.9-350,401.32-25.12,44.35-47.42,90.13-72.35,134.61-58.71,104.82-130.91,201.44-202.89,297.61-76.9,102.66-156.1,207.58-263.78,277.4-54.15,35.07-114,60.29-174.57,82.44-67.34,24.67-136.34,45.81-207.1,57.34-77.66,12.62-156.87,13.48-235.54,9.84a2052.66,2052.66,0,0,1-255.43-28.06"/><path class="cls-1" d="M184.24,1722.17a2570.55,2570.55,0,0,1,869.38-5c141.93,23.6,282.23,59.18,425.59,70.43a1267.35,1267.35,0,0,0,551.65-80.4c91.59-35.31,179.16-81.28,272.6-111.45s196.18-43.65,289.42-12.65"/><path class="cls-1" d="M2591.12,2437.84c-179.83-84.51-315.34-239.11-475.29-357-153.23-113-328.64-191.57-508.16-252.65-169-57.53-341.48-118.63-519.91-126.5-136.45-6-272.94,2.33-408.86,14.67-120.3,11-229.73,8-346.77,40.48,8.72-3.2,17.49-6.32,26.21-9.53"/><path class="cls-1" d="M2295.14,1100.21a3554.59,3554.59,0,0,0-512.61,259.53c-78.17,47.85-154.93,99.37-222.34,161.76-32.12,29.61-62.07,61.57-88.44,96.37-31.16,41.12-33.29,74.16-89,64.09"/><path class="cls-1" d="M2094.31,885.21c10,22.22-4.36,47.28-18.6,67.07-216.15,300.18-557,507.51-922.92,561.43"/><path class="cls-1" d="M2594.63,1679.66c-92.21,89.77-221,134-349.07,146.81s-257-3.27-384.65-19.31q-203-25.54-406-51c-119.35-14.94-239.29-19.35-357.63-36.42"/><path class="cls-1" d="M2459.68,2147c-346.42-33.93-668.93-183.62-993.81-308.32-113.19-43.44-237.77-84.4-353.16-47.34"/><path class="cls-1" d="M2625.18,2463.25A1625.84,1625.84,0,0,1,2096,2434c-58-12.91-115.83-29.32-167.84-57.92-62.33-34.31-113.77-84.9-167.41-131.58-241.13-209.94-534.89-347.93-824.6-483.22"/><path class="cls-1" d="M2732.11,2509.83c-46.6,81.07-138,128.54-230.39,143.16s-186.59.6-278.61-16.07c-199.1-36-407.86-83.92-599.53-19-60.79,20.59-124.44,61.22-133.12,124.78-2.77,20.21.5,40.7,3.37,60.84,26.43,182.27,27.29,367,28,551.15.18,38.61.28,77.71-10.15,115"/><path class="cls-1" d="M2064.52,3379.35c-71.52-124.82-206.79-210.66-350.11-222.27-30.85-2.51-62.73-1.63-91.24,10.38-46.24,19.37-75.95,64.25-100.23,108-71.78,129.54-130.09,282.26-262.25,349.21"/><path class="cls-1" d="M1409.25,3760.26c64.21-311.14-34.65-629.65-66-945.82-6.8-68.3-3.21-151.49,56.09-186.26,22.26-13.08,48.83-16.44,74.6-17.9,131.45-7.55,261.56,26.58,386.91,66.67,87.7,28.07,178.79,62.26,237.52,133.22,65.46,79,78,188,87.79,290.06"/><path class="cls-1" d="M2292.29,3213.76c-79.39-25.49-158.64-50.94-238.36-75.57-101-31.26-210.43-60.94-310.46-26.78-83.11,28.48-145.39,96.41-204.82,161q-119.6,129.89-243.93,255.4c-45.12,45.55-95.47,93-159,101.32"/><path class="cls-1" d="M964.43,3304.19a675.73,675.73,0,0,0,115.11-128.73c35-50.9,62.87-106.37,95.86-158.69,100.37-159,260.19-291.7,447.19-311,50.63-5.26,101.9-2.14,152.16,6.07,248.49,40.29,472.06,211,576.56,440"/><path class="cls-1" d="M202.94,1881.79C363.84,1876,516,1962.9,630.76,2075.87s200,251.75,295.26,381.65c20.5,28,41.74,55.79,67.64,78.89,65.07,57.8,155.71,81,242.64,78s171.44-29.69,252.57-61.43c72.6-28.4,145.13-62.22,200.68-116.89,34.89-34.38,61.84-75.74,91.81-114.41,88.94-114.69,210.44-208.26,351.29-243.55s301-6.14,407.17,92.8"/><path class="cls-1" d="M2721.68,2490.8c-43.09-42-113.39-30.06-171.5-14.42-107.4,28.69-215.65,60.23-326.84,61.34s-228-32.43-302.5-114.93c-16.82-18.66-31.76-39.93-53.46-52.46-44.22-25.52-102.23-6.09-140.81,27.33s-65,78.56-100,115.72c-118.29,125.56-322.56,138.48-480.61,69.4s-277.47-204.28-376.62-345.48c-66.35-94.45-127.82-195.27-218.3-267-106.92-84.83-243.64-120.52-376-154,10.88,8,21.76,16,32.5,24"/><path class="cls-1" d="M2282.42,3068.69c-103.5-226.71-311.18-403.29-551.59-468.92-22.59-6.15-46.64-11.4-69.13-4.89-26.76,7.66-46.27,30.51-61.62,53.72a412.38,412.38,0,0,0-68,240.12c2.85,84.61,31.74,166.37,39.54,250.7,14.68,158.27-45.37,312.84-104.28,460.43"/><path class="cls-1" d="M1651.85,318.92c-72.13-32.9-162.46,1.38-210.56,64.42s-59.76,147.49-51.49,226.35,34.44,154.48,55.48,230.91a1798.74,1798.74,0,0,1,46.5,223.7c11.67,81.81,15.88,171.92-30.78,240.2-32.33,47.19-84.45,76.53-135.47,102.43-325.15,165-686.88,257.5-1051.32,268.87-65.62,2.07-132.11,1.67-195.46,18.75"/><path class="cls-1" d="M238,1813.4c251.66-23.37,494.93-100,733.79-182.57,100.91-34.86,202.75-71.58,290.15-132.89S1422,1347,1440,1241.81c9.33-54.94,3.63-111.24,5.07-166.94,1.84-69.53,15-140.24-.77-208.06-17-73.06-65.3-134.17-100.15-200.59A582.21,582.21,0,0,1,1279,433.44c-3.48-55.33,2.08-113.92,33.06-159.83s93.52-74,144.14-51.59"/><path class="cls-1" d="M2122.9,745.83c-124.11,1.35-246.93,52.5-335.41,139.48-78.26,77.07-127.88,177.69-188.82,269.06-70.24,105.33-157.6,200.56-263.23,270.4-135.74,89.87-296.89,134.92-458.24,155.91s-324.8,19-487.52,22.27c-84.33,1.68-172.84,5.93-244.76,50"/><path class="cls-1" d="M2669.11,1793.93c-237.71,88.07-499.72,81.59-751.5,52.71-152.76-17.56-327.85-29.37-473-82.35-126.88-46.31-272.47-51.14-405.18-15.9-95.06,25.25-194.34,16-293,24.88-110.36,9.85-220.23,30.34-324.58,68.3-4.74,1.75-10.46,4.82-10.09,10"/><path class="cls-1" d="M2872,2421.59c-132.57,74.2-291.35,100.62-440.85,73.49-101.87-18.53-197.84-60.55-292.35-102.78-57.84-25.93-115.68-52.09-171.45-82.2-157.48-85.16-296.62-201.26-454.49-285.65-234.93-125.65-509-177-773.49-145"/><path class="cls-1" d="M2627.22,2158.92c-37.49-31-89.55-36.38-138.13-36.19a810.9,810.9,0,0,0-339.43,76.38c-164.52,77.05-300.86,208.32-471,271.93-182.27,68.08-383.95,51.58-577.19,29.42-97.95-11.22-198.78-24.64-284.09-74.07"/><path class="cls-1" d="M2762.54,2390.79c-258.9,139.73-596.39,119.05-836.28-51.15-62-44-117.32-96.61-173.52-147.82-111.66-101.91-228.49-199.92-360.84-272.92s-282.16-120.17-433.11-114.06"/><path class="cls-1" d="M2572.36,2645c-198.9-72.46-410.15-146.13-618-105.55-46.31,9.08-91.48,23.67-138.2,31.15-49.34,7.87-99.69,7.53-149.64,6.65a6330.65,6330.65,0,0,1-717-54.23"/><path class="cls-1" d="M2227.2,2928.77c-181.06-170.33-411.68-287.51-656.11-333.15-132.7-24.8-268.7-29.11-401-56.07A1186.16,1186.16,0,0,1,706.2,2333.41"/><path class="cls-1" d="M2214.86,3270c-83.65-50.56-183.61-64.89-280.36-78.12-69.94-9.57-141.84-19-210.34-2-84.89,21.15-154.41,80.25-220.53,137.64-75.38,65.31-153,133.76-193.08,225.16"/><path class="cls-1" d="M1424.33,3573.08a1204.34,1204.34,0,0,1,75.36-225.65c15.63-34.95,33.33-69.64,59.5-97.64,45.18-48.42,113.56-72.4,179.71-68.41s129.22,34.61,177.42,80c51.19,48.23,90,114.8,155.92,139.34"/><path class="cls-1" d="M1980.62,3430c-55.33-129.53-167.89-233.35-301.57-277.94-29.86-10-62.28-17.08-92.65-9-51.55,13.7-81.6,65.35-111.64,109.39a695.11,695.11,0,0,1-119.52,134"/><path class="cls-1" d="M1431.21,3377.37c1.79-153.38,3.62-306.89-4.92-460.05-5.6-101-11.74-214.32,55.56-289.82,55.9-62.68,150.58-79.56,232.33-60.44s152.94,68.87,217.44,122.66a1560.31,1560.31,0,0,1,258.6,275.69"/><path class="cls-1" d="M2585.25,2543c-18.65-15.3-44.4-17.82-68.46-18.87-210.7-9.84-420.18,34.59-623.42,90.89-55.84,15.44-111.91,31.91-169.71,35.24-48.69,2.75-97.46-3.76-145.37-12.89A1394.85,1394.85,0,0,1,988,2371.48"/><path class="cls-1" d="M2349.37,2325.72c-156.73,78.66-302.14,179.5-462.87,249.64s-345,108-511.68,53.16c-63.24-20.77-121.56-54.16-178.39-88.8a3762.55,3762.55,0,0,1-584.78-439.41"/><path class="cls-1" d="M868.6,3323.15c-27.05-55.28-17.09-120.66-6.44-181.19q22.57-129.23,45.11-258.33c9.64-55.22,20.4-113,55.15-156.93,50.37-63.69,136.94-82.56,215.14-104.33A1391.21,1391.21,0,0,0,1692,2353c68.11-56.64,133.7-124.75,153.67-211"/><path class="cls-1" d="M2406.73,2130.61c-227.84-62.72-488.6,17.29-642,197.1-41.89,49-77.08,105.49-129.92,142.58-93.67,65.7-220.89,55.55-331,24.28C1013.6,2412,772.12,2205.42,585.81,1968"/><path class="cls-1" d="M2456.43,1902.84a1408.35,1408.35,0,0,1-584.3.1c-193.35-41.17-382.48-123.76-579.84-111.93-63.91,3.77-126.78,17.53-189.33,31.24Q888,1869.32,673,1916.36"/><path class="cls-1" d="M2161.49,771.2c-56.87-17.15-116.46,13.92-164.81,48.38-181.09,129.29-310,317.84-471.15,471.07C1311,1494.51,1037,1635,746.23,1690c-106.66,20.13-223.17,27.61-317.94-25.49"/><path class="cls-1" d="M1892.22,357a672.45,672.45,0,0,0-178,143.88c-19.84,22.67-38.29,46.87-50.69,74.3-18.63,41.21-22.58,87.36-26.15,132.51-13.87,171.89-30,352-124.63,496.32-32.57,49.71-73.41,93.3-114.17,136.62-55.73,59.41-111.85,119.15-176.78,168.41-66,50-140.08,88.34-215.61,122.06a2156.12,2156.12,0,0,1-481.85,150.19C418.58,1801,310,1813.2,210.8,1854.77"/><path class="cls-1" d="M2293.67,959.36a1961.72,1961.72,0,0,0-378.26,291.85c-82.69,81.71-158.93,171.43-254.14,238.06-182.13,127.36-412.45,156.87-631.23,195.4a5786.33,5786.33,0,0,0-706.74,171"/><path class="cls-1" d="M2598.74,1663.84c7.81-3.85-7.59-10.34-14.7-5.39-131.67,89.84-293.59,122-451.43,144.08q-146.91,20.62-294.94,32c-52,4-104.17,7.21-156.32,6.26-56.8-1-113.29-6.62-169.93-11.06a3898.82,3898.82,0,0,0-1198.56,92.2"/><path class="cls-1" d="M2659.27,2046.28q-259.84-4.24-519.64-8.62c-78.92-1.34-157.92-2.64-236.43-10-79.14-7.47-157.6-21.08-235.89-34.8q-191.15-33.27-382.17-66.5"/><path class="cls-1" d="M2519.78,2313.15a3177,3177,0,0,1-1137.09-335.5c-70.58-36.35-139.84-75.33-211-110.45a2217.47,2217.47,0,0,0-358.79-140.1"/><path class="cls-1" d="M2707.07,2480.93q-84.65,20.23-169.33,40.59c-61.05,14.6-122.37,29.35-184.79,35.27-200.33,19-398.69-53.09-576.31-147.64s-342.71-212.28-525.36-296.75c-244.37-113-517.34-163.17-785.87-144.59"/><path class="cls-1" d="M2689.67,2169.55c-298.73-103.89-641.53-4.83-887.26,194.34-42.54,34.52-83,71.88-129.29,101-147.29,92.66-339.12,90.06-503.53,33s-307-162.31-444.78-268.61-275.71-216.23-435.5-285.17"/><path class="cls-1" d="M2539.67,1858.74c-205.27,92.9-428.33,172.32-651.49,141.58-79.28-10.91-156-35.45-232.23-59.91q-231.32-74.19-462.61-148.51c-111.63-35.88-227.66-72.12-344-57.8-64.29,7.94-125.54,31.05-187.21,50.64-96.34,30.48-196.27,52.78-297.48,57-91.87,3.91-126.44-11-198-58.66"/><path class="cls-1" d="M105.12,1885.6c102.84,38.1,217,8.94,322.66-20.28,91.56-25.42,183.26-50.79,272-84.67,66.11-25.26,132-55.53,202.59-60.25,44.16-2.93,88.35,4.34,132,12q202.22,35.5,402.47,81.7c174.13,40.25,347.58,86.64,525.38,105.18s362.36,8,526.77-62.06c25.1-10.75,51.28-24.34,63.74-48.5"/><path class="cls-1" d="M2635.17,2178.6l-973-353.44c-63.17-23-126.6-46-192.32-60-83.06-17.73-168.69-20.81-253.72-18.53a2047,2047,0,0,0-706,146.56"/><path class="cls-1" d="M2331.48,3088C2290,2905.3,2152.3,2758.33,1998.4,2651.5c-49.95-34.71-103.39-66.63-162.79-79.81-73.53-16.26-149.82-2.56-225,2.61-300.55,20.67-594.65-97.85-852.89-253S265.39,1973,5.23,1821.07"/><path class="cls-1" d="M179.88,2437.1c117-9.46,223.13-78.43,300-167.13S608.37,2073.7,655.24,1966c31.43-72.13,63.76-148.5,126.55-195.81,64-48.2,150.4-57.9,229.59-45.47s153.67,44.64,228.42,73.53A2984.44,2984.44,0,0,0,1977,1979.9c180.77,20.68,368,24.18,540.47-33.77,52.6-17.67,107.25-44.62,131.9-94.27"/><path class="cls-1" d="M1987.23,954.25c-151.26,23.29-267.74,145-354.2,271.33s-158.05,267-275.43,365.25c-167.27,140-399.21,170.54-617.33,174.78A3493.94,3493.94,0,0,1,198,1734"/><path class="cls-1" d="M123.41,1795.55c87.91,1.4,204,17.51,288.15-11.63,69-23.87,124.69-68.16,198.63-87.3,179.86-46.36,370.06-38.11,551.82-7.75,241.46,40.32,475.55,118.07,717.27,156.54a2250.74,2250.74,0,0,0,743.49-6.31"/><path class="cls-1" d="M2279.93,1095.55C1880.61,1578.46,1250.06,1861,623.88,1837.6c-99.47-3.7-200-14.67-298.12,2.35"/><path class="cls-1" d="M1984.59,569.92c-165.51,93.81-289.1,249.9-372.93,420.63-29.32,59.77-54.59,122-92.38,176.8-48.06,69.48-114.71,124-183.82,172.64A1808.42,1808.42,0,0,1,719,1618.58c-102.55,24.62-207,40.25-311.21,55.79Q300.5,1690.42,193,1706.43"/><path class="cls-1" d="M2245.39,2945.11a1530.72,1530.72,0,0,0-434.92-294.45c-357.64-160.8-775.33-183.73-1100.73-402.46C504.42,2110.3,343,1898.55,108,1821.54"/><path class="cls-1" d="M116.34,1773.7c52.8,1.74,121.58-10.09,170.14,8.91,60,23.55,120.84,91.31,167.41,134.53,103.39,96,195.83,203.15,295.53,302.86,156.87,156.76,346,301.08,566.72,322,145,13.75,289.66-27.42,426.75-76.93a3408.2,3408.2,0,0,0,437.9-194c63.28-33.5,127.6-69.72,198.82-77.64,99.81-11.11,196,35,285.91,79.79"/><path class="cls-1" d="M275.22,2457.21a1803,1803,0,0,0,276-271.71c84.14-102.92,156.95-215.3,249.53-310.72,157.28-162,363-266.62,564.93-367.39,47.9-23.89,96-47.78,146.71-64.77,59.16-19.83,121.1-29.8,180.51-48.75,193.77-61.88,344.28-212,486.84-357"/><path class="cls-1" d="M2270.25,3095.08c-17.49-124-83.13-240.13-178.57-321.13s-219.63-126.94-344.76-130c-38.41-.95-77.25,2-113.93,13.13-86.79,26.49-156.85,100.86-179.82,188.54-45.29,173,83.22,350.06,61.68,527.54-10.24,83.91-52,176.12-5.76,246.86"/><path class="cls-1" d="M1217,3532.36q82.4-79.29,164.77-158.44c53.76-51.66,108.31-104,173.62-139.82,109.88-60.44,247.08-68.7,363.5-22,93.07,37.44,171.81,107.2,268.22,135"/><path class="cls-1" d="M976.87,3343.25a3215.29,3215.29,0,0,1,403.38-525c54.92-58,113.1-114.71,183.37-152.54,116.09-62.41,254.81-67.62,385.56-51.54s258.66,51.86,389.63,66.24,270.08,5.67,383.63-61.05"/><path class="cls-1" d="M2731,2408.84c-277.85,103.14-589.3,113.66-873.5,29.43-60.33-17.9-122.59-40.22-184.66-30.06-71.07,11.58-127.93,63-189.63,100.06-129.74,77.79-292.72,93.42-438.33,52.16S771.71,2423.54,681.63,2302C643.31,2250.26,611.44,2194,572,2143.24,469.39,2011.18,321.32,1923.47,177,1838.88c-23.21-13.65-49.39-27.74-75.71-22"/><path class="cls-1" d="M315,2450.51c176.56-121.87,241.74-363.74,422-480,130.63-84.17,299.47-85.91,450.74-50.2s292.18,104.8,439.13,155.32c300,102.87,626.83,126.09,938.38,66.72"/><path class="cls-1" d="M1993.61,495.17c-136.49,96.51-276.36,196.65-366.38,337.45-75.17,117.51-110.76,256.34-182.46,376.07-98.47,164.4-260.22,283.2-434.6,362.6S647.6,1694,460.94,1737"/><path class="cls-1" d="M2310.43,933.91c-81.83,41.65-162.72,88.23-226.68,154.1-52.4,54-92.07,119.43-146.17,171.73-90.09,87.16-212.49,130.83-331.54,169.74-114.88,37.59-237,64.07-349.15,108.38-111.78,44.21-215.06,103.83-331.59,137.09-107.43,30.75-219.28,42.89-330.38,55q-132.53,14.43-265.1,28.77"/><path class="cls-1" d="M2244.86,855.72c-30.91-4.52-59.45,15.68-83.72,35.39a2324.35,2324.35,0,0,0-419.58,442.83"/><path class="cls-1" d="M2450.56,1296.56a1811.81,1811.81,0,0,1-598.49,195.08"/><path class="cls-1" d="M2633.1,1515.12c-115.34,69.73-249.22,104.69-383.5,116.48s-269.52,1.3-403.27-14.88c-6.42-.75-14.54-3.2-15-9.68s13.48-2.81,8.17.84"/><path class="cls-1" d="M2701.83,2207.86c-378.51-128.84-743.36-292.92-1116.09-432.35"/><path class="cls-1" d="M2682.22,2030.89A3718.46,3718.46,0,0,1,1557.71,1747"/><path class="cls-1" d="M2642.26,1864.85c-136.7-39.23-282.11-24.07-424.33-25.37-223.89-2.08-445.1-45.89-664.74-89.52"/><path class="cls-1" d="M2572,1532.81c-177,75.49-370.8,93-560.15,112.77-93.89,9.87-187.91,19.92-280.63,37.9-62.77,12.24-192,25.72-237.38,68.37,179.33,40.86,376.15,20.81,558.26,15.24a5102.23,5102.23,0,0,0,571.9-49.85"/><path class="cls-1" d="M2529.07,1332c-349,218.48-760.78,335.51-1172.54,333.13"/><path class="cls-1" d="M2648.87,1495.87a5842.06,5842.06,0,0,0-851,222.78c-63.21,21.78-127.32,45.29-180,86.49,5,6.39,16.42,6.06,21-.69"/><path class="cls-1" d="M2404.82,1031.14c-28.89-2.66-56.36,11.29-81.91,25q-291.52,155.93-568.44,337.16c-91.11,59.67-178,133.32-272.35,187-71,40.35-163.72,41.33-240.92,71.52l50.09-19.39"/><path class="cls-1" d="M2235.34,840.52c-269.51,316-634.25,549.52-1033.92,662.3a59.08,59.08,0,0,1,40.14-43.21"/><path class="cls-1" d="M2025.44,641.4a5883.43,5883.43,0,0,0-487.21,692.82c-28.51,47.53-56.61,95.63-91.7,138.52-43.39,53-97,97-152.82,136.71C1080,1761.35,809.43,1856.63,554,1797.12"/><path class="cls-1" d="M2083.88,688.12q-135.13,119.67-270.16,239.29c-67.53,59.84-135.36,120-191.35,190.75-119.21,150.91-183.65,348.91-338.14,463.47-80.07,59.31-177.25,90.35-273.55,115.81a3200.94,3200.94,0,0,1-481.4,88.44"/><path class="cls-1" d="M1955.37,610c-132,64.7-214.53,199.79-271.51,335.34s-96.56,280-177.34,402.95c-91.37,139.14-231.52,242.15-385.28,306.05s-320.86,90.47-487.18,97.33c-4.65.22-10.21-.2-12.29-4.3s5.92-8.85,6.77-4.31"/><path class="cls-1" d="M1859.14,396.42c-96.77,55.9-194,122.29-244.86,221.73-30.83,60.35-42.15,128.5-59.67,194-51.23,191.94-157.64,366.28-290,514.39S974,1597.62,809,1708.19c-61.27,41.05-130.1,82.19-203.43,74.33"/><path class="cls-1" d="M1757.4,345.36c-69.69,170.86-152.74,340.95-284.11,470.46-142.86,140.9-337.76,228.58-453.7,392.36C938,1323.37,903.88,1465,839.1,1590.46,750.92,1761.14,602.57,1868.11,414,1796.55"/><path class="cls-1" d="M1675.57,292.69c-2.58,216-146,404.73-304.5,551.54s-340.88,272.47-463.88,450.15c-57.76,83.54-100.72,176.28-142.43,268.8C732.51,1634.61,700,1707.67,647,1765.4s-131.11,98.5-208.5,86.24"/><path class="cls-1" d="M1577.66,299.95q-39.5,93.89-79,187.69c-25,59.51-50.63,119.89-90.78,170.49-46.36,58.47-109.52,100.65-168.56,146.29A1546.18,1546.18,0,0,0,959.61,1085c-54.81,71.29-104.3,149.94-120.4,238.36-12,66.38-4.82,136.73-29,199.66-24,62.34-76,109.8-131.68,146.7-126.78,84.15-281.6,125.35-433.38,115.33-14.26-1-32.3-6-33.42-20.2"/><path class="cls-1" d="M1347.65,276.53c-106.27,49.2-147.06,182.76-138.1,299.5s54.85,227.62,71.53,343.51c9.68,67.1,9.36,135.25,5.55,203-2.77,49.83-7.67,100.13-24.56,147.1-45.63,127.08-169.65,207.71-291.31,266.07-261,125.2-549.8,192.33-839.33,194.83-7.11.07-16.24-1.5-17.6-8.48s14.26-4.93,9-.17"/><path class="cls-1" d="M1409.17,197.66C1351.44,255.88,1293.44,314.24,1243.1,379,1120.8,536.26,1047.38,725.13,975.75,911q-47.7,123.65-95.44,247.44c-25.6,66.28-51.2,132.79-69.12,201.54-15.55,59.64-25.44,121.35-51.43,177.18-39.89,85.76-115.67,151.39-200.87,192.46S379.22,1789,285.09,1798.44"/><path class="cls-1" d="M1384.06,310.33A877.48,877.48,0,0,0,1315,767.86c15.7,131.62,61.17,265.42,27.79,393.76-42,161.92-196.54,266.51-346,341.61-254.59,127.88-545,215.86-823.58,156.31,5.88-2.59,11.89-5.13,17.76-7.72"/><path class="cls-1" d="M1336.28,73.47c-5.38-16-28.9-18.54-42.39-8.57s-19,27.35-23,43.66c-38.15,158.59,4.73,324.77,56.39,479.42s113.21,310.58,112.78,473.67c-.16,64.21-10.36,129.15-37.18,187.46-33.34,72.37-90.61,131.24-153.21,180.61-172.61,136.21-394,209-613.68,201.87-11.11-.4-26.6-10.24-18.82-18.16"/><path class="cls-1" d="M1525.11,254c-77.91,151.1-102.16,329.24-67.56,495.66,34.6,166.19,125.82,330.26,88.28,495.9-25.84,113.85-111.19,207.32-211.47,267s-215.2,89.83-329.19,114.91q-142.84,31.37-287.33,53.75"/><path class="cls-1" d="M2628.67,1555.51a2954.26,2954.26,0,0,1-917.28,185.14c-59.12,2.33-118.3,2.88-177.33-.74-84.67-5.29-168.69-19.33-253.42-23.69-97.54-5-195.38,3-292.68,11-120.87,9.93-243.61,20-359.71,57.19-50.85,16.28-95,40.55-147.15,49.57-55.78,9.62-117.69,5.5-172,23l39.41-12.64"/><path class="cls-1" d="M2594.95,1919.86a1645.63,1645.63,0,0,1-496,28.42c-306.78-29.21-599.25-144.07-904.06-189.09-106.49-15.72-214-22.95-321.43-30.09-156-10.35-317.65-20.09-464.06,34.88-10.75,4.07-22.85,9.88-25.7,21.05"/><path class="cls-1" d="M2719.75,2284.6c-248.67,80.56-531.49-5.32-728.56-176.93-81-70.5-150.5-154.84-239.57-214.86-94.86-63.83-206.81-96.71-318.1-122.44a3096.78,3096.78,0,0,0-1141.51-47"/><path class="cls-1" d="M2670.5,2356.31c-174.16,43.86-353.54-51.44-490-168.3s-254.07-260.07-413.42-343c-162.93-84.73-352.42-97.56-535.72-108.59-267.21-16.17-537.32-32.26-801,14-3.83.69-8.35,2-9.27,5.77s6.44,6.08,6.33,2.28"/><path class="cls-1" d="M2640.74,1824.59q-111.69,34.23-225.81,60.12c-76.27,17.32-153.57,31.91-231.64,36.35-264.16,15.1-519.46-84.63-779.12-135.39-364.22-71.13-747-44.6-1097.87,76.18-4.21,1.46-9.91,2.25-12-1.62"/><path class="cls-1" d="M2650.48,1968.15c-185.76,37.26-376.38,64-564.39,40.37-288.55-36.27-551.08-188.19-837.23-240.5C930,1709.67,603,1778.12,286.08,1846.38"/><path class="cls-1" d="M2360.27,1697.84c-191.45,60.29-384.36,121-583.95,142.45a1518.22,1518.22,0,0,1-277.17,4.38c-215.09-16.34-424-78.08-637.39-109.41s-441.89-29.34-631.58,73.36c8.83,3.55,17.57,7.14,26.34,10.6"/><path class="cls-1" d="M2643.91,2205.46c-208.48-114.42-445.09-164.94-677.77-214.06q-296.62-62.64-593.2-125.19c-85.89-18.14-172-36.28-259.11-47.19-215.85-27.05-434.61-9.42-651.4,8.3q-123.93,10.16-248,20.27c-7,.56-15.76,2.78-16.5,9.65s14.22,4.29,9-.31"/><path class="cls-1" d="M2686.66,2065.17c-117,17.38-236.23,9.19-354.22,1-231.91-16.16-465-32.38-691.53-84.68-69-15.86-137.2-35.1-206-51.72A2826.16,2826.16,0,0,0,1002,1860.42c-139.06-11.28-273.5-37.2-412.72-55.55Q401,1780.11,211.17,1770.24"/><path class="cls-1" d="M2684.57,2431.38c-313.52,50.22-643.4-8.93-919.92-164.92-120.93-68.23-231.23-153.85-351.78-222.62-354.27-202.1-775.2-247.57-1182.85-259.2"/><path class="cls-1" d="M2683.82,1730q-105.54,38.08-211.21,76.12c-75.58,27.28-151.7,54.62-230.95,68.1-134.1,22.71-271.44,4.71-406.18-13.32q-215.52-28.87-431-57.66"/><path class="cls-1" d="M2662.34,1610.64q-379.76,70.16-759.44,140.27c-200.31,37-403.11,74.23-606.38,61.31,12.08-1.38,24.08-2.71,36.17-4.09"/><path class="cls-1" d="M2450.09,1359.34c-131.84,132-303.42,220.25-483.33,269.47s-368.42,60.84-554.88,53.65c-112.29-4.32-227.31-15-335.15,16.88"/><path class="cls-1" d="M2355.69,1170.31c-85.24,81.83-171.59,163.92-271.93,226.27-344.27,213.91-799.54,167.47-1152.71,366.29"/><path class="cls-1" d="M2228.11,1003.85c-152.66,140.82-306,282.11-476.27,400.85s-359.49,215.16-563,256.51c-164.21,33.42-336.58,30.93-494,88.4"/><path class="cls-1" d="M2309.72,1005.56c-175.23,223.53-365.67,458.27-634.61,549.48-69,23.42-141.13,36.47-212.83,49.41-204.25,36.86-413,73.76-618.15,42.55-21-3.24-45.2-9.57-53.55-29.15"/><path class="cls-1" d="M2212.2,893c-79.59,199.78-240.69,356.82-415.81,481.78-323.91,231.13-711,372.59-1107.57,404.72"/><path class="cls-1" d="M2097.76,818.68c0,108.94-72.29,203.24-144.47,284.87-165.33,187-350.56,358.69-563.19,489.48S936,1812.66,686.8,1827.33"/><path class="cls-1" d="M2053.89,738.83Q1964.32,807,1880.17,881.65c-45.06,40-89.22,81.81-122.85,131.86-83.51,124.6-92.82,287-172.27,414.3-60.25,96.45-157.31,165.79-261.92,210.24s-217.59,65.92-329.82,83.7q-229.67,36.43-461.78,53.51"/><path class="cls-1" d="M2323.74,1357.58c-70.09-18.11-143.85-.32-214,17.45-136.09,34.44-274.3,69.8-395,141.29-76.32,45.15-144.19,103.93-222.69,145-160.34,84-349.62,87.41-530.59,81.36q-210.93-7-421.26-27.47"/><path class="cls-1" d="M2691,1626.82c-213.2,21.23-428.27,42.79-632.17,108.63-76.68,24.81-151.45,55.74-228.72,78.59-317.32,93.68-656.59,45.58-985,5.49-138.69-16.93-295.49-45.83-434.19-35.29"/><path class="cls-1" d="M1949.68,746.18c-160,102.78-288.2,254.53-362.88,429.43-41.07,96-66.76,199.59-123.74,287.14-98.15,150.61-273.05,230.74-442.74,289.91A3496,3496,0,0,1,500,1890"/><path class="cls-1" d="M2236.54,940.88c-143.26,54.29-298.3,118.54-370.64,253.6-25.76,48.21-38.84,102.1-60.52,152.21-73.74,170.08-243.48,283.3-421.82,334.18s-366.87,48.09-552.13,45q-117.7-2-235.45-3.94c-6.09-.14-13.13-.78-16.32-5.88s4.35-13.46,8.2-8.83"/><path class="cls-1" d="M1784.42,520.27c-167.19,190.5-207,456.78-285.51,697.73-16.35,50.31-35,100.6-64.23,144.67-26.54,40-61.17,74-97.67,105.19C1110.24,1660.7,806.69,1744.95,509.2,1755"/><path class="cls-1" d="M1583,372.68c-89.85,149.79-83.22,336.21-71.29,510.48s24.24,359-56.75,513.69c-58.55,111.89-161.18,195.78-273.51,253.57s-234.91,92-356.7,125.82q-165,45.84-330.12,91.81"/><path class="cls-1" d="M1510.26,206.29a3378.89,3378.89,0,0,0-26.86,885.55c7.49,73.6,17,150.69-10.62,219.4-21.2,52.91-62.66,95.36-107.73,130.22-103.59,80-229,126.07-353.56,166.35a5297.17,5297.17,0,0,1-677.32,170.42"/><path class="cls-1" d="M2111.65,918.58c-151.67,86.61-307.59,184.13-392.3,336.95-30.58,55.11-50.87,116-87.83,167.09-58,80-150.67,127.39-243.52,161.21-291.59,106.09-612.21,105.86-907.86,199.94"/><path class="cls-1" d="M2654,2008.49c-133.66,87.39-306.75,92.66-462.72,58.33S1889.91,1962.51,1740,1907.47C1393,1780.18,1016.91,1733.37,649.31,1771.64c-71.68,7.48-144.42,18.49-209.62,49.27"/><path class="cls-1" d="M2613.36,2655c-67.36,67.13-176.41,62.09-270.46,47.76-84.53-12.86-172.43-31.17-238.17-85.78-37.27-31-64.93-71.72-89.93-113.23-114.39-190.11-188.13-415.08-362.42-552.5C1471.72,1808.78,1224,1793.47,993.88,1796c-171.08,1.81-342.37,10.2-512,32.24"/><path class="cls-1" d="M2535.34,1677.66c-491.57,126.58-1011.61,141.11-1509.39,42.12-80.14-15.89-160.08-29.29-241.47-14.1-95.37,17.7-185.49,57.43-281.82,72.7"/><path class="cls-1" d="M2635.17,1966.26c-143.36,95.54-321.79,137.16-492.67,114.8-236.81-31-441-175.75-663.6-262.29-311.26-121.11-666.36-125.53-980.47-12.13"/><path class="cls-1" d="M2654,2315.36c-136.95,62-295.93,66.08-441.39,28.27s-278.3-115.31-395.47-209.5c-155.37-125-286.07-280.36-452.32-390.31-141.85-93.88-310.64-152.32-480.62-144.86-70.82,3.16-140.65,17.48-210,31.79l-380.22,78.4"/><path class="cls-1" d="M2592.8,1648.76c-128.9,12.31-258.68,24.87-383.2,60.37-125.27,35.79-243.88,94.55-371.83,119.41-178.18,34.67-361.42,1.36-541.6-21a4479.51,4479.51,0,0,0-1052.05-5.95c14.3-3.81,28.64-7.54,42.94-11.35"/><path class="cls-1" d="M2647.33,1411.58Q2288,1514.37,1928.66,1617.25c-58.44,16.72-117.1,33.45-177.2,42.21-55.24,8.08-111.18,9.16-167,9.47-398.76,2-809-40.12-1186.94,87.21l20.95-5.79"/><path class="cls-1" d="M2597.55,1489.48l-375.43,121.8c-61.88,20-123.76,40.08-187.14,54.35-216.53,48.44-441.57,26.67-663.43,25.42a3552.87,3552.87,0,0,0-845.64,97.21c-8,1.93-16.57,4.24-21.7,10.74s-3.68,18.32,4.3,20.28"/><path class="cls-1" d="M2324.43,1276.4c-81.91,85.49-164.87,171.78-264.54,235.59-116.23,74.4-250.53,115.15-384.87,146.72a3327.94,3327.94,0,0,1-503.08,78.06c-279.94,21.64-563.28,7.77-839.7,56.69,17-5.5,34-11.09,51-16.6"/><path class="cls-1" d="M2190.72,1304.69c-177.2,198.71-374.09,392.88-623.41,486.39-152.57,57.24-317.09,73.58-479.76,83.25A6308.92,6308.92,0,0,1,450.3,1880c5.65,1.85,11.33,3.57,17,5.42"/><path class="cls-1" d="M2571.08,1500.85c-255.64,165.9-578.28,174.59-882.74,188.17q-603.68,26.9-1203.53,106c9.81-2.65,19.57-5.4,29.39-8.05"/></g></g></g></svg>