<svg xmlns="http://www.w3.org/2000/svg" viewBox="0 0 2818.38 4149.84"><defs><style>.cls-1{fill:none;stroke:#e65498;stroke-miterlimit:10;stroke-width:1.75px;}</style></defs><title>brainbow-pink</title><g id="Layer_2" data-name="Layer 2"><g id="Layer_4" data-name="Layer 4"><g id="pink"><path class="cls-1" d="M72.71,635.91c41.18,9.14,72.2,44.46,89.14,83s22.52,81,31.59,122.22c36.8,168.28,134.67,322.51,271.31,427.4,54.38,41.71,124.59,77,189.29,54.52,60.82-21.15,93.95-84.94,121.23-143.19Q827.08,1069,879,958.24c11.29-24.2,28.44-52.15,55.14-51.39,22.4.6,38,21.66,50.26,40.35,141.31,214.16,335.48,411.73,585,471.61,100.32,24.11,204.63,24.68,307.71,22.07,252.55-6.44,507.23-32,746.63-112.95"/><path class="cls-1" d="M2760.56,1213.95c5-55-56-95.81-111.18-97.41s-107.95,21.56-162.53,30.25c-80.39,12.71-162.57-6.59-243.72-1.39-174.21,10.85-326.34,131.41-500.21,147.06-202.44,18.2-388.47-107.74-540-243.2-61.39-54.85-123.92-114.2-203.34-135.8-29.37-7.93-62.5-9.94-88.56,5.79-20.29,12.28-33.31,33.49-42.86,55.19-43.43,97.69-38.49,226.45-125.54,288.63-58.54,41.73-139.59,35.35-206.72,9.84-106.76-40.45-195.73-125.66-240.86-230.57C228.17,886.72,252.18,690.5,138.72,564.8"/><path class="cls-1" d="M333.86,527.61a3087,3087,0,0,0,154.91,833C642.18,1821,922.9,2260.14,1348.62,2493.06c156.47,85.61,327.87,141.18,484.24,226.78,204.8,112.19,378.69,273.14,540.85,441.1"/><path class="cls-1" d="M2321.75,3720.55c-37-31.68-94.9-11.05-133,19.33s-72.34,70.9-120.18,79.62c-31.65,5.78-63.94-3.63-94.82-13-181.14-54.69-383-127-460-299.85-39-87.45-38.16-186.66-54.71-281-32.13-183.12-129.79-347.06-225.61-506.31L681.41,1802c-186.16-309.45-376.11-628.58-434.08-985"/><path class="cls-1" d="M2812.64,2233c-119.67-51.84-262.43-47.17-378.61,12.27-82.72,42.34-153.62,111.17-244.34,131.27-134.35,29.7-263.5-54.56-389.88-108.83-99.29-42.62-205.31-67.87-305.47-108.48-266.17-108-475.44-317.49-691.93-506.26-155-135.13-321.67-267.25-416.32-449.82-64.81-125-91.6-269.5-76-409.44"/><path class="cls-1" d="M232.31,4018c-16.52-91.76,70.24-165.53,110-249.81,27.78-58.75,34.46-129,77.92-177.4,37.44-41.63,94.18-58.24,146.3-78.81,59.39-23.43,118-54.46,181.86-56.12,95.78-2.45,182.68,64.28,231.61,146.65s67.09,178.91,84.24,273.26,34.9,190.79,83.34,273.57"/><path class="cls-1" d="M1380.58,4020.93c-96.57-142.65-195-287.38-326.66-398.41-79.9-67.29-184.1-123.27-285.17-97-59.16,15.43-107.6,56.76-153.55,97.07-68.37,60.11-137,121.22-190.88,194.48s-92.78,160.73-93.77,251.75"/><path class="cls-1" d="M1347.47,4064.53q-86.8-111.88-173.49-223.76c-68.29-88.2-137.79-177.48-227.38-243.89s-203.37-108.3-313.09-88.21c-33.84,6.21-67.53,18.6-93.24,41.53-20.83,18.58-35.52,43.09-47.4,68.32-39.65,84.26-52.54,182.37-110.53,255.28-29.77,37.47-69.71,65.73-102.21,100.92s-58.37,82.15-50,129.25"/><path class="cls-1" d="M.49,3634.4c61.67,41.46,138.78,53.57,213.07,51.9s147.56-15.91,221.6-22.68c96.23-8.65,193.07-4.49,289.61-.28,82.54,3.56,166.57,7.42,244.42,35.13,149.88,53.27,262.38,199.17,275.59,357.66"/><path class="cls-1" d="M35,3588.58c119.3,67.44,266,84.74,397.63,47.06,75-21.47,144.85-59.79,221.24-75.56,148.53-30.82,306.68,30,415.72,135.31s173.33,250.17,206,398.28"/><path class="cls-1" d="M2057.66,3836c-118.36,16.46-248.77,15-344.91-56-119.22-88-147.63-250.63-177.23-395.84s-70-289.59-140.15-420.17c-44-81.89-99.21-157.12-151.09-234.26-182.62-271.48-325.57-567.92-506.39-840.63-122.54-184.81-262.5-358.68-368.39-553.55S192,918.08,221.63,698.31"/><path class="cls-1" d="M199.86,595.4c65,130.53,77.3,280.63,125.23,418.31s152.85,274.95,298.35,285.06c43.63,3,89-6.59,124.11-32.8,89.11-66.59,77-200.19,105.57-307.76,9.29-35.08,28.06-72.85,62.86-83.06,47.08-13.82,90,29.1,121.5,66.69a2530.75,2530.75,0,0,0,748.23,607.27c90.33,48.2,185.82,91.45,287.72,101.95,106.3,11,213.58-14.54,320.16-6.34,131.1,10,257.46,73.21,344.14,172"/><path class="cls-1" d="M2550.54,684.79c-49.94-82.65-170.25-97.89-258.33-58.1s-150.34,119.64-206.5,198.15Q1995.93,950.15,1914.36,1081c-69.41,111.32-138.86,230.24-251.66,297.15-40.39,24-86.44,40.57-133.45,39.69-64.61-1.23-124.09-34.6-176.85-72a1047.76,1047.76,0,0,1-296.81-323.58c-16.35-27.86-32.21-57.42-58.28-76.48s-66.06-23.71-88.91-.91c-17.85,17.75-19.89,45.48-22.47,70.61a593.86,593.86,0,0,1-50.74,186.06c-10.79,23.6-23.68,47.11-43.63,63.79-54.1,45.39-137.59,24.53-197.22-13.34a443.79,443.79,0,0,1-165.4-190.23c-27.74-61.26-41.14-127.9-54.23-194L337.31,679.59"/><path class="cls-1" d="M208.73,884.14C327.38,1271.7,537.49,1630.94,817.2,1924.36c155.16,162.83,336.16,308.16,548.81,381.33,161.14,55.47,333.51,67.43,500.26,103.15,284.85,61,554.34,193,777,380.8"/><path class="cls-1" d="M2497,2984.46c-127.37-146.37-261.46-297.58-440.73-372.09-59.12-24.57-121.66-39.91-183.6-56.07-151-39.26-302.46-83.91-437-162.9C1117,2206.29,937.11,1857.09,692.54,1580.15c-50.92-57.65-105.1-112.57-153.64-172.24-56.31-69.2-104.79-144.38-151.55-220.26-100.55-163-197.4-347.76-165.78-536.65"/><path class="cls-1" d="M320.46,538.13a1801.67,1801.67,0,0,0,113.72,530.72c19.66,52,42.73,104.32,82.18,143.47s99,62.42,151.8,45.25c53.65-17.57,87.27-71.22,105.9-124.45s27.12-110.55,53.68-160.39c14.75-27.84,37.86-54.54,68.85-59.81,37.74-6.43,72.68,20.36,98.53,48.52a473.25,473.25,0,0,1,98.68,165.75c15.81,46.06,24.65,94.89,46.54,138.39,24.53,48.94,64.22,88.43,104.43,125.68,173.85,161.36,374.89,300.68,603.37,364.54,99.75,27.91,203.47,41.09,301.28,75.24,176.36,61.56,327.43,192.7,413.11,358.74"/><path class="cls-1" d="M2537.14,2426.78c-107-61.85-214-123.7-318.6-189.47-116.18-73.07-233.19-155.13-301.25-274.24-22.25-38.94-38.62-81-61-119.77-24.28-42.19-55.11-80.21-86.35-117.53a6075.36,6075.36,0,0,0-688-700.39c-43.74-37.89-99.9-77.62-154.53-58.73-68.69,23.71-76.48,114.88-101,183.3-24.49,68.72-77.77,126.6-144.22,156.69-45.62,20.6-102.86,27-143.23-2.64-20.94-15.42-34.65-38.49-47.24-61.18A1550.12,1550.12,0,0,1,311.11,690.6"/><path class="cls-1" d="M2536.7,2556.39c-160.76,5.23-294.05-116.89-406.58-231.79-90.32-92.2-180.16-185.55-256.59-289.43-98.5-133.93-173.83-284-276-415.06-62.31-79.84-134.05-151.81-205.49-223.58q-219.15-220.07-438.39-440c-8.07-8.13-16.85-16.65-28-18.85-31.76-6.32-47.78,36.53-51.69,68.66-9.14,74.18-25.26,150.73-71.47,209.44s-130.28,93.47-198.25,62.37c-54.32-24.91-84.34-82.79-110.34-136.62Q355.49,855,217.18,568.64"/><path class="cls-1" d="M164.84,627A1970.41,1970.41,0,0,0,453.1,1228.37c19.55,27.53,40.49,55.14,69.18,73s67.06,23.83,96,6.65c18.1-10.77,30.35-28.87,41.78-46.68a2008.73,2008.73,0,0,0,125.29-226.13c30.33-64.08,74-141,144.88-137.49,39.31,1.9,72,29.76,100.14,57.11,86.75,84,163.89,177.95,254.8,257.36s199.7,145.13,319.82,157.66c73.37,7.65,147.17-4.71,219.86-17.05q268-45.58,536-91.28"/><path class="cls-1" d="M2652.06,1619.33a824.53,824.53,0,0,0-188.46-73.43c-290.07-73.52-613.42,11.54-885.35-113.53C1352.83,1328.68,1211,1101.63,1007.93,959c-34.11-23.91-81.7-45.17-114.68-19.71-14.3,11.13-21.85,28.7-27.19,46.07-19,61.47-17.07,127.25-29.61,190.38s-45.06,128.8-105,151.94-130.15-4.94-174.66-51.45-69.06-108.09-92.5-168q-102.38-261.6-204.67-523.2"/><path class="cls-1" d="M2500.29,812.65c-109.2-80.14-269.89-42.5-374.63,43.43s-169.95,209.1-245.45,321.5c-60.89,90.44-139.29,181.35-246.42,201.2-123.8,22.9-243.41-56.84-330.92-147.36s-162.17-198.26-272.71-258.69C975.79,943,897.38,931.42,860.42,981c-18.09,24.27-20.3,56.38-25.13,86.32-11.09,69.1-40.77,137.57-94.54,182.24S606.58,1310.3,545,1277.14c-53.66-28.93-83.78-87-110.77-141.62Q323,909.85,211.8,684.28"/><path class="cls-1" d="M29.18,3791.25C267.65,3752.73,438.92,3524.09,675.6,3476c170.2-34.62,357.66,39,458.82,180.23,92.76,129.48,110.75,296.42,125.75,455"/><path class="cls-1" d="M1840.46,3869.84c-218-209.57-328.9-504.4-422.86-791.77s-181.71-585.55-368.07-823.66c-73.24-93.56-160-175.49-242.43-261A3848,3848,0,0,1,313.67,1362.7c-49.69-79.27-96.78-161.15-124.91-250.38-45.36-144.31-38.46-299.47-23.9-450"/><path class="cls-1" d="M2448.12,2581.58c-40.86-85.14-138.84-128.37-232.46-140.84s-189.22-1.61-282.94-13.58a585.44,585.44,0,0,1-212.64-70.47c-49.85-28.05-95.16-63.35-140.25-98.46Q1395.1,2114.7,1210.46,1971c-61.73-48.05-123.56-96-184.3-145.37C846.66,1679.94,675,1522.16,535.81,1337.59c-157.67-209-233.29-425-291.32-675.53"/><path class="cls-1" d="M2617.86,3113.39c-109.34,7-189.91,122.8-299.5,125.17-73.09,1.55-138-49.77-178.79-110.41s-63.77-131.34-97.05-196.45c-79.39-155.4-215.05-274.7-357.55-375.43s-295.38-187.39-429.41-299.33c-126.27-105.58-233.37-231.73-339.9-357.29-205.36-242.18-412-486.06-569-762.07C269.43,1001.87,203.52,854.24,199,698.18"/><path class="cls-1" d="M37.53,3695.27a668.52,668.52,0,0,0,240-48.53c64.28-26,124.45-61.91,190.16-84.4,84.25-28.75,175.1-34.26,263.87-26.35,144.52,12.92,289.28,63.43,395.46,162.29s168.33,250.21,140.2,392.57"/><path class="cls-1" d="M1191.14,4081.72c-1.36-73.79-16.88-143.26-31.22-215.83-10.79-54.7-22.28-111.1-53.89-157-38.4-55.9-102.91-89.74-169.26-103.79s-135.1-10.3-202.54-4.1c-216.33,19.92-443.82,71.36-597.73,224.72"/><path class="cls-1" d="M1918,3842.44c-95.93-25.55-170.6-100.57-230.61-179.75A1245.87,1245.87,0,0,1,1483,3253.59c-32.2-112.72-48.35-229.38-73.46-343.82-91.62-417.4-306.49-806.9-610.67-1106.91-60.94-60.16-125.29-116.69-184.6-178.47-237-246.81-386.34-576.08-416-917"/><path class="cls-1" d="M2631.51,1441.3c-111.45-38.31-225.69-77.19-343.48-75-136.68,2.41-265.38,59.47-396.76,97.34s-281.32,54.31-397.58-17.56c-80.75-49.89-132.2-134.43-194.14-206.38a826.75,826.75,0,0,0-250.77-197.08c-40.38-20.54-90.33-37.49-129.13-14.06-37.7,22.73-46.66,72-61.72,113.36C831.3,1215.2,774.29,1277,703.23,1309.35c-46.95,21.32-103.85,29.42-149,4.42-27.54-15.25-47.46-40.88-65.7-66.52A1241.2,1241.2,0,0,1,281.31,758"/><path class="cls-1" d="M2514.07,2328.48a1254.64,1254.64,0,0,1-506.89-289.1c-71-66.67-134-141.41-196.63-216q-212.41-252.52-424.91-504.93c-115.42-137.08-232.76-276-380.95-376.82-11.37-7.8-23.54-15.49-37.25-17.07-25.53-2.94-49.16,16.63-60.15,39.84s-12.66,49.51-16.13,75a478.09,478.09,0,0,1-123.6,259.21c-30,32.08-67.56,61.17-111.33,64.79-77,6.28-135.88-65.29-175.88-131.44A2074.56,2074.56,0,0,1,247.86,682.89"/><path class="cls-1" d="M2239.26,204.34c-92.83-2.28-175.83,67.86-214.76,152.22S1982.4,537,1985.18,629.82s10.76,186.91-8.23,277.88c-33.67,161.09-156.94,300.4-312.67,353.4s-338.46,17.71-463.32-89.49c-94.62-81.26-159.51-201-273.35-252.07-8.53-3.83-18.17-7.23-26.84-4.06C891.1,919,885.89,929.32,882,938.75c-23.6,56.91-36.55,117.93-62.85,173.57S748.68,1220,688.8,1234.38c-51.49,12.36-106.65-5.85-149.23-37.28S465.1,1122,436.1,1077.73A1712.28,1712.28,0,0,1,227.21,630.37"/><path class="cls-1" d="M2186,2307.2c-324.56-163-689.23-225-1032.21-344.73-56.78-19.8-113.17-41.3-166.42-69.22-62-32.55-119.25-73.44-173.86-117.35-266-214.14-470.27-504-582.68-826.54-16.73-48-31.59-99.72-18.72-149"/><path class="cls-1" d="M2283.3,3457.18c-198.63-192.84-367.62-415.45-575.64-598.11-127.8-112.17-269.77-208.81-386.48-332.47-265.52-281.55-380-681.45-652.83-955.83-132-132.73-300.41-235.64-390.08-399.84C189.12,1007.82,192.76,810.78,214,626.09"/><path class="cls-1" d="M1178.43,4016.53c41.11-145.17,23.88-306.06-47.1-439.2-22.68-42.6-52-83.64-93.56-108.18-90.89-53.69-208.72-12.95-296,46.43s-165.65,137.68-267.33,166.08c-66.43,18.49-145.92,10.1-192.1-41.1"/><path class="cls-1" d="M2419.6,3389c-167.46-50.81-335.28-112.16-474.06-218.69-89.91-69.1-165.19-155.24-239.61-240.68q-415.89-477-831.77-954C698.77,1774.41,522.06,1571.37,392,1338.33S180.4,836.79,211.14,571.61"/><path class="cls-1" d="M2611.78,2498.61C2427,2531,2236.54,2449.95,2095.93,2325.7s-239.47-287.88-332.62-450.76S1579,1545.27,1449.42,1409.52c-42.19-44.22-88.15-84.72-133.92-125.21q-158.75-140-317.51-280.2c-32.35-28.61-79.33-58.5-114.81-33.88-19.68,13.68-26.45,39.24-31.84,62.59-24.55,106.12-67.25,229.91-172.71,257.34-80,20.81-165.07-28.34-211.76-96.62s-63.45-151.94-79.18-233.1q-32.54-167.72-65-335.44"/><path class="cls-1" d="M2161.14.43c-22.35,39.8-73.54,52.25-106.79,83.55-39.77,37.46-48.85,96.44-53.56,150.79-15.33,176.84-8.74,354.89-21.46,532.06s-46.1,356.63-134.67,510.42c-27.57,47.95-61.66,94.16-109.42,122-74.62,43.47-171,33.52-248.84-3.88s-141.19-98.75-203-159.1l-223.75-218.32c-21.69-21.11-48.19-44-78.1-39.2-28.46,4.45-46.72,31.92-60.6,57.24-42.8,78-79.27,161.11-139.79,226.35S628.22,1372.46,542.69,1348c-75.49-21.63-127-90.27-166.32-158.22A1280.52,1280.52,0,0,1,207.84,636"/><path class="cls-1" d="M1318.73,4014.79C1193.15,3848.7,1066.35,3680.72,983,3489.85c-47.47-108.68-80.09-223.2-112.61-337.31-37.78-132.77-75.77-265.94-96.78-402.36-33.11-214.12-24.46-433.8-69-645.83-27.14-129.06-73.56-253.16-119.76-376.65Q399.8,1233.28,214.63,738.76"/><path class="cls-1" d="M302.92,3872.11c20.05-95.28,95.2-168.95,174.09-226s166.28-104.67,231-177.26C837.16,3324.14,851,3111.4,839.25,2917.7c-24.72-406.4-132.15-802.76-242.94-1194.58-75.37-266.44-156.72-540.53-332.13-754.78"/><path class="cls-1" d="M1294.59,3943.5c-34.76-164.56-254.34-213-345-354.78-52.21-81.64-55.14-184.11-60.81-280.85C861.9,2845.19,736.57,2394.59,612.1,1948.18,510.77,1584.66,407.8,1217.37,224.75,887.28"/><path class="cls-1" d="M1302.82,4036.53C1176,3877.15,1048,3714.08,974.25,3524.35,849.39,3203.42,892.2,2844.14,838.17,2504c-92.27-580.9-462.45-1083.13-597.75-1655.5"/><path class="cls-1" d="M2228.74,3127c-25.08,57.92-55.58,115.2-102.6,157.32s-113.61,66.72-174.46,50.06c-51.73-14.14-91.49-54.59-128-93.87C1332.31,2712.71,928.25,2111,526.41,1512.13c-158.1-235.7-318.75-476.68-394.09-750.32"/><path class="cls-1" d="M2308.22,3043c-317.56-346.78-486.44-800.1-714.74-1211.19a4537.26,4537.26,0,0,0-597.1-835.62c-18.48-20.43-41.58-42.54-68.95-39.39-46.46,5.42-52.49,68.77-55.28,115.4a346.94,346.94,0,0,1-76.66,197c-13,15.91-28,31.15-47.16,38.52-42.06,16.11-88.2-10.32-121.86-40.21-92.94-82.58-150.16-197-205.16-308.39Q358.23,831.31,295,703.57"/><path class="cls-1" d="M2817.83,1966.86c-104.56,84.26-247.52,110.5-380.59,92.89s-257.78-75.41-372.8-144.59c-388.29-233.45-679.82-594.07-1009.89-904.56-34.89-32.79-81.4-67.48-126-50.28-32.09,12.39-48.68,46.93-62.3,78.46q-36.6,84.78-73.09,169.45c-26.26,60.74-62.24,129.66-127.55,140.94-66.8,11.5-124.7-44.3-167.46-96.91a2347.62,2347.62,0,0,1-355.7-605.11"/><path class="cls-1" d="M1313.51,3900.72C948.62,3611.56,757.72,3139,743,2673.75c-5.15-162.56,9.18-325.69-3.34-487.89-10.17-132-38.13-262.07-71.27-390.28a4856.37,4856.37,0,0,0-445.1-1122"/><path class="cls-1" d="M2312.52,3347.12a1587.89,1587.89,0,0,0-403.58-434.82c-168.41-123.91-360.12-213.51-528.23-337.81-173.24-128.07-318.1-290.38-456-455.86C583.37,1709,265.54,1247.29,199.14,718.23"/><path class="cls-1" d="M2380.91,2760.49c-282.07-186.29-523.58-433.76-703-720.24-109.76-175.33-196.25-364.37-304.12-540.92s-241.16-343.87-419.41-448.95c-26.64-15.66-61.37-29.76-86.81-12-21.67,15-24.7,45.12-26.36,71.44-3.66,60.44-13.37,127.32-60.22,165.64-40.92,33.46-101.09,35-150.56,16.38s-90.49-54.29-128.61-90.76A1920.17,1920.17,0,0,1,110,669.12"/><path class="cls-1" d="M1299,3969.76c-275.87-347.31-446.55-778.46-475.18-1221.12-8.23-127.53-5.07-255.57-15.11-383a1842.85,1842.85,0,0,0-138.57-569.49C526.3,1454.45,277.08,1148,233.5,779.72"/><path class="cls-1" d="M2308.87,429.93c-67.32,9.6-135.9,38.11-174.37,94.16-38.86,56.45-40.76,129.36-47.84,197.63-25.07,239.73-134.23,469.71-304,640.77-30.23,30.37-63,59.46-102.12,77-91.44,41-201.71,10.7-282.94-48.09s-140.27-142.26-202.38-220.91-131.78-156.35-223.88-195.84c-28.71-12.35-62-20.55-90.68-8.29-40.35,17.16-54.92,65.69-66.44,108A1623.69,1623.69,0,0,1,749.49,1264c-21.34,51.69-59.81,111.15-115.38,104.53-21.93-2.6-41.14-15.74-57.38-30.69-46.39-42.88-73.81-102-99.62-159.75q-89.5-200.07-172.89-402.78"/><path class="cls-1" d="M2571.73,2807.09c-212-76.42-402.53-211-545.35-385.36-195.83-239-296.22-540.19-450-808.23a2279.64,2279.64,0,0,0-517.8-616.22c-31.64-26.32-72.07-53.46-111.1-40-34.5,11.91-51.25,50.36-60.95,85.54-13.75,50.22-21.09,102.39-40.76,150.57S790.87,1287,741.2,1302.51c-91.85,28.82-179.47-52-237-129.09A1974.69,1974.69,0,0,1,221.91,640.7"/><path class="cls-1" d="M2199.08,3600.63c-53.64,6.13-107-12.73-155.83-36-225.47-107.79-392-309.73-521.88-523.18s-231-444-369.22-652.07c-59.39-89.37-125.36-174.2-189.72-260.12A8810,8810,0,0,1,200.82,918.47"/><path class="cls-1" d="M2332.32,3223.64c-29.7-134.15-65.4-269.13-134.85-387.66-136.69-233.5-383.94-374.5-596.84-541.5-256.1-200.9-471-449.3-718.64-660.6-138.06-117.77-286.2-224.06-415.74-351.22s-241.55-279.13-286-455.17"/><path class="cls-1" d="M285.69,3757c134-60.7,237.64-176.22,306.79-305.94s106.77-273.86,136.09-418c56.62-278.41,84.35-567.47,29.27-846.08-57.28-289.4-199.22-551.65-323.47-816.19-62.69-133.54-122.3-269.12-164.76-410.65-37.41-124.78-30-263-81.88-379.59"/><path class="cls-1" d="M123.3,3780.51c187.09-46.67,355.59-164.47,463.44-324.34,61.89-91.66,103.87-195.33,138.25-300.54,30.18-92.48,55-187.4,62.38-284.37,19.15-253-80.25-497.91-171.95-734.5Q352.7,1459,156.22,758"/><path class="cls-1" d="M100.43,3885.85c152-171.86,366.87-285.47,493.17-477,40.46-61.36,70.46-128.93,96.24-197.66,158.55-422,160-901.05,4-1324.08C545.49,1484.79,261,1131.82,187.57,709.36"/><path class="cls-1" d="M295.15,3966.36c26.53-142.07,162.55-231.26,277.27-319,117.4-89.85,226.44-198.57,281.43-335.82,65.84-164.4,47-349.53,14.68-523.65-92.25-496-283.71-966.91-462.92-1438.44-73-192.06-145.18-390.33-142.71-595.85"/></g></g></g></svg>