<svg xmlns="http://www.w3.org/2000/svg" viewBox="0 0 2984.78 2622.82"><defs><style>.cls-1{fill:none;stroke:#ed8921;stroke-miterlimit:10;stroke-width:1.75px;}</style></defs><title>Asset 4</title><g id="Layer_2" data-name="Layer 2"><g id="Layer_3" data-name="Layer 3"><g id="Layer_2-2" data-name="Layer 2"><g id="Layer_1-2" data-name="Layer 1-2"><g id="orange"><path class="cls-1" d="M2874.59,1719.08c65.05,70.49,130.24,162.57,102.93,254.55-23.1,77.85-107.87,131.09-113.75,212.13-3.86,53.63,27.73,113.83-3.39,157.72-13.48,19-35.71,29.33-57,38.76Q2683,2436,2562.66,2489.58c-37.19,16.64-75,33.38-115.25,39.54-94.41,14.4-195.14-37.36-238.29-122.58"/><path class="cls-1" d="M2778.87,1714c57.85,53.93,120.05,117.54,119.66,196.54-.35,71.1-52.36,132.54-61.3,203.1-6.57,52,10.78,106.23-3.3,156.82-10.85,38.77-39,70.35-68.88,97.34-68.11,61.24-152.22,107.07-243,119.05s-188.18-12.3-255.38-74.57"/><path class="cls-1" d="M2744,1793.81c30.14,6.21,40.38,43.34,44.37,73.82,13.68,106,22.27,214.16,3.24,319.39S2723.3,2395.26,2639,2461.1s-206.55,87.42-301,37.22"/><path class="cls-1" d="M2965.41,1832.2c-15.2,47.6-10,100.67-30.17,146.4-22.77,51.55-75.16,85.28-129.77,99.53s-111.93,11.81-168.24,9.27"/><path class="cls-1" d="M2440.33,2463.87c27.14,21.33,66.19,13.68,99.63,5.06,60.5-15.69,121.7-31.58,176.71-61,80.23-43,142.89-112.31,200.14-183.08,19.84-24.53,39.58-50,50.09-79.72,11.3-31.87,11.18-66.47,11-100.27-.19-30.3-22-333.77-94.57-277.1-11.14,8.77,4.34,53.77,3.82,66.08-2.42,59.12-34.68,113.12-76.72,153.09-40.75,38.66-90.78,66-141.43,90.1-22.73,10.85-47.26,21.4-72.28,18.46"/><path class="cls-1" d="M2813.15,1807.57c63.15,86.3,77.29,201.91,55.46,306.55s-76.42,200-140.28,285.7c-40.75,54.66-87.21,107.66-148,138.55s-139,35.49-194.63-4"/><path class="cls-1" d="M2824.05,1729.8c79,117.9,147.55,258.06,118.24,397-20.48,97.13-87.46,179.46-167.28,238.57s-172.48,97.9-264,136.09c-52.56,21.94-121.64,40.58-159.32-2.08"/><path class="cls-1" d="M2391.08,2486.78c21,38.47,72.53,51.74,115.06,41.07s77.75-39.7,110-69.5a1354.23,1354.23,0,0,0,204.73-239.52c42.4-63.27,80.65-133.92,80.56-210.12-.11-80.1-42.18-153.43-83.12-222.37"/><path class="cls-1" d="M2690.41,2051.76a465.93,465.93,0,0,0,96.74-120"/><path class="cls-1" d="M2799.36,1887.26c70.63,130.05,56,301.65-35.63,417.84-25.89,32.77-56.91,61.16-88.44,88.47s-65.25,54.62-106,63.08-89.76-8.33-104.1-47.44"/><path class="cls-1" d="M2625.87,2059.87c34,4,68.34-9.44,95.71-30s48.69-48.11,68.82-75.84c31.62-43.6,62.3-93.5,57.66-147.17-2.27-26.49-13-51.42-23.68-75.85"/><path class="cls-1" d="M2817.54,1712.24c74.36,25.43,103.43,113.94,115.83,191.56,9.17,57.44,14.74,116.31,4.91,173.57-15,87.5-66.14,166.33-133.27,224.56s-149.29,96.76-234.32,122.2c-72.26,21.66-157.7,31.91-216.9-14.82"/><path class="cls-1" d="M2312.93,2447.78c-3.31,45.72,48.28,75.09,93.34,83.71,135.37,26,283.49-33.41,363.18-145.92,22.8-32.15,40.66-68.36,68.89-95.94,31.4-30.7,75.08-50.18,96-88.72,24.32-44.66,10-100.87-14-145.61s-57.35-85.24-73-133.64c-20.61-64.17,45.8-125.9,13.43-167.69"/><path class="cls-1" d="M2833.15,1760.54a1176.79,1176.79,0,0,1,115.48,199.57c10.45,23.13,20.41,47.87,17.57,73.09-8.05,70.05-107.33,104.89-109.18,175.3-.4,16,4.61,32.27,1.41,48-3.88,18.53-18.39,32.72-32.21,45.71q-86.93,81.56-173.76,163.21c-28.43,26.68-58.35,54.27-95.89,65.11-43.82,12.68-92.5-.31-129.57-27s-63.72-65.59-83.58-106.67"/><path class="cls-1" d="M2779.39,1861.69c2.81,48.38,38.56,87.46,59.34,131.12,7.09,14.85,12.6,31.12,10.2,47.44-4.69,33.23-38.56,53-68.77,67.84l-63.1,31c-35.59,17.53-80.28,34.51-112.33,11"/><path class="cls-1" d="M2794,1881.6c83.62,34.47,135.75,132.14,117.91,220.75-7.66,38-26.34,72.87-46.32,106.1a1239.66,1239.66,0,0,1-118.85,165.26c-50.13,58.82-108.57,114.7-182,138.66s-164.65,7.85-209.16-55.37"/><path class="cls-1" d="M2368.87,2438.41c36.47,72.87,136.32,96.43,212.53,67.34s130.58-97.54,167.92-170,61.54-151.1,99.78-223c19.37-36.52,42.54-71.77,52.59-111.94,14.92-59.6-6.75-102-31.18-153.6-10.14-21.34-19.18-27.58-23.53-51.05-2.9-15.38,16.06-52.9-.12-66.1,39,31.85,62.49,76.3,69,126.26,4.1,31.07,5.21,64.37-9.41,92.16-8.4,15.85-21.32,28.84-34,41.42-34.08,33.82-74.25,70.08-122.17,67.28"/><path class="cls-1" d="M2794.74,1758.49c2.24,53.19,49.19,92.59,69.31,141.86,29.16,71.32-1.33,152.61-40.3,219-10.88,18.57-22.66,36.95-38,52-58.83,58.48-152.64,57.18-235.47,51.9"/><path class="cls-1" d="M2659.21,2335.27c12.08,12.12,32.57,11.49,47.52,3.3s25.56-22.26,35.77-35.93c12.69-17.08,25.48-34.16,38.17-51.34,22.21-29.84,44.52-59.79,60.71-93.19,58.53-120.08,23.72-278.26-79.72-362.7"/><path class="cls-1" d="M2825.87,1760.69c44.22,65.22,89.86,134.73,94.06,213.4,4.2,79-34.32,153.32-71.68,223.06-30.54,56.9-62.86,115.9-115.73,152.84-29.07,20.29-63.59,33.21-88.63,58.27-40.14,40.16-52,107.23-102.35,133.66-55.91,29.36-122.36-9.12-171.81-48.4"/><path class="cls-1" d="M2809.54,1837.9q47.49,61.35,95,122.8c18.65,24.18,38,49.76,42.11,80,5.56,40.87-17.69,79.61-40,114.36q-51.78,80.76-103.65,161.35c-24.85,38.66-50,77.82-83.4,109.33-78.43,74.2-201,97.59-301.24,57.52"/><path class="cls-1" d="M2626.57,2172.07q48.5-16.21,97-32.52c15.67-5.3,31.73-10.7,44.77-20.79,15.42-11.9,25.41-29.26,35.11-46.23q33.08-58,66.06-115.92c12-21,24.22-43.36,23.67-67.45-1.06-40.69-37.15-70.56-70-94.56"/><path class="cls-1" d="M2353.71,2414.32c54.59,77.25,95.67,88.89,189.89,44.49q78.37-37,156.83-73.9c30.21-14.19,60.92-28.89,84.67-52.34,26.43-26.27,41.91-61.37,56.69-95.56,27.89-64.48,56.34-134.26,42.1-203.07-16.51-80.5-89-145.13-89.45-227.23"/><path class="cls-1" d="M2336.3,282.49c-101.38,206.65-270.9,377.34-472.5,487.13-103.74,56.46-210.06,85.74-323,116.16-101.73,27.45-125,135.6-219.58,175.71"/><path class="cls-1" d="M2405.65,336.84q-110,106.75-219.94,213.41C2077.88,654.84,1967,760.75,1835.63,835.69c-62.27,35.5-129.09,64-199.4,79.17-79.89,17.21-89.54,25.77-146.25,86.64"/><path class="cls-1" d="M2500.07,370.34c-105.53,136.48-265.14,230-435.78,255.29-40.56,6.06-81.85,8.42-121.48,18.88-109,28.9-192.07,114.83-269.25,197"/><path class="cls-1" d="M1550.08,987c63.32-12.1,121.48-19.48,168.69-64.28,48.9-46.51,94-99,144.27-145.42,85.6-79,173.78-159.61,281.71-203.5,36.51-14.83,74.74-25.18,110.13-42.5,63.6-31,114.37-82.63,163.75-133.35"/><path class="cls-1" d="M2226,358.29c-53.73,120.85-109.14,244.3-200.84,339.59-29.8,31-62.93,58.4-96.05,85.81q-104.9,86.92-209.9,173.74"/><path class="cls-1" d="M2417.13,396.41q-48,52.81-95.93,105.71c-24.23,26.76-48.86,53.81-79.64,72.71-43.63,26.78-95.58,34.81-144.59,49.52C1924.3,676,1789.74,808.62,1662.85,936.53"/><path class="cls-1" d="M1644.34,948.22c61.26-84.49,146.23-136.64,214.15-212.27,77.35-86.1,176.51-139.83,275.24-197.76a2293.31,2293.31,0,0,0,283.14-196.32"/><path class="cls-1" d="M2391.74,382C2275.25,493,2115.79,548.1,1992.65,651.58c-65.35,54.92-119,122.16-172.2,188.9"/><path class="cls-1" d="M2302.28,341.2c-30.42,28.39-45.26,69.19-63.22,106.71-87.43,184-260.72,310.67-434,417.68"/><path class="cls-1" d="M2257,372.89c-71.18,82.06-120.15,181-187.61,266-43.65,55-94.74,103.71-145.53,152.13q-211.12,201.3-422.34,402.6"/><path class="cls-1" d="M2506.25,398.7c-106.62-18.52-217,15.19-309.65,71.18s-170.35,133-247.17,209.28l-342.73,340.5"/><path class="cls-1" d="M2182.19,265.87c16.82,81.19,4.17,168.28-35.06,241.33-27.38,51-66.5,94.33-105.33,137.28Q1861.42,843.79,1681,1043.19"/><path class="cls-1" d="M2398.71,298.89c28,24.52-2.16,68.92-31.62,91.6-113.94,87.83-239.26,163.83-332.76,273.13-112.07,131-176.64,307.53-321.85,400.46"/><path class="cls-1" d="M2549,297.93c-82.75,8.63-166.44,25-238.48,66.52-56.09,32.36-102.7,78.56-148.61,124.15-165.15,164.26-331,329.22-471,515.42"/><path class="cls-1" d="M2460.65,133.19c2.35,71.09,4.22,144.78-23,210.55-30,72.49-91.9,126.39-153,175.58-275.79,222.27-583.7,392.83-889,569.79"/><path class="cls-1" d="M2435.78,263.65c-67,142.43-189.41,249.71-308.56,352.58Q1994.3,731.08,1861.38,846c-56.49,48.86-120.61,139.27-188.93,168.51"/><path class="cls-1" d="M1457.48,15.41c-68.25,71.14-138.38,145.19-171.68,237.9-7.07,19.75-12.44,40.18-22.73,58.45-9.59,17-23.1,31.35-36.61,45.43C1074.17,515.47,901.76,656.27,774.1,835"/><path class="cls-1" d="M1484.64,181.52c-109.77,41.89-225.84,88.74-293.77,184.58-17.25,24.31-30.77,51.2-49.22,74.62-21.33,27.14-48.69,48.81-77.06,68.49C936.05,598.13,757.71,653.87,688,804.52"/><path class="cls-1" d="M1512.08.34C1475.14,87.88,1437.9,176,1383.7,254s-127.27,145.92-216.77,177.45c-41.61,14.67-85.67,21.15-127.48,35.21-155.17,52-256.95,197-347.68,333.23"/><path class="cls-1" d="M1439.78,30.41a460.46,460.46,0,0,0-64.18,190.91c-2.54,24.92-3.18,50.52-12.53,73.78-13.78,34.39-44.63,58.79-75.39,79.58C1172.87,452.12,1041.78,502,923.23,573.41,863.86,609.19,802,660.29,799.42,729.6"/><path class="cls-1" d="M1316.32,131a238.31,238.31,0,0,1-29.5,172.69c-72.64,118.77-228.75,149.26-344.36,226.8C892.87,563.8,850.24,606.37,808,648.74c-38.85,38.95-78.5,78.9-102.18,128.55"/><path class="cls-1" d="M1331.09,79.7c-30.48,66-3.65,148.53-36.74,213.34-13.63,26.69-36.2,47.63-59.78,66-70,54.25-152.13,90-227.33,136.55S860.53,604,831.76,687.71"/><path class="cls-1" d="M461,182.76c-42.7,31-61,85.59-68.52,137.74s-6.82,105.95-22.8,156.25C351.57,533.57,313.58,581.41,280,630.63c-40.62,59.56-75.91,138.89-38.72,200.65,32.55,54,103.83,66.54,166.28,74.84,103.29,13.74,209.91,32,296.28,90.31S850.5,1164.3,820.44,1264.09c-24.09,80.16-98,134.33-171.69,174-119.89,64.57-259.22,107.36-392.11,77.4"/><path class="cls-1" d="M1289.29,253.07a447,447,0,0,1-236.22,91.81c-108.85,8.9-217-22.41-326.15-22.82a580.73,580.73,0,0,0-308.64,88.17c-27.09,17-53.07,36.54-72.31,62C318,509,306.1,555.09,294.78,599.86q-22.53,88.95-45,177.89c-6.24,24.54-12.38,50.58-5.32,74.94,16.67,57.49,90.75,70.32,150.48,74.24,104.45,6.83,212.83,19.94,301.09,76.28s149.67,167.65,117,267.06c-16.48,50.31-54.12,90.85-93.8,125.9A848.9,848.9,0,0,1,337,1588.41c-45.74,9.69-101.12,12.45-131-23.46"/><path class="cls-1" d="M182.3,665.15q197.2-125.46,406-231.3c48.25-24.41,97.29-48.22,149.4-62.86,60.19-16.88,123.07-21.09,185-29.28,183.95-24.17,374.42-91.49,485.88-239.91"/><path class="cls-1" d="M1474.55,89.18c-69.15,101.44-180.93,199.56-272.8,282.15-105.5,94.88-220,178.91-331,267-50.74,40.22-101.38,82-138.84,135s-60.54,118.89-49.53,182.72c12.26,71.72,64,129.09,105.61,188.83s75.07,136.82,46.2,203.71c-17,39.41-52.77,67.34-88.42,91.27a1105.62,1105.62,0,0,1-483.06,179.39"/><path class="cls-1" d="M2047.28,576.74C1761.64,853.87,1324.92,930,1040.09,1207.88c-46.61,45.5-88.39,95.77-133.39,142.85C779,1484.73,610.08,1598.63,425,1592.31"/><path class="cls-1" d="M2323,416.87C2098,678.51,1757.56,857,1459.12,1024.5c-74.14,41.57-148.77,83.45-228.48,112.86-67.74,25-138.64,40.89-205.16,68.91C907.2,1256,808.24,1341.56,705.23,1418.22S487.87,1565.51,360,1577.53"/><path class="cls-1" d="M2149.62,520.68c-483.82,468.4-1089.75,809.67-1741.28,980.44"/><path class="cls-1" d="M473,1517c87.82-44.06,177.33-89.43,245.78-160s112.9-172.12,90-267.58c-13-54.62-46.76-103.4-54.42-159.06C746,869.52,770,809,798.79,754.68c57.61-108.87,135.49-205.57,221.43-293.32,82.46-84.23,168.62-138,261.2-204.57"/><path class="cls-1" d="M2240.24,507.6q-97.47,99.47-202.08,191.69c-79.75,70.31-162.83,137.54-255,190.33-215.62,123.48-470,162.2-692.88,271.93-140.56,69.2-265.75,165.3-398.42,248.65s-277.61,155.68-433.73,168.57"/><path class="cls-1" d="M1510.35,277c-286.63-3.37-565,66.11-841.53,139C509,458.08,346.1,507.82,216.82,610.85,177,642.5,138.88,683.05,133,733.59,125.33,800.44,176.81,860,233.14,896.75,319.8,953.2,423.56,977.54,526.05,991c73.86,9.63,155.92,17.81,205.67,73.29,55.8,62.15,45.94,163.11.09,233s-119.16,116-190.28,159.92c-85.76,53-181.91,108.26-281.33,90.7a37.59,37.59,0,0,1,18.39-33.12"/><path class="cls-1" d="M2968.17,1716.78c28.23,82.12-11,176.27-76.81,232.9-82.65,70.93-193.4,94.74-299.13,90.21"/><path class="cls-1" d="M2941,1784c-3.53,74.22-27,148.78-73.88,206.28s-119,96.36-193.2,95.24"/><path class="cls-1" d="M2831.13,1805c24.2,16.15,35.09,45.88,42.07,74.13,16.22,65.9,18.88,137.28-7.22,199.85s-85.17,114-152.85,117.68"/><path class="cls-1" d="M2894.31,1816.56c18.05,102.29,3.55,211.18-46.67,302.1s-137.17,162.28-237.91,187.62"/><path class="cls-1" d="M2356.6,2428.3c-10.64,8.87-21.29,17.84-31.83,26.7,100.6,62,232.84,68.81,339.32,17.63s183.59-159,197.94-276.17c5.51-45.54,2.21-91.92,9.42-137.16,3.94-24.93,11.18-49.57,11.82-74.88,2-73.21-49-136-97.12-191.18"/><path class="cls-1" d="M2804.31,1785.53c6.64,69.06,32.06,134.8,48.09,202.4s21.9,141.66-8.9,203.86c-46.2,93.5-159.06,132.72-226.15,212.55-29.68,35.29-49.41,77.62-73.76,116.77s-55.11,76.85-97.7,94.73c-67.92,28.43-205.31-48.09-234.83-113.2"/><path class="cls-1" d="M2845.36,1762.41c6.2-.44,11.13,5.13,14.27,10.61,24.17,42.75-.38,97.5-34.55,132.72-62.39,64.1-151.71,92.67-237.25,118.92"/><path class="cls-1" d="M2895.59,1861.15c4.18-3.13,10,1.54,12.34,6.22,10.23,20.83-2,45.41-15.19,64.5-65.39,95-162.23,168-271.6,204.74"/><path class="cls-1" d="M2851.5,1768.83c.07-5.2.23-10.4.3-15.6,21.86-6.64,40.81,16.64,49.44,37.79a260.73,260.73,0,0,1-110.53,324.51c-15.54,9-33.7,16.52-50.93,11.63"/><path class="cls-1" d="M2870.59,1798.71c110.87,89.09,45.72,237.91-9.85,336.87q-32.93,58.56-65.75,117.22c-22,39.34-44.4,79-73.28,113.57-78.3,93.6-197.6,142.16-315.39,174.12"/><path class="cls-1" d="M2805.66,1808.72c48,29.59,73.17,89.23,68.63,145.46s-35.71,108.23-78.07,145.5-95.11,61-149.31,76.65"/><path class="cls-1" d="M2835.76,1777.23c15.93,5.2,28.42,18.12,37.21,32.36,33,53.49,21.59,123,.16,182-46.68,128.7-136.46,241.38-251.49,315.61"/><path class="cls-1" d="M2619.53,316.78c-88.26,6.26-195.08,50.15-276.77,84.57a1122.41,1122.41,0,0,0-286.09,174.73c-39.29,33.05-76.66,69.09-106.09,111.08-33.3,47.51-56,101.46-78.41,155-26.4,63-53.09,127.44-57,195.57a300.3,300.3,0,0,0,11.75,101.93"/><path class="cls-1" d="M2416.87,321.41,2091.38,620.89c-211.86,195-447.83,326.17-710.7,440.45C1131,1169.94,870.13,1274.5,669.54,1464.89"/><path class="cls-1" d="M1993.2,753.09c-480.56,289.57-1036.28,460.53-1462.06,826"/><path class="cls-1" d="M310.55,1595.75c129.06-7.32,249.27-67.79,357.22-138.88S876.19,1302.74,990,1241.51c120.39-64.87,252.74-103.72,380.43-152.53a2558,2558,0,0,0,767-461.61c-281.18,254.7-600.79,458.34-961.54,575.85-117.16,38.15-238.68,66-347.82,123-90.6,47.28-170,113.29-256.64,167.54C484.94,1548,412.58,1601.49,310.55,1595.75Z"/><path class="cls-1" d="M1407.87,62.71c-58.75,134-155,249.09-265.91,344.5s-236.61,172-364.46,243.13"/><path class="cls-1" d="M1484.12,67.92c-57.78,65.27-115.36,147.14-194.11,186.44C1145.07,326.59,976.1,379,813.47,390c-70.67,4.75-142.59,2.61-211.28,19.75C536.29,426.28,476,460,419.75,498.13c-60.94,41.29-119,89.06-159.84,150.32s-63,137.61-47.66,209.61c3.5,16.28,13.93,35.71,30.41,33.41"/><path class="cls-1" d="M1033.68,267.7c-138.13-3.62-277.75-7-413.18,20.74S352.37,378.65,265.15,485.91C199,567.43,162.44,672.47,163.71,777.36"/><path class="cls-1" d="M758.87,227.66c-202.39,18-357.34,182.69-542.81,265.67-48.76,21.81-100.66,38.44-144,69.82S-5.31,645.65,1.82,698.6c5.88,43.06,37.9,78.76,75.34,100.72s80.31,32.49,122.08,44.22a1981.29,1981.29,0,0,1,496.49,215.53c68.87,41.86,142.65,102,140.07,182.51-2,62.11-50,112.42-98.23,151.63A1068.38,1068.38,0,0,1,251,1615.41"/><path class="cls-1" d="M1040.8,270.26Q869.25,278,698.35,295.45C566.93,308.89,433,327.74,315.94,389c-74.55,39-139.5,93.89-203.76,148.3C86,559.46,59.47,582.13,42.05,611.64s-24.07,67.56-8.47,98c10.63,20.83,30.13,35.61,49.31,49.09a1460.13,1460.13,0,0,0,431,207.61c77.75,22.7,159.16,39.58,226.64,84.25s118.71,126.64,98.71,205.07c-10.73,42.07-39.91,76.86-71.42,106.66C665.22,1459,527.18,1517.26,386.22,1523.26"/><path class="cls-1" d="M2225.26,495.9c-116.65,86.65-207.58,192.43-328.55,275.4a2002.67,2002.67,0,0,1-431.08,224.26c-99.16,37.13-201.28,66.29-299.53,105.61a1557.76,1557.76,0,0,0-443.48,271.14c-68.82,59.94-132.5,126.15-207,178.82S353,1643.07,261.78,1639.65"/></g></g></g></g></g></svg>