<svg xmlns="http://www.w3.org/2000/svg" viewBox="0 0 4422.34 2588.82"><defs><style>.cls-1{fill:none;stroke:#ffe927;stroke-miterlimit:10;stroke-width:1.75px;}</style></defs><title>Asset 2</title><g id="Layer_2" data-name="Layer 2"><g id="Layer_1-2" data-name="Layer 1"><g id="gelb"><path class="cls-1" d="M4295.05,474.31c-391.8,32.9-785,66.11-1168.55,152.26C3025.34,649.32,2924.41,676,2830.59,720,2743.15,761,2663.5,816.53,2582.44,869c-392.85,254.62-825.3,442.1-1262.24,610.37"/><path class="cls-1" d="M4399.59,835c-293.75,24.08-588.94-19.64-883.61-13.76-525.44,10.45-1038.08,178.63-1507,416-245.51,124.27-484.89,269.1-751.77,336.11"/><path class="cls-1" d="M4166.9,420C3924.81,454,3679.67,480.24,3436,460.1c-392.81-32.39-764.79-183.42-1147.79-276.68S1479.45,60,1136.25,254c-301,170.13-500,491.7-814,636.41"/><path class="cls-1" d="M2496.25,2140c194.77,135.56,423.43,221.9,659.2,248.8,60.15,6.92,122.56,9.72,179.74-10.35s108.17-67.59,116.09-127.64c13.17-98.89-85.81-173.16-174.3-219.19-491.44-256.07-1063.91-389.62-1457.11-780-52.23-51.87-100.59-107.66-155.3-156.81-67.59-60.67-144.31-110.58-223.5-155.18-174.94-98.51-366.42-173.08-566.48-191.51S465.33,771.06,301.06,886.51"/><path class="cls-1" d="M112.76,50.5c106-24.88,218.79-3,318.47,40.87S619.73,200,707.44,264.61q447.15,329.54,884.71,672.17c82.51,64.57,172.32,143.9,173.79,248.7,1.21,80.59-53.62,153.55-121.85,196.48s-148.51,61.25-227.1,78.85q-117.58,26.4-235.07,52.7"/><path class="cls-1" d="M1344,952.06c132.55,48.09,264.55,100.41,383.33,176.36,169.8,108.42,307.07,261.15,471.92,376.79,239.38,168,526.51,251.24,787.66,383,138.85,70.11,276.33,159.84,351.3,296.16,15.38,28,28.18,59.22,25.08,90.94-7.41,76-96.77,114.12-173,119.41-244.3,16.86-468.18-136.41-639.9-311"/><path class="cls-1" d="M146.17,631.5"/><path class="cls-1" d="M3832.86,1902.89c-516.18-10.9-1054.5-58.87-1494.14-329.67-192.13-118.27-357.36-274.62-530.58-419.07s-360.4-280.4-576-346.73-466-53.43-647.2,81.13"/><path class="cls-1" d="M358.16,3C474.56-13.71,578.89,70.32,666.4,149q287.1,257.82,574.1,515.65c104.2,93.54,208.4,187.17,309.82,283.63,82.1,78.08,162.41,158.17,249.87,230.11,107.27,88.22,224.45,163.57,342.72,236.52q450.28,277.93,924.6,514.11c65.91,32.78,133.22,65.75,186.45,116.61s90.89,123.72,81,196.69c-14.13,104.19-123.48,175.79-228.57,177.36s-203.53-51.2-287.73-114.17S2658.88,2167.7,2568.53,2114"/><path class="cls-1" d="M3619.45,1964.75c-75.84-5.92-149.09-28.95-221.64-51.89q-509.39-161-1018.88-322.1c-187.38-59.2-376-118.7-570.83-144.26s-398.4-15.35-579.51,60.81"/><path class="cls-1" d="M3741.29,1704.77a2960.9,2960.9,0,0,1-791.23-17c-287.47-45.21-566.75-132.62-852.7-186.62s-586.88-73.25-863.71,16.31"/><path class="cls-1" d="M3656,2041.32c-275.23,12.56-545.6-77.12-794.46-195.33s-483.11-265.62-733.64-380.12c-55.66-25.45-112.62-49.38-172.7-61.4-57.37-11.43-116.28-11.76-174.77-10.18a2652.54,2652.54,0,0,0-409.13,43.41c-80.71,14.92-163.28,34.74-229.88,82.77"/><path class="cls-1" d="M3712.59,2106.26c-112.95,8.32-225.24-21.06-332.67-57.18-430.33-145-815.47-399.5-1237-568.31-53.14-21.26-107-41.22-162.85-54-139.81-31.81-285.51-16.78-428-1.57-103.43,11-221.21,30.61-276.15,118.87"/><path class="cls-1" d="M3767.47,2045.21a1054.16,1054.16,0,0,1-375.74-36.6c-70.43-20.05-138.51-47.42-206.38-74.68-275.51-110.64-551.52-221.38-815.7-357.1-138.86-71.31-276-150-427.12-189-177.5-45.67-369.52-33-539.38,35.74-67.23,27.13-115.49,79.84-180.53,105.85"/><path class="cls-1" d="M4310.19,700.42a5460.87,5460.87,0,0,0-1262.87,56.06c-115.28,18.64-230,41.07-343,71C2265.65,943.88,1865.7,1171.54,1477,1405.73c-99.82,60.14-200.63,121.48-312.11,155.8"/><path class="cls-1" d="M4168,861.83c-533.83-113.39-1090.27-39.44-1621.79,84.56-100,23.34-199.6,48.38-296.18,83.09-137.19,49.28-266.76,117.31-394.61,187.12Q1585.59,1364.15,1322.89,1524"/><path class="cls-1" d="M4249.47,446.5c-172.72-50-357.23-3.12-529.4,48.68a9075.61,9075.61,0,0,0-1918.54,829.47c-123.25,71.19-245.48,144.27-377.85,197.72-116.9,47.15-204.48,98.11-336.53,106.75"/><path class="cls-1" d="M279.33,844q262.74-9.63,525.49-19.36c164.06-6,333.33-11.33,486.61,47.29,164.4,62.85,292.53,192,424.48,308.5,364.36,321.58,790.73,566.76,1234.41,765,146.82,65.66,311.21,142.22,364.48,294,8.76,24.94,13.84,52.91,4.3,77.57-10.43,26.67-36,44.33-61.74,56.8-130.1,63.33-290.09,34.25-415-38.85s-221.88-184.69-316-294.69"/><path class="cls-1" d="M130.65,628.9C401,607.67,671,661.9,936.72,715.76c96.23,19.49,192.75,39.17,285.17,72.28,93,33.31,180.81,80,264.35,132.92,96.59,61.18,194.6,140.76,217.72,252.72,6.6,31.86,6.22,66.36-8.79,95.26-15.71,30.4-45.38,50.79-74.67,68.38a1083.07,1083.07,0,0,1-367.42,138.35"/><path class="cls-1" d="M4224.06,460.66a1409.15,1409.15,0,0,1-444.37,37.74C3541,480.52,3311.17,402.19,3075.2,361.79c-189.41-32.39-382.37-40.36-571.78-72.85-155.37-26.61-307.75-69.74-463.89-91.24C1395.16,108.92,733,408.65,298.59,892.83"/><path class="cls-1" d="M317,871.15C646.33,499.34,1120.09,271,1610.39,191.48c79.52-12.91,159.86-22.12,240.36-22,113.8.07,226.72,18.65,338.56,39.74q160.1,30.18,318.74,67.47c105.36,24.73,211.24,52.15,307.06,102.44S2996.92,505,3040.85,603.79c25.47,57.34,35.5,125.18,10.07,182.54-40.91,92.16-153.51,125-253.21,140.52-160.84,25-325.39,33.18-481.3,80.27-221.28,66.91-411.78,207.83-621.16,306-100.9,47.25-205.88,81.72-310.44,119.48-96.68,34.92-151.46,38.37-253.39,2.12"/><path class="cls-1" d="M301.59,747.31c300.18-207.92,614-411.83,969.46-495.3,400.91-94.16,820.44-27.34,1224.65,51.58,177.22,34.67,360.38,74.3,505,182.68,57.68,43.23,110.15,101.4,120.71,172.73,13.38,90.62-46.16,179.4-123.24,228.89s-169.28,68.26-258.85,87.86c-341.83,74.78-679.69,176.14-993.1,331.75-164.28,81.55-325.56,179.08-506.58,207.94"/><path class="cls-1" d="M1486.59,1526a6949.12,6949.12,0,0,1,962.92-344.05c129.67-35.83,263.06-69.08,375.6-142.8S3027.45,841,3019.89,706.66c-5.42-96.47-60.48-185.42-134-248.15S2721.84,356.46,2630,326.34c-301.13-98.48-623.48-104.72-940.32-110.1-166.82-2.84-335.54-5.46-498.31,31.18C985.8,293.73,799.48,400.33,619.78,510.47Q434.67,623.86,253.89,744.22"/><path class="cls-1" d="M3644,1931.6c-291.75,9.26-582.58-42.08-864.86-116.78-339.08-89.84-689-228.21-895.48-511.69-62-85.21-110.07-182.2-187.62-253.51C1587.34,949.81,1436,914,1291.71,883c-217.8-46.71-448.88-89.94-659.12-16.59"/><path class="cls-1" d="M289.59,951.15c181.59-53,290.65-231.72,428.93-360.8,227.15-212.05,543.63-294.28,847.63-358.72,193.74-41.14,390.71-78.3,588.48-67.46,109.34,6,217.27,26.61,324.71,47.23,183,35,366.76,70.26,542.75,131.54,100.43,35,197.8,78.34,299,111.09,309.25,100.43,650.84,98.35,958.88-5.82"/><path class="cls-1" d="M.47,475.23c81.54,52.28,176.9,78,270.46,102.88,135.13,36,270.57,72.07,408.42,95.59C851.64,703.1,1028,713.07,1196,761.5s332.32,142.88,416.1,296.35c37.54,68.86,56.69,154.54,23.24,225.46-32,67.71-103.92,106.77-174.26,132.52-103,37.66-211.64,56.45-319.63,75.14"/><path class="cls-1" d="M126.37,21.32c21.83-11.24,46.91-14.1,71.4-15.16,184.15-8,362.58,74.79,506.52,189.77s259.07,261.35,376.28,403.61S1320.68,883,1475.13,983.63c43.08,28,88.54,52.94,126.66,87.49a327.85,327.85,0,0,1,92.43,145c6.54,21.26,11,44,5.62,65.57-12.19,48.68-66.54,71.83-114.14,87.93q-210.15,70.94-420.4,142"/><path class="cls-1" d="M345.45,847.83C523.12,732.7,746.21,715.15,957.86,722.15c104,3.44,209.78,12.36,306.14,51.55,83.52,33.87,156.37,89,226.53,145.66,90.77,73.22,186.06,164.92,187.2,281.51.33,35.9-9.34,72.86-32.16,100.51-20.54,24.83-49.84,40.42-78.35,55.4Q1347.16,1472.15,1127,1587.66"/><path class="cls-1" d="M210.59,832.29C642.88,687.73,1132.92,725,1538.36,933.42c83.88,43.07,174.31,110.39,172.61,204.7-1.62,90.71-88.22,154.47-169.26,195.18a1447.71,1447.71,0,0,1-326.36,117.49"/><path class="cls-1" d="M218.18,775c66.46-54.23,159.33-58.32,245-59.87l204.08-3.7c162.58-2.94,326.87-5.79,486.18,26.8a1109,1109,0,0,1,368.08,147.88c61.65,38.81,120.65,85,159.64,146.58s55.5,140.75,29,208.62c-37,95-143.3,142.12-242.35,166s-206.07,36.12-286.78,98.33"/><path class="cls-1" d="M2497.91,2118.92A3047.3,3047.3,0,0,0,2781.42,2355c76.06,55.92,162.51,110.66,256.77,104.56,72.27-4.66,140.9-48.2,176-111.53s35.48-144.63,1-208.41c-25-46.24-65.82-81.78-107.33-114.12A1635,1635,0,0,0,2653,1775c-179-64.06-371.83-98-532.39-199.91-76.51-48.51-143.11-111-209.21-173.07q-107-100.42-214-200.94c-121-113.63-243.26-228.25-385.21-314.35S1005.14,743.8,839.6,757C748.74,764.33,643,812.21,636,903"/><path class="cls-1" d="M227.75,909.89c281.71-109.1,593.9-95.89,895.7-81.12,146.15,7.17,302.82,18.07,417.31,109.14,71.87,57.14,118.29,139.35,173.66,212.5C1846,1324.47,2031.74,1450.79,2227,1548.15s402.28,168.64,603.53,253.25c89.94,37.83,179.81,79,255.8,140S3224.23,2086,3241.54,2182c10.58,58.93,2.79,123.48-33.31,171.22-66.34,87.93-198.94,89.07-304.93,58.85-179.23-51-338.68-168.54-440.38-324.7"/><path class="cls-1" d="M3637.29,1752.24c-170,14.19-341,28.48-511,14.06-326.38-27.62-635.83-159.74-919.58-323.44S1659.2,1083,1380,911.73c-85.84-52.65-173.66-103.29-268.48-137.09-331.16-118.19-711.75-21.46-1039.47-149"/><path class="cls-1" d="M2545,2046.82c43,250.43,287.48,450,541.43,441.75,131.38-4.24,277.39-80.37,294.46-210.78,16.4-124.81-94-233.8-212-277.85s-247.7-45.62-367.94-82.65c-83.37-25.67-160.54-67.78-236.11-111.19-157.68-90.4-312.31-187.81-449.07-307.44-221.54-193.89-396.36-446.18-652.79-590.84C1233.13,778.15,827.36,706,605.69,884.47"/><path class="cls-1" d="M2562.91,2182c-2.57-11.48,11.67-21,23.18-18.65s20.08,11.77,27.93,20.52a1020.55,1020.55,0,0,0,286,222.78c77.76,40.7,164.06,71.85,251.52,64.7S3327,2411.13,3354,2327.65c20-61.63,4.47-130.73-29.09-186.12s-83.33-99.07-135.18-137.84c-385.85-288.34-914.77-352.07-1267.57-680-106.6-99.13-194.68-220.54-318.17-297.69-50.8-31.68-106.35-55-162.39-76A2307.68,2307.68,0,0,0,756.8,807.17c-37.21-2-78.21-1.9-107.06,21.68s-30.49,79.6,4.69,91.87"/><path class="cls-1" d="M120.76,833.77Q273.45,691.49,426.25,549.21C516,465.54,606.48,381.46,710.37,316.09c258.67-162.75,579.46-195.4,884.5-175.65S2200.24,227.68,2505.18,248c129,8.58,259.56,8.84,384.87,40.44,147.64,37.26,281,116.21,423.3,170.5,331.41,126.49,713.83,112.35,1035-38.21"/><path class="cls-1" d="M4330.9,279.08C4072,370.73,3797.9,435.69,3524,413.23c-277.55-22.73-539.56-133.66-812.13-190.82-328.65-69-668.19-59.14-1003.83-49-285.35,8.62-592.25,24.68-817,200.72C775.08,465,692.36,590.4,597.17,702.81S384.06,920.48,238.91,945.7"/><path class="cls-1" d="M194.59,879.15c69-69.84,139.8-141.1,228.43-183.46,75.57-36.08,159.79-48.92,242.72-60,77.84-10.3,156.18-19.3,234.7-16.7,175.64,6,344,69.9,503.92,142.89,95.58,43.59,191.89,92.28,262.69,169.83s112,190.19,78.75,289.8c-31.3,93.9-122.09,158-217.63,183.89s-196.38,20-295.12,13.78"/><path class="cls-1" d="M1188.34,1516.27c24.43,20.94,57.48,28.23,89.31,32.73,95.39,13.49,195.55,7.65,283.6-31.61s162.27-115.24,185.67-208.69c25.55-101.77-13.17-214.32-88.64-287.24-72.15-69.64-153.41-79-243.89-107.75-80.66-25.59-153.53-50.82-238.33-66.08-129.05-23.28-259.8-46.54-390.54-35.91C734.45,815.85,679.72,827.5,646,866"/><path class="cls-1" d="M1255.2,1556.74a735.69,735.69,0,0,0,268.68-50.59c93-36.49,184.46-100.08,212.65-196,32.2-109.51-31-229.11-122.2-297.63s-205.53-97.29-316.4-124.38q-85.79-21.05-171.47-42c-121.79-29.82-417.6-123.54-499.54,26.49"/><path class="cls-1" d="M1092.41,1434.68c178.34,6.46,367.76,23.75,538.57-38.14,165-59.75,305.5-173.55,467.77-240.49,256.33-105.74,545.85-87.19,816.06-149.41,90.17-20.78,187.33-58.1,228.1-141.26,30.9-63,21.52-138.44-.21-205.1-40.49-123.94-122.2-234-229.08-308.64-106.48-74.32-233.92-112.41-361.38-137.3-384.29-75.15-784.26-39-1163.76,57.73s-741.2,252.44-1096.05,418"/><path class="cls-1" d="M2613.76,2220.08c123.79,76.31,249.28,153.41,388.26,196.53s294.92,49.52,425.82-13.82c19.54-9.42,38.87-20.75,52.46-37.74,42.17-52.47,12.86-131.58-29-184.22-131.66-166-352.14-225.06-550.91-298.19-356.85-131.42-686.07-337.63-960-601.38-59.57-57.32-116.65-117.56-180.59-170.05C1519.43,913.54,1200,837.88,889.42,818.76c-50.62-3.08-102.33-4.75-150.94,9.56s-94.3,47.3-111.5,95"/><path class="cls-1" d="M153.9,855.46C435.23,702.86,666.73,466.18,957.68,333c304.22-139.25,650-154.65,984.23-139.59a5988.29,5988.29,0,0,1,1147.17,164c317.4,77.38,657.16,179.81,961.31,60.66,125.89-49.3,238.74-135,371.79-158.78"/><path class="cls-1" d="M51.23,689c235.76-7.31,457.58-113.72,655-242.79,73.1-47.77,145.57-99.73,229.31-124.47,15.77-4.6,33.25-8.11,48-1,10.13,4.94,17.49,14.09,24.25,23.15,131.21,172.87,233.8,375,410.61,500.79,66.6,47.38,141.83,82.2,206.25,132.49s119.58,121.84,122.2,203.52c3.6,110.18-91.6,203.79-197,236-69.07,21.14-141.57,21.5-212.9,15.86-64.63-5.19-110-25.7-164.81,14.35"/><path class="cls-1" d="M292,893.28c193.49-175,273.22-452.45,474.66-618.34,182.64-150.37,435.54-183.38,671.82-171.09s470.32,63.8,706.88,57.29c101.18-2.75,203.2-16,303.11.36,186.8,30.71,341.43,160.32,519.64,224.19,229,82,481.14,51.13,722.82,78.89,231.27,26.52,462.7,107.55,691.53,65.09"/><path class="cls-1" d="M4397.12,970.87a1061.19,1061.19,0,0,1-295.41-267.42c-51.44-68.27-96.12-144.39-165-195-107.51-78.82-250.82-80.4-383.78-89.65a2443.2,2443.2,0,0,1-550.34-102.65C2777,246.59,2556.68,143.39,2320.82,135.5c-139.83-4.71-278.35,24.68-418,33.47-179.93,11.35-360.18-11.6-540.4-14s-367,17.74-523.53,107c-249.5,142.3-374.18,427.3-482.68,693.3"/><path class="cls-1" d="M635.1,869.68c102.49-127.46,279.07-178.29,441.78-161.92s313.79,91,452.54,177.61c52.71,32.86,105,68.53,143.35,117.39s61,113.51,46.61,173.91-63.81,107.71-119.64,135.07-118.15,37.55-179.6,47.41q-114,18.43-228.07,37"/><path class="cls-1" d="M2505,2077.77a1544.86,1544.86,0,0,0,347.7,375.09c57.38,44.23,119.25,85.14,189.07,104.3s149.29,14.25,208.53-27.53c40.12-28.26,67.75-70.63,92.68-112.89,51-86.13,95.37-193.71,49.8-282.82-42.53-83.23-144.22-112.88-234.09-138.41-246-69.93-482.29-169.62-717.83-269-75.81-32-151.91-64.13-221.49-108A757.28,757.28,0,0,1,2054.42,1478c-51.58-58.67-93.7-124.9-141.3-186.8-256-333.07-679.4-530.47-1099.09-512.39-49.39,2.12-101,7.85-141.77,35.81s-65.76,84.72-43,128.58"/><path class="cls-1" d="M332.59,997.82C436.68,917.55,501,797.74,581.25,693.63,843.58,353.25,1293.5,182.77,1721.92,214.84,1830.67,223,1938.5,243,2047.53,246.46c179.34,5.66,359-33.49,537.51-15.93,69.55,6.86,138.85,22.51,202,52.41,52.76,25,100.58,59.46,143.93,98.48,58.24,52.43,110.14,116.1,129.93,192,34.85,133.48-40,277.06-150.51,359.67s-249.67,115.7-385.83,137.87-275.48,35.86-403.45,87.38c-70.32,28.25-135.77,67.47-203.86,100.9-226.43,111.31-479.66,158.73-708.16,265.91"/><path class="cls-1" d="M608.28,945.76c-3.12-34.68,26.9-63,56.28-81.76,103.18-66.06,230-88.07,352.39-81.45s241.66,39.86,358.3,77.21c68.64,22.06,141.72,49.2,182,108.94,40,59.35,38.38,137.36,68,202.57,12.88,28.32,31.85,55.5,32.45,86.59,1.11,64.89-73.56,101-136.35,117.17a1710.59,1710.59,0,0,1-369.57,52.76"/><path class="cls-1" d="M4363.32,407.37c-645.54-51.68-1306.41,111.74-1853.51,458.24-294.22,186.38-556.41,423.86-866.7,582.14-76.05,38.79-154.94,72.69-237.5,94.22a844.57,844.57,0,0,1-194.33,27"/><path class="cls-1" d="M4333.49,465.27c-84.87-10.66-170.81-1.81-256,7.13-218.72,22.75-438.38,45.75-651.43,100.75-335.16,86.44-644.62,249.62-950.69,411.38q-289.73,153.2-579.56,306.31-315,166.56-630,333"/><path class="cls-1" d="M4327.35,960.81Q4254,884.93,4180.48,809c-60.2-62.22-120.8-124.83-190.53-176.29-188.09-138.8-440.3-186.59-666.12-126.15-74.67,20-148.78,51.35-226,46.34-109.15-7-198.74-83.83-289.23-145.06-220.36-149-487.41-219.69-753.19-230.7s-531.09,35.09-788,104.23c-69,18.54-139.65,40-194.46,85.84S983,489.83,1006.26,557.48c16.1,46.8,56,80.74,94.91,111.3A3169.71,3169.71,0,0,0,1601.84,991c71,36.75,152.23,82.13,165.23,161,11.44,69.13-38.73,136.25-100.62,169s-133.85,39.26-203.29,48.5a2279.18,2279.18,0,0,0-314.4,64.41"/><path class="cls-1" d="M2597.86,2125.88c108.28,89.81,217,179.82,336.73,253.66,72.08,44.34,151.34,83.54,235.94,84.6s174.81-46,199.79-126.88c19.5-63-4.15-133.08-45.58-184.41s-98.56-87.07-155.47-120.41c-299.23-175.49-620.39-309.75-940.45-443.51-75.3-31.42-150.7-62.94-229-86.14C1735.11,1424.18,1450.93,1444,1179,1492"/><path class="cls-1" d="M4284.64,1100.29a5021.1,5021.1,0,0,0-854.51-249.45c-172.52-34.1-348.89-59.27-523.88-42.26-318.41,31-605.55,197.87-878,365.71s-551,344.22-866.27,398.44"/><path class="cls-1" d="M4294.28,667.62C3762.54,568.41,3216.53,725.5,2715.93,930.5S1730.05,1391.6,1201.17,1505"/><path class="cls-1" d="M3369.92,1647.94a1596.94,1596.94,0,0,1-458.73,75.63c-263.08,4.48-521.07-56.37-773.31-124.77-226.6-61.45-448.39-153.14-684.93-158.93a678.93,678.93,0,0,0-189.76,22.21"/><path class="cls-1" d="M4219.25,1211c-210-223.66-515.87-338.41-820.8-372.67-86.46-9.75-174.09-13.59-260.53-3.74-216,24.48-412.27,131.63-607.56,227.18-291.5,142.66-593.53,263.39-902,364.07-69.86,22.75-140.42,44.6-213.26,54.36a666.51,666.51,0,0,1-123.87,4.89"/><path class="cls-1" d="M4392.84,738.49C3708,729.66,3021.59,858.75,2386.59,1115.71,2311.78,1146,2237.68,1178,2163.18,1209q-286.48,119.11-580.7,218.11c-106.27,35.68-218.06,69.79-328.77,52.4"/><path class="cls-1" d="M2527.59,2082.53c19.73,114.18,128.51,188.48,230.46,243.63,74.56,40.32,151.9,78.13,235.11,94.4s173.86,9.09,245.78-35.77,120.26-132,104.63-215.27c-14.39-76.91-77.27-135.81-144.23-176.38-206.7-125-468.5-123.91-682.52-235.85-159.64-83.48-285.35-226.38-453.27-291.61-114.09-44.37-239.32-49.47-361.72-49.09-77.6.3-155.19,2.59-232.45,9.28A2020.85,2020.85,0,0,0,1214,1464.8"/><path class="cls-1" d="M658.28,836.24c374.2-95.39,795.47,24.62,1063.15,302.82,57.78,60,108.61,126.61,167.89,185.23,78.5,77.7,170.5,140.31,266,195.91,498.87,290.62,1105.52,390.85,1671.4,276.14"/><path class="cls-1" d="M680.93,874.59c113.32-60.32,249.87-53.1,376.79-34.11q108.11,16.26,214.47,42.33c97.45,23.88,195.05,54.76,277.62,111.63s149.42,143.15,163.05,242.56c4.09,30,2.9,62.18-13.14,87.89-11.19,18-28.6,31-46.43,42.5-130.07,83.63-302.18,97.63-444,35.94"/><path class="cls-1" d="M1142,1483.26c213.34-26.46,417.42-122.77,573.48-270.67,28.73-27.18,57.71-61.07,55.26-100.55-2.67-42.58-41-73.64-78.3-94.4-74.17-41.43-156.62-65.1-238.37-87.88q-256.36-71.26-514.87-134c-55.29-13.45-113-26.58-168.39-13.73s-107.12,60.29-105,117.07"/><path class="cls-1" d="M4283.25,1195.8c-165.73-191.95-396.89-326.47-645.71-375.49-411.33-81.18-831,66.91-1215.43,234.16s-773.42,359.74-1192.44,372.92c-7.1.25-15.7-.4-19.24-6.58s7.2-14.95,10.15-8.46"/><path class="cls-1" d="M2558,2056.33c79.25,148,208.82,268.37,362.26,336.39,74.51,33,158,54.09,237.53,36s152-83.77,157.25-165.11c5.92-90.14-66.05-164.88-135.52-222.74a2499,2499,0,0,0-632.46-383.77c-54.25-22.75-109.28-43.5-164.31-64.25-131.62-49.76-264.14-99.72-402.61-125.33-226.37-42-466.13-18.52-681-101.35"/><path class="cls-1" d="M2488,2193.08a3672.2,3672.2,0,0,1,412.85,303.47C2958,2545.19,3025.19,2599,3099.21,2586c89.9-15.77,132.15-118.15,156.89-206,20-71,39.08-145,27.31-217.78-14.16-87.21-72.24-162.84-144-214.29s-156.52-81.6-241.58-105.66c-133.64-37.75-270.9-62.07-403.17-104.33s-261.87-104.53-357.42-205.12c-41-43.14-74.89-92.52-114.38-137.07-43.82-49.32-94.09-92.5-145-134.48q-142.66-117.89-292.75-226c-129.2-93.08-264.37-181.72-415.59-231.55s-321.77-57.55-466.45,9"/><path class="cls-1" d="M2475.14,2076.36q153.73,114.07,314.7,218.1c111.56,72.09,233.52,142.81,366.31,141.06,33.6-.41,68.46-6,96-25.21,45.44-31.59,60.66-91.16,67.44-146.16,4.56-37.13,6.62-75.24-2.81-111.48-21.83-82.86-98.48-137.87-171.27-183.11a3684.93,3684.93,0,0,0-920.93-409c-57.51-16.53-116.31-32.16-166.81-64.14-57.94-36.73-100.79-92.36-145.53-144.47C1820,1244.54,1715.34,1148.5,1611,1052.87c-44.56-40.82-89.32-81.93-140-114.81C1310.35,833.68,1104.17,821,916,857.2"/><path class="cls-1" d="M3756.09,1877.48a1707.45,1707.45,0,0,1-511.17-8.74c-353.49-59.74-680.78-229.46-1033.3-294.51-285.64-52.68-589.55-37.54-852.64-160.56-38.52-18.05-75.65-38.82-112.78-59.58"/><path class="cls-1" d="M1360.74,1343.86c259.67,150.35,579.58,136,870.26,210.55a1437.93,1437.93,0,0,1,539.43,269.16c96.39,77.09,182.67,166.44,282.23,239.4,88.82,65,198.05,133,207.05,242.78.54,6.6.59,13.7-3.18,19.22-4.56,6.73-13.24,9.08-21.23,10.54-126.66,22.91-249.61-47.51-359.14-115.21q-161.74-99.92-323.38-199.74"/><path class="cls-1" d="M3716.08,2157.84c-44.78,3.49-83.1,32-123.37,51.79-93.21,45.7-201.31,45.79-305.12,44.95-125.91-1-252.62-2.09-376.08-26.5s-244.92-73.93-336.42-160.36"/><path class="cls-1" d="M3640.46,1903.62c-277.78,35.87-563.22,30.6-834-41.08-221.18-58.59-428.13-160.07-633.48-260.86"/><path class="cls-1" d="M3672.59,2017.42c-493.42,30.35-971.51-155.7-1430.79-338.47"/><path class="cls-1" d="M3520.34,2167.79a9403,9403,0,0,1-1036.25-412.64c-109.23-51.2-218.27-104.91-313.85-178.5"/><path class="cls-1" d="M3691.16,1762.39c-79.83,10.51-123.25,24.09-197.47-10.64-81.85-38.28-164.48-74.15-249.77-104-169.48-59.42-346.93-98.09-526.68-104.44-135.23-4.74-271.15,8.53-405.65-6s-272.5-61.46-360.66-164.1"/><path class="cls-1" d="M2655.19,2209.82c87,75.65,175.58,152.28,280.29,200.51s229.62,65.14,334.92,18.26c49.56-22.12,96.89-65.12,97.14-119.42.19-33-17.21-63.59-36.58-90.27-79.5-109.49-198.67-182.14-314.51-251.9q-266.86-160.75-533.76-321.4"/><path class="cls-1" d="M3635.74,1946.85c-461-51.26-902.36-209.84-1338.77-367.36"/><path class="cls-1" d="M3627.13,2134.31c-66.05-39.48-132.51-79.16-203.89-107.9-68.38-27.56-140.39-44.7-211.71-63.55-370.23-97.64-726.85-240.06-1082.36-382.2"/><path class="cls-1" d="M3683,2152.75c-18.61,45.82-80.78,51.12-129.91,45.63-223-25-433.16-117.84-627.09-230.6s-375.18-246.11-567-362.29"/><path class="cls-1" d="M2950.77,2393.23a957.38,957.38,0,0,0,280.3-31.89c52.31-13.93,105.09-33.47,144-71s60.88-97.19,41-147.56c-14.54-36.91-48-62.49-80.25-85.59a3583.32,3583.32,0,0,0-954.83-487"/><path class="cls-1" d="M4242.93,1301.76c-56.21-48.74-112.53-97.58-172.31-141.8-269.68-199.78-612.34-301.9-946.55-271.36s-656.06,196.19-866.9,457.34c-14.49,18-28.86,37.08-34.12,59.62-16.06,68.7,55.29,124,118.4,155.65,297.46,149.2,642.52,235.6,864.7,483.39,35.35,39.48,67.43,83.57,81.66,134.58s8,110.05-26.64,150.17c-40.6,47.06-109.23,58-171.35,55.7-195.15-7.25-382.89-122.46-477.78-293.16"/></g></g></g></svg>