<svg xmlns="http://www.w3.org/2000/svg" viewBox="0 0 1797.09 2946.48"><defs><style>.cls-1{fill:none;stroke:#e52821;stroke-miterlimit:10;stroke-width:1.5px;}</style></defs><title>brainbow-red</title><g id="Layer_2" data-name="Layer 2"><g id="Layer_1-2" data-name="Layer 1"><g id="rot"><path class="cls-1" d="M880.21,2729.65c15.85,58.9,71.36,98.13,127,123a563.37,563.37,0,0,0,192.12,47.52c43.68,2.92,90.36-.27,126.55-24.94,71.11-48.64,69.72-151.24,69.67-237.31a1238.59,1238.59,0,0,1,126.19-543.16"/><path class="cls-1" d="M1508.21,2303.64q-56.55,107.54-113,215.12c-17.27,32.95-34.92,67.05-37.74,104.12-7,90.61,74.69,183.55,33.34,264.51-31.07,60.83-122.45,71-177.49,30.63-24.09-17.57-42.52-42.21-67.11-59.25-43.36-30.11-99.26-32.8-151.17-42.43s-108.43-33-126.72-82.56"/><path class="cls-1" d="M908.35,23c-20.87-3.09-39.15,16.77-44.11,37.33s-1.1,42.16-1.42,63.35c-1.32,77.09-58.1,141.43-117.11,191.14A1029.8,1029.8,0,0,1,470.84,481C394,544.47,404.74,690.13,311.3,725c-33.19,12.34-83.5,17.91-82.53,53.36.28,11.68,7.31,21.94,13.58,31.7,25.53,39.7,43.69,87.15,35.07,133.48-6.38,34.17-26.53,63.79-42.59,94.67C158.47,1184.65,177,1375.52,280,1504.62c20.55,25.77,44.86,49.78,75.08,63,58.67,25.74,127.34,6.8,184.47-22.2,47.54-24.11,99.54-56,150.31-39.76,77.12,24.62,84.21,134.64,145.41,187.73,46.63,40.42,115,40,176.68,37.35q85.36-3.65,170.81-7.24"/><path class="cls-1" d="M1197.6,256.79q-12.47-80.52-30.25-160c-4.16-18.7-8.88-38-20.95-52.88-24.57-30.37-69.49-31.8-108.57-30.81C957.32,15.29,862,26,823.41,96.61c-20.45,37.26-18.83,82-25.55,123.89C777,349.36,663.92,457.7,534.18,472.82c-22.2,2.65-45.6,3.08-65,14.11-27.4,15.73-39.38,48.08-52.66,76.69a430,430,0,0,1-98,134.75C298.09,717.42,275.11,735,262.4,760c-20.66,40.66-9.23,89.31-1.53,134.3a731.21,731.21,0,0,1-3.25,264.65c-11.56,58.57-30.12,119.9-10.81,176.32,23.85,69.67,102,119.37,99.94,192.91-1.35,51.86-47.57,95.54-98.62,104.23S144.3,1620,104.77,1586.52"/><path class="cls-1" d="M1181.95,293.76a346.85,346.85,0,0,0-42.08-208.52c-10-17.84-22.31-35.29-39.84-46-18.23-11.09-40.27-13.67-61.67-14.9C962.54,20,878.92,8.31,868,93.24c-10.41,81.68-23.23,146.48-84.33,208.32-63.26,64-148.79,101.17-235.42,125.45-44,12.28-93.9,25.2-116.64,64.87-14.32,25-14.31,55.42-19.18,83.95-13.09,77.55-66.72,147.06-138.37,179.36-13.51,6.1-29.31,12.69-33.82,26.82-3,9.06-.23,18.87,2.7,27.88,14.26,43.7,35.2,86.74,34.11,132.75-1.51,65.23-46.45,120.21-71.47,180.5-49.56,119.25-13.49,268.41,84.94,351.88,20.82,17.54,44.16,32.68,61,54.2s25.61,52.18,12.7,76.23c-21.68,40.46-82.17,33-123.71,13.32a453,453,0,0,1-133.39-96.48"/><path class="cls-1" d="M831.21,2446.37c-17.6,87.16-33.54,184.46,14.27,259.31,31,48.58,83.51,78.31,133.94,106.15,62.76,34.69,127.89,70.06,199.31,76.76s151.43-23.23,181.3-88.43c10.66-23.21,14.22-49,22-73.42,12.1-38.16,34-72.26,51.21-108.43,45.48-96.3,55.79-206.3,46.52-312.38s-37.09-209.62-64.82-312.43"/><path class="cls-1" d="M1425.74,2132.26c12.42,194.23-.68,389-13.8,583.23-3.63,53.6-10.3,113.62-51.71,148-36.17,30-87.81,30.79-134.56,26.82-107.78-9.14-217.74-37.75-301.51-106.13C823.2,2701.83,773,2533.22,802,2406.55"/><path class="cls-1" d="M833,2495.48c17.36,123.12,124.83,210.45,224.35,285q77.25,57.71,154.28,115.41c24,18,51.45,36.86,81.07,32.36,33.88-5.08,56-39.76,62.08-73.53s.73-68.47,3.62-102.67c6.39-76,52.22-142.5,73.22-215.76,33.59-117.27,17.32-253.16,28.49-374.23,9.55-103.62,30.31-190.35-9.7-290.25,2.93,7.31,5.9,14.76,8.82,22.07"/><path class="cls-1" d="M874.07,2464.79c-50.39,48.38-59.1,130-32.28,194.51S925.4,2772.14,988,2803s131.62,46.25,199.87,61.34c38.24,8.53,81.1,16.21,114.13-4.81,22.45-14.27,35.56-39.13,46.47-63.45,106.46-236.55,98-506.69,87.56-765.92"/><path class="cls-1" d="M1190.57,261.33C1172.92,141.34,1051,46.71,930.33,59.39c-20.71,2.19-41.76,7.37-58.36,20-27,20.48-37,55.56-48.87,87.28-48.11,128.5-154,234-282.66,281.66-23.36,8.71-48.07,15.91-67.26,31.91-44.69,37.36-42.83,106.07-69.42,158-35.18,68.61-118.38,103.53-150.1,173.74-15.93,35.35-16.71,75.41-17.29,114.23q-2.34,169-4.71,337.94c-.58,41.19-1,83.13,11,122.58,26.85,88,121,150.11,212.47,140.11,43.54-4.73,84.52-23.7,128-28.93,77.55-9.41,158.69,29.44,200.11,95.61,14,22.4,23.66,47.3,39.21,68.62,40.22,55.13,112.68,76.17,180.59,82s137.46.26,203.46,17.67c133.7,35.25,227.95,160.71,266.62,293.38,14.7,50.15,23,102.49,44.51,150.1,35.67,79.19,104,138.07,170.18,194.35"/><path class="cls-1" d="M1203.19,294c-9.16-76.74-21.26-159.66-76.08-214.13-41.25-41-99.83-58.31-155.75-74.24-17-4.8-37.51-9-50.83,2.7-8.35,7.47-11.28,19-14,29.8C857.22,228.85,697.84,387,506.65,434.55c-27.84,6.91-59.81,14.36-73.15,39.65C423.05,494,428,518,426.56,540.3,419.28,653.14,259.88,697,228.31,805.55c-23.35,80.28,32.42,162.95,30,246.59-2.62,93.7-77.13,187.81-37.79,272.89,23,49.8,78.92,77.36,104.3,125.91,33.67,64.56-4.78,153.73-73.26,178.54S99.9,1615,70.17,1548.59"/><path class="cls-1" d="M1206.66,379.15c-47-36.45-48.57-105.1-67.3-161.56-21.11-63.93-69.67-118.27-130.74-146.52-44-20.37-100.9-25.41-137.21,6.77C849.75,97,839.6,125.72,828.73,152.55,789,251,723.46,346.54,624.61,385.19,574,405,515,410,475.46,447.39c-59,55.84-46,155-89.81,223.41-40.79,63.62-128,96.43-145.23,170.09-10.27,44.33,8.92,89.61,13.39,134.93,8.4,84.59-34.93,166.31-37.58,251.29-4.05,128.78,99.19,252.21,226.67,271,86.55,12.75,181.52-16.4,258.59,24.81,67.3,36,99.79,115.61,161.52,160.61,67.06,49.05,156.42,49.61,237.39,68,151.69,34.57,288,145.11,337,292.72,19.94,60.15,25.78,124.74,51.59,182.55,28.71,64.32,82.31,117.24,147.1,145.09"/><path class="cls-1" d="M1694.48,2490.19c-40.79,61.47-89.61,109.43-118.77,177.15-30.06,69.84-83.31,116.15-154.38,144.57-68.36,27.37-142.66,35.55-215.79,43.44-82,8.86-172,15.9-240.22-30.5C886.2,2771,859.1,2675.78,833.38,2589.29c11.43,58.49,35.16,119.39,85.6,154.93,69.92,49.2,169.92,35.81,240.16,84.62,39,27.15,75.49,74.64,121.76,63.66,20.28-4.79,36.1-20.64,47.83-37.74,50.87-74.36,40.21-172.69,37.52-262.74a1203.33,1203.33,0,0,1,11.64-208.33c11.92-83.26,32.59-165.51,35.84-249.5s-12.71-172.67-65.91-237.71c-114-139.49-341.39-117.33-480.48-231.74-61.13-50.22-103.64-125.67-176.93-155.4-78.09-31.58-167.44-1.5-250.62-14.85-101.23-16.2-186.87-103.55-201-205.17-19.38-139.22,82.85-282,37.21-415-6.31-18.48-15.49-36.44-17.17-56C253,748.69,335.61,711.66,389.1,666.62,441,623,471.86,555.6,471.27,487.91c-.18-16.38-1.77-33.95,6.86-47.94,10.71-17.3,32.74-22.64,52.45-27.62,150-38,281.07-144.68,348.91-283.79,10.54-21.69,20.44-45,39.76-59.3,48-35.5,115.48,6.76,151.9,54.12,59,76.79,93.23,172.41,96.18,269.28"/><path class="cls-1" d="M877.25,2520.06c35.23,79.18,71.88,160.59,135.19,219.76,58.53,54.73,134.79,85.69,209.21,115.44,23.5,9.46,48.88,19,73.35,12.91,34-8.43,54.48-45,57.07-79.9s-8.52-69.16-16.59-103.15c-14.23-59.62-19.71-121.88-10.17-182.41,23.15-147.2,133.09-280.17,113.67-427.89-13.27-101.29-87.65-186.2-175.44-238.61s-188.6-77.55-287.48-103.37c-35-9.17-70.72-18.76-100-40-49.19-35.56-73.14-98.39-122.34-133.95-72.18-52-172-29.77-257-3.62-51,15.62-106.31,32-156.36,13.51-48.95-18-81.39-66.9-93.39-117.66s-6.82-103.88-.64-155.68c9.05-77,35.71-163.3,27.64-240.59-6.77-65-48.57-130.2-41.72-195.89C240.8,776.52,335,734.42,380.11,664.81c28.51-44,37.7-100.41,74.79-137.49,32.65-32.53,80.21-43.61,124.13-57.64,76.89-24.45,153.65-65.59,193.38-135.76,36.75-65,40.19-151.21,97.94-198.54,56.93-46.62,146.21-32.2,203.27,14.17s88.53,116.8,113.69,185.92c34.32,94.19,61,195.78,41.07,294-11.42,56.16-37.87,112.3-26.07,168.39,15,71.31,89.2,117,161.62,125.28,60.46,6.91,125-7.88,170.67-48.13,67.73-59.81,80.61-158.61,116.81-241.38a428.1,428.1,0,0,1,145.27-177.87"/><path class="cls-1" d="M1169.5,658.36c-45-85.7-59.86-186.81-41.42-281.77,12-62,37.89-123.26,30.3-186.05-8.68-72.07-65.8-135.67-136.48-152.15S871.85,53.87,832.28,114.74c-35.82,55-39.34,126.45-75.07,181.54-51,78.6-152.3,104.18-244.17,122.31-14.15,2.82-28.44,5.69-41.37,12-67.82,33.19-59.47,132.68-98.5,197.23-19.07,31.43-49.35,54.13-76.38,79-50.35,46.37-93.4,115.12-71.91,180,6.84,20.68,19.73,38.9,27.7,59.16,32.89,83.83-23.86,173.4-40.77,261.82-14,73.46,1,152.16,41.26,215.21,16.61,25.95,37.34,49.66,49.12,78.14,27.54,66.53-6.88,151.94-72.82,180.92"/><path class="cls-1" d="M914.25,2713.12a1137.21,1137.21,0,0,0,263.1,175.53c36.34,17.48,80,32.92,115.51,13.78,40.87-22,48.23-76.43,50.62-122.76q10.66-200.26,21.24-400.56c5.92-111.75,11.57-225.33-15.24-334s-91.53-213.35-192.66-261.27c-114.1-54-266.16-34.69-349.86-129.15-17.42-19.7-30.29-43.11-48.39-62.16-85.79-90.7-237.54-48.65-356.23-87.28-87.73-28.52-153.26-100.4-214.52-169.46-56.33-63.4-114.92-131.51-129.29-215.07-9.42-54.38,1.14-110,10.51-164.38,29.77-172,48.13-351.66-2.18-518.85"/><path class="cls-1" d="M1692.19,2421c-35.38-35.17-85.26-51.42-124.58-82.11-52.21-40.77-81.49-103.58-108.84-164L1350.3,1935.55c-20.66-45.49-42.32-92.53-80.12-125.25-86.8-75.29-220.37-48.63-328.87-86.19a283.2,283.2,0,0,1-112.05-72c-40.41-42.35-69.91-98.95-123.52-122.48-41.3-18.16-88.65-12.62-133.67-9.8-117,7.34-253.78-17.64-310.28-120.37-28-50.93-30.36-111.77-30.21-169.92A2850,2850,0,0,1,248,930.91c6.54-60.2,15.39-121.56,44.33-174.7C326.48,693.39,387.45,644,403.1,574.28c6.24-27.91,4.93-58.22,18.63-83.33,25.53-46.91,88-53.87,140.14-65.48,125.86-28.13,236.38-117.83,289.79-235.16,27.76-61,45-134,102.09-169.1,71.63-44.07,171,.32,215.57,71.65s48.91,159.77,52,243.8q5.89,164.38,12,328.77c3.1,85.64,16.75,188.37,94.37,224.91,42,19.79,93.08,12.8,134.12-9.07s73.39-56.82,101.92-93.55a843.13,843.13,0,0,0,152-313.17"/><path class="cls-1" d="M1691.19,640.72,1585.9,755.45c-39.36,42.89-79.85,86.65-131.26,114s-116.86,35.7-167.17,6.34c-50-29.18-74.32-87.59-89.93-143.31a896.68,896.68,0,0,1-32.91-237.26c-.33-81.69,10.58-163.67,1.44-244.92S1123.72,85.42,1055.64,40.24C1028,21.93,991.46,11,961.92,26.08,941.52,36.46,928.68,56.94,917,76.54c-90.9,152.17-188.32,322.94-357.15,377-32.34,10.3-66.82,16.08-95.7,34-39.13,24.24-62.34,66.95-83.71,107.68-32,60.9-64.86,125.54-61.08,194.24,1.09,20,5.3,40.11,1.52,59.71C311,899.72,254,926.52,230.72,972.45c-41.22,81.14,35.39,170.17,55.11,259,11.65,52.72,2.86,109.25,20.94,160.06,22.08,62.3,82.21,105.43,146.07,122.39s131.49,11.36,196.8,1.15c31-4.78,63.75-10.47,92.84,1,59.7,23.58,71.65,101.44,108.8,153.83,52.08,73.38,151.55,92.49,241.3,100.26s187.28,13,255.38,71.85c96.72,83.7,89.72,233.08,74.65,360q-26,219.11-52,438.14c-8.87,74.69-18.18,150.84-49.32,219.32-12.12,26.62-31.92,54.73-61.09,56.87-24.15,1.85-45.08-14.85-65.84-27.15-63.86-38-142.07-39.1-214.88-54.1s-151.3-54.82-167.93-127.25"/><path class="cls-1" d="M103.14,1563A369.84,369.84,0,0,0,267,1652.31c31.9,7.9,75.12,5.7,85.94-25.33,4.91-14,.91-29.59-3.83-43.74-34.9-104.45-108.13-203.11-94.79-312.41,4.09-33.91,16.6-66.2,22.79-99.79,18.6-100.42-19.5-201.81-27.26-303.7-1.46-19.31-1.74-39.36,5.41-57.41,10.37-26.3,34.51-44.21,56.59-61.84A779.75,779.75,0,0,0,449,606c29.63-39.66,47.69-101.13,80.47-135.62,32.69-34.31,96.28-47.92,137-73.11,48.15-29.77,92.43-66.56,124.85-113.45,48.17-69.67,72-161.71,144.52-205.17,76.55-45.89,181.88-14.52,241.13,52.12s80.54,159.16,85.36,248.2A840.19,840.19,0,0,1,1243,609.19c-16.73,73.94-42.48,155.77-5,221.76,34.2,60.33,114.79,84,181.53,65.23S1538.83,823.9,1572,763.07s49.6-129.18,65.6-196.6"/><path class="cls-1" d="M56.41,1506.74c28.32,49.19,72.24,94.52,129.95,106.87,28.59,6,62.16-1.47,78.48-25.76,7.49-11.2,10.65-24.68,12.06-38.07,6.11-60.66-22.53-120-60.41-167.76s-84.92-87.42-124.62-133.69c-12.87-15-25.22-31.28-30.31-50.36-6.16-23.26-.79-47.79,2.77-71.69C85.36,985.88,42.81,844.5.72,708.89"/><path class="cls-1" d="M289.46,1313.55c7.17-52.18-3.13-104.88-13.28-156.58S256,1052.49,264,1000.41s37.51-103.9,86-124.23c40.76-17.05,87.7-9.59,129.58,4.7s81.5,35.19,124.58,45c60.62,13.89,123.8,5.15,185.36-3.53"/><path class="cls-1" d="M1461.13,2561.56c-46.1-72.93-26.38-166.89-21.34-253,9.59-163.06-42.31-329.16-143-457.81-25.81-32.95-55.59-64.15-93.17-82.5-91.8-44.81-212.59-5.3-296.07-64.14-47-33.14-70.33-90-109.31-132.28-43.18-46.74-106.46-74.24-170-74-93.81.37-190,57.28-276.83,21.76C269.25,1486,238,1384.1,242,1295.52s32.59-175.8,26.37-264.33c-3.54-49.24-17.78-97.68-16.71-147.08S274,780.82,319.54,761.63c58.28-24.54,126,17.41,187.38,2.29C539.3,755.9,565.74,733,596,719c100.81-46.65,234.17,8.31,323.42-58"/><path class="cls-1" d="M255.1,1564.74c32.15-36.29,27.77-94,3.77-136.17s-63.41-72.68-100.35-104-73.84-66.42-89.39-112.39c-29-86,24.62-177.63,22.7-268.3-1.34-67.75-33.94-134.13-23.18-201"/><path class="cls-1" d="M1533.88,2256.24q-111.19-203-222.21-405.86c-8.9-16.34-18.25-33.14-32.94-44.51-13.59-10.45-30.62-15.47-47.46-18.7-58.4-11.25-118.67-4.15-178.12-6.11s-122.73-15.1-164.25-57.7c-35.31-36.15-49.44-88-80.74-127.72-45.53-57.71-121.48-82.62-194.51-91.86s-147.62-5.85-219.52-21.5c-45.63-9.94-93.4-30.84-114.14-72.76-13-26.32-13.3-56.88-13.29-86.26,0-119.08-.1-238.16,3.65-357.15,2.33-74.07,7.06-151.62,45.21-215.16C350.1,693.41,409.37,652,435.05,590c13.36-32.41,17.68-70.38,42.55-95,20.89-20.75,51.49-27.11,79.14-37.28C692.38,407.6,762,262.08,856.64,152.8c47.67-55,121.65-105.87,188.71-77.4,27.3,11.69,48.08,35.09,63.18,60.69,54.83,93.25,40.12,212.23,80.34,312.59,21.09,52.62,57.39,100.6,62.48,157,7.83,86.32-58.47,179-15.23,254.15,26.16,45.57,84.33,63.25,136.92,61.71,136.74-4,249.3-105.24,342.42-205.48"/><path class="cls-1" d="M164.89,1640.16c119,35.42,253.68,14,355.87-56.72,27.43-19,53.74-41.86,86.12-49.88,47.41-11.85,97.4,11.47,133.54,44.33s62.42,75,94.32,112A477.64,477.64,0,0,0,999.09,1813c113.22,51.35,253.51,63.17,331.15,160.32,29.92,37.38,46.58,83.59,57.92,130a701,701,0,0,1,15.43,246.81c-10.84,93.43-40.37,184.13-47.64,277.87-5.43,68.59,1.25,138-9.67,205.87-7.34,45.65-28.7,96-73.09,108.76-24.13,6.95-50.07.83-73.87-7.42-50.35-17.51-72.59-54-113.92-80.67-45.61-29.49-94.22-40.65-135.43-80.82-31.58-30.79-56.87-67.31-82-103.5q-28.75-41.62-57.55-83.16"/><path class="cls-1" d="M1631.94,2266.47c-191.52-128.39-258.82-401.19-466.33-501.61-106.64-51.61-237.3-49.31-333.08-119.16-36.95-26.84-66.44-63.09-104.08-88.82-129.55-88.35-323-34.49-445.28-132.79-41.68-33.52-69.45-81-93.69-128.67-28.05-55.27-52.79-113-64.88-173.85C108.47,1040.24,115,957.09,108.71,875c-5.5-71.87-26.93-141.63-43.86-210.7"/><path class="cls-1" d="M1625.31,2470.44a1018.38,1018.38,0,0,1-248.64-353c-36.76-87-65-184.41-139.16-242.88-64.21-50.6-150.17-61.46-225.95-92.28a447.06,447.06,0,0,1-175.64-128.71c-26.68-32.16-49.1-68.52-80.8-95.87-67.53-58.23-163.41-65.73-251.19-81.51s-184.86-52.29-216.64-135.64c-10.62-27.88-12.6-58.2-14.41-88q-8.69-140.42-17.33-280.71c-3-49-5.7-100,13.93-144.94,13.09-30,35.24-55,51.2-83.56,37.37-66.78,40.89-152.54,94.07-207.48,34.55-35.71,84-51.67,130.77-68.5,126.11-45.52,253.73-113.42,318.1-231C892,184.65,909,122.4,957,88.06c48.94-34.9,123.6-27.06,164.1,17.48,17.21,19,28.19,42.8,38.05,66.54a1165.28,1165.28,0,0,1,85.05,546.28c-4.28,48.62-8.16,105.93,29.27,137.2,26.63,22.18,65,22.22,99.37,17.59,148.05-20,285.43-108.8,364.41-235.59"/></g></g></g></svg>